<?xml version="1.0" standalone="no"?><!DOCTYPE svg PUBLIC "-//W3C//DTD SVG 1.1//EN" "http://www.w3.org/Graphics/SVG/1.1/DTD/svg11.dtd"><svg class="icon" width="200px" height="200.00px" viewBox="0 0 1024 1024" version="1.1" xmlns="http://www.w3.org/2000/svg"><path fill="#ffffff" d="M234.666667 512H170.666667V298.666667H85.333333V213.333333h256v85.333334H256v119.253333l418.688-112.170667L649.941333 213.333333H512V128h169.728a42.666667 42.666667 0 0 1 42.154667 31.616l66.261333 247.296-82.432 22.058667-10.922667-40.789334L234.666667 512zM213.333333 896a170.666667 170.666667 0 1 1 0-341.333333 170.666667 170.666667 0 0 1 0 341.333333z m0-128a42.666667 42.666667 0 1 0 0-85.333333 42.666667 42.666667 0 0 0 0 85.333333z m554.666667 128a213.333333 213.333333 0 1 1 0-426.666667 213.333333 213.333333 0 0 1 0 426.666667z m0-170.666667a42.666667 42.666667 0 1 0 0-85.333333 42.666667 42.666667 0 0 0 0 85.333333z" /></svg>