<?xml version="1.0" standalone="no"?><!DOCTYPE svg PUBLIC "-//W3C//DTD SVG 1.1//EN" "http://www.w3.org/Graphics/SVG/1.1/DTD/svg11.dtd"><svg class="icon" width="200px" height="200.00px" viewBox="0 0 1024 1024" version="1.1" xmlns="http://www.w3.org/2000/svg"><path fill="#ffffff" d="M725.333333 853.333333H298.666667v42.666667a42.666667 42.666667 0 0 1-42.666667 42.666667H170.666667a42.666667 42.666667 0 0 1-42.666667-42.666667v-384H85.333333V341.333333h42.666667V213.333333a85.333333 85.333333 0 0 1 85.333333-85.333333h597.333334a85.333333 85.333333 0 0 1 85.333333 85.333333v128h42.666667v170.666667h-42.666667v384a42.666667 42.666667 0 0 1-42.666667 42.666667h-85.333333a42.666667 42.666667 0 0 1-42.666667-42.666667v-42.666667zM213.333333 213.333333v298.666667h597.333334V213.333333H213.333333z m106.666667 554.666667a64 64 0 1 0 0-128 64 64 0 0 0 0 128z m384 0a64 64 0 1 0 0-128 64 64 0 0 0 0 128z" /></svg>