<?xml version="1.0" standalone="no"?><!DOCTYPE svg PUBLIC "-//W3C//DTD SVG 1.1//EN" "http://www.w3.org/Graphics/SVG/1.1/DTD/svg11.dtd"><svg class="icon" width="200px" height="200.00px" viewBox="0 0 1024 1024" version="1.1" xmlns="http://www.w3.org/2000/svg"><path fill="#ffffff" d="M810.666667 853.333333H213.333333v42.666667a42.666667 42.666667 0 0 1-42.666666 42.666667H128a42.666667 42.666667 0 0 1-42.666667-42.666667v-384l107.221334-285.952A85.333333 85.333333 0 0 1 272.469333 170.666667h479.061334a85.333333 85.333333 0 0 1 79.914666 55.381333L938.666667 512v384a42.666667 42.666667 0 0 1-42.666667 42.666667h-42.666667a42.666667 42.666667 0 0 1-42.666666-42.666667v-42.666667zM176.469333 512h671.061334l-96-256H272.469333l-96 256zM277.333333 725.333333a64 64 0 1 0 0-128 64 64 0 0 0 0 128z m469.333334 0a64 64 0 1 0 0-128 64 64 0 0 0 0 128z" /></svg>