<?xml version="1.0" standalone="no"?><!DOCTYPE svg PUBLIC "-//W3C//DTD SVG 1.1//EN" "http://www.w3.org/Graphics/SVG/1.1/DTD/svg11.dtd"><svg class="icon" width="200px" height="200.00px" viewBox="0 0 1024 1024" version="1.1" xmlns="http://www.w3.org/2000/svg"><path fill="#ffffff" d="M384 426.666667a42.666667 42.666667 0 0 0-42.666667 42.666666v170.666667h85.333334v-128h128v106.666667l149.333333-149.333334L554.666667 320V426.666667H384z m158.165333-367.232l422.4 422.4a42.666667 42.666667 0 0 1 0 60.330666l-422.4 422.4a42.666667 42.666667 0 0 1-60.330666 0l-422.4-422.4a42.666667 42.666667 0 0 1 0-60.330666l422.4-422.4a42.666667 42.666667 0 0 1 60.330666 0z" /></svg>