<?xml version="1.0" standalone="no"?><!DOCTYPE svg PUBLIC "-//W3C//DTD SVG 1.1//EN" "http://www.w3.org/Graphics/SVG/1.1/DTD/svg11.dtd"><svg class="icon" width="200px" height="200.00px" viewBox="0 0 1024 1024" version="1.1" xmlns="http://www.w3.org/2000/svg"><path fill="#ffffff" d="M554.666667 341.333333v341.333334a128 128 0 0 1-128 128H334.08a128.042667 128.042667 0 1 1 0-85.333334H426.666667a42.666667 42.666667 0 0 0 42.666666-42.666666V341.333333a128 128 0 0 1 128-128h128V85.333333l213.333334 170.666667-213.333334 170.666667V298.666667h-128a42.666667 42.666667 0 0 0-42.666666 42.666666zM213.333333 810.666667a42.666667 42.666667 0 1 0 0-85.333334 42.666667 42.666667 0 0 0 0 85.333334z" /></svg>