<?xml version="1.0" standalone="no"?><!DOCTYPE svg PUBLIC "-//W3C//DTD SVG 1.1//EN" "http://www.w3.org/Graphics/SVG/1.1/DTD/svg11.dtd"><svg class="icon" width="200px" height="200.00px" viewBox="0 0 1024 1024" version="1.1" xmlns="http://www.w3.org/2000/svg"><path fill="#ffffff" d="M640 128a42.666667 42.666667 0 0 1 42.666667 42.666667v85.333333h170.666666a42.666667 42.666667 0 0 1 42.666667 42.666667v512h85.333333v85.333333H42.666667v-85.333333h85.333333V298.666667a42.666667 42.666667 0 0 1 42.666667-42.666667h170.666666V170.666667a42.666667 42.666667 0 0 1 42.666667-42.666667h256zM341.333333 341.333333H213.333333v469.333334h128V341.333333z m256 0h-170.666666v469.333334h170.666666V341.333333z m213.333334 0h-128v469.333334h128V341.333333z m-213.333334-128h-170.666666v42.666667h170.666666V213.333333z" /></svg>