<?xml version="1.0" standalone="no"?><!DOCTYPE svg PUBLIC "-//W3C//DTD SVG 1.1//EN" "http://www.w3.org/Graphics/SVG/1.1/DTD/svg11.dtd"><svg class="icon" width="200px" height="200.00px" viewBox="0 0 1024 1024" version="1.1" xmlns="http://www.w3.org/2000/svg"><path fill="#ffffff" d="M728.917333 674.645333a298.666667 298.666667 0 1 0-433.834666 0A255.829333 255.829333 0 0 1 512 554.666667a255.829333 255.829333 0 0 1 216.917333 119.978666z m-371.157333 62.848L512 891.690667l154.24-154.197334a170.666667 170.666667 0 0 0-308.48 0zM512 1012.394667l-271.530667-271.530667a384 384 0 1 1 543.061334 0L512 1012.394667zM512 426.666667a42.666667 42.666667 0 1 0 0-85.333334 42.666667 42.666667 0 0 0 0 85.333334z m0 85.333333a128 128 0 1 1 0-256 128 128 0 0 1 0 256z" /></svg>