<?xml version="1.0" standalone="no"?><!DOCTYPE svg PUBLIC "-//W3C//DTD SVG 1.1//EN" "http://www.w3.org/Graphics/SVG/1.1/DTD/svg11.dtd"><svg class="icon" width="200px" height="200.00px" viewBox="0 0 1024 1024" version="1.1" xmlns="http://www.w3.org/2000/svg"><path fill="#ffffff" d="M938.666667 576V896a42.666667 42.666667 0 0 1-42.666667 42.666667h-42.666667a42.666667 42.666667 0 0 1-42.666666-42.666667v-42.666667H213.333333v42.666667a42.666667 42.666667 0 0 1-42.666666 42.666667H128a42.666667 42.666667 0 0 1-42.666667-42.666667v-320l-53.034666-13.226667A42.666667 42.666667 0 0 1 0 521.386667v-30.72a21.333333 21.333333 0 0 1 21.333333-21.333334h82.304L191.146667 265.045333A85.333333 85.333333 0 0 1 269.610667 213.333333H341.333333V128h128v85.333333h85.333334V128h128v85.333333h71.722666a85.333333 85.333333 0 0 1 78.421334 51.712L920.362667 469.333333H1002.666667a21.333333 21.333333 0 0 1 21.333333 21.333334v30.72a42.666667 42.666667 0 0 1-32.298667 41.386666L938.666667 576zM170.666667 640v85.333333a42.666667 42.666667 0 0 0 42.666666 42.666667h138.453334a21.333333 21.333333 0 0 0 18.773333-31.402667C336.213333 672.170667 269.568 640 170.666667 640z m682.666666 0c-98.858667 0-165.504 32.213333-199.936 96.597333a21.333333 21.333333 0 0 0 18.816 31.402667H810.666667a42.666667 42.666667 0 0 0 42.666666-42.666667v-85.333333zM256 298.666667l-61.909333 154.837333A42.666667 42.666667 0 0 0 233.685333 512h556.629334a42.666667 42.666667 0 0 0 39.594666-58.496L768 298.666667H256z" /></svg>