<?xml version="1.0" standalone="no"?><!DOCTYPE svg PUBLIC "-//W3C//DTD SVG 1.1//EN" "http://www.w3.org/Graphics/SVG/1.1/DTD/svg11.dtd"><svg class="icon" width="200px" height="200.00px" viewBox="0 0 1024 1024" version="1.1" xmlns="http://www.w3.org/2000/svg"><path fill="#ffffff" d="M608.768 518.229333l-36.437333 36.437334 301.696 301.696-60.330667 60.330666L512 615.04l-301.696 301.653333-60.330667-60.330666 398.464-398.464c-25.088-62.165333 0.853333-151.68 69.12-220.032 83.328-83.285333 198.144-103.552 256.469334-45.226667s38.058667 173.141333-45.226667 256.426667c-68.352 68.352-157.866667 94.293333-220.032 69.162666zM180.138667 162.474667l286.592 286.592-120.661334 120.704-165.973333-165.973334a170.666667 170.666667 0 0 1 0-241.322666zM768.426667 388.693333c53.674667-53.632 64.725333-116.309333 45.269333-135.765333-19.456-19.456-82.133333-8.405333-135.765333 45.226667-53.632 53.674667-64.682667 116.352-45.226667 135.808 19.413333 19.413333 82.090667 8.362667 135.722667-45.269334z" /></svg>