<?xml version="1.0" standalone="no"?><!DOCTYPE svg PUBLIC "-//W3C//DTD SVG 1.1//EN" "http://www.w3.org/Graphics/SVG/1.1/DTD/svg11.dtd"><svg class="icon" width="200px" height="200.00px" viewBox="0 0 1024 1024" version="1.1" xmlns="http://www.w3.org/2000/svg"><path fill="#ffffff" d="M122.88 770.304a1531.605333 1531.605333 0 0 1 363.989333-696.32 34.133333 34.133333 0 0 1 50.261334 0c7.082667 7.68 12.970667 14.165333 17.621333 19.413333a1531.605333 1531.605333 0 0 1 346.368 676.906667c-91.349333 19.242667-185.173333 31.872-280.917333 37.290667l-89.130667 178.261333a21.333333 21.333333 0 0 1-38.144 0l-89.130667-178.261333a1878.144 1878.144 0 0 1-280.917333-37.290667zM512 640a128 128 0 1 0 0-256 128 128 0 0 0 0 256z" /></svg>