<?xml version="1.0" standalone="no"?><!DOCTYPE svg PUBLIC "-//W3C//DTD SVG 1.1//EN" "http://www.w3.org/Graphics/SVG/1.1/DTD/svg11.dtd"><svg class="icon" width="200px" height="200.00px" viewBox="0 0 1024 1024" version="1.1" xmlns="http://www.w3.org/2000/svg"><path fill="#ffffff" d="M930.133333 597.376a427.050667 427.050667 0 0 1-358.4 337.152v-86.4A341.76 341.76 0 0 0 842.581333 597.333333l87.552 0.042667z m-748.714666 0a341.76 341.76 0 0 0 266.538666 249.941333v86.613334A427.093333 427.093333 0 0 1 93.866667 597.333333h87.552zM768 469.333333v85.333334h-128a85.333333 85.333333 0 0 0-85.12 78.933333L554.666667 640v128h-85.333334v-128a85.333333 85.333333 0 0 0-78.933333-85.12L384 554.666667H256v-85.333334h512z m-256-384c221.226667 0 403.157333 168.405333 424.533333 384h-85.845333a341.376 341.376 0 0 0-677.376 0H87.424C108.842667 253.738667 290.773333 85.333333 512 85.333333z" /></svg>