<?xml version="1.0" standalone="no"?><!DOCTYPE svg PUBLIC "-//W3C//DTD SVG 1.1//EN" "http://www.w3.org/Graphics/SVG/1.1/DTD/svg11.dtd"><svg class="icon" width="200px" height="200.00px" viewBox="0 0 1024 1024" version="1.1" xmlns="http://www.w3.org/2000/svg"><path fill="#ffffff" d="M533.248 128a278.101333 278.101333 0 0 0-13.824 170.666667H213.333333v170.666666h428.16a276.053333 276.053333 0 0 0 147.84 42.666667 276.48 276.48 0 0 0 106.666667-21.248V768a85.333333 85.333333 0 0 1-85.333333 85.333333h-76.8l76.8 64v21.333334H213.333333v-21.333334L290.133333 853.333333H213.333333a85.333333 85.333333 0 0 1-85.333333-85.333333V298.666667a170.666667 170.666667 0 0 1 170.666667-170.666667h234.581333zM512 597.333333a85.333333 85.333333 0 1 0 0 170.666667 85.333333 85.333333 0 0 0 0-170.666667z m277.333333-554.666666a192 192 0 1 1 0 384 192 192 0 0 1 0-384z m0 220.458666c-20.949333 0-40.106667 7.552-54.997333 20.053334l-5.333333 4.906666L789.333333 348.458667l60.288-60.416a85.077333 85.077333 0 0 0-60.288-24.917334z m0-113.792a198.4 198.4 0 0 0-133.461333 51.328l-7.381333 7.04 40.277333 40.192a141.781333 141.781333 0 0 1 100.565333-41.685333 141.653333 141.653333 0 0 1 93.909334 35.413333l6.656 6.272 40.234666-40.234666A198.485333 198.485333 0 0 0 789.333333 149.333333z" /></svg>