<svg xmlns="http://www.w3.org/2000/svg" xmlns:xlink="http://www.w3.org/1999/xlink" fill="none"
  version="1.1" viewBox="0 0 24 24">
  <defs>
    <clipPath id="master_svg0_209_33792/209_24224/209_24859">
      <rect x="0" y="0" width="24" height="24" rx="0" />
    </clipPath>
  </defs>
  <g clip-path="url(#master_svg0_209_33792/209_24224/209_24859)">
    <g>
      <path class="fill"
        d="M4,19L20,19L20,12L22,12L22,20C22,20.552299,21.552299,21,21,21L3,21C2.44772005,21,2,20.552299,2,20L2,12L4,12L4,19ZM14,9L16.585786,9C17.476689999999998,9,17.922857999999998,10.0771422,17.292893,10.7071071L12.707107,15.292893C12.316583,15.683417,11.6834173,15.683417,11.2928934,15.292893L6.7071066,10.7071066C6.0771422,10.0771422,6.5233092,9,7.4142141,9L10,9L10,4.0000001C10,3.44771528,10.4477148,3,11,3L13,3C13.552285,3,14,3.44771528,14,4.0000001L14,9Z"
        fill="#7E8C88" fill-opacity="1" style="mix-blend-mode:passthrough" />
    </g>
  </g>
</svg>