<svg xmlns="http://www.w3.org/2000/svg" xmlns:xlink="http://www.w3.org/1999/xlink" fill="none"
  version="1.1" viewBox="0 0 24 24">
  <defs>
    <clipPath id="master_svg0_209_33792/218_43828/209_016082">
      <rect x="0" y="0" width="24" height="24" rx="0" />
    </clipPath>
  </defs>
  <g clip-path="url(#master_svg0_209_33792/218_43828/209_016082)">
    <g>
      <path class="fill"
        d="M5,22L19,22Q21,22,21,20.100002L21,3.89999998Q21,2,19,2L5,1.9999999Q3,2,3,3.89999998L3,20.100002Q3,22,5,22ZM19,4L19,20L5,20L5,3.99999994L19,4Z"
        fill-rule="evenodd" fill="#7E8C88" fill-opacity="1" style="mix-blend-mode:passthrough" />
    </g>
    <g>
      <path class="fill"
        d="M13.5,9.709982400000001L11.74449861,11.6676235Q11.61169994,11.8157139,11.43233836,11.9017105Q11.25297675,11.987709,11.054358479,11.9985209Q10.85574023,12.0093336,10.6681031,11.9433155Q10.48046601,11.8772964,10.332376,11.7444983Q10.25393552,11.6741571,10.19187695,11.5890131Q10.12981832,11.5038691,10.08686703,11.4076614Q10.04391575,11.3114529,10.02195787,11.2084064Q10.00000012,11.10536,10.00000006,11L10,3Q10.00000006,2.9015086,10.01921481,2.80490969Q10.03842956,2.70831078,10.07612062,2.6173166Q10.113811609999999,2.52632242,10.16853046,2.44442987Q10.22324938,2.36253726,10.29289329,2.29289329Q10.36253726,2.22324938,10.44442981,2.16853052Q10.52632242,2.11381161,10.6173166,2.07612056Q10.70831078,2.0384295,10.80490969,2.0192148100000002Q10.9015086,2.00000006,11,2L16,2Q16.098491199999998,2.00000006,16.195089799999998,2.0192148100000002Q16.2916889,2.03842956,16.3826828,2.07612062Q16.4736772,2.11381161,16.5555696,2.16853046Q16.6374626,2.22324938,16.7071066,2.29289329Q16.7767506,2.36253726,16.8314691,2.44442981Q16.8861876,2.52632242,16.9238791,2.6173166Q16.9615698,2.70831078,16.9807849,2.80490969Q17,2.9015086,17,3L17,11Q17,11.0984917,16.9807849,11.1950903Q16.9615698,11.2916889,16.9238791,11.3826828Q16.8861876,11.4736767,16.8314691,11.5555706Q16.7767506,11.6374626,16.7071066,11.7071066Q16.6374626,11.7767506,16.5555701,11.8314686Q16.4736772,11.8861876,16.3826828,11.9238787Q16.2916889,11.9615698,16.1950903,11.9807854Q16.098491199999998,12,16,12Q15.894639999999999,12,15.7915931,11.9780426Q15.688546200000001,11.9560843,15.5923381,11.9131327Q15.49613,11.8701811,15.4109859,11.8081226Q15.3258419,11.7460632,15.255501299999999,11.6676235L13.5,9.709982400000001ZM12.832376,7.4676347Q12.7918462,7.5039797,12.7555013,7.5445099L12,8.3870049L12,4L15,4L15,8.3870049L14.2444987,7.5445099Q14.1787434,7.4711828,14.099946,7.4120932Q14.0211487,7.3530035,13.932338,7.3104215Q13.8435273,7.2678399,13.7481155,7.2434025Q13.652704,7.2189655,13.5543582,7.2136116Q13.4560122,7.2082577,13.3585119,7.2221928Q13.261011100000001,7.2361283,13.1681027,7.2688174Q13.0751944,7.3015065,12.9904485,7.3516932Q12.9057026,7.4018793,12.832376,7.4676347Z"
        fill-rule="evenodd" fill="#7E8C88" fill-opacity="1" style="mix-blend-mode:passthrough" />
    </g>
  </g>
</svg>