<svg xmlns="http://www.w3.org/2000/svg" xmlns:xlink="http://www.w3.org/1999/xlink" fill="none"
  version="1.1" viewBox="0 0 24 24">
  <defs>
    <clipPath id="master_svg0_209_33792/209_24188/218_43370">
      <rect x="0" y="0" width="24" height="24" rx="0" />
    </clipPath>
  </defs>
  <g clip-path="url(#master_svg0_209_33792/209_24188/218_43370)">
    <g>
      <g>
        <path class="fill"
          d="M10.977131400000001,2.37049109L3.52982634,8.585263300000001C3.1929487,8.8663449,2.999975510264,9.2707896,3.0000001749267,9.6957059L3.0000001749267,19.519415C3.00000034985339,20.337122,3.70077211,21,4.5652177,21L19.434784,21C20.299231,21,21,20.337122,21,19.519415L21,9.6945953C20.99996,9.2706156,20.80777,8.8669963,20.472132,8.5860038L13.04987,2.3719717C12.4584265,1.8767157,11.5695629,1.87592194,10.977131400000001,2.37012088L10.977131400000001,2.37049109ZM4.5652177,9.6957059L12.0125217,3.4801927L19.434784,9.6945953L19.434784,19.519415L4.5652177,19.519415L4.5652177,9.6957059Z"
          fill="#41B997" fill-opacity="1" style="mix-blend-mode:passthrough" />
        <path class="fill"
          d="M10.7271318,2.25350219L10.7271318,2.25310397L10.8169889,2.1781463Q11.3309689,1.74939081,12.0140944,1.75000077Q12.6972332,1.75061072,13.210355,2.18028283L20.632614,8.3943129Q21.249926,8.9111195,21.25,9.6945953L21.25,19.519415Q21.25,20.240341,20.71336,20.747967Q20.182629,21.25,19.434784,21.25L4.5652174,21.25Q3.81737441,21.25,3.28664359,20.747967Q2.7500003299999998,20.240341,2.75000018,19.519415L2.75000024,9.695720699999999Q2.74995458,8.9103746,3.36964816,8.3933182L10.7271318,2.25350219ZM11.1594486,2.54396141L3.69000453,8.777209299999999Q3.24996826,9.1443629,3.25000024,9.6956916L3.25000018,19.519415Q3.2500003,20.025049,3.6302401399999997,20.384729Q4.0163913,20.75,4.5652174,20.75L19.434784,20.75Q19.983612,20.75,20.369762,20.384729Q20.75,20.025051,20.75,19.519415L20.75,9.6945953Q20.749947,9.1446323,20.311651,8.7776947L12.8893852,2.5636605599999998Q12.5153418,2.25044852,12.013648,2.2500006Q11.5267143,2.2495658,11.1594486,2.54396141ZM4.3152177,9.5787258L4.3152177,19.769415L19.684784,19.769415L19.684784,9.5778542L12.0127773,3.1543495999999998L4.3152177,9.5787258ZM4.8152177,19.269415L19.184784,19.269415L19.184784,9.811336L12.0122662,3.8060358L4.8152177,9.812686L4.8152177,19.269415Z"
          fill-rule="evenodd" fill="#41B997" fill-opacity="1" />
      </g>
      <g>
        <path class="fill"
          d="M13.125000476837158,12.20370442L13.125000476837158,16.7777791L10.875000476837158,16.7777791L10.875000476837158,12.20370442C10.875000476837158,11.81505957,11.378680166837158,11.5,12.000001576837159,11.5C12.621322076837158,11.5,13.125000476837158,11.81505957,13.125000476837158,12.20370442Z"
          fill="#00B386" fill-opacity="1" style="mix-blend-mode:passthrough" />
      </g>
    </g>
  </g>
</svg>