<svg xmlns="http://www.w3.org/2000/svg" xmlns:xlink="http://www.w3.org/1999/xlink" fill="none"
  version="1.1" viewBox="0 0 24 24">
  <defs>
    <clipPath id="master_svg0_209_33788/170_20522">
      <rect x="0" y="0" width="24" height="24" rx="0" />
    </clipPath>
  </defs>
  <g clip-path="url(#master_svg0_209_33788/170_20522)">
    <g>
      <rect class="fill" x="0" y="0" width="24" height="24" rx="0" fill="#FFFFFF"
        fill-opacity="0.009999999776482582" style="mix-blend-mode:passthrough" />
    </g>
    <g>
      <path class="fill"
        d="M4.50000006,20.5L4.50000006,3.5Q4.50000012,3.401508607,4.51921487,3.30490971Q4.5384296200000005,3.20831081,4.57612062,3.11731663Q4.61381161,3.02632242,4.66853058,2.94442987Q4.72324944,2.86253726,4.79289329,2.79289329Q4.86253726,2.72324944,4.94442981,2.66853052Q5.02632242,2.61381161,5.11731663,2.57612062Q5.20831081,2.53842962,5.3049097100000004,2.51921487Q5.401508607,2.50000012,5.5,2.50000006L18.499999000000003,2.50000006Q18.598489999999998,2.50000012,18.695088,2.51921487Q18.791687,2.53842962,18.882680999999998,2.57612062Q18.973675,2.61381161,19.055568,2.66853058Q19.137461000000002,2.72324944,19.207106,2.79289329Q19.276749000000002,2.86253726,19.331469,2.94442981Q19.386187,3.02632242,19.423878000000002,3.11731663Q19.461569,3.20831081,19.480784,3.30490971Q19.499999000000003,3.401508607,19.5,3.5L19.5,20.5Q19.499999000000003,20.59849,19.480783000000002,20.695087Q19.461569,20.791687,19.423878000000002,20.882681Q19.386187,20.973675,19.331469,21.055569Q19.276749000000002,21.137461,19.207106,21.207106Q19.137461000000002,21.276749,19.055568,21.331469Q18.973675,21.386189,18.882680999999998,21.423878Q18.791687,21.461571,18.695088,21.480785Q18.598489999999998,21.5,18.499999000000003,21.5L5.5,21.5Q5.401508607,21.5,5.3049097100000004,21.480785Q5.20831081,21.461571,5.11731663,21.423878Q5.02632242,21.386189,4.9444298700000004,21.331469Q4.86253726,21.276749,4.79289329,21.207106Q4.72324944,21.137461,4.66853052,21.055567Q4.61381161,20.973675,4.57612062,20.882681Q4.5384296200000005,20.791687,4.51921487,20.695087Q4.50000012,20.59849,4.50000006,20.5ZM6.49999994,4.49999994L6.49999994,19.499999000000003L17.499999000000003,19.499999000000003L17.499999000000003,4.49999994L6.49999994,4.49999994Z"
        fill="#333333" fill-opacity="1" style="mix-blend-mode:passthrough" />
    </g>
    <g>
      <path class="fill"
        d="M1,18.499999000000003L1,5.5Q1.00000006,5.4015086,1.01921481,5.30490969Q1.03842956,5.20831078,1.07612062,5.1173166Q1.11381161,5.02632242,1.16853046,4.9444298700000004Q1.22324938,4.86253726,1.2928932899999999,4.79289329Q1.3625372599999999,4.72324938,1.44442981,4.66853052Q1.52632242,4.61381161,1.6173166,4.57612056Q1.70831078,4.5384295,1.8049096900000001,4.51921481Q1.9015086,4.50000006,2,4.5L5.499999799999999,4.5Q5.5984907,4.50000006,5.6950898,4.51921481Q5.7916884,4.53842956,5.8826827999999995,4.57612062Q5.9736772,4.61381161,6.0555696,4.66853046Q6.1374621,4.72324938,6.2071061,4.79289329Q6.2767496,4.86253726,6.3314686,4.94442981Q6.3861876,5.02632242,6.4238787,5.1173166Q6.4615698,5.20831078,6.4807844,5.30490969Q6.499999,5.4015086,6.4999995,5.5L6.4999995,18.499999000000003Q6.499999,18.598489999999998,6.4807844,18.695088Q6.4615698,18.791687,6.4238787,18.882680999999998Q6.3861876,18.973675,6.3314686,19.055568Q6.2767496,19.137461000000002,6.2071061,19.207106Q6.1374621,19.276749000000002,6.0555696,19.331467Q5.9736772,19.386187,5.8826827999999995,19.423878000000002Q5.7916884,19.461569,5.6950898,19.480784Q5.5984907,19.499997999999998,5.499999799999999,19.499999000000003L2,19.499999000000003Q1.9015086,19.499997999999998,1.8049096900000001,19.480783000000002Q1.70831078,19.461569,1.6173166,19.423878000000002Q1.52632242,19.386187,1.44442987,19.331468Q1.3625372599999999,19.276749000000002,1.2928932899999999,19.207106Q1.22324938,19.137461000000002,1.16853052,19.055568Q1.11381161,18.973675,1.0761205600000001,18.882680999999998Q1.0384295,18.791687,1.01921481,18.695088Q1.00000006,18.598489999999998,1,18.499999000000003ZM3,6.5L3,17.499999000000003L4.5,17.499999000000003L4.5,6.5L3,6.5Z"
        fill="#333333" fill-opacity="1" style="mix-blend-mode:passthrough" />
    </g>
    <g>
      <path class="fill"
        d="M17.5,18.499999000000003L17.5,5.5Q17.50000006,5.4015086,17.51921481,5.30490969Q17.53842956,5.20831078,17.57612062,5.1173166Q17.61381161,5.02632242,17.66853046,4.9444298700000004Q17.72324938,4.86253726,17.79289329,4.79289329Q17.86253726,4.72324938,17.94442981,4.66853052Q18.02632242,4.61381161,18.1173166,4.57612056Q18.20831078,4.5384295,18.30490969,4.51921481Q18.4015086,4.50000006,18.5,4.5L21.9999998,4.5Q22.0984907,4.50000006,22.195089799999998,4.51921481Q22.291688399999998,4.53842956,22.3826828,4.57612062Q22.4736772,4.61381161,22.5555696,4.66853046Q22.6374621,4.72324938,22.7071061,4.79289329Q22.7767496,4.86253726,22.8314686,4.94442981Q22.8861876,5.02632242,22.9238787,5.1173166Q22.9615698,5.20831078,22.9807844,5.30490969Q22.999999,5.4015086,22.9999995,5.5L22.9999995,18.499999000000003Q22.999999,18.598489999999998,22.9807844,18.695088Q22.9615698,18.791687,22.9238787,18.882680999999998Q22.8861876,18.973675,22.8314686,19.055568Q22.7767496,19.137461000000002,22.7071061,19.207106Q22.6374621,19.276749000000002,22.5555696,19.331467Q22.4736772,19.386187,22.3826828,19.423878000000002Q22.291688399999998,19.461569,22.195089799999998,19.480784Q22.0984907,19.499997999999998,21.9999998,19.499999000000003L18.5,19.499999000000003Q18.4015086,19.499997999999998,18.30490969,19.480783000000002Q18.20831078,19.461569,18.1173166,19.423878000000002Q18.02632242,19.386187,17.94442987,19.331468Q17.86253726,19.276749000000002,17.79289329,19.207106Q17.72324938,19.137461000000002,17.66853052,19.055568Q17.61381161,18.973675,17.57612056,18.882680999999998Q17.5384295,18.791687,17.51921481,18.695088Q17.50000006,18.598489999999998,17.5,18.499999000000003ZM19.5,6.5L19.5,17.499999000000003L21,17.499999000000003L21,6.5L19.5,6.5Z"
        fill="#333333" fill-opacity="1" style="mix-blend-mode:passthrough" />
    </g>
    <g>
      <path class="fill"
        d="M10,10L10,14Q10,14.3027759,10.16794968,14.5547004Q10.222582880000001,14.6366501,10.29215395,14.706367Q10.36172503,14.7760835,10.44356036,14.8308878Q10.52539569,14.8856921,10.61635041,14.9234781Q10.70730513,14.9612646,10.80388388,14.9805803Q10.90046265,14.999896,10.9989539981,14.999998999999999Q11.097445339,15.000102,11.1940643,14.980988499999999Q11.29068327,14.961875,11.38171685,14.9242792Q11.47275043,14.8866835,11.55470026,14.832050299999999L14.5547001,12.8320503Q14.7211101,12.7211103,14.8320503,12.5547004Q14.9423871,12.3891954,14.980989000000001,12.1940644Q15.0195904,11.9989337,14.9805806,11.803884Q14.941570800000001,11.6088344,14.830888,11.443560399999999Q14.7202053,11.2782865,14.5547001,11.1679498L11.55470026,9.16794968Q11.30277568,9,11,9Q10.9015086,9.00000006,10.80490969,9.01921481Q10.70831078,9.03842956,10.6173166,9.07612062Q10.52632242,9.113811609999999,10.44442987,9.16853046Q10.36253726,9.22324938,10.29289329,9.29289329Q10.22324938,9.36253726,10.168530520000001,9.44442981Q10.113811609999999,9.52632242,10.07612056,9.6173166Q10.0384295,9.70831078,10.01921481,9.80490969Q10.00000006,9.9015086,10,10ZM12,12.1314831L12.1972245,12L12,11.8685172L12,12.1314831Z"
        fill-rule="evenodd" fill="#333333" fill-opacity="1" style="mix-blend-mode:passthrough" />
    </g>
  </g>
</svg>