<svg xmlns="http://www.w3.org/2000/svg" xmlns:xlink="http://www.w3.org/1999/xlink" fill="none"
  version="1.1" viewBox="0 0 24 24">
  <defs>
    <clipPath id="master_svg0_209_33788/170_20521">
      <rect x="0" y="0" width="24" height="24" rx="0" />
    </clipPath>
  </defs>
  <g clip-path="url(#master_svg0_209_33788/170_20521)">
    <g>
      <rect class="fill" x="0" y="0" width="24" height="24" rx="0" fill="#FFFFFF"
        fill-opacity="0.009999999776482582" style="mix-blend-mode:passthrough" />
    </g>
    <g>
      <path class="fill"
        d="M5.5,22L5.5,5Q5.50000006,4.9015086,5.51921481,4.80490969Q5.53842956,4.70831078,5.57612062,4.6173166Q5.61381161,4.52632242,5.66853046,4.4444298700000004Q5.72324938,4.36253726,5.79289329,4.29289329Q5.86253726,4.22324938,5.94442981,4.16853052Q6.02632242,4.11381161,6.1173166,4.07612056Q6.20831078,4.0384295,6.30490969,4.01921481Q6.4015086,4.00000006,6.5,4L20.499997999999998,4Q20.598489,4.00000006,20.695087,4.01921481Q20.791686,4.03842956,20.88268,4.07612062Q20.973675,4.11381161,21.055567,4.16853046Q21.137461000000002,4.22324938,21.207105,4.29289329Q21.276747999999998,4.36253726,21.331466,4.44442981Q21.386184999999998,4.52632242,21.423876,4.6173166Q21.461567000000002,4.70831078,21.480781999999998,4.80490969Q21.499997,4.9015086,21.499997999999998,5L21.499997999999998,22Q21.499997,22.09849,21.480783000000002,22.195087Q21.461567000000002,22.291687,21.423876,22.382681Q21.386184999999998,22.473675,21.331466,22.555569Q21.276747,22.637461,21.207104,22.707106Q21.137459,22.776749,21.055567,22.831467Q20.973675,22.886185,20.882680999999998,22.923876Q20.791687,22.961567,20.695087,22.980782Q20.598489,22.999996,20.499997999999998,22.999998L6.5,22.999998Q6.4015086,22.999996,6.30490969,22.980782Q6.20831078,22.961567,6.1173166,22.923876Q6.02632242,22.886185,5.9444298700000004,22.831467Q5.86253726,22.776749,5.79289329,22.707106Q5.72324938,22.637461,5.66853052,22.555567Q5.61381161,22.473675,5.57612056,22.382681Q5.5384295,22.291687,5.51921481,22.195087Q5.50000006,22.09849,5.5,22ZM7.5,6L7.5,21L19.499999000000003,21L19.499999000000003,6L7.5,6Z"
        fill="#333333" fill-opacity="1" style="mix-blend-mode:passthrough" />
    </g>
    <g>
      <path class="fill"
        d="M3.5,19.999998L6.5,19.999998Q6.5984912,19.999996,6.6950901,19.980782Q6.7916889000000005,19.961567,6.8826833,19.923878Q6.9736774,19.886187,7.055570100000001,19.831469Q7.1374626,19.776749,7.2071065999999995,19.707106Q7.2767506,19.637461,7.3314693,19.555567Q7.386188000000001,19.473675,7.423879100000001,19.382681Q7.4615703,19.291687,7.4807849,19.195087Q7.499999799999999,19.09849,7.5,19Q7.499999799999999,18.901508,7.4807849,18.804909Q7.4615703,18.708309,7.423879100000001,18.617315Q7.386188000000001,18.526321,7.3314693,18.444429Q7.2767506,18.362537,7.2071065999999995,18.292892Q7.1374626,18.223249,7.0555699,18.16853Q6.9736774,18.11381,6.8826833,18.076118Q6.7916889000000005,18.038429,6.6950901,18.019215Q6.5984912,18,6.5,18L4.5,18L4.5,3L16.499999000000003,3L16.499999000000003,5Q16.499997999999998,5.0984912,16.519213,5.1950901Q16.538427,5.2916889000000005,16.576118,5.3826833Q16.61381,5.4736774,16.668529,5.555570100000001Q16.723247999999998,5.6374626,16.792892000000002,5.7071065999999995Q16.862535,5.7767506,16.944429,5.8314693Q17.026321,5.886188000000001,17.117314999999998,5.923879100000001Q17.208309,5.9615703,17.304909000000002,5.9807849Q17.401508,5.999999799999999,17.5,6Q17.598491,5.999999799999999,17.695089,5.9807849Q17.791688999999998,5.9615703,17.882683,5.923879100000001Q17.973677000000002,5.886188000000001,18.055569,5.8314693Q18.137461000000002,5.7767506,18.207106,5.7071065999999995Q18.276749000000002,5.6374626,18.331467,5.5555699Q18.386187,5.4736774,18.423878000000002,5.3826833Q18.461569,5.2916889000000005,18.480783000000002,5.1950901Q18.499999000000003,5.0984912,18.5,5L18.499997999999998,4.9980469L18.499997999999998,2Q18.499997,1.9015086,18.480783000000002,1.8049096900000001Q18.461567000000002,1.70831078,18.423876,1.6173166Q18.386184999999998,1.52632242,18.331466,1.44442987Q18.276747,1.3625372599999999,18.207104,1.2928932899999999Q18.137459,1.22324938,18.055567,1.16853052Q17.973675,1.11381161,17.882680999999998,1.0761205600000001Q17.791687,1.0384295,17.695088,1.01921481Q17.598489999999998,1.00000006,17.499999000000003,1L3.99999988,1Q3.37868136,1.0000001200000002,2.9393407099999997,1.43934071Q2.5,1.87868147,2.5,2.5L2.5,19Q2.50000006,19.09849,2.5192148100000002,19.195087Q2.53842956,19.291687,2.57612062,19.382681Q2.61381161,19.473675,2.66853046,19.555569Q2.72324938,19.637461,2.79289329,19.707106Q2.86253726,19.776749,2.94442981,19.831467Q3.02632242,19.886185,3.1173166,19.923876Q3.20831078,19.961567,3.30490969,19.980782Q3.4015086,19.999996,3.5,19.999998Z"
        fill-rule="evenodd" fill="#333333" fill-opacity="1" style="mix-blend-mode:passthrough" />
    </g>
    <g>
      <path class="fill"
        d="M10.5,10L16.5,10Q16.5984907,10.00000006,16.6950893,10.01921481Q16.791688399999998,10.03842956,16.8826828,10.07612062Q16.9736767,10.113811609999999,17.0555696,10.16853046Q17.1374621,10.22324938,17.2071061,10.29289329Q17.2767501,10.36253726,17.3314686,10.44442981Q17.3861876,10.52632242,17.4238787,10.6173166Q17.4615698,10.70831078,17.4807849,10.80490969Q17.4999995,10.9015086,17.5,11Q17.4999995,11.0984914,17.4807844,11.19509031Q17.4615698,11.29168922,17.4238787,11.3826834Q17.3861876,11.47367758,17.3314691,11.55557013Q17.2767506,11.63746274,17.2071066,11.70710671Q17.1374626,11.77675062,17.0555696,11.831469479999999Q16.9736767,11.886188390000001,16.8826828,11.92387944Q16.791688399999998,11.9615705,16.695089799999998,11.98078519Q16.5984907,11.99999994,16.5,12L10.5,12Q10.4015086,11.99999994,10.30490969,11.98078519Q10.20831078,11.96157044,10.1173166,11.92387938Q10.02632242,11.886188390000001,9.94442987,11.83146954Q9.86253726,11.77675062,9.79289329,11.70710671Q9.72324938,11.63746274,9.668530520000001,11.55557019Q9.613811609999999,11.47367758,9.57612056,11.3826834Q9.5384295,11.29168922,9.51921481,11.19509031Q9.50000006,11.0984914,9.5,11Q9.50000006,10.9015086,9.51921481,10.80490969Q9.53842956,10.70831078,9.57612062,10.6173166Q9.613811609999999,10.52632242,9.66853046,10.44442987Q9.72324938,10.36253726,9.79289329,10.29289329Q9.86253726,10.22324938,9.94442981,10.168530520000001Q10.02632242,10.113811609999999,10.1173166,10.07612056Q10.20831078,10.0384295,10.30490969,10.01921481Q10.4015086,10.00000006,10.5,10Z"
        fill-rule="evenodd" fill="#333333" fill-opacity="1" style="mix-blend-mode:passthrough" />
    </g>
    <g>
      <path class="fill"
        d="M10.5,14L16.5,14Q16.5984907,14.00000006,16.6950893,14.01921481Q16.791688399999998,14.03842956,16.8826828,14.07612062Q16.9736767,14.113811609999999,17.0555696,14.16853046Q17.1374621,14.22324938,17.2071061,14.29289329Q17.2767501,14.36253726,17.3314686,14.44442981Q17.3861876,14.52632242,17.4238787,14.6173166Q17.4615698,14.70831078,17.4807849,14.80490969Q17.4999995,14.9015086,17.5,15Q17.4999995,15.0984914,17.4807844,15.19509031Q17.4615698,15.29168922,17.4238787,15.3826834Q17.3861876,15.47367758,17.3314691,15.55557013Q17.2767506,15.63746274,17.2071066,15.70710671Q17.1374626,15.77675062,17.0555696,15.831469479999999Q16.9736767,15.886188390000001,16.8826828,15.92387944Q16.791688399999998,15.9615705,16.695089799999998,15.98078519Q16.5984907,15.99999994,16.5,16L10.5,16Q10.4015086,15.99999994,10.30490969,15.98078519Q10.20831078,15.96157044,10.1173166,15.92387938Q10.02632242,15.886188390000001,9.94442987,15.83146954Q9.86253726,15.77675062,9.79289329,15.70710671Q9.72324938,15.63746274,9.668530520000001,15.55557019Q9.613811609999999,15.47367758,9.57612056,15.3826834Q9.5384295,15.29168922,9.51921481,15.19509031Q9.50000006,15.0984914,9.5,15Q9.50000006,14.9015086,9.51921481,14.80490969Q9.53842956,14.70831078,9.57612062,14.6173166Q9.613811609999999,14.52632242,9.66853046,14.44442987Q9.72324938,14.36253726,9.79289329,14.29289329Q9.86253726,14.22324938,9.94442981,14.168530520000001Q10.02632242,14.113811609999999,10.1173166,14.07612056Q10.20831078,14.0384295,10.30490969,14.01921481Q10.4015086,14.00000006,10.5,14Z"
        fill-rule="evenodd" fill="#333333" fill-opacity="1" style="mix-blend-mode:passthrough" />
    </g>
  </g>
</svg>