<svg xmlns="http://www.w3.org/2000/svg" xmlns:xlink="http://www.w3.org/1999/xlink" fill="none"
  version="1.1" viewBox="0 0 24 24">
  <defs>
    <clipPath id="master_svg0_209_33788/170_20516">
      <rect x="0" y="0" width="24" height="24" rx="0" />
    </clipPath>
  </defs>
  <g clip-path="url(#master_svg0_209_33788/170_20516)">
    <g>
      <rect class="fill" x="0" y="0" width="24" height="24" rx="0" fill="#FFFFFF"
        fill-opacity="0.009999999776482582" style="mix-blend-mode:passthrough" />
    </g>
    <g>
      <path class="fill"
        d="M1,12Q1,16.556317999999997,4.2218211,19.778156Q7.4437027,23,12,23Q16.556313,23,19.778156,19.778156Q23,16.556313,23,12Q23,7.4437037,19.778162,4.221827Q16.556317999999997,0.9999998000000001,12,1Q7.4437003,1,4.2218289,4.221817Q1,7.4437003,1,12ZM12,21Q8.2721248,21,5.6360320999999995,18.363939Q3,15.727893,3,12Q3,8.2721176,5.6360307,5.6360424Q8.2721176,3,12,3Q15.727893,3,18.363939,5.6360326Q21,8.2721243,21,12Q21,15.727888,18.363945,18.363945Q15.727888,21,12,21Z"
        fill-rule="evenodd" fill="#333333" fill-opacity="1" style="mix-blend-mode:passthrough" />
    </g>
    <g>
      <path class="fill"
        d="M8.00000018,9.311073323632812L8,9.312454923632814Q8.00000006,9.410946323632812,8.01921481,9.507545223632812Q8.03842956,9.604143823632812,8.07612062,9.695138023632813Q8.113811609999999,9.786132323632813,8.16853046,9.868024823632812Q8.22324938,9.949917323632812,8.29289329,10.019561323632812Q8.36253726,10.089205023632813,8.44442981,10.143924023632813Q8.52632242,10.198642723632812,8.6173166,10.236333823632812Q8.70831078,10.274024923632812,8.80490969,10.293239623632813Q8.9015086,10.312454223632812,9,10.312454723632811Q9.0984914,10.312454223632812,9.19509031,10.293239823632813Q9.29168922,10.274024923632812,9.3826834,10.236333823632812Q9.47367758,10.198642723632812,9.55557013,10.143923723632813Q9.63746274,10.089205023632813,9.70710671,10.019561323632812Q9.77675062,9.949917323632812,9.831469479999999,9.868024823632812Q9.886188390000001,9.786132123632813,9.92387944,9.695138023632813Q9.9615705,9.604143623632812,9.98078519,9.507545023632812Q9.99999994,9.410945923632813,10,9.312454723632813Q10,8.484030223632812,10.5857881,7.898242323632813Q11.171576,7.312454163632813,12,7.3124542236328125Q12.828424,7.3124542236328125,13.4142118,7.898242323632813Q14,8.484030523632812,14,9.312454923632814Q14,10.140878723632813,13.4142118,10.726666923632813Q12.828424,11.312454723632811,12,11.312454723632811Q11.9015083,11.312454723632811,11.8049095,11.331668823632812Q11.7083106,11.350883523632813,11.6173162,11.388574623632813Q11.5263219,11.426265723632813,11.4444294,11.480984723632812Q11.3625369,11.535703623632813,11.2928929,11.605347623632813Q11.223249,11.674991623632813,11.16853,11.756883623632813Q11.113811,11.838776623632812,11.0761201,11.929770423632814Q11.038429,12.020765323632812,11.0192144,12.117364423632813Q10.9999998,12.213963523632813,10.9999999,12.312455223632814L10.9999999,14.312454223632812Q10.9999998,14.410945923632813,11.0192144,14.507544523632813Q11.038429,14.604143123632813,11.0761201,14.695137023632812Q11.113811,14.786130923632813,11.16853,14.868024823632812Q11.223249,14.949916823632812,11.2928929,15.019560823632812Q11.3625369,15.089204823632812,11.4444294,15.143922823632812Q11.5263219,15.198641823632812,11.6173162,15.236332923632812Q11.7083106,15.274024023632812,11.8049095,15.293239623632813Q11.9015083,15.312454223632812,12,15.312454223632812Q12.0984912,15.312454223632812,12.1950901,15.293239623632813Q12.2916889,15.274024023632812,12.3826833,15.236332923632812Q12.4736774,15.198641823632812,12.5555701,15.143922823632812Q12.6374626,15.089204823632812,12.7071066,15.019560823632812Q12.7767506,14.949916823632812,12.8314693,14.868023823632813Q12.886188,14.786130923632813,12.9238791,14.695137023632812Q12.9615703,14.604143123632813,12.9807849,14.507543523632812Q12.9999998,14.410945923632813,13,14.312454223632812L13,13.195138923632813Q14.027586,12.941720023632811,14.8284254,12.140880623632812Q16,10.969306023632813,16,9.312454923632814Q16,7.6556034236328125,14.8284254,6.484028873632813Q13.6568508,5.3124542236328125,12,5.3124542236328125Q10.3431489,5.312454123632812,9.17157443,6.484028783632812Q8.00048852,7.6551147236328125,8.00000018,9.311073323632812Z"
        fill-rule="evenodd" fill="#333333" fill-opacity="1" style="mix-blend-mode:passthrough" />
    </g>
    <g>
      <path class="fill"
        d="M13.25,17.562454223632812Q13.2500002,17.623862823632813,13.2439811,17.684975723632814Q13.2379618,17.746088523632814,13.2259815,17.806317123632812Q13.2140012,17.86654572363281,13.1961753,17.92531002363281Q13.1783495,17.98407432363281,13.1548493,18.040808323632813Q13.1313493,18.09754252363281,13.1024015,18.151700023632813Q13.0734537,18.20585752363281,13.0393367,18.256916723632813Q13.0052202,18.307976223632814,12.966263099999999,18.35544562363281Q12.9273059,18.402915223632814,12.8838835,18.446337723632812Q12.840461,18.489760123632813,12.7929916,18.528717523632814Q12.745522,18.56767462363281,12.6944625,18.60179112363281Q12.6434033,18.635908123632813,12.5892458,18.66485572363281Q12.5350883,18.693803523632813,12.4783542,18.71730352363281Q12.4216201,18.740803723632812,12.3628558,18.758629523632813Q12.3040915,18.776455623632813,12.2438629,18.78843592363281Q12.1836343,18.800416223632812,12.1225215,18.80643532363281Q12.0614086,18.812454223632812,12,18.812454223632812Q11.9385915,18.812454223632812,11.8774786,18.80643532363281Q11.8163657,18.800416023632813,11.756137,18.788435723632812Q11.69590843,18.77645542363281,11.63714415,18.758629523632813Q11.57837981,18.740803723632812,11.52164567,18.71730352363281Q11.46491158,18.693803523632813,11.41075408,18.66485572363281Q11.35659659,18.635907923632814,11.30553716,18.601790923632812Q11.25447786,18.567674423632813,11.20700836,18.52871732363281Q11.15953892,18.489760123632813,11.11611649,18.446337723632812Q11.07269412,18.402915223632814,11.03373691,18.355445823632813Q10.99477974,18.307976223632814,10.96066295,18.256916723632813Q10.92654619,18.20585752363281,10.8975984,18.151700023632813Q10.86865061,18.09754252363281,10.845150568,18.04080842363281Q10.821650535,17.98407432363281,10.803824574,17.92531002363281Q10.785998613,17.86654572363281,10.774018396,17.806317123632812Q10.762038182,17.746088523632814,10.7560190912,17.684975723632814Q10.75,17.623862823632813,10.75,17.562454223632812Q10.75,17.501045723632814,10.7560190912,17.439932823632812Q10.762038182,17.37881992363281,10.774018396,17.31859122363281Q10.785998613,17.258362653632812,10.803824574,17.199598373632814Q10.821650535,17.140834033632814,10.845150568,17.084099893632814Q10.86865061,17.02736580363281,10.8975984,16.973208303632813Q10.92654619,16.91905081363281,10.96066295,16.867991383632813Q10.99477974,16.816932083632814,11.03373691,16.769462583632812Q11.07269412,16.72199314363281,11.11611649,16.678570713632812Q11.15953892,16.635148343632814,11.20700839,16.596191133632814Q11.25447786,16.55723396363281,11.30553716,16.523117173632812Q11.35659659,16.489000413632812,11.41075408,16.460052623632812Q11.46491158,16.431104833632812,11.52164561,16.407604791632814Q11.57837975,16.384104758632812,11.63714415,16.366278797632813Q11.69590855,16.348452836632813,11.7561371,16.33647261963281Q11.8163657,16.324492405632814,11.8774786,16.31847331483281Q11.9385915,16.312454223632812,12,16.312454223632812Q12.0614086,16.312454223632812,12.1225215,16.31847331483281Q12.1836343,16.324492405632814,12.2438629,16.33647261963281Q12.3040915,16.348452836632813,12.3628558,16.366278797632813Q12.4216201,16.384104758632812,12.4783541,16.407604791632814Q12.5350883,16.431104833632812,12.5892458,16.460052623632812Q12.6434033,16.489000413632812,12.6944625,16.523117173632812Q12.745522,16.55723396363281,12.7929914,16.596191133632814Q12.840461,16.635148343632814,12.8838835,16.678570713632812Q12.9273059,16.72199314363281,12.9662633,16.76946261363281Q13.005220399999999,16.816932083632814,13.0393369,16.867991383632813Q13.0734539,16.91905081363281,13.1024015,16.973208303632813Q13.1313493,17.02736580363281,13.1548493,17.084099833632813Q13.1783495,17.140833973632812,13.1961753,17.199598373632814Q13.2140014,17.25836277363281,13.2259817,17.318591323632813Q13.237962,17.37881992363281,13.2439811,17.439932823632812Q13.2500002,17.501045723632814,13.25,17.562454223632812Z"
        fill="#333333" fill-opacity="1" style="mix-blend-mode:passthrough" />
    </g>
  </g>
</svg>