<svg xmlns="http://www.w3.org/2000/svg" xmlns:xlink="http://www.w3.org/1999/xlink" fill="none"
  version="1.1" viewBox="0 0 24 24">
  <defs>
    <clipPath id="master_svg0_209_33788/170_20517">
      <rect x="0" y="0" width="24" height="24" rx="0" />
    </clipPath>
  </defs>
  <g clip-path="url(#master_svg0_209_33788/170_20517)">
    <g>
      <g>
        <rect class="fill" x="0" y="0" width="24" height="24" rx="0" fill="#FFFFFF"
          fill-opacity="0.009999999776482582" style="mix-blend-mode:passthrough" />
      </g>
    </g>
    <g>
      <path class="fill"
        d="M7.8899999,10.940000099999999Q7.8899999,11.5,7.6549997,11.845000299999999Q7.4200001,12.190000099999999,6.8800001,12.3400002L6.8800001,12.3800001Q8.0799999,12.73,8.0799999,13.9899998Q8.0799999,14.6599998,7.8399997,15.095Q7.5999999,15.53,7.0099998,15.765Q6.4200001,16,5.3999999,16L2.70999998,16L2.70999998,9.059999900000001L5.1799998,9.059999900000001Q6.2199998,9.059999900000001,6.8099999,9.2650003Q7.4000001,9.470000299999999,7.645,9.8800001Q7.8899999,10.29,7.8899999,10.940000099999999ZM5.0899999000000005,14.5900002Q5.5699999,14.5900002,5.8249998000000005,14.5299997Q6.0799999,14.4700003,6.1849999,14.3150005Q6.29,14.1599998,6.29,13.8600006Q6.29,13.5699997,6.1849999,13.4049997Q6.0799999,13.2399998,5.8199999,13.1700001Q5.5599999,13.1000004,5.0899999000000005,13.1000004L4.48,13.1000004L4.48,14.5900002L5.0899999000000005,14.5900002ZM4.919999799999999,11.8499999Q5.5899999000000005,11.8499999,5.8599999,11.71Q6.1300001,11.570000199999999,6.1300001,11.1400003Q6.1300001,10.8400002,6.0099998,10.695000199999999Q5.889999899999999,10.5500002,5.639999899999999,10.5050001Q5.389999899999999,10.46,4.919999799999999,10.46L4.48,10.46L4.48,11.8499999L4.919999799999999,11.8499999ZM8.6699996,13.6700001L8.6699996,9.059999900000001L10.4399996,9.059999900000001L10.4399996,13.5200005Q10.4399996,14.04,10.71,14.3150005Q10.9799995,14.5900002,11.6899996,14.5900002Q12.42,14.5900002,12.69,14.3000002Q12.959999,14.0100002,12.959999,13.5200005L12.959999,9.059999900000001L14.719999,9.059999900000001L14.719999,13.6700001Q14.719999,14.9400005,13.95,15.52Q13.18,16.1,11.6899996,16.1Q10.6800003,16.1,10.0249996,15.88Q9.3699999,15.66,9.0199995,15.13Q8.6699996,14.6000004,8.6699996,13.6700001ZM15.339999,12.529999700000001Q15.339999,10.6100001,16.235,9.7850003Q17.129998999999998,8.96,18.849998,8.96Q19.359999,8.96,19.889999,9.0250001Q20.419998,9.0900002,20.74,9.2000003L20.74,10.7400002Q19.939999,10.46,19,10.46Q18.369999,10.46,17.994999,10.6550002Q17.619999,10.8499999,17.449999,11.3000002Q17.28,11.75,17.28,12.529999700000001Q17.28,13.3699999,17.419999,13.8099995Q17.559998999999998,14.25,17.91,14.4350004Q18.259998,14.6199999,18.92,14.6199999Q19.32,14.6199999,19.5,14.5900002L19.5,13.3500004L18.41,13.3500004L18.41,11.8699999L21.129999,11.8699999L21.129999,15.78Q20.719999,15.91,20.074999,16.005000000000003Q19.43,16.1,18.82,16.1Q17.65,16.1,16.895,15.8Q16.139999,15.5,15.74,14.7200003Q15.339999,13.9400005,15.339999,12.529999700000001Z"
        fill="#333333" fill-opacity="1" />
    </g>
    <g>
      <rect class="fill" x="1" y="3" width="22" height="18" rx="4" fill-opacity="0"
        stroke-opacity="1"
        stroke="#333333" fill="none" stroke-width="2" />
    </g>
  </g>
</svg>