<svg xmlns="http://www.w3.org/2000/svg" xmlns:xlink="http://www.w3.org/1999/xlink" fill="none" version="1.1" width="20" height="20" viewBox="0 0 20 20"><g><g><path d="M20,10Q20,10.245486,19.987957,10.490677Q19.97591,10.735868,19.951849,10.980172Q19.927786,11.224476,19.891764,11.467304Q19.855743,11.710133,19.807852,11.950903Q19.75996,12.191671,19.70031,12.429801Q19.640663,12.667931,19.569403,12.902846Q19.498142,13.137762,19.41544,13.368898Q19.332737,13.600033,19.238794,13.826833Q19.144852,14.053633,19.039892,14.275549Q18.934933,14.497466,18.819212,14.713966Q18.703491,14.930466,18.577284,15.141026Q18.451078,15.351585,18.314693,15.5557Q18.178308,15.759815,18.032074,15.956991Q17.885838,16.154167,17.730104,16.343931Q17.574369,16.533695,17.40951,16.715588Q17.244652,16.897482,17.071068,17.071068Q16.897482,17.244652,16.71559,17.409512Q16.533695,17.574371,16.343933,17.730106Q16.154169,17.885841,15.956992,18.032076Q15.759815,18.17831,15.5557,18.314695Q15.351585,18.45108,15.141026,18.577286Q14.930466,18.703491,14.713966,18.819212Q14.497466,18.934933,14.27555,19.039892Q14.053633,19.144852,13.826834,19.238794Q13.600034,19.332737,13.368897,19.41544Q13.137762,19.498142,12.902846,19.569403Q12.667931,19.640663,12.429801,19.700314Q12.191671,19.75996,11.950903,19.807854Q11.710133,19.855745,11.467304,19.891766Q11.224476,19.927788,10.980172,19.951849Q10.735868,19.97591,10.490677,19.987955Q10.245486,20,10,20Q9.7545137,20,9.5093231,19.987955Q9.2641325,19.97591,9.0198288,19.951849Q8.7755241,19.927786,8.5326948,19.891764Q8.2898655,19.855743,8.0490961,19.807852Q7.8083267,19.75996,7.5701971,19.70031Q7.3320684,19.640663,7.0971532,19.569403Q6.862237,19.498142,6.6311011,19.41544Q6.3999648,19.332737,6.1731653,19.238794Q5.9463654,19.144852,5.7244492,19.039892Q5.502532,18.934933,5.2860327,18.819212Q5.0695333,18.703491,4.8589725,18.577284Q4.6484118,18.451078,4.4442973,18.314693Q4.2401829,18.178308,4.0430064,18.032074Q3.8458304,17.885838,3.6560669,17.730104Q3.4663033,17.574369,3.28441,17.40951Q3.1025169,17.244652,2.928932,17.071068Q2.755347,16.897482,2.5904884,16.71559Q2.4256301,16.533695,2.2698953,16.343933Q2.1141605,16.154169,1.9679244,15.956992Q1.8216884,15.759815,1.6853036,15.5557Q1.5489187,15.351585,1.4227135,15.141026Q1.2965086,14.930466,1.1807872,14.713966Q1.0650659,14.497466,0.96010691,14.27555Q0.85514808,14.053633,0.76120454,13.826834Q0.667261,13.600034,0.5845592,13.368897Q0.50185746,13.137762,0.43059659,12.902846Q0.35933572,12.667931,0.29968745,12.429801Q0.24003914,12.191671,0.19214717,11.950903Q0.14425519,11.710133,0.10823488,11.467304Q0.072214581,11.224476,0.04815273,10.980172Q0.024090873,10.735868,0.012045437,10.490677Q0,10.245486,0,10Q0,9.7545137,0.012045437,9.5093231Q0.024090873,9.2641325,0.04815273,9.0198288Q0.072214581,8.7755241,0.10823488,8.5326948Q0.14425519,8.2898655,0.19214717,8.0490961Q0.24003914,7.8083267,0.29968742,7.5701971Q0.35933572,7.3320684,0.43059659,7.0971532Q0.50185746,6.862237,0.58455926,6.6311011Q0.667261,6.3999648,0.76120454,6.1731653Q0.85514808,5.9463654,0.96010691,5.7244492Q1.0650659,5.502532,1.1807872,5.2860327Q1.2965086,5.0695333,1.4227138,4.8589725Q1.5489187,4.6484118,1.6853036,4.4442973Q1.8216884,4.2401829,1.9679244,4.0430064Q2.1141605,3.8458304,2.2698953,3.6560669Q2.4256301,3.4663033,2.5904884,3.28441Q2.755347,3.1025169,2.928932,2.928932Q3.1025169,2.755347,3.28441,2.5904884Q3.4663036,2.4256301,3.6560671,2.2698953Q3.8458304,2.1141605,4.0430069,1.9679244Q4.2401829,1.8216884,4.4442973,1.6853036Q4.6484118,1.5489187,4.8589725,1.4227135Q5.0695333,1.2965086,5.2860327,1.1807872Q5.502532,1.0650659,5.7244482,0.96010691Q5.9463654,0.85514808,6.1731648,0.76120454Q6.3999643,0.667261,6.6311007,0.5845592Q6.862237,0.50185746,7.0971532,0.43059659Q7.3320689,0.35933572,7.5701981,0.29968745Q7.8083277,0.24003914,8.0490971,0.19214717Q8.2898655,0.14425519,8.5326948,0.10823488Q8.7755241,0.072214581,9.0198288,0.04815273Q9.2641325,0.024090873,9.5093231,0.012045437Q9.7545137,0,10,0Q10.245486,0,10.490677,0.012045437Q10.735868,0.024090873,10.980172,0.04815273Q11.224476,0.072214581,11.467304,0.10823488Q11.710133,0.14425519,11.950903,0.19214717Q12.191671,0.24003914,12.429801,0.29968742Q12.667931,0.35933572,12.902846,0.43059659Q13.137762,0.50185746,13.368898,0.58455926Q13.600033,0.667261,13.826833,0.76120454Q14.053633,0.85514808,14.275549,0.96010691Q14.497466,1.0650659,14.713966,1.1807872Q14.930466,1.2965086,15.141026,1.4227138Q15.351585,1.5489187,15.5557,1.6853036Q15.759815,1.8216884,15.956991,1.9679244Q16.154167,2.1141605,16.343931,2.2698953Q16.533695,2.4256301,16.715588,2.5904884Q16.897482,2.755347,17.071068,2.928932Q17.244652,3.1025169,17.409512,3.28441Q17.574371,3.4663036,17.730106,3.6560671Q17.885841,3.8458304,18.032076,4.0430069Q18.17831,4.2401829,18.314695,4.4442973Q18.45108,4.6484118,18.577286,4.8589725Q18.703491,5.0695333,18.819212,5.2860327Q18.934933,5.502532,19.039892,5.7244482Q19.144852,5.9463654,19.238794,6.1731648Q19.332737,6.3999643,19.41544,6.6311007Q19.498142,6.862237,19.569403,7.0971532Q19.640663,7.3320689,19.700314,7.5701981Q19.75996,7.8083277,19.807854,8.0490971Q19.855745,8.2898655,19.891766,8.5326948Q19.927788,8.7755241,19.951849,9.0198288Q19.97591,9.2641325,19.987957,9.5093231Q20,9.7545137,20,10ZM19,10Q19,9.7790623,18.989159,9.5583916Q18.978317,9.337719,18.956663,9.1178455Q18.935007,8.8979721,18.902588,8.6794252Q18.870171,8.4608784,18.827066,8.2441864Q18.783962,8.0274944,18.73028,7.8131776Q18.676598,7.5988617,18.612463,7.3874378Q18.548328,7.1760135,18.473896,6.9679909Q18.399464,6.7599683,18.314915,6.5558486Q18.230366,6.3517289,18.135902,6.1520038Q18.041439,5.9522786,17.93729,5.7574291Q17.833141,5.5625792,17.719555,5.3730745Q17.605972,5.1835704,17.483225,4.9998674Q17.360477,4.8161645,17.228867,4.6387057Q17.097254,4.461247,16.957094,4.2904601Q16.816933,4.1196733,16.66856,3.9559691Q16.520187,3.7922652,16.36396,3.6360385Q16.207733,3.4798121,16.044029,3.3314395Q15.880325,3.1830668,15.709539,3.0429056Q15.538752,2.9027443,15.361293,2.7711318Q15.183834,2.6395195,15.000131,2.5167732Q14.816427,2.3940268,14.626923,2.2804422Q14.437419,2.1668575,14.24257,2.0627084Q14.04772,1.958559,13.847995,1.864096Q13.648269,1.7696331,13.444149,1.685084Q13.240029,1.6005348,13.032007,1.5261031Q12.823985,1.4516716,12.612561,1.3875369Q12.401137,1.323402,12.186821,1.2697186Q11.972504,1.2160351,11.755812,1.1729324Q11.53912,1.1298296,11.320574,1.0974114Q11.102028,1.0649931,10.882154,1.0433376Q10.662281,1.0216818,10.441609,1.0108409Q10.220938,1,10,1Q9.7790623,1,9.5583916,1.0108409Q9.337719,1.0216818,9.1178455,1.0433375Q8.8979721,1.0649931,8.6794252,1.0974114Q8.4608784,1.1298296,8.2441864,1.1729324Q8.0274944,1.2160351,7.8131776,1.2697186Q7.5988617,1.3234022,7.3874378,1.387537Q7.1760135,1.4516717,6.9679909,1.5261034Q6.7599683,1.6005349,6.5558486,1.6850841Q6.3517289,1.7696333,6.1520038,1.8640963Q5.9522786,1.9585593,5.7574291,2.0627086Q5.5625792,2.1668577,5.3730745,2.2804422Q5.1835704,2.3940268,4.9998674,2.5167732Q4.8161645,2.6395197,4.6387057,2.771132Q4.461247,2.9027445,4.2904601,3.042906Q4.1196733,3.1830673,3.9559691,3.3314395Q3.7922652,3.4798121,3.6360385,3.6360388Q3.4798121,3.7922654,3.3314395,3.9559693Q3.1830668,4.1196733,3.0429056,4.2904606Q2.9027443,4.4612474,2.7711318,4.6387057Q2.6395195,4.8161645,2.5167732,4.9998674Q2.3940268,5.1835704,2.2804422,5.373075Q2.1668575,5.5625792,2.0627084,5.7574291Q1.958559,5.9522786,1.864096,6.1520038Q1.7696331,6.3517289,1.685084,6.5558486Q1.6005348,6.7599683,1.5261031,6.9679909Q1.4516716,7.1760135,1.3875369,7.3874378Q1.323402,7.5988617,1.2697186,7.8131781Q1.2160351,8.0274944,1.1729324,8.2441864Q1.1298296,8.4608784,1.0974114,8.6794252Q1.0649931,8.8979721,1.0433375,9.1178455Q1.0216818,9.337719,1.0108409,9.5583916Q1,9.7790623,1,10Q1,10.220938,1.0108409,10.441608Q1.0216818,10.662281,1.0433375,10.882154Q1.0649931,11.102028,1.0974114,11.320575Q1.1298296,11.53912,1.1729324,11.755813Q1.2160351,11.972505,1.2697185,12.186821Q1.323402,12.401137,1.3875369,12.612561Q1.4516716,12.823985,1.5261033,13.032007Q1.6005348,13.240029,1.685084,13.444149Q1.7696331,13.648269,1.8640962,13.847994Q1.958559,14.04772,2.0627084,14.242569Q2.1668575,14.437418,2.280442,14.626923Q2.3940268,14.816427,2.5167732,15.00013Q2.6395197,15.183832,2.771132,15.361292Q2.9027445,15.538752,3.042906,15.709539Q3.1830673,15.880325,3.3314395,16.044029Q3.4798121,16.207733,3.6360388,16.36396Q3.7922654,16.520187,3.9559693,16.66856Q4.1196733,16.816933,4.2904606,16.957094Q4.4612474,17.097254,4.6387057,17.228867Q4.8161645,17.360477,4.9998674,17.483225Q5.1835704,17.605972,5.373075,17.719555Q5.5625792,17.833141,5.7574291,17.93729Q5.9522786,18.041439,6.1520038,18.135902Q6.3517289,18.230366,6.5558486,18.314915Q6.7599683,18.399464,6.9679909,18.473896Q7.1760135,18.548328,7.3874378,18.612463Q7.5988617,18.676598,7.8131781,18.73028Q8.0274944,18.783962,8.2441864,18.827066Q8.4608784,18.870171,8.6794252,18.902588Q8.8979721,18.935007,9.1178455,18.956663Q9.337719,18.978317,9.5583916,18.989159Q9.7790623,19,10,19Q10.220938,19,10.441608,18.989159Q10.662281,18.978317,10.882154,18.956663Q11.102028,18.935007,11.320575,18.902588Q11.53912,18.870171,11.755813,18.827066Q11.972505,18.783962,12.186821,18.73028Q12.401137,18.676598,12.612561,18.612463Q12.823985,18.548328,13.032007,18.473896Q13.240029,18.399464,13.444149,18.314915Q13.648269,18.230366,13.847994,18.135902Q14.04772,18.041439,14.242569,17.93729Q14.437418,17.833141,14.626923,17.719555Q14.816427,17.605972,15.00013,17.483225Q15.183832,17.360477,15.361292,17.228867Q15.538752,17.097254,15.709539,16.957094Q15.880325,16.816933,16.044029,16.66856Q16.207733,16.520187,16.36396,16.36396Q16.520187,16.207733,16.66856,16.044029Q16.816933,15.880325,16.957094,15.709539Q17.097254,15.538752,17.228867,15.361293Q17.360477,15.183834,17.483225,15.000131Q17.605972,14.816427,17.719555,14.626923Q17.833141,14.437419,17.93729,14.24257Q18.041439,14.04772,18.135902,13.847995Q18.230366,13.648269,18.314915,13.444149Q18.399464,13.240029,18.473896,13.032007Q18.548328,12.823985,18.612463,12.612561Q18.676598,12.401137,18.73028,12.186821Q18.783962,11.972504,18.827066,11.755812Q18.870171,11.53912,18.902588,11.320574Q18.935007,11.102028,18.956663,10.882154Q18.978317,10.662281,18.989159,10.441609Q19,10.220938,19,10Z" fill="#999999" fill-opacity="1"/></g><g><path d="M12.2928934,10L8.64644662,13.6464467L9.35355338,14.3535538L13.7071066,10L9.35355338,5.64644662L8.64644662,6.35355338L12.2928934,10Z" fill-rule="evenodd" fill="#999999" fill-opacity="1"/></g></g></svg>