<?xml version="1.0" standalone="no"?><!DOCTYPE svg PUBLIC "-//W3C//DTD SVG 1.1//EN" "http://www.w3.org/Graphics/SVG/1.1/DTD/svg11.dtd"><svg t="1522114907777" class="icon" style="" viewBox="0 0 1024 1024" version="1.1" xmlns="http://www.w3.org/2000/svg" p-id="5890" xmlns:xlink="http://www.w3.org/1999/xlink" width="200" height="200"><defs><style type="text/css"></style></defs><path d="M172.416 652.48c-38.912 0-70.464 31.552-70.464 70.464s31.552 70.464 70.464 70.464 70.464-31.552 70.464-70.464S211.328 652.48 172.416 652.48zM172.416 768.256c-25.024 0-45.312-20.288-45.312-45.312s20.288-45.312 45.312-45.312 45.312 20.288 45.312 45.312S197.44 768.256 172.416 768.256z" p-id="5891"></path><path d="M850.88 652.48c-38.912 0-70.464 31.552-70.464 70.464s31.552 70.464 70.464 70.464c38.912 0 70.464-31.552 70.464-70.464S889.792 652.48 850.88 652.48zM850.88 767.424c-24.576 0-44.48-19.904-44.48-44.48s19.904-44.48 44.48-44.48 44.48 19.904 44.48 44.48S875.456 767.424 850.88 767.424z" p-id="5892"></path><path d="M1020.032 612.224 1020.032 370.816c0-34.816-28.224-63.104-63.104-63.104L71.104 307.712c-34.816 0-63.104 28.224-63.104 63.104l0 289.152c0 34.816 28.224 63.104 63.104 63.104l24.832 0c0-0.064 0-0.064 0-0.128 0-42.24 34.24-76.48 76.48-76.48s76.48 34.24 76.48 76.48c0 0.064 0 0.064 0 0.128L774.4 723.072c0-0.064 0-0.064 0-0.128 0-42.24 34.24-76.48 76.48-76.48 42.24 0 76.48 34.24 76.48 76.48 0 0.064 0 0.064 0 0.128l29.568 0c31.808 0 56.96-23.872 61.312-54.464l-24.448 0L993.792 612.224 1020.032 612.224zM194.56 541.76 124.736 541.76c-35.584 0-64.448-28.864-64.448-64.448L60.288 400.064c0-1.152 0.576-2.112 0.64-3.264L194.56 396.8 194.56 541.76zM413.312 541.76 208.64 541.76 208.64 396.8l204.672 0L413.312 541.76zM632.128 541.76 427.456 541.76 427.456 396.8l204.672 0L632.128 541.76zM850.88 541.76l-204.672 0L646.208 396.8l204.672 0L850.88 541.76zM984.768 515.392c0 35.584-24.512 64.448-60.096 64.448l-0.896 0c-26.112 0-48.384-15.744-58.496-38.08l-0.384 0L864.896 396.8l120.832 0c0.064 1.152 0.64 2.112 0.64 3.264L984.768 515.392z" p-id="5893"></path></svg>