<?xml version="1.0" standalone="no"?><!DOCTYPE svg PUBLIC "-//W3C//DTD SVG 1.1//EN" "http://www.w3.org/Graphics/SVG/1.1/DTD/svg11.dtd"><svg t="1522137799930" class="icon" style="" viewBox="0 0 1024 1024" version="1.1" xmlns="http://www.w3.org/2000/svg" p-id="3781" xmlns:xlink="http://www.w3.org/1999/xlink" width="200" height="200"><defs><style type="text/css"></style></defs><path d="M864 694.848q0-22.848-16-38.848l-118.848-118.848q-16-16-38.848-16-24 0-41.152 18.272 1.728 1.728 10.848 10.56t12.288 12.288 8.576 10.848 7.424 14.56 2.016 15.712q0 22.848-16 38.848t-38.848 16q-8.576 0-15.712-2.016t-14.56-7.424-10.848-8.576-12.288-12.288-10.56-10.848q-18.848 17.728-18.848 41.728 0 22.848 16 38.848l117.728 118.272q15.424 15.424 38.848 15.424 22.848 0 38.848-14.848l84-83.424q16-16 16-38.272zM462.272 292q0-22.848-16-38.848l-117.728-118.272q-16-16-38.848-16-22.272 0-38.848 15.424l-84 83.424q-16 16-16 38.272 0 22.848 16 38.848l118.848 118.848q15.424 15.424 38.848 15.424 24 0 41.152-17.728-1.728-1.728-10.848-10.56t-12.288-12.288-8.576-10.848-7.424-14.56-2.016-15.712q0-22.848 16-38.848t38.848-16q8.576 0 15.712 2.016t14.56 7.424 10.848 8.576 12.288 12.288 10.56 10.848q18.848-17.728 18.848-41.728zM973.728 694.848q0 68.576-48.576 116l-84 83.424q-47.424 47.424-116 47.424-69.152 0-116.576-48.576l-117.728-118.272q-47.424-47.424-47.424-116 0-70.272 50.272-119.424l-50.272-50.272q-49.152 50.272-118.848 50.272-68.576 0-116.576-48l-118.848-118.848q-48-48-48-116.576t48.576-116l84-83.424q47.424-47.424 116-47.424 69.152 0 116.576 48.576l117.728 118.272q47.424 47.424 47.424 116 0 70.272-50.272 119.424l50.272 50.272q49.152-50.272 118.848-50.272 68.576 0 116.576 48l118.848 118.848q48 48 48 116.576z" p-id="3782"></path></svg>