<?xml version="1.0" standalone="no"?><!DOCTYPE svg PUBLIC "-//W3C//DTD SVG 1.1//EN" "http://www.w3.org/Graphics/SVG/1.1/DTD/svg11.dtd"><svg t="1522390287135" class="icon" style="" viewBox="0 0 1024 1024" version="1.1" xmlns="http://www.w3.org/2000/svg" p-id="3193" xmlns:xlink="http://www.w3.org/1999/xlink" width="200" height="200"><defs><style type="text/css"></style></defs><path d="M637.728 835.616v-19.008h380.352v19.008H637.728zM904 512.288v285.344h114.08v-285.344H904z m76.032 247.296h-38.016v-209.248h38.016v209.248zM770.784 588.384v209.28h114.112v-209.28h-114.112z m76.128 171.2h-38.048v-133.152h38.048v133.152zM637.728 664.512v133.152h114.08v-133.152h-114.08z m76.032 95.072h-38.016v-57.088h38.016v57.088z" p-id="3194"></path><path d="M291.616 570.272a58.144 58.144 0 1 0-0.352-33.792H119.904a58.368 58.368 0 0 0-55.84-41.824 58.048 58.048 0 0 0-58.144 58.112 58.08 58.08 0 0 0 113.568 17.504h172.128z m297.344-310.144h47.328v33.728h-47.328V260.128z m61.216 0h47.328v33.728h-47.328V260.128zM291.264 740.832h47.296v33.696H291.264v-33.696z m60.832 0h47.296v33.696h-47.296v-33.696z m60.864 0h47.328v33.696h-47.328v-33.696z" p-id="3195"></path><path d="M130.368 484.928h47.264v33.76H130.368v-33.76z m60.864 0h47.264v33.76H191.232v-33.76z m60.832 0h47.328v33.76H252.064v-33.76z m205.088 10.496h47.328v33.728h-47.328v-33.728z m60.864 0h47.296v33.728h-47.296v-33.728z m60.832 0h47.328v33.728h-47.328v-33.728zM172.224 188.416H219.52v33.728H172.224V188.416z m60.864 0h47.296v33.728H233.088V188.416z m60.864 0h47.328v33.728H293.952V188.416z" p-id="3196"></path><path d="M66.432 313.28c25.152 0 46.496-16.32 54.656-38.4H254.4c7.008 0 19.008 5.024 22.912 10.464l79.072 124.448c11.296 17.024 35.712 26.368 52.736 26.368h79.456a57.728 57.728 0 0 0 53.12 34.528 58.112 58.112 0 0 0 58.144-58.208 58.24 58.24 0 1 0-115.52-10.464h-75.2c-8.544 0-20.576-5.024-24-10.464L306.4 267.52c-10.88-17.44-33.344-25.632-50.816-25.632H123.008a57.856 57.856 0 0 0-56.576-44.96A58.048 58.048 0 0 0 8.288 255.072 58.048 58.048 0 0 0 66.432 313.28z" p-id="3197"></path><path d="M412.96 329.92a58.56 58.56 0 0 0 53.888-36.032h108.96V260.128h-105.44a58.56 58.56 0 0 0-56.992-46.496c-32.192 0-58.144 25.92-58.144 58.112a57.728 57.728 0 0 0 57.728 58.176z m-130.272 67.808a58.048 58.048 0 0 0-58.144-58.144A58.048 58.048 0 0 0 166.4 397.728c0 32.192 25.952 58.176 58.144 58.176a58.304 58.304 0 0 0 58.144-58.176zM692.48 507.84a57.6 57.6 0 0 0-55.808 42.272h-108.544c-17.44 0-38.784 2.336-50.784 19.776l-79.104 117.792c-3.488 5.472-15.136 10.528-24.032 10.528H276.512a58.4 58.4 0 0 0-55.424-41.12 58.048 58.048 0 0 0-58.112 58.144c0 32.16 25.952 58.144 58.112 58.144 26.368 0 48.48-17.472 55.84-41.472h96.544c17.792 0 41.888-8.576 52.704-25.248l79.104-118.176c0.384-0.768 3.488-3.904 22.88-3.904h109.728c7.712 22.88 29.44 39.2 55.008 39.2a58.08 58.08 0 0 0 58.144-58.176 58.88 58.88 0 0 0-58.56-57.76z" p-id="3198"></path><path d="M533.536 647.776a58.112 58.112 0 0 0-58.144 58.208c0 32.16 25.952 58.08 58.144 58.08s58.112-25.952 58.112-58.08c0-32.192-25.92-58.208-58.112-58.208z" p-id="3199"></path></svg>