<?xml version="1.0" standalone="no"?><!DOCTYPE svg PUBLIC "-//W3C//DTD SVG 1.1//EN" "http://www.w3.org/Graphics/SVG/1.1/DTD/svg11.dtd"><svg t="1769582465545" class="icon" viewBox="0 0 1024 1024" version="1.1" xmlns="http://www.w3.org/2000/svg" p-id="2506" xmlns:xlink="http://www.w3.org/1999/xlink" width="200" height="200"><path d="M453.5168 434.3488l-121.3632 38.3296c-6.3872-19.1616-12.7744-38.3296-12.7744-57.4912 0-89.4208 70.2592-159.6864 159.68-159.6864h63.8784c89.4272 0 159.6928 70.2656 159.6928 159.6864 0 76.6528-57.4912 140.5248-127.7504 153.3056v6.3872H447.1296V447.1296h95.808c19.1616 0 31.936-12.7808 31.936-31.936 0-19.168-12.7744-31.9424-31.936-31.9424h-63.872c-19.1616 0-31.936 12.7744-31.936 31.936 0 6.3872 0 12.7744 6.3872 19.1616z m57.4848 587.6544C229.952 1022.0032 0 792.0512 0 511.0016 0 229.952 229.952 0 511.0016 0c281.0496 0 511.0016 229.952 511.0016 511.0016 0 281.0496-229.952 511.0016-511.0016 511.0016z m0-127.744c210.7904 0 383.2512-172.4672 383.2512-383.2576S721.792 127.7504 511.0016 127.7504c-210.7904 0-383.2512 172.4608-383.2512 383.2512 0 210.7904 172.4608 383.2512 383.2512 383.2512z m-63.872-255.5072h127.744v127.7504h-127.744v-127.744z" fill="#444444" p-id="2507"></path></svg>