<?xml version="1.0" standalone="no"?><!DOCTYPE svg PUBLIC "-//W3C//DTD SVG 1.1//EN" "http://www.w3.org/Graphics/SVG/1.1/DTD/svg11.dtd"><svg t="1524583513032" class="icon" style="" viewBox="0 0 1024 1024" version="1.1" xmlns="http://www.w3.org/2000/svg" p-id="1049" xmlns:xlink="http://www.w3.org/1999/xlink" width="200" height="200"><defs><style type="text/css"></style></defs><path d="M1009.152 923.328c19.776 19.328 19.648 50.816-0.256 70.272-19.712 19.52-51.84 19.52-71.616 0.128l-254.848-265.536c-162.944 137.856-408.32 131.776-561.92-19.072-161.216-157.952-160.512-414.784 1.536-573.568 161.856-158.912 423.744-159.616 584.896-1.536 150.144 147.2 159.744 380.224 29.312 539.84 3.584 2.24 7.168 4.992 11.136 8.768L1009.152 923.328 1009.152 923.328zM752 424.128c0-189.952-153.92-344-343.936-344S64 234.176 64 424.128c0 190.016 154.048 343.936 344.064 343.936S752 614.144 752 424.128L752 424.128zM621.376 450.944 434.624 450.944l0 186.432c0 19.264-15.616 34.88-34.816 34.88-19.264 0-34.944-15.616-34.944-34.88L364.864 450.944 179.008 450.944C159.68 450.944 144 435.392 144 416c0-19.264 15.68-34.944 35.008-34.944l185.856 0L364.864 195.072c0-19.328 15.68-34.944 34.944-34.944 19.2 0 34.816 15.616 34.816 34.944l0 185.984 186.752 0c19.264 0 34.88 15.68 34.88 34.944C656.256 435.392 640.64 450.944 621.376 450.944L621.376 450.944z" p-id="1050"></path></svg>