<?xml version="1.0" standalone="no"?><!DOCTYPE svg PUBLIC "-//W3C//DTD SVG 1.1//EN" "http://www.w3.org/Graphics/SVG/1.1/DTD/svg11.dtd"><svg t="1522410184761" class="icon" style="" viewBox="0 0 1024 1024" version="1.1" xmlns="http://www.w3.org/2000/svg" p-id="5772" xmlns:xlink="http://www.w3.org/1999/xlink" width="200" height="200"><defs><style type="text/css"></style></defs><path d="M504.365723 16.446621c-277.774102 0-503.764607 225.990505-503.764607 503.764607s225.990505 503.764607 503.764607 503.764607S1008.13033 797.985329 1008.13033 520.211228 782.139825 16.446621 504.365723 16.446621zM504.365723 992.242536c-260.28031 0-472.031308-211.750998-472.031308-472.031308S244.085413 48.17992 504.365723 48.17992s472.031308 211.750998 472.031308 472.031308S764.646033 992.242536 504.365723 992.242536z" p-id="5773"></path><path d="M210.833717 407.827664l137.848942 0c26.565914 0 52.348464 9.436619 72.593093 26.581018 2.975374 2.525292 6.616306 3.757732 10.242135 3.757732 4.50082 0 8.979488-1.906052 12.116973-5.61646 5.663784-6.685782 4.834102-16.695324-1.859735-22.359107-25.961777-21.986556-59.027198-34.096481-93.092465-34.096481L210.833717 376.094365c-8.761999 0-15.866649 7.10465-15.866649 15.866649S202.070711 407.827664 210.833717 407.827664z" p-id="5774"></path><path d="M806.032433 378.341754l-136.307386-81.440678c-7.522512-4.50082-17.269254-2.037955-21.754971 5.485563-4.493772 7.522512-2.037955 17.261199 5.485563 21.754971l86.951413 51.953761L605.174024 376.095372c-79.46515 0-144.108808 64.651713-144.108808 144.116863 0 61.963303-50.412205 112.375509-112.383564 112.375509L210.833717 632.587743c-8.761999 0-15.866649 7.10465-15.866649 15.866649s7.10465 15.866649 15.866649 15.866649l137.848942 0c79.46515 0 144.116863-64.651713 144.116863-144.116863 0-61.963303 50.412205-112.375509 112.375509-112.375509l135.230009 0-86.948393 51.945706c-7.522512 4.493772-9.978328 14.231452-5.485563 21.754971 2.967319 4.974061 8.235393 7.731946 13.63537 7.731946 2.76594 0 5.570142-0.720937 8.1196-2.246382l136.307386-81.432623c4.79584-2.86663 7.731946-8.034014 7.731946-13.620267C813.764379 386.375768 810.828273 381.207377 806.032433 378.341754z" p-id="5775"></path><path d="M806.032433 634.833119l-136.307386-81.432623c-7.522512-4.50082-17.269254-2.037955-21.754971 5.485563-4.493772 7.522512-2.037955 17.261199 5.485563 21.754971l86.948393 51.945706L605.174024 632.586737c-27.549651 0-54.053137-10.063914-74.614937-28.347111-6.569989-5.825894-16.579531-5.229812-22.405425 1.317018-5.817839 6.553879-5.229812 16.579531 1.317018 22.405425 26.387694 23.443533 60.367375 36.357967 95.703344 36.357967L740.407053 664.320035l-86.951413 51.953761c-7.522512 4.493772-9.978328 14.231452-5.485563 21.754971 2.967319 4.974061 8.235393 7.731946 13.63537 7.731946 2.76594 0 5.570142-0.720937 8.1196-2.246382l136.307386-81.440678c4.79584-2.86663 7.731946-8.034014 7.731946-13.620267C813.764379 642.867133 810.828273 637.699749 806.032433 634.833119z" p-id="5776"></path></svg>