<?xml version="1.0" standalone="no"?><!DOCTYPE svg PUBLIC "-//W3C//DTD SVG 1.1//EN" "http://www.w3.org/Graphics/SVG/1.1/DTD/svg11.dtd"><svg t="1522410177622" class="icon" style="" viewBox="0 0 1024 1024" version="1.1" xmlns="http://www.w3.org/2000/svg" p-id="5532" xmlns:xlink="http://www.w3.org/1999/xlink" width="200" height="200"><defs><style type="text/css"></style></defs><path d="M504.904386 16.463194c-277.469283 0-503.209483 225.740199-503.209483 503.209483s225.740199 503.209483 503.209483 503.209483 503.209483-225.740199 503.209483-503.209483S782.37367 16.463194 504.904386 16.463194zM504.904386 991.431441c-260.128146 0-471.758764-211.631626-471.758764-471.758764S244.77624 47.913913 504.904386 47.913913s471.758764 211.631626 471.758764 471.758764S765.031525 991.431441 504.904386 991.431441z" p-id="5533"></path><path d="M807.490297 332.438995c0-45.045227-34.968538-82.622395-76.615894-82.622395L278.92933 249.8166c-43.440537 0-84.285547 39.907597-84.285547 82.622395l0 137.050826c0 8.68468 6.814894 16.19205 15.499574 16.19205l110.496831 0 0 70.557987-47.30409 0c-43.716721 0-78.692315 42.722861-78.692315 78.308278l0 78.684251c0 8.68468 6.814894 16.378525 15.499574 16.378525l64.209784 0c3.064233 33.191485 31.050554 59.268709 65.025233 59.268709s61.961-26.077224 65.025233-59.268709l200.998537 0c3.064233 33.191485 31.050554 59.268709 65.025233 59.268709 33.977703 0 61.965032-26.077224 65.029265-59.268709l56.522995 0c8.68468 0 15.511669-7.694852 15.511669-16.378525L807.491305 332.438995zM776.243189 332.438995l0 27.246471-93.741325 0 0-78.621757 48.37254 0C758.018061 281.063709 776.243189 307.495739 776.243189 332.438995zM351.887296 359.685466l0-78.621757 78.621757 0 0 78.621757L351.887296 359.685466zM461.756162 281.063709l78.621757 0 0 78.621757-78.621757 0L461.756162 281.063709zM571.625027 281.063709l78.621757 0 0 78.621757-78.621757 0L571.625027 281.063709zM278.92933 281.063709l41.710858 0 0 78.621757-94.749297 0 0-27.246471C225.890891 306.854669 252.64648 281.063709 278.92933 281.063709zM351.887296 485.681871l78.621757 0 0 70.557987-78.621757 0L351.887296 485.681871zM650.246784 556.239858l-78.621757 0 0-70.557987 78.621757 0L650.246784 556.239858zM540.377918 556.239858l-78.621757 0 0-70.557987 78.621757 0L540.377918 556.239858zM225.890891 634.548136c0-18.608157 21.242994-47.061169 47.445206-47.061169l376.910686 0 0 73.961906c-18.105179 5.896632-32.763097 19.493156-40.075929 36.914931L399.633886 698.363803c-9.881142-23.542176-33.166286-40.120279-60.255513-40.120279s-50.374371 16.578103-60.255513 40.120279l-53.230961 0L225.891899 634.548136zM339.377365 757.428902c-18.673675 0-33.865818-15.195166-33.865818-33.868842s15.192143-33.865818 33.865818-33.865818 33.865818 15.191135 33.865818 33.865818S358.052048 757.428902 339.377365 757.428902zM670.426368 757.428902c-18.673675 0-33.865818-15.195166-33.865818-33.868842s15.192143-33.865818 33.865818-33.865818 33.868842 15.191135 33.868842 33.865818S689.101051 757.428902 670.426368 757.428902zM776.243189 698.363803l-45.557276 0c-8.376241-19.955815-26.389695-34.890925-48.184049-38.983288L682.501863 485.681871l93.741325 0L776.243189 698.363803zM225.890891 454.434762l0-63.502188 550.352298 0 0 63.502188L225.890891 454.434762z" p-id="5534"></path></svg>