<?xml version="1.0" standalone="no"?><!DOCTYPE svg PUBLIC "-//W3C//DTD SVG 1.1//EN" "http://www.w3.org/Graphics/SVG/1.1/DTD/svg11.dtd"><svg t="1522410175146" class="icon" style="" viewBox="0 0 1024 1024" version="1.1" xmlns="http://www.w3.org/2000/svg" p-id="5408" xmlns:xlink="http://www.w3.org/1999/xlink" width="200" height="200"><defs><style type="text/css"></style></defs><path d="M504.363936 16.425292C226.519778 16.425292 0.481408 242.46769 0.481408 520.30782s226.038369 503.886556 503.882528 503.886556S1008.246464 798.148957 1008.246464 520.30782 782.208094 16.425292 504.363936 16.425292zM504.363936 992.701403c-260.475185 0-472.389555-211.91437-472.389555-472.393583 0-260.475185 211.91437-472.389555 472.389555-472.389555S976.753491 259.832635 976.753491 520.30782C976.753491 780.78804 764.839121 992.701403 504.363936 992.701403z" p-id="5409"></path><path d="M380.832323 276.600352c-25.541838 0-46.31592 22.489225-46.31592 50.129924l0 80.696336 92.624791 0 0-80.696336C427.140186 299.089578 406.366104 276.600352 380.832323 276.600352zM395.64822 375.93364l-29.639852 0 0-49.203364c0-10.102527 6.789067-18.636951 14.823955-18.636951 8.034888 0 14.815898 8.534424 14.815898 18.636951L395.64822 375.93364z" p-id="5410"></path><path d="M366.07786 432.92313c-26.487534 0-46.831571 21.336061-46.831571 48.576928l0 192.98938 93.663142 0L412.909431 481.500058C412.909431 454.259191 392.565394 432.92313 366.07786 432.92313zM381.688384 643.267383l-31.221047 0L350.467336 481.500058c0-9.737945 6.62994-17.083956 15.610524-17.083956s15.610524 7.34601 15.610524 17.083956L381.688384 643.267383z" p-id="5411"></path><path d="M499.259798 276.600352c-25.533781 0-46.30887 22.489225-46.30887 50.129924l0 80.696336 92.617741 0 0-80.696336C545.568669 299.089578 524.79358 276.600352 499.259798 276.600352zM514.075696 375.93364l-29.631795 0 0-49.203364c0-10.102527 6.78101-18.636951 14.815898-18.636951s14.815898 8.534424 14.815898 18.636951L514.075696 375.93364z" p-id="5412"></path><path d="M492.976311 432.92313c-26.487534 0-46.831571 21.336061-46.831571 48.576928l0 192.98938 93.663142 0L539.807882 481.500058C539.807882 454.259191 519.463845 432.92313 492.976311 432.92313zM508.586835 643.267383l-31.221047 0L477.365787 481.500058c0-9.737945 6.62994-17.083956 15.610524-17.083956s15.610524 7.34601 15.610524 17.083956L508.586835 643.267383z" p-id="5413"></path><path d="M784.908211 721.823567 752.193589 721.823567 752.193589 342.353892c0-42.387104-34.483143-76.871254-76.871254-76.871254l-65.674984 0c-7.153648-35.031022-38.205498-61.470214-75.319266-61.470214L342.404249 204.012424c-42.387104 0-76.871254 34.487172-76.871254 76.875283l0 440.936867-56.43154 0c-8.696572 0-15.746486 7.049914-15.746486 15.746486l0 63.1773c0 8.696572 7.049914 15.746486 15.746486 15.746486l575.806757 0c8.696572 0 15.746486-7.049914 15.746486-15.746486l0-63.1773C800.654698 728.873481 793.604784 721.823567 784.908211 721.823567zM720.700617 342.353892l0 379.470682L611.199339 721.824574 611.199339 296.975611l64.122996 0C700.340465 296.975611 720.700617 317.330726 720.700617 342.353892zM297.025967 280.8867c0-25.022159 20.359144-45.38231 45.378282-45.38231l191.923836 0c25.019137 0 45.378282 20.359144 45.378282 45.38231l0 440.936867L297.025967 721.823567 297.025967 280.8867zM767.419389 784.265662l-542.843373 0 0-31.221047 542.843373 0L767.419389 784.265662z" p-id="5414"></path></svg>