<?xml version="1.0" standalone="no"?><!DOCTYPE svg PUBLIC "-//W3C//DTD SVG 1.1//EN" "http://www.w3.org/Graphics/SVG/1.1/DTD/svg11.dtd"><svg t="1522410191344" class="icon" style="" viewBox="0 0 1024 1024" version="1.1" xmlns="http://www.w3.org/2000/svg" p-id="6013" xmlns:xlink="http://www.w3.org/1999/xlink" width="200" height="200"><defs><style type="text/css"></style></defs><path d="M504.676169 1023.667694c-277.694318 0-503.610272-225.915954-503.610272-503.610272S226.981852 16.44715 504.676169 16.44715s503.610272 225.915954 503.610272 503.610272S782.370487 1023.667694 504.676169 1023.667694zM504.676169 47.922603c-260.334836 0-472.134819 211.799983-472.134819 472.134819s211.799983 472.134819 472.134819 472.134819S976.810988 780.392258 976.810988 520.057422 765.011005 47.922603 504.676169 47.922603z" p-id="6014"></path><path d="M276.900307 464.798904c-21.793255 0-43.586509-8.299603-60.184708-24.889746-33.166188-33.174244-33.158132-87.141802 0.008056-120.307989 33.181292-33.174244 87.156906-33.197404 120.324101-0.023161 33.174244 33.181292 33.174244 87.173018 0 120.346255C320.471711 456.507357 298.678457 464.798904 276.900307 464.798904zM276.908363 326.170765c-13.740364 0-27.471665 5.225266-37.930252 15.683853-20.894013 20.894013-20.902069 54.898016-0.008056 75.800085 20.909118 20.894013 54.928225 20.902069 75.823246 0.015105 20.902069-20.909118 20.902069-54.928225 0-75.838351C304.348812 331.387975 290.624559 326.170765 276.908363 326.170765z" p-id="6015"></path><path d="M685.883828 830.065008c-17.681719 0-33.857989-4.257549-48.350574-12.771641-27.111163-15.922509-46.42219-46.130163-55.843578-87.357297-13.816895-60.407252-34.880083-72.226281-66.601241-72.226281-32.720091 0-110.83323-27.418295-143.430469-112.185616-37.692603-98.000163 13.893426-181.952831 81.563083-211.184713 55.082295-23.799177 113.069753-25.389212 163.287284-4.533464 50.718005 21.078292 89.761987 63.297311 112.923739 122.075255 19.126748 48.581174 27.494826 76.422404 37.193136 108.66619 4.018893 13.370799 8.276442 27.526043 13.647721 44.30852l0 0c24.635984 76.867493 26.803025 132.679855 6.639078 170.634275-12.648788 23.799177-33.988898 40.220145-63.427212 48.811775C710.305324 828.143673 697.756228 830.065008 685.883828 830.065008zM542.383877 346.734486c-25.220038 0-51.255737 5.517292-76.683214 16.498507-54.21427 23.422563-95.310496 91.314764-64.664802 170.994777 26.995359 70.198206 93.05182 92.006565 114.053581 92.006565 66.240739 0 86.350308 48.873201 97.278152 96.677987 5.195056 22.715656 16.544828 52.807507 41.104281 67.239672 16.452185 9.659038 37.039067 10.973158 61.191697 3.934306 21.285732-6.209094 35.824638-17.120826 44.454534-33.365571 15.753335-29.646761 12.786746-78.850255-8.814174-146.259101-5.44781-16.982868-9.751681-31.314335-13.823944-44.854308-9.489864-31.568096-17.681719-58.832322-36.340217-106.192018-19.956507-50.663627-53.046163-86.811509-95.71027-104.539549C584.940237 350.768484 563.961636 346.734486 542.383877 346.734486z" p-id="6016"></path><path d="M394.165176 327.783962c-27.010464 0-48.980949-21.977534-48.980949-48.989005s21.969478-48.980949 48.980949-48.980949 48.980949 21.969478 48.980949 48.980949S421.176647 327.783962 394.165176 327.783962zM394.165176 261.290468c-9.651989 0-17.505496 7.853507-17.505496 17.505496 0 9.659038 7.853507 17.512545 17.505496 17.512545s17.505496-7.853507 17.505496-17.512545C411.670671 269.143975 403.817165 261.290468 394.165176 261.290468z" p-id="6017"></path><path d="M500.433725 293.349975c-21.255522 0-38.552571-17.298056-38.552571-38.552571s17.298056-38.552571 38.552571-38.552571 38.552571 17.298056 38.552571 38.552571S521.689248 293.349975 500.433725 293.349975z" p-id="6018"></path><path d="M597.028132 284.359578c-17.658558 0-32.021241-14.362683-32.021241-32.021241s14.362683-32.021241 32.021241-32.021241 32.021241 14.362683 32.021241 32.021241S614.68669 284.359578 597.028132 284.359578z" p-id="6019"></path><path d="M678.445201 315.566165c-17.658558 0-32.021241-14.362683-32.021241-32.021241 0-17.651509 14.362683-32.013185 32.021241-32.013185 17.651509 0 32.013185 14.362683 32.013185 32.013185C710.458386 301.203482 696.09671 315.566165 678.445201 315.566165z" p-id="6020"></path></svg>