<?xml version="1.0" standalone="no"?><!DOCTYPE svg PUBLIC "-//W3C//DTD SVG 1.1//EN" "http://www.w3.org/Graphics/SVG/1.1/DTD/svg11.dtd"><svg t="1529578147088" class="icon" style="" viewBox="0 0 1506 1024" version="1.1" xmlns="http://www.w3.org/2000/svg" p-id="1629" xmlns:xlink="http://www.w3.org/1999/xlink" width="294.140625" height="200"><defs><style type="text/css"></style></defs><path d="M1453.220782 453.031724H53.29508A53.29508 53.29508 0 0 1 0 399.760184V54.142529C0 24.729011 23.858023 0.859218 53.29508 0.859218h1218.595311c19.809103 0 37.982161 10.993287 47.198161 28.530759l181.330391 345.582345c18.596782 35.451586-7.168 78.071172-47.198161 78.071172z" fill="#D1D3D4" p-id="1630"></path><path d="M1500.418943 374.984092L1319.076782 29.389977a53.28331 53.28331 0 0 0-47.198161-28.530759H753.263816v452.184276h699.968736c40.018391 0 65.794943-42.619586 47.198161-78.059402z" fill="#BCBEC0" p-id="1631"></path><path d="M1001.978115 452.737471c29.425287 0 53.29508-23.869793 53.29508-53.30685V0.870989h-106.590161v398.583172c0 29.425287 23.858023 53.29508 53.295081 53.29508z" fill="#939598" p-id="1632"></path><path d="M504.537747 452.737471c29.437057 0 53.306851-23.869793 53.306851-53.30685V0.870989h-106.601931v398.583172c0 29.425287 23.858023 53.29508 53.29508 53.29508z" fill="#A7A9AC" p-id="1633"></path><path d="M1453.220782 877.874023H1144.066943c-29.601839 0-53.118529-24.211126-53.295081-53.812966-0.682667-113.016644-171.431724-113.157885-172.114391 0-0.176552 29.601839-23.693241 53.812966-53.29508 53.812966H584.327356c-29.601839 0-53.118529-24.211126-53.29508-53.812966-0.682667-112.993103-171.467034-113.157885-172.149701 0-0.176552 29.601839-23.693241 53.812966-53.295081 53.812966h-79.518896a53.29508 53.29508 0 0 1-53.295081-53.29508V705.088736H53.29508A53.29508 53.29508 0 0 1 0 651.793655V346.441563h1280.435494c29.425287 0 53.29508 23.858023 53.295081 53.295081v119.490207h119.490207c29.425287 0 53.29508 23.869793 53.29508 53.30685v252.057012c0 29.425287-23.858023 53.28331-53.29508 53.28331z" fill="#F2C500" p-id="1634"></path><path d="M1453.220782 519.226851h-119.490207V399.736644c0-29.425287-23.869793-53.29508-53.295081-53.295081h-527.183448v531.43246h112.110345c29.601839 0 53.118529-24.211126 53.29508-53.812966 0.682667-112.957793 171.431724-113.181425 172.102621 0 0.176552 29.601839 23.705011 53.812966 53.306851 53.812966h309.153839c29.425287 0 53.29508-23.858023 53.29508-53.29508V572.521931c0-29.425287-23.858023-53.29508-53.29508-53.29508zM279.375448 877.874023H53.306851A53.29508 53.29508 0 0 1 0 824.578943V598.510345h226.080368c29.437057 0 53.306851 23.869793 53.30685 53.29508v226.080368z" fill="#F59D00" p-id="1635"></path><path d="M444.980966 1017.255724c-106.237057 0-192.676782-86.439724-192.676782-192.676781 0-106.213517 86.439724-192.641471 192.676782-192.641472 106.248828 0 192.676782 86.427954 192.676781 192.641472 0 106.237057-86.427954 192.676782-192.676781 192.676781z" fill="#808285" p-id="1636"></path><path d="M1506.515862 625.817011h-226.080368a53.29508 53.29508 0 0 1-53.29508-53.29508V346.441563h226.080368c29.425287 0 53.29508 23.858023 53.29508 53.295081V625.817011z" fill="#E87E04" p-id="1637"></path><path d="M1004.744092 1017.255724c-106.237057 0-192.676782-86.439724-192.676782-192.676781 0-106.213517 86.427954-192.641471 192.676782-192.641472 106.213517 0 192.629701 86.427954 192.629701 192.641472 0 106.237057-86.416184 192.676782-192.641471 192.676781z" fill="#6D6E71" p-id="1638"></path></svg>