<?xml version="1.0" standalone="no"?><!DOCTYPE svg PUBLIC "-//W3C//DTD SVG 1.1//EN" "http://www.w3.org/Graphics/SVG/1.1/DTD/svg11.dtd"><svg t="1529578168728" class="icon" style="" viewBox="0 0 1506 1024" version="1.1" xmlns="http://www.w3.org/2000/svg" p-id="2119" xmlns:xlink="http://www.w3.org/1999/xlink" width="294.140625" height="200"><defs><style type="text/css"></style></defs><path d="M1453.285517 453.172966H53.300966A53.29508 53.29508 0 0 1 0.005885 399.866115V54.26023C0.005885 24.811402 23.863908 0.941609 53.300966 0.941609h774.567724c259.295632 0 481.515402 111.510069 668.460138 367.498299a53.306851 53.306851 0 0 1-43.043311 84.733058z" fill="#D1D3D4" p-id="2120"></path><path d="M1496.328828 368.439908C1311.573333 115.464828 1090.765977 0.941609 827.86869 0.941609H753.293241v452.231357h699.992276a53.29508 53.29508 0 0 0 43.043311-84.733058z" fill="#BCBEC0" p-id="2121"></path><path d="M1453.285517 827.144828H53.300966A53.29508 53.29508 0 0 1 0.005885 773.849747V625.499218c0-29.425287 23.858023-53.29508 53.295081-53.29508h1399.984551c29.425287 0 53.29508 23.858023 53.295081 53.29508v148.350529c0 29.425287-23.869793 53.29508-53.295081 53.295081z" fill="#FF5E5B" p-id="2122"></path><path d="M1453.285517 572.204138H753.293241v254.94069h699.992276c29.425287 0 53.29508-23.858023 53.295081-53.295081V625.499218a53.29508 53.29508 0 0 0-53.295081-53.29508z" fill="#FF423D" p-id="2123"></path><path d="M984.258207 346.571034V16.678253c-35.333885-7.13269-69.396598-11.770115-106.601931-14.124138v344.016919H486.817839V0.953379h-106.601931v345.617655H0.005885v332.235035h1300.597701V346.571034H984.258207z" fill="#A7A9AC" p-id="2124"></path><path d="M1300.603586 346.571034H984.258207V16.678253c-35.333885-7.13269-69.396598-11.770115-106.601931-14.124138v344.016919H753.293241v332.235035h547.310345V346.571034z" fill="#939598" p-id="2125"></path><path d="M1453.285517 1017.173333H53.300966a53.29508 53.29508 0 0 1 0-106.601931h1399.984551a53.29508 53.29508 0 0 1 0 106.590161z" fill="#808285" p-id="2126"></path><path d="M1506.580598 678.806069h-312.578943V346.571034h259.283862c29.425287 0 53.29508 23.858023 53.295081 53.295081v278.939954z" fill="#F2C500" p-id="2127"></path><path d="M1453.285517 910.571402H753.293241v106.590161h699.992276a53.29508 53.29508 0 0 0 0-106.590161z" fill="#6D6E71" p-id="2128"></path></svg>