<?xml version="1.0" standalone="no"?><!DOCTYPE svg PUBLIC "-//W3C//DTD SVG 1.1//EN" "http://www.w3.org/Graphics/SVG/1.1/DTD/svg11.dtd"><svg t="1529577696669" class="icon" style="" viewBox="0 0 1024 1024" version="1.1" xmlns="http://www.w3.org/2000/svg" p-id="1561" xmlns:xlink="http://www.w3.org/1999/xlink" width="200" height="200"><defs><style type="text/css"></style></defs><path d="M662.4 501H498.5c-3 0-4.6-3.5-2.6-5.7l33.1-37.6c0.7-0.8 1.6-1.2 2.6-1.2h261.7c1 0 2 0.4 2.6 1.2l32.8 37.6c1.9 2.2 0.3 5.7-2.6 5.7H662.4zM800.8 600.5v120.1c0 1.9-1.5 3.5-3.5 3.5h-270c-1.9 0-3.5-1.5-3.5-3.5V504.7c0-1.9 1.5-3.5 3.5-3.5h270c1.9 0 3.5 1.5 3.5 3.5v70.4" fill="#EFBB24" p-id="1562"></path><path d="M519.9 724H308.6c-2.2 0-4-1.8-4-4V562.5c0-2.2 1.8-4 4-4h211.3c2.2 0 4 1.8 4 4V720c0 2.2-1.8 4-4 4zM370.5 496.8h97.3c1 0 2 0.4 2.6 1.2l48.6 54.8c1.9 2.2 0.3 5.7-2.6 5.7H308.1c-1.9 0-3.5-1.5-3.5-3.5v-54.8c0-1.9 1.5-3.5 3.5-3.5h41.8" fill="#EFBB24" p-id="1563"></path><path d="M203.1 400.1l-6.7 12.1h-2.1v28.6l55.2-57.2 55.1 57.2v-28.6h-2.1l-53-95.9-16.4 29.7-7.4 13.2" fill="#EA2837" p-id="1564"></path><path d="M194.3 668.7V722c0 1.9 1.5 3.5 3.5 3.5h103.4c1.9 0 3.5-1.5 3.5-3.5V442.6c0-1.9-1.5-3.5-3.5-3.5H197.8c-1.9 0-3.5 1.5-3.5 3.5V542" fill="#EFBB24" p-id="1565"></path><path d="M516.3 560.2H308.1c-2.9 0-5.2-2.3-5.2-5.2v-61.4c0-2.9 2.3-5.2 5.2-5.2h41.8c1 0 1.7 0.8 1.7 1.7 0 1-0.8 1.7-1.7 1.7h-41.8c-1 0-1.7 0.8-1.7 1.7v61.4c0 1 0.8 1.7 1.7 1.7h208.3c1 0 1.5-0.8 1.6-1 0.1-0.2 0.4-1.1-0.3-1.8l-52.9-61.4c-0.3-0.4-0.8-0.6-1.3-0.6h-93c-1 0-1.7-0.8-1.7-1.7 0-1 0.8-1.7 1.7-1.7h93c1.5 0 2.9 0.7 3.9 1.8l52.9 61.4c1.3 1.6 1.6 3.7 0.8 5.6-0.9 1.9-2.7 3-4.8 3zM826.2 502.7H498.5c-2.1 0-3.9-1.2-4.7-3-0.9-1.9-0.6-4 0.8-5.6l38.9-45.2c1-1.1 2.4-1.8 3.9-1.8h249.8c1.5 0 2.9 0.7 3.9 1.8l38.9 45.2c1.3 1.6 1.6 3.7 0.8 5.6-0.7 1.8-2.5 3-4.6 3z m-288.8-52.1c-0.5 0-1 0.2-1.3 0.6l-38.9 45.2c-0.7 0.8-0.4 1.6-0.3 1.9 0.1 0.2 0.5 1 1.6 1h327.7c1 0 1.5-0.8 1.6-1 0.1-0.2 0.4-1.1-0.3-1.9l-38.9-45.2c-0.3-0.4-0.8-0.6-1.3-0.6H537.4z" fill="#465161" p-id="1566"></path><path d="M520.4 725.8H308.1c-2.9 0-5.2-2.3-5.2-5.2V562c0-2.9 2.3-5.2 5.2-5.2h212.4c2.9 0 5.2 2.3 5.2 5.2v158.6c-0.1 2.8-2.4 5.2-5.3 5.2zM308.1 560.2c-1 0-1.7 0.8-1.7 1.7v158.6c0 1 0.8 1.7 1.7 1.7h212.4c1 0 1.7-0.8 1.7-1.7V562c0-1-0.8-1.7-1.7-1.7H308.1z" fill="#465161" p-id="1567"></path><path d="M797.4 725.8h-270c-2.9 0-5.2-2.3-5.2-5.2V504.7c0-2.9 2.3-5.2 5.2-5.2h270c2.9 0 5.2 2.3 5.2 5.2v70.4c0 1-0.8 1.7-1.7 1.7-1 0-1.7-0.8-1.7-1.7v-70.4c0-1-0.8-1.7-1.7-1.7h-270c-1 0-1.7 0.8-1.7 1.7v215.9c0 1 0.8 1.7 1.7 1.7h270c1 0 1.7-0.8 1.7-1.7V600.5c0-1 0.8-1.7 1.7-1.7 1 0 1.7 0.8 1.7 1.7v120.1c0 2.8-2.3 5.2-5.2 5.2z" fill="#465161" p-id="1568"></path><path d="M249.5 388.6l51 52.2h-102z" fill="#EA2837" p-id="1569"></path><path d="M194.3 442.5c-0.2 0-0.4 0-0.6-0.1-0.7-0.3-1.1-0.9-1.1-1.6v-42c0-1 0.8-1.7 1.7-1.7h1.1l6.2-11.2c0.5-0.8 1.5-1.1 2.4-0.7 0.8 0.5 1.1 1.5 0.7 2.4l-6.7 12.1c-0.3 0.6-0.9 0.9-1.5 0.9h-0.4v36l52.2-54.2c0.7-0.7 1.8-0.7 2.5 0l52.2 54.2v-36h-0.4c-0.6 0-1.2-0.3-1.5-0.9l-51.5-93.1-22.2 40.1c-0.5 0.8-1.5 1.1-2.4 0.7-0.8-0.5-1.1-1.5-0.7-2.4l23.7-42.9c0.3-0.6 0.9-0.9 1.5-0.9s1.2 0.3 1.5 0.9l52.5 95h1.1c1 0 1.7 0.8 1.7 1.7v42c0 0.7-0.4 1.3-1.1 1.6-0.7 0.3-1.4 0.1-1.9-0.4l-53.9-56-53.9 56c-0.3 0.4-0.7 0.5-1.2 0.5z" fill="#465161" p-id="1570"></path><path d="M213.1 370.5c-0.3 0-0.6-0.1-0.8-0.2-0.8-0.5-1.1-1.5-0.7-2.4l5-9c0.5-0.8 1.5-1.1 2.4-0.7 0.8 0.5 1.1 1.5 0.7 2.4l-5 9c-0.4 0.6-1 0.9-1.6 0.9zM194.3 569.7c-1 0-1.7-0.8-1.7-1.7v-14.5c0-1 0.8-1.7 1.7-1.7 1 0 1.7 0.8 1.7 1.7V568c0.1 0.9-0.7 1.7-1.7 1.7zM194.3 599.2c-1 0-1.7-0.8-1.7-1.7v-6.7c0-1 0.8-1.7 1.7-1.7 1 0 1.7 0.8 1.7 1.7v6.7c0.1 1-0.7 1.7-1.7 1.7z" fill="#465161" p-id="1571"></path><path d="M301.1 727.2H197.8c-2.9 0-5.2-2.3-5.2-5.2v-53.3c0-1 0.8-1.7 1.7-1.7 1 0 1.7 0.8 1.7 1.7V722c0 1 0.8 1.7 1.7 1.7h103.4c1 0 1.7-0.8 1.7-1.7V442.6c0-1-0.8-1.7-1.7-1.7H197.8c-1 0-1.7 0.8-1.7 1.7V542c0 1-0.8 1.7-1.7 1.7-1 0-1.7-0.8-1.7-1.7v-99.4c0-2.9 2.3-5.2 5.2-5.2h103.4c2.9 0 5.2 2.3 5.2 5.2V722c-0.2 2.9-2.5 5.2-5.4 5.2z" fill="#465161" p-id="1572"></path><path d="M194.3 649.8c-1 0-1.7-0.8-1.7-1.7v-37.9c0-1 0.8-1.7 1.7-1.7 1 0 1.7 0.8 1.7 1.7v37.9c0.1 0.9-0.7 1.7-1.7 1.7zM269.7 462.8c5.3 0 9.5 4.3 9.5 9.5v32.5h-19.1v-32.5c0.1-5.3 4.3-9.5 9.6-9.5zM229 462.8c5.3 0 9.5 4.3 9.5 9.5v33.2h-19.1v-33.2c0-5.3 4.3-9.5 9.6-9.5z" fill="#465161" p-id="1573"></path><path d="M269.7 469.7m-4.3 0a4.3 4.3 0 1 0 8.6 0 4.3 4.3 0 1 0-8.6 0Z" fill="#EA2837" p-id="1574"></path><path d="M279.6 504.2H260c-1.2 0-2.1 0.9-2.1 2.1 0 1.2 0.9 2.1 2.1 2.1h19.6c1.2 0 2.1-0.9 2.1-2.1 0-1.2-0.9-2.1-2.1-2.1z" fill="#465161" p-id="1575"></path><path d="M229 469.7m-4.3 0a4.3 4.3 0 1 0 8.6 0 4.3 4.3 0 1 0-8.6 0Z" fill="#EA2837" p-id="1576"></path><path d="M238.8 504.2h-19.6c-1.2 0-2.1 0.9-2.1 2.1 0 1.2 0.9 2.1 2.1 2.1h19.6c1.2 0 2.1-0.9 2.1-2.1 0-1.2-1-2.1-2.1-2.1z" fill="#465161" p-id="1577"></path><path d="M336.4 553l60.1-60.7c1.4-1.4 3.6-1.4 4.9 0l60.1 60.5c2.2 2.2 0.6 5.9-2.4 5.9l-120.3 0.2c-3.1 0-4.6-3.7-2.4-5.9z" fill="#FFFFFF" p-id="1578"></path><path d="M338.8 560.6c-2.1 0-4-1.2-4.8-3.2-0.8-2-0.4-4.1 1.1-5.7l60.1-60.7c1-1 2.3-1.5 3.7-1.5 1.4 0 2.7 0.5 3.7 1.5l60.1 60.5c1.5 1.5 1.9 3.7 1.1 5.6-0.8 2-2.7 3.2-4.8 3.2l-120.2 0.3z m-1.2-6.4c-0.8 0.8-0.5 1.6-0.4 1.9 0.1 0.3 0.5 1.1 1.6 1.1l120.3-0.2c1.1 0 1.5-0.8 1.6-1.1 0.1-0.3 0.4-1.1-0.4-1.9l-60.1-60.5c-0.3-0.3-0.8-0.5-1.2-0.5-0.5 0-0.9 0.2-1.2 0.5l-60.2 60.7z" fill="#465161" p-id="1579"></path><path d="M399 499.6l51.8 52.2-103.7 0.1z" fill="#268EED" p-id="1580"></path><path d="M773.7 501.1l-87.8-88.4h-45.8l-87.9 88.7z" fill="#FFFFFF" p-id="1581"></path><path d="M552.2 503.2c-0.7 0-1.3-0.4-1.6-1.1-0.3-0.6-0.1-1.4 0.4-1.9l87.9-88.7c0.3-0.3 0.8-0.5 1.2-0.5h45.8c0.5 0 0.9 0.2 1.2 0.5l87.8 88.3c0.5 0.5 0.6 1.2 0.4 1.9-0.3 0.6-0.9 1.1-1.6 1.1l-221.5 0.4z m88.6-88.7l-84.5 85.2 213.2-0.4-84.4-84.9h-44.3z" fill="#465161" p-id="1582"></path><path d="M643 419.7h40l74.1 74.5-188.3 0.3z" fill="#268EED" p-id="1583"></path><path d="M331.2 700.5V724h55.4v-68.8c0-15.3-12.4-27.7-27.7-27.7-2.4 0-4.6 0.3-6.8 0.8-5.8 1.5-10.9 4.8-14.6 9.3-2.2 2.7-3.9 5.8-5 9.2-0.8 2.6-1.3 5.5-1.3 8.4v8.7" fill="#FFFFFF" p-id="1584"></path><path d="M386.6 725.8h-55.4c-1 0-1.7-0.8-1.7-1.7v-23.6c0-1 0.8-1.7 1.7-1.7 1 0 1.7 0.8 1.7 1.7v21.8h51.9v-67c0-14.3-11.6-26-26-26-2.2 0-4.3 0.3-6.4 0.8-5.3 1.4-10.2 4.5-13.7 8.7-2.1 2.6-3.7 5.4-4.7 8.6-0.8 2.5-1.2 5.2-1.2 7.8v8.7c0 1-0.8 1.7-1.7 1.7-1 0-1.7-0.8-1.7-1.7v-8.7c0-3 0.5-6 1.4-8.9 1.1-3.6 2.9-6.8 5.3-9.7 4-4.9 9.5-8.4 15.5-9.9 2.4-0.6 4.8-0.9 7.2-0.9 16.2 0 29.4 13.2 29.4 29.4V724c0.1 1-0.7 1.8-1.6 1.8z" fill="#465161" p-id="1585"></path><path d="M331.2 688.9c-1 0-1.7-0.8-1.7-1.7v-10c0-1 0.8-1.7 1.7-1.7 1 0 1.7 0.8 1.7 1.7v10c0 0.9-0.8 1.7-1.7 1.7z" fill="#465161" p-id="1586"></path><path d="M338.1 717.1v-61.8c0-11.5 9.3-20.8 20.8-20.8s20.8 9.3 20.8 20.8v61.8h-41.6z" fill="#268EED" p-id="1587"></path><path d="M439.7 687.8V724h55.4v-68.8c0-15.3-12.4-27.7-27.7-27.7-15.3 0-27.7 12.4-27.7 27.7V670" fill="#FFFFFF" p-id="1588"></path><path d="M495.1 725.8h-55.4c-1 0-1.7-0.8-1.7-1.7v-36.3c0-1 0.8-1.7 1.7-1.7 1 0 1.7 0.8 1.7 1.7v34.6h51.9v-67c0-14.3-11.6-26-26-26-14.3 0-26 11.6-26 26V670c0 1-0.8 1.7-1.7 1.7-1 0-1.7-0.8-1.7-1.7v-14.7c0-16.2 13.2-29.4 29.4-29.4s29.4 13.2 29.4 29.4V724c0.2 1-0.6 1.8-1.6 1.8z" fill="#465161" p-id="1589"></path><path d="M446.7 717.1v-61.8c0-11.5 9.3-20.8 20.8-20.8s20.8 9.3 20.8 20.8v61.8h-41.6z" fill="#268EED" p-id="1590"></path><path d="M592.6 702.6V724H648v-68.8c0-15.3-12.4-27.7-27.7-27.7-15.3 0-27.7 12.4-27.7 27.7V666" fill="#FFFFFF" p-id="1591"></path><path d="M648 725.8h-55.4c-1 0-1.7-0.8-1.7-1.7v-21.4c0-1 0.8-1.7 1.7-1.7 1 0 1.7 0.8 1.7 1.7v19.7h51.9v-67c0-14.3-11.6-26-26-26-14.3 0-26 11.6-26 26v10.8c0 1-0.8 1.7-1.7 1.7-1 0-1.7-0.8-1.7-1.7v-10.8c0-16.2 13.2-29.4 29.4-29.4s29.4 13.2 29.4 29.4V724c0.1 1-0.7 1.8-1.6 1.8z" fill="#465161" p-id="1592"></path><path d="M592.6 695.6c-1 0-1.7-0.8-1.7-1.7v-13.6c0-1 0.8-1.7 1.7-1.7 1 0 1.7 0.8 1.7 1.7v13.6c0 0.9-0.7 1.7-1.7 1.7z" fill="#465161" p-id="1593"></path><path d="M599.5 717.1v-61.8c0-11.5 9.3-20.8 20.8-20.8s20.8 9.3 20.8 20.8v61.8h-41.6z" fill="#268EED" p-id="1594"></path><path d="M579.3 517c-9.5 0-17.1 7.7-17.1 17.1v42.5h34.2v-42.5c0-9.5-7.7-17.1-17.1-17.1zM634.6 517c-9.5 0-17.1 7.7-17.1 17.1v42.5h34.2v-42.5c0.1-9.5-7.6-17.1-17.1-17.1zM690 517c-9.5 0-17.1 7.7-17.1 17.1v42.5h34.2v-42.5c0-9.5-7.6-17.1-17.1-17.1zM745.4 517c-9.5 0-17.1 7.7-17.1 17.1v42.5h34.2v-42.5c0-9.5-7.7-17.1-17.1-17.1z" fill="#465161" p-id="1595"></path><path d="M758.8 655.3c0-15.3-12.4-27.7-27.7-27.7-15.3 0-27.7 12.4-27.7 27.7V724h55.4V672.3" fill="#FFFFFF" p-id="1596"></path><path d="M758.8 725.8h-55.4c-1 0-1.7-0.8-1.7-1.7v-68.8c0-16.2 13.2-29.4 29.4-29.4s29.4 13.2 29.4 29.4c0 1-0.8 1.7-1.7 1.7s-1.7-0.8-1.7-1.7c0-14.3-11.6-26-26-26-14.3 0-26 11.6-26 26v67H757v-50c0-1 0.8-1.7 1.7-1.7s1.7 0.8 1.7 1.7V724c0.1 1-0.7 1.8-1.6 1.8z" fill="#465161" p-id="1597"></path><path d="M710.3 717.1v-61.8c0-11.5 9.3-20.8 20.8-20.8s20.8 9.3 20.8 20.8v61.8h-41.6z" fill="#268EED" p-id="1598"></path><path d="M522.9 502.7h277v14.6h-277zM304.6 558.9h219.3v14.6H304.6z" fill="#465161" p-id="1599"></path><path d="M670.4 338h-74.8c-2.5 0-4.6 2.1-4.6 4.6 0 2.5 2.1 4.6 4.6 4.6h18.6c1.7 0 3.1 1.4 3.1 3.1 0 1.7-1.4 3.1-3.1 3.1h-34.3c-2.5 0-4.6 2.1-4.6 4.6 0 2.5 2.1 4.6 4.6 4.6h74.8c2.5 0 4.6-2.1 4.6-4.6 0-2.5-2.1-4.6-4.6-4.6h-23.1c-1.7 0-3.1-1.4-3.1-3.1 0-1.7 1.4-3.1 3.1-3.1h38.8c2.5 0 4.6-2.1 4.6-4.6 0-2.5-2.1-4.6-4.6-4.6zM503.6 324.2h-37.4c-1.3 0-2.3 1-2.3 2.3s1 2.3 2.3 2.3h9.3c0.8 0 1.5 0.7 1.5 1.5s-0.7 1.5-1.5 1.5h-17.2c-1.3 0-2.3 1-2.3 2.3s1 2.3 2.3 2.3h37.4c1.3 0 2.3-1 2.3-2.3s-1-2.3-2.3-2.3h-11.5c-0.8 0-1.5-0.7-1.5-1.5s0.7-1.5 1.5-1.5h19.4c1.3 0 2.3-1 2.3-2.3s-1-2.3-2.3-2.3z" fill="#C7E4F9" p-id="1600"></path><path d="M345.7 296.8h-66.1c-2.5 0-4.6 2.1-4.6 4.6 0 2.5 2.1 4.6 4.6 4.6H293c1.7 0 3.1 1.4 3.1 3.1 0 1.7-1.4 3.1-3.1 3.1h-39.2c-2.5 0-4.6 2.1-4.6 4.6s2.1 4.6 4.6 4.6h28c1.7 0 3.1 1.4 3.1 3.1 0 1.7-1.4 3.1-3.1 3.1h13.1c-1.7 0-3.1-1.4-3.1-3.1 0-1.7 1.4-3.1 3.1-3.1h28.4c2.5 0 4.6-2.1 4.6-4.6s-2.1-4.6-4.6-4.6h-12.9c-1.7 0-3.1-1.4-3.1-3.1 0-1.7 1.4-3.1 3.1-3.1h35.3c2.5 0 4.6-2.1 4.6-4.6 0-2.6-2.1-4.6-4.6-4.6z" fill="#C7E4F9" p-id="1601"></path><path d="M317.4 327.5h-51.1c-2.5 0-4.6 2.1-4.6 4.6s2.1 4.6 4.6 4.6h51.1c2.5 0 4.6-2.1 4.6-4.6s-2-4.6-4.6-4.6z" fill="#C7E4F9" p-id="1602"></path></svg>