<?xml version="1.0" standalone="no"?><!DOCTYPE svg PUBLIC "-//W3C//DTD SVG 1.1//EN" "http://www.w3.org/Graphics/SVG/1.1/DTD/svg11.dtd"><svg t="1529578151484" class="icon" style="" viewBox="0 0 1129 1024" version="1.1" xmlns="http://www.w3.org/2000/svg" p-id="1751" xmlns:xlink="http://www.w3.org/1999/xlink" width="220.5078125" height="200"><defs><style type="text/css"></style></defs><path d="M452.564303 1023.752828H213.451476a42.637241 42.637241 0 0 1-42.637242-42.637242V782.892138a42.637241 42.637241 0 0 1 42.637242-42.637241h239.104a42.637241 42.637241 0 0 1 42.637241 42.637241v198.223448a42.637241 42.637241 0 0 1-42.637241 42.637242z" fill="#E87E04" p-id="1752"></path><path d="M678.329821 1023.752828H452.564303a42.637241 42.637241 0 0 1-42.637241-42.637242V825.538207H170.814234V484.749241c0-13.479724 6.36469-26.182621 17.196138-34.215724 7.803586-5.782069 350.914207-258.771862 352.158897-259.689931a42.637241 42.637241 0 0 1 50.599724 0.052966l351.955862 259.531034a42.637241 42.637241 0 0 1 17.328552 34.321655v340.780138H720.967062v155.57738a42.637241 42.637241 0 0 1-42.637241 42.646069zM404.833545 291.310345z m0.088276-0.044138h-0.017655 0.017655z m0.079448-0.044138a0.070621 0.070621 0 0 1-0.026483 0.017655l0.026483-0.017655z m0.088276-0.044138l-0.035311 0.017655 0.035311-0.017655z m0.079448-0.044138l-0.044138 0.026483 0.044138-0.026483z m0.079448-0.03531l-0.026482 0.008827 0.026482-0.008827z m112.322207-83.456l-0.026482 0.008827s0.017655 0 0.026482-0.017655z m0.052966-0.035311l-0.035311 0.017656 0.035311-0.017656z m0.052965-0.03531z m0.070621-0.044138l-0.052966 0.03531a0.335448 0.335448 0 0 1 0.052966-0.03531z" fill="#F2C500" p-id="1753"></path><path d="M917.424993 1023.752828H678.329821a42.637241 42.637241 0 0 1-42.637242-42.637242V782.892138a42.637241 42.637241 0 0 1 42.637242-42.637241h239.095172a42.637241 42.637241 0 0 1 42.637241 42.637241v198.223448a42.637241 42.637241 0 0 1-42.637241 42.637242z" fill="#D55400" p-id="1754"></path><path d="M942.724855 450.436414L590.786648 190.896552a42.584276 42.584276 0 0 0-25.714758-8.333242v841.189518h113.257931a42.637241 42.637241 0 0 0 42.637241-42.637242V825.538207h239.095172V484.749241a42.637241 42.637241 0 0 0-17.337379-34.312827z" fill="#F59D00" p-id="1755"></path><path d="M51.394648 349.457655L491.935338 24.576a123.286069 123.286069 0 0 1 147.058759 0l440.523034 324.881655c96.097103 70.885517 45.594483 223.567448-73.586759 223.567448-51.464828 0-30.825931 7.238621-440.470069-294.859034L198.444579 548.837517C66.004303 646.585379-79.72149 446.163862 51.394648 349.457655z" fill="#E87E04" p-id="1756"></path><path d="M1079.508303 349.457655L638.985269 24.576A123.639172 123.639172 0 0 0 565.07189 0.256v278.192552l0.388413-0.282483c405.203862 298.831448 387.354483 294.859034 440.461242 294.859034 119.410759 0 169.489655-152.823172 73.586758-223.567448z" fill="#D55400" p-id="1757"></path><path d="M720.967062 1023.752828H409.927062V625.867034a42.637241 42.637241 0 0 1 42.637241-42.637241h225.765518a42.637241 42.637241 0 0 1 42.637241 42.637241v397.885794zM678.338648 514.162759H452.573131a42.637241 42.637241 0 0 1 0-85.274483h225.765517a42.637241 42.637241 0 0 1 0 85.274483z" fill="#58595B" p-id="1758"></path><path d="M720.967062 625.867034a42.637241 42.637241 0 0 0-42.637241-42.637241h-113.257931v440.523035h155.895172V625.875862zM678.338648 428.879448H565.07189v85.283311h113.257931a42.637241 42.637241 0 0 0 0-85.274483z" fill="#414042" p-id="1759"></path></svg>