<?xml version="1.0" standalone="no"?><!DOCTYPE svg PUBLIC "-//W3C//DTD SVG 1.1//EN" "http://www.w3.org/Graphics/SVG/1.1/DTD/svg11.dtd"><svg t="1529578157072" class="icon" style="" viewBox="0 0 1024 1024" version="1.1" xmlns="http://www.w3.org/2000/svg" p-id="1872" xmlns:xlink="http://www.w3.org/1999/xlink" width="200" height="200"><defs><style type="text/css"></style></defs><path d="M907.621209 1020.031008H116.378791a44.389209 44.389209 0 0 1-44.38921-44.38921V624.473302a44.389209 44.389209 0 0 1 44.38921-44.389209h791.242418a44.389209 44.389209 0 0 1 44.38921 44.389209v351.168496a44.389209 44.389209 0 0 1-44.38921 44.38921z" fill="#F59D00" p-id="1873"></path><path d="M952.010419 668.862512H71.989581V228.915597h880.020838V668.854574z" fill="#F2C500" p-id="1874"></path><path d="M683.222326 1020.031008H340.777674V772.548465a44.389209 44.389209 0 0 1 44.38921-44.389209h253.666232a44.389209 44.389209 0 0 1 44.38921 44.389209V1020.031008z" fill="#E87E04" p-id="1875"></path><path d="M969.64862 317.694016H54.35138a44.389209 44.389209 0 0 1-41.293396-60.685892L101.836403 32.061519A44.397147 44.397147 0 0 1 143.129798 3.968992h737.748342a44.397147 44.397147 0 0 1 41.285457 28.092527l88.778419 224.946605a44.397147 44.397147 0 0 1-41.293396 60.685892z" fill="#F59D00" p-id="1876"></path><path d="M230.868341 495.361984h-19.37662a44.389209 44.389209 0 0 1 0-88.778418h19.368682a44.389209 44.389209 0 0 1 0 88.778418zM812.508279 495.361984h-19.37662a44.389209 44.389209 0 0 1 0-88.778418h19.368682a44.389209 44.389209 0 0 1 0 88.778418zM230.868341 846.522543h-19.37662a44.389209 44.389209 0 0 1 0-88.770481h19.368682a44.389209 44.389209 0 0 1 0 88.770481zM812.508279 846.522543h-19.37662a44.389209 44.389209 0 0 1 0-88.770481h19.368682a44.389209 44.389209 0 0 1 0 88.770481zM683.222326 668.862512H340.777674V421.379969a44.389209 44.389209 0 0 1 44.38921-44.389209h253.666232a44.389209 44.389209 0 0 1 44.38921 44.389209V668.854574z" fill="#E87E04" p-id="1877"></path><path d="M907.621209 580.084093h-395.629147V1020.031008h395.629147a44.389209 44.389209 0 0 0 44.38921-44.38921V624.473302a44.389209 44.389209 0 0 0-44.38921-44.389209z" fill="#E87E04" p-id="1878"></path><path d="M511.992062 228.907659h440.018357v439.962791H511.992062z" fill="#F59D00" p-id="1879"></path><path d="M683.222326 772.548465a44.389209 44.389209 0 0 0-44.38921-44.389209H512V1020.031008h171.222326V772.548465z" fill="#D55400" p-id="1880"></path><path d="M1010.942016 257.008124L922.163597 32.061519A44.397147 44.397147 0 0 0 880.870202 3.968992H512v313.725024h457.656558a44.389209 44.389209 0 0 0 41.293395-60.685892z" fill="#E87E04" p-id="1881"></path><path d="M812.508279 495.361984h-19.37662a44.389209 44.389209 0 0 1 0-88.778418h19.368682a44.389209 44.389209 0 0 1 0 88.778418zM812.508279 846.522543h-19.37662a44.389209 44.389209 0 0 1 0-88.770481h19.368682a44.389209 44.389209 0 0 1 0 88.770481zM683.222326 421.379969a44.389209 44.389209 0 0 0-44.38921-44.389209H512V668.854574h171.222326V421.379969z" fill="#D55400" p-id="1882"></path></svg>