<?xml version="1.0" standalone="no"?><!DOCTYPE svg PUBLIC "-//W3C//DTD SVG 1.1//EN" "http://www.w3.org/Graphics/SVG/1.1/DTD/svg11.dtd"><svg t="1522407771457" class="icon" style="" viewBox="0 0 1024 1024" version="1.1" xmlns="http://www.w3.org/2000/svg" p-id="2378" xmlns:xlink="http://www.w3.org/1999/xlink" width="200" height="200"><defs><style type="text/css"></style></defs><path d="M829.506331 281.641495c56.154951 0 101.839433-45.684482 101.839433-101.839433 0-56.153928-45.684482-101.83841-101.839433-101.83841-56.154951 0-101.839433 45.684482-101.839433 101.83841C727.666898 235.957013 773.35138 281.641495 829.506331 281.641495zM829.506331 118.699426c33.692357 0 61.10366 27.41028 61.10366 61.102636s-27.411303 61.10366-61.10366 61.10366-61.10366-27.411303-61.10366-61.10366S795.813974 118.699426 829.506331 118.699426z" p-id="2379"></path><path d="M822.540685 528.068977c3.576455 2.539846 7.693216 3.761674 11.775184 3.761674 6.320962 0 12.550851-2.935865 16.530488-8.449439L954.09386 380.348588c6.583952-9.119705 4.527107-21.851681-4.594645-28.435633-9.121751-6.583952-21.851681-4.523013-28.435633 4.594645l-91.418083 126.646422-89.527013-63.565734 33.072233-46.477544c19.779486-27.795043 13.256932-66.499553-14.540158-86.281085-18.969027-13.494339-43.015699-14.732539-62.665225-5.328355-5.14723-25.667589-19.232017-49.652863-41.586141-66.802452l-49.875944-38.259372c-23.741727-18.21178-53.154617-26.100448-82.820264-22.178115-29.665647 3.908006-56.033178 19.136849-74.245981 42.877553l-64.881706 84.580351c-11.617595 15.144932-19.021216 32.598442-21.850657 50.953486L179.345668 332.672752c-11.249205 0-20.367887 9.064446-20.367887 20.312628s9.118682 20.312628 20.367887 20.312628l182.557826 0c5.52483 26.077935 19.995403 49.091068 41.373293 65.48955l49.874921 38.259372c19.764136 15.160281 43.454698 23.160489 67.952648 23.158443 3.436262 0 6.890944-0.167822 10.351766-0.485047-13.046131 21.464871-11.516288 48.273447 2.495844 67.980277L283.863093 911.310452c-6.619768 9.096169-4.613064 21.833261 4.482081 28.453029 3.618411 2.63399 7.81192 3.90289 11.969613 3.90289 6.29231 0 12.498662-2.908236 16.485463-8.383948l250.39484-344.030427c5.592368 1.606591 11.333116 2.405793 17.052374 2.405793 2.857071 0 12.678764 0.471744 14.909571 0.471744l209.582319 0-171.20936 277.172717c-5.907547 9.570983-2.937912 21.910009 6.634094 27.819602 3.334955 2.056845 7.028067 3.039219 10.679223 3.037173 6.828522 0 13.500479-3.496637 17.35118-9.736758l190.384072-308.511469c3.87833-6.2831 4.051269-14.299681 0.453325-20.748556-3.595898-6.448876-10.402931-10.69969-17.786085-10.69969L645.569088 552.46255l70.932516-99.68435L822.540685 528.068977zM477.946416 444.723757l-49.874921-38.259372c-15.109116-11.587919-24.799826-28.368094-27.287483-47.246047-2.488681-18.879999 2.524496-37.597293 14.114462-52.703339l64.881706-84.580351c11.588943-15.109116 28.369118-24.799826 47.24707-27.287483 3.164063-0.417509 6.323009-0.62217 9.461489-0.62217 15.589047 0 30.66644 5.089925 43.24185 14.736633l49.875944 38.259372c18.069541 13.861706 27.633361 34.743292 27.846208 55.921637l-89.411379-68.215638c-8.577353-6.54609-20.776186-5.262864-27.805276 2.921539L426.171216 370.456287c-7.329942 8.53335-6.352685 21.392216 2.179642 28.722158 3.843538 3.302209 8.56405 4.916986 13.262048 4.916986 5.732561 0 11.432377-2.406816 15.46011-7.096628l101.541651-118.226658 84.152609 64.204277-39.410592 55.385425-25.459858 33.190937c-11.588943 15.107069-28.369118 24.799826-47.24707 27.285436C511.773849 461.32997 493.054509 456.31577 477.946416 444.723757zM567.114249 519.55814l69.006653-96.978728 69.441559-97.589642c6.758937-9.492188 19.97596-11.722996 29.471219-4.968152 9.494235 6.756891 11.721973 19.978007 4.967128 29.471219L601.550549 544.063253c-6.754844 9.495258-19.976984 11.721973-29.471219 4.967128C562.586119 542.272467 560.357358 529.051351 567.114249 519.55814z" p-id="2380"></path><path d="M87.691201 558.712905l360.744088 0c11.249205 0 20.367887-9.064446 20.367887-20.312628 0-11.248182-9.118682-20.312628-20.367887-20.312628L87.691201 518.087649c-11.249205 0-20.367887 9.064446-20.367887 20.312628C67.323315 549.648458 76.441996 558.712905 87.691201 558.712905z" p-id="2381"></path><path d="M336.410889 723.816197c0-11.248182-9.118682-20.312628-20.367887-20.312628L87.691201 703.503569c-11.249205 0-20.367887 9.064446-20.367887 20.312628 0 11.248182 9.118682 20.312628 20.367887 20.312628l228.352825 0C327.292208 744.128825 336.410889 735.064378 336.410889 723.816197z" p-id="2382"></path></svg>