<?xml version="1.0" standalone="no"?><!DOCTYPE svg PUBLIC "-//W3C//DTD SVG 1.1//EN" "http://www.w3.org/Graphics/SVG/1.1/DTD/svg11.dtd"><svg t="1522137131611" class="icon" style="" viewBox="0 0 1027 1024" version="1.1" xmlns="http://www.w3.org/2000/svg" p-id="774" xmlns:xlink="http://www.w3.org/1999/xlink" width="200.5859375" height="200"><defs><style type="text/css"></style></defs><path d="M711.111111 839.111111H331.804444a184.888889 184.888889 0 0 1 0-369.777778H711.111111a184.888889 184.888889 0 0 1 0 369.777778zM331.804444 497.777778a156.444444 156.444444 0 0 0 0 312.888889H711.111111a156.444444 156.444444 0 0 0 0-312.888889z" fill="" p-id="775"></path><path d="M652.515556 718.506667a81.92 81.92 0 1 1 81.92-81.92 82.062222 82.062222 0 0 1-81.92 81.92z m0-135.395556a53.475556 53.475556 0 1 0 53.475555 53.475556A53.475556 53.475556 0 0 0 652.515556 583.111111z" fill="" p-id="776"></path><path d="M758.755556 824.888889a14.222222 14.222222 0 0 1-14.222223-14.222222 92.16 92.16 0 1 0-184.888889 0 14.222222 14.222222 0 0 1-28.444444 0 120.604444 120.604444 0 1 1 241.777778 0 14.222222 14.222222 0 0 1-14.222222 14.222222zM410.737778 377.173333a81.92 81.92 0 1 1 81.92-81.92 82.062222 82.062222 0 0 1-81.92 81.92z m0-135.395555a53.475556 53.475556 0 1 0 53.475555 53.475555A53.475556 53.475556 0 0 0 410.737778 241.777778z" fill="" p-id="777"></path><path d="M516.977778 483.555556a14.222222 14.222222 0 0 1-14.222222-14.222223 92.16 92.16 0 1 0-184.888889 0 14.222222 14.222222 0 0 1-28.444445 0 120.604444 120.604444 0 1 1 241.777778 0 14.222222 14.222222 0 0 1-14.222222 14.222223z" fill="" p-id="778"></path></svg>