<?xml version="1.0" standalone="no"?><!DOCTYPE svg PUBLIC "-//W3C//DTD SVG 1.1//EN" "http://www.w3.org/Graphics/SVG/1.1/DTD/svg11.dtd"><svg t="1522410141818" class="icon" style="" viewBox="0 0 1024 1024" version="1.1" xmlns="http://www.w3.org/2000/svg" p-id="4674" xmlns:xlink="http://www.w3.org/1999/xlink" width="200" height="200"><defs><style type="text/css"></style></defs><path d="M308.216757 414.240489c-37.425378 0-67.87283 30.447453-67.87283 67.87283s30.447453 67.87283 67.87283 67.87283c37.424354 0 67.871807-30.447453 67.871807-67.87283S345.642135 414.240489 308.216757 414.240489zM308.216757 509.970784c-15.359826 0-27.857465-12.496615-27.857465-27.857465 0-15.359826 12.496615-27.857465 27.857465-27.857465 15.360849 0 27.856441 12.496615 27.856441 27.857465C336.073198 497.473145 323.577606 509.970784 308.216757 509.970784z" p-id="4675"></path><path d="M555.412742 259.794931c51.426253 0 93.263104-41.836851 93.263104-93.263104 0-51.426253-41.836851-93.263104-93.263104-93.263104-51.42523 0-93.26208 41.836851-93.26208 93.263104C462.149639 217.95808 503.987512 259.794931 555.412742 259.794931zM555.412742 113.284089c29.360701 0 53.247738 23.887037 53.247738 53.247738 0 29.360701-23.887037 53.247738-53.247738 53.247738-29.360701 0-53.246715-23.887037-53.246715-53.247738C502.165004 137.171126 526.051017 113.284089 555.412742 113.284089z" p-id="4676"></path><path d="M962.025507 565.826929c0-165.917844-116.800169-295.622928-277.783631-308.602543-1.727341-0.222057-3.464915-0.446162-5.213745-0.676405-7.752568-1.025353-15.770172-2.073218-24.287149-2.666736-7.990998-0.562818-15.546068 3.726881-19.198248 10.856255l-26.145473 51.072189L501.644141 315.809689l-27.015284-54.880935c-3.368724-6.834662-10.31288-11.203156-17.932418-11.203156-21.883403 0-42.528606 1.115404-62.004169 3.342118l-104.126522-75.763544c-5.047969-3.674693-11.520381-4.777817-17.505699-2.990101-5.982248 1.789763-10.785647 6.268774-12.987802 12.111852l-63.412239 168.250982c-0.138146 0.367367-0.239454 0.737804-0.355087 1.108241-24.486694 32.022321-44.312228 72.656787-61.651129 125.601626L80.057337 491.735467c-9.449209 1.786693-16.067954 10.042727-16.067954 19.658735L63.989383 641.083937c0 6.712889 3.25923 12.977569 8.856715 16.682961l61.4567 40.756239c25.521257 62.079894 88.299045 109.678982 153.790642 117.960599l0 107.476827c0 11.048637 8.495488 20.158109 19.545148 20.158109L431.685813 944.118672c11.04966 0 20.136619-9.109472 20.136619-20.158109l0-35.105542c31.722492 9.81453 57.238632 15.529695 102.035908 15.529695 38.624692 0 64.763003-4.194532 93.415576-11.369955l0 30.945803c0 11.048637 9.452279 20.158109 20.50194 20.158109l126.047788 0c11.04966 0 20.24816-9.109472 20.24816-20.158109l0-99.714026c94.14417-46.193065 146.932444-136.257314 147.830907-255.298524C962.063369 567.93187 962.025507 566.889121 962.025507 565.826929zM288.256146 225.110991l52.052516 37.874609c-29.529547 7.658424-55.714929 18.668175-78.800717 33.095769L288.256146 225.110991zM921.822876 565.824883c0 53.514821-11.30958 100.115162-33.698496 138.506541-23.049972 39.523155-57.334823 69.378114-102.071723 88.73702-7.321756 3.169179-11.888771 10.384511-11.888771 18.362206l0 92.781126-85.957721 0 0-36.990472c0-6.209422-3.091408-12.068873-8.012488-15.85613-4.923126-3.78828-11.532661-5.074575-17.533328-3.485381-39.759539 10.531867-64.399729 16.490579-108.60451 16.490579-48.089251 0-69.311599-6.830569-111.621217-20.439518l-4.571109-1.478677c-6.083555-1.959631-12.681834-0.887206-17.847483 2.88163-5.164626 3.764744-8.102538 9.773598-8.102538 16.166191l0 42.710754-83.911108 0 0-106.454544c0-11.048637-9.093099-20.007683-20.143783-20.007683-57.33687 0-118.274754-43.594891-138.557706-99.249445-1.466398-4.021593-4.099365-7.469112-7.66968-9.831926l-57.732889-38.33305L103.898325 527.972786l49.969065-9.484002c7.274684-1.375324 13.024641-6.655584 15.220656-13.725606 23.583115-75.9416 51.274804-124.472919 89.785909-157.357887 32.708959-27.929096 75.400271-45.5228 129.438001-53.193503 2.7793 0.210801 5.571902-0.146333 8.194636-1.071402 15.07023-1.824555 30.977525-2.921539 47.780213-3.275603l26.965142 54.704926c3.368724 6.834662 10.327206 11.149944 17.946744 11.149944l132.426055 0c7.507998 0 14.383592-4.190439 17.806551-10.872628l25.508977-49.77566c2.973728 0.361227 5.932106 0.75213 8.847505 1.136893 1.964748 0.258896 3.917216 0.51677 5.855358 0.76441 0.317225 0.040932 0.638543 0.073678 0.956791 0.098237 68.552306 5.421476 130.452097 35.682687 174.284395 85.210707 42.678008 48.224328 66.465784 112.25362 67.12991 180.592055C921.875065 563.836599 921.822876 564.821019 921.822876 565.824883z" p-id="4677"></path></svg>