<?xml version="1.0" standalone="no"?><!DOCTYPE svg PUBLIC "-//W3C//DTD SVG 1.1//EN" "http://www.w3.org/Graphics/SVG/1.1/DTD/svg11.dtd"><svg t="1522115742385" class="icon" style="" viewBox="0 0 1024 1024" version="1.1" xmlns="http://www.w3.org/2000/svg" p-id="13523" xmlns:xlink="http://www.w3.org/1999/xlink" width="200" height="200"><defs><style type="text/css"></style></defs><path d="M846.799 959.154h-671.46c-1.56-0.54-3.060-1.26-4.62-1.56-38.88-6.96-91.020-51.72-104.16-88.8-2.28-6.36-3.42-13.14-5.16-19.8v-671.46c0.54-1.56 1.32-3.060 1.62-4.62 7.979-42.66 59.58-95.4 101.28-106.62 3.66-0.959 7.38-1.8 11.099-2.7h597.78c-44.34-9.78 151.2 15.9 189.42 187.56v597.84c-0.54 1.5-1.26 3-1.56 4.62-7.979 42.721-61.441 91.68-103.139 102.9-3.66 0.959-7.38 1.8-11.099 2.64v0zM511.1 844.255c96.18 0 198 0 294.18-0.060 24.48 0 37.38-12.84 37.38-37.080 0-105.54 0-124.86 0-230.4 0-24.3-13.020-37.44-37.080-37.44-192.66 0-396.54 0-589.14 0-23.7 0-36.96 13.14-36.96 36.72-0.060 105.84-0.060 125.401 0 231.18 0 3.84 0.12 7.8 0.959 11.46 3.96 16.74 16.5 25.5 36.481 25.5 96.24 0.179 198.060 0.12 294.18 0.12v0zM494.54 423.354h188.939c26.341 0 39.060-12.659 39.060-38.94 0-71.939 0-91.32 0-163.26 0-26.46-12.42-38.88-38.94-38.88-137.22 0-268.8 0-406.020 0-25.98 0-38.7 12.6-38.7 38.399-0.060 72.18-0.060 91.861 0 164.040 0 25.8 12.84 38.58 38.58 38.58 68.64 0.060 148.44 0.060 217.080 0.060v0zM541.461 239.994h118.14v121.501h-118.14v-121.501zM541.461 239.994z" p-id="13524"></path></svg>