<?xml version="1.0" standalone="no"?><!DOCTYPE svg PUBLIC "-//W3C//DTD SVG 1.1//EN" "http://www.w3.org/Graphics/SVG/1.1/DTD/svg11.dtd"><svg t="1522407873557" class="icon" style="" viewBox="0 0 1024 1024" version="1.1" xmlns="http://www.w3.org/2000/svg" p-id="3952" xmlns:xlink="http://www.w3.org/1999/xlink" width="200" height="200"><defs><style type="text/css"></style></defs><path d="M837.71734 206.975958c-37.017078 0-56.389288-23.293519-61.505819-28.560476l0-46.14497c0 0-88.940658-47.993061-229.287103-47.993061s-223.014236 37.559431-223.014236 37.559431L323.910181 83.519182l-88.004333 0 0 768.502955-114.610294 0 0 88.004333 316.201615 0 0-88.004333-113.586988 0L323.910181 603.852988c0 0 83.871199-37.559431 227.697909-37.559431 35.429931 0 68.037583 2.281973 94.643544 5.717212l0 38.102806c0 0 44.74918 47.993061 132.858914 47.993061 88.109734 0 120.921024-47.993061 120.921024-47.993061L900.031571 178.176029C900.030547 178.176029 879.449813 206.975958 837.71734 206.975958z" p-id="3953"></path></svg>