<?xml version="1.0" standalone="no"?><!DOCTYPE svg PUBLIC "-//W3C//DTD SVG 1.1//EN" "http://www.w3.org/Graphics/SVG/1.1/DTD/svg11.dtd"><svg t="1769168238583" class="icon" viewBox="0 0 1024 1024" version="1.1" xmlns="http://www.w3.org/2000/svg" p-id="2700" xmlns:xlink="http://www.w3.org/1999/xlink" width="200" height="200"><path d="M762.39 909.79a16.83 16.83 0 0 1-16.81 16.81H190.87a16.83 16.83 0 0 1-16.81-16.81V111.35a16.83 16.83 0 0 1 16.81-16.81h554.71a16.83 16.83 0 0 1 16.81 16.81V371.9H796V111.35a50.48 50.48 0 0 0-50.43-50.43h-554.7a50.48 50.48 0 0 0-50.43 50.43v798.44a50.48 50.48 0 0 0 50.43 50.43h554.71A50.48 50.48 0 0 0 796 909.79v-193.3h-33.61z" fill="#2c2c2c" p-id="2701"></path><path d="M249.65 259.31h437.14v33.62H249.65zM249.596 448.129l0.052-33.62 420.28 0.66-0.053 33.62zM249.524 603.922l0.31-33.618 310.977 2.876-0.31 33.619zM249.534 761.71l0.229-33.62 218.575 1.488-0.229 33.62zM880.54 462.72a154.58 154.58 0 0 0-79.9-58 50.37 50.37 0 0 0-56.2 18.38l-135 185.88L513 742.31a33.59 33.59 0 0 0-6.17 16.05L495.88 858.5a33.63 33.63 0 0 0 47.21 34.32l91.7-41.25a33.85 33.85 0 0 0 13.35-10.83l97.19-133h0.05l135-185.88a50.34 50.34 0 0 0 0.16-59.14z m-90.17-26a121 121 0 0 1 62.9 45.69 16.78 16.78 0 0 1 0 19.71l-15 20.61a221.1 221.1 0 0 0-81.59-59.28l15-20.6a16.84 16.84 0 0 1 18.69-6.16zM733 667.54l-91.89 125.83a279.92 279.92 0 0 0-81-58.83L649.46 611l86.77-119.43a185.56 185.56 0 0 1 81.59 59.28L733 667.54zM529.3 862.16l10.86-99.46c15.32 7.09 30 15.14 43.37 24.81s25.53 21.2 37 33.59z" fill="#2c2c2c" p-id="2702"></path></svg>