<?xml version="1.0" standalone="no"?><!DOCTYPE svg PUBLIC "-//W3C//DTD SVG 1.1//EN" "http://www.w3.org/Graphics/SVG/1.1/DTD/svg11.dtd"><svg t="1769168981517" class="icon" viewBox="0 0 1024 1024" version="1.1" xmlns="http://www.w3.org/2000/svg" p-id="7872" xmlns:xlink="http://www.w3.org/1999/xlink" width="200" height="200"><path d="M192 388.266667l38.4 21.333333c-12.8 34.133333-17.066667 68.266667-17.066667 102.4s4.266667 68.266667 17.066667 102.4l-38.4 21.333333C179.2 597.333333 170.666667 554.666667 170.666667 512s8.533333-85.333333 21.333333-123.733333zM256 277.333333c55.466667-64 128-110.933333 213.333333-128v42.666667C401.066667 209.066667 337.066667 247.466667 290.133333 298.666667L256 277.333333z m618.666667 358.4l-38.4-21.333333c8.533333-29.866667 17.066667-68.266667 17.066666-102.4s-4.266667-68.266667-17.066666-102.4l38.4-21.333333c12.8 38.4 21.333333 81.066667 21.333333 123.733333s-8.533333 85.333333-21.333333 123.733333zM810.666667 746.666667c-55.466667 64-128 110.933333-213.333334 128v-42.666667c68.266667-12.8 132.266667-51.2 179.2-106.666667l34.133334 21.333334z m-554.666667 0l34.133333-21.333334c46.933333 51.2 106.666667 89.6 179.2 106.666667v42.666667c-85.333333-17.066667-162.133333-64-213.333333-128z m554.666667-469.333334l-34.133334 21.333334c-46.933333-51.2-106.666667-89.6-179.2-106.666667v-42.666667c85.333333 17.066667 162.133333 64 213.333334 128zM533.333333 213.333333c-25.6 0-42.666667-17.066667-42.666666-42.666666s17.066667-42.666667 42.666666-42.666667 42.666667 17.066667 42.666667 42.666667-17.066667 42.666667-42.666667 42.666666z m0 682.666667c-25.6 0-42.666667-17.066667-42.666666-42.666667s17.066667-42.666667 42.666666-42.666666 42.666667 17.066667 42.666667 42.666666-17.066667 42.666667-42.666667 42.666667z m-298.666666-170.666667c-25.6 0-42.666667-17.066667-42.666667-42.666666s17.066667-42.666667 42.666667-42.666667 42.666667 17.066667 42.666666 42.666667-17.066667 42.666667-42.666666 42.666666z m597.333333 0c-25.6 0-42.666667-17.066667-42.666667-42.666666s17.066667-42.666667 42.666667-42.666667 42.666667 17.066667 42.666667 42.666667-17.066667 42.666667-42.666667 42.666666z m-597.333333-341.333333c-25.6 0-42.666667-17.066667-42.666667-42.666667s17.066667-42.666667 42.666667-42.666666 42.666667 17.066667 42.666666 42.666666-17.066667 42.666667-42.666666 42.666667z m597.333333 0c-25.6 0-42.666667-17.066667-42.666667-42.666667s17.066667-42.666667 42.666667-42.666666 42.666667 17.066667 42.666667 42.666666-17.066667 42.666667-42.666667 42.666667z m-260.266667 59.733333h187.733334l-230.4 230.4v-102.4H341.333333L571.733333 341.333333v102.4z m-42.666666 42.666667v-42.666667l-85.333334 85.333334h128v42.666666l85.333334-85.333333h-128z" fill="#444444" p-id="7873"></path></svg>