<?xml version="1.0" standalone="no"?><!DOCTYPE svg PUBLIC "-//W3C//DTD SVG 1.1//EN" "http://www.w3.org/Graphics/SVG/1.1/DTD/svg11.dtd"><svg t="1522115345821" class="icon" style="" viewBox="0 0 1024 1024" version="1.1" xmlns="http://www.w3.org/2000/svg" p-id="9254" xmlns:xlink="http://www.w3.org/1999/xlink" width="200" height="200"><defs><style type="text/css"></style></defs><path d="M893.456828 709.055005" p-id="9255"></path><path d="M491.889987 337.939709" p-id="9256"></path><path d="M568.154951 338.993714" p-id="9257"></path><path d="M527.520485 46.054919c-247.706615 0-449.231421 201.524806-449.231421 449.231421s201.524806 449.231421 449.231421 449.231421 449.231421-201.524806 449.231421-449.231421S775.2271 46.054919 527.520485 46.054919zM527.520485 900.69058c-223.540216 0-405.40424-181.857884-405.40424-405.40424S303.980269 89.8821 527.520485 89.8821s405.40424 181.857884 405.40424 405.40424S751.060701 900.69058 527.520485 900.69058z" p-id="9258"></path><path d="M526.274098 265.191848c33.228799 0 60.262502-27.03882 60.262502-60.262502s-27.033703-60.262502-60.262502-60.262502-60.262502 27.03882-60.262502 60.262502S493.044276 265.191848 526.274098 265.191848zM526.274098 177.537486c15.102976 0 27.39186 12.283768 27.39186 27.39186s-12.288884 27.39186-27.39186 27.39186c-15.102976 0-27.39186-12.283768-27.39186-27.39186S511.170099 177.537486 526.274098 177.537486z" p-id="9259"></path><path d="M526.274098 736.337371c-33.228799 0-60.262502 27.03882-60.262502 60.262502 0 33.223682 27.033703 60.262502 60.262502 60.262502s60.262502-27.03882 60.262502-60.262502C586.5366 763.376191 559.502897 736.337371 526.274098 736.337371zM526.274098 823.991734c-15.102976 0-27.39186-12.283768-27.39186-27.39186s12.288884-27.39186 27.39186-27.39186c15.102976 0 27.39186 12.283768 27.39186 27.39186C553.665958 811.707966 541.377074 823.991734 526.274098 823.991734z" p-id="9260"></path><path d="M230.438323 440.501596c-33.228799 0-60.262502 27.03882-60.262502 60.262502s27.033703 60.262502 60.262502 60.262502 60.262502-27.03882 60.262502-60.262502S263.667122 440.501596 230.438323 440.501596zM230.438323 528.156982c-15.102976 0-27.39186-12.283768-27.39186-27.39186s12.288884-27.39186 27.39186-27.39186 27.39186 12.283768 27.39186 27.39186S245.541299 528.156982 230.438323 528.156982z" p-id="9261"></path><path d="M822.10885 440.501596c-33.228799 0-60.262502 27.03882-60.262502 60.262502s27.033703 60.262502 60.262502 60.262502 60.262502-27.03882 60.262502-60.262502S855.337649 440.501596 822.10885 440.501596zM822.10885 528.156982c-15.102976 0-27.39186-12.283768-27.39186-27.39186s12.288884-27.39186 27.39186-27.39186 27.39186 12.283768 27.39186 27.39186S837.211826 528.156982 822.10885 528.156982z" p-id="9262"></path><path d="M706.098673 270.50997l-179.825598 192.654788-99.029434-106.09127c-8.249895-8.870018-22.116717-9.340739-30.971385-1.070378-8.848529 8.260128-9.325389 22.127973-1.064238 30.966269l115.047246 123.264395c4.14132 4.440126 9.945513 6.965645 16.017812 6.965645 6.072299 0 11.877515-2.52552 16.017812-6.965645l195.84341-209.827913c8.260128-8.838296 7.78429-22.705118-1.064238-30.966269C728.226646 261.179464 714.353684 261.671675 706.098673 270.50997z" p-id="9263"></path></svg>