<?xml version="1.0" standalone="no"?><!DOCTYPE svg PUBLIC "-//W3C//DTD SVG 1.1//EN" "http://www.w3.org/Graphics/SVG/1.1/DTD/svg11.dtd"><svg t="1522121139491" class="icon" style="" viewBox="0 0 1024 1024" version="1.1" xmlns="http://www.w3.org/2000/svg" p-id="1255" xmlns:xlink="http://www.w3.org/1999/xlink" width="200" height="200"><defs><style type="text/css"></style></defs><path d="M972.8 1024H51.2a51.2 51.2 0 0 1-51.2-51.2V51.2a51.2 51.2 0 0 1 51.2-51.2h921.6a51.2 51.2 0 0 1 51.2 51.2v921.6a51.2 51.2 0 0 1-51.2 51.2zM102.4 921.6h819.2V102.4H102.4v819.2z m358.4-460.8H204.8V204.8h256v256z m358.4 0H563.2V204.8h256v256zM460.8 819.2H204.8V563.2h256v256z m358.4 0H563.2V563.2h256v256z" fill="#54626C" p-id="1256"></path></svg>