<?xml version="1.0" standalone="no"?><!DOCTYPE svg PUBLIC "-//W3C//DTD SVG 1.1//EN" "http://www.w3.org/Graphics/SVG/1.1/DTD/svg11.dtd"><svg t="1522390488882" class="icon" style="" viewBox="0 0 1024 1024" version="1.1" xmlns="http://www.w3.org/2000/svg" p-id="3399" xmlns:xlink="http://www.w3.org/1999/xlink" width="200" height="200"><defs><style type="text/css"></style></defs><path d="M914.369536 16.868352 110.189568 16.868352c-28.992512 0-52.497408 23.5008-52.497408 52.497408l0 883.704832c0 28.992512 23.50592 52.497408 52.497408 52.497408l534.84032 0 172.776448 0 96.564224 0c28.992512 0 52.497408-23.50592 52.497408-52.497408L966.867968 69.36576C966.867968 40.368128 943.362048 16.868352 914.369536 16.868352zM356.176896 61.21472c9.500672-1.640448 19.033088 4.426752 20.922368 14.081024 0.198656 1.04448 6.438912 28.804096 34.126848 33.67936l181.513216-0.249856c24.574976-4.625408 30.821376-32.385024 31.066112-33.57696 2.04288-9.551872 11.493376-15.476736 21.019648-13.831168 9.577472 1.98656 15.822848 11.24352 13.959168 20.846592-0.422912 2.13504-10.897408 52.731904-62.936064 61.937664l-93.879296 0.249856-93.848576 0c-55.151616-9.455616-65.620992-60.05248-66.043904-62.18752C340.206592 72.45824 346.503168 63.105024 356.176896 61.21472zM759.968768 576.62464 161.37728 576.62464c-9.847808 0-17.835008-7.957504-17.835008-17.810432s7.988224-17.810432 17.835008-17.810432l598.591488 0c9.852928 0 17.835008 7.957504 17.835008 17.810432S769.821696 576.62464 759.968768 576.62464zM143.542272 444.19072c0-9.852928 7.988224-17.810432 17.835008-17.810432l399.069184 0c9.852928 0 17.835008 7.957504 17.835008 17.810432s-7.983104 17.810432-17.835008 17.810432L161.37728 462.001152C151.530496 462.001152 143.542272 454.043648 143.542272 444.19072zM759.968768 334.641152 161.37728 334.641152c-9.847808 0-17.835008-7.957504-17.835008-17.810432s7.988224-17.810432 17.835008-17.810432l598.591488 0c9.852928 0 17.835008 7.957504 17.835008 17.810432S769.821696 334.641152 759.968768 334.641152z" p-id="3400"></path></svg>