<?xml version="1.0" standalone="no"?><!DOCTYPE svg PUBLIC "-//W3C//DTD SVG 1.1//EN" "http://www.w3.org/Graphics/SVG/1.1/DTD/svg11.dtd"><svg t="1522410204828" class="icon" style="" viewBox="0 0 1024 1024" version="1.1" xmlns="http://www.w3.org/2000/svg" p-id="6379" xmlns:xlink="http://www.w3.org/1999/xlink" width="200" height="200"><defs><style type="text/css"></style></defs><path d="M954.785615 619.697861l-82.728166-82.72612c-7.816013-7.81192-20.481474-7.81192-28.297486 0l-82.728166 82.72612c-7.813966 7.813966-7.813966 20.48352 0 28.297486 7.816013 7.809873 20.481474 7.813966 28.297486 0l50.14712-50.14712c-1.360997 98.685603-34.201963 181.049472-95.221712 238.486626-53.839209 50.675146-128.782062 80.150458-212.613352 84.002183L531.641339 422.233534l108.166535 0c11.04966 0 20.008706-9.41544 20.008706-20.466124s-8.959046-20.466124-20.008706-20.466124L531.640316 381.301286l0-44.097334c66.103534-9.233292 117.149117-66.13321 117.149117-134.73975 0-75.023694-61.037145-136.060839-136.060839-136.060839-75.024717 0-136.061862 61.037145-136.061862 136.060839 0 67.884087 49.974182 124.313284 115.064642 134.439922l0 44.397163L377.690038 381.301286c-11.050684 0-20.008706 9.41544-20.008706 20.466124s8.958022 20.466124 20.008706 20.466124l114.041336 0 0 497.996055c-82.989109-4.242627-157.137877-33.640168-210.529901-83.894735-60.615543-57.05546-93.433996-138.703015-95.201246-236.518808l48.178279 48.178279c3.906983 3.90596 9.027607 5.860475 14.148231 5.860475s10.242272-1.953492 14.149255-5.860475c7.813966-7.813966 7.812943-20.48352-0.001023-28.297486l-82.727143-82.72612c-7.81192-7.81192-20.48352-7.81192-28.29544 0l-82.727143 82.72612c-7.813966 7.813966-7.814989 20.48352-0.001023 28.297486 7.816013 7.81192 20.484543 7.813966 28.296463 0l48.955992-48.955992c1.641383 109.497856 38.815027 201.505363 107.798145 266.436188 65.309448 61.473073 157.275 95.328136 258.954797 95.328136 101.67775 0 193.643302-33.855062 258.953773-95.328136 68.577888-64.550155 105.731066-155.855674 107.777679-264.507256l47.028083 47.028083c3.908006 3.90596 9.027607 5.860475 14.149255 5.860475s10.241248-1.953492 14.149255-5.860475C962.599581 640.181381 962.599581 627.511827 954.785615 619.697861zM416.685167 202.464201c0-52.958142 43.084261-96.042403 96.043427-96.042403 52.959166 0 96.042403 43.084261 96.042403 96.042403 0 51.607378-40.915875 93.831039-92.0116 95.952352-1.62194-0.425695-3.315512-0.675382-5.073552-0.675382-1.63422 0-3.213181 0.217964-4.732791 0.587378C456.673927 295.331285 416.685167 253.483178 416.685167 202.464201z" p-id="6380"></path></svg>