<?xml version="1.0" standalone="no"?><!DOCTYPE svg PUBLIC "-//W3C//DTD SVG 1.1//EN" "http://www.w3.org/Graphics/SVG/1.1/DTD/svg11.dtd"><svg t="1522115159264" class="icon" style="" viewBox="0 0 1582 1024" version="1.1" xmlns="http://www.w3.org/2000/svg" p-id="7356" xmlns:xlink="http://www.w3.org/1999/xlink" width="308.984375" height="200"><defs><style type="text/css"></style></defs><path d="M1289.818916 1024c-141.396536 0-259.349533-100.438131-286.536573-233.918604h-25.501109A86.130841 86.130841 0 0 1 811.862928 757.632399c0-1.595016 0.049445-3.169296 0.135577-4.738792L452.751551 391.609819c-0.113246-0.114841-0.208947-0.239252-0.319003-0.355688l-29.262155 78.202019A292.685358 292.685358 0 0 1 584.871477 731.314642c0 161.645259-130.926854 292.685358-292.434941 292.685358S0 892.9599 0 731.314642 130.928449 438.629283 292.436536 438.629283a293.198953 293.198953 0 0 1 62.760673 6.780412l96.723339-258.49301a26.068935 26.068935 0 0 1 2.834343-7.571539l0.859713-2.298417h0.596536a26.269907 26.269907 0 0 1 21.496025-11.165109h162.691589a26.317757 26.317757 0 0 1 0 52.635514h-123.332985l-27.453408 73.370716h516.282617l15.216449-32.190604c-41.690517 5.204536-75.082168 13.050417-75.082168 13.050418a22.56947 22.56947 0 0 1-13.627814-15.615203c-2.815202-11.287925 1.947514-31.230405 1.947515-31.230405s57.080822-51.359502 126.54694-58.556212c64.119626-6.641645 122.656698 11.710604 122.656698 11.710605S1218.5919 211.46557 1218.5919 233.709657C1218.5919 258.202717 1183.547813 272.747664 1183.547813 272.747664S1137.825097 255.180162 1086.205607 255.180162c-5.703776 0-11.484112 0.140361-17.269233 0.384399l-31.18734 65.977819 111.880773 152.858318A290.918081 290.918081 0 0 1 1289.818916 438.629283C1451.327003 438.629283 1582.255452 569.669383 1582.255452 731.314642S1451.327003 1024 1289.818916 1024zM407.808798 510.507065l-11.549508 30.868337a34.045607 34.045607 0 0 1-19.264598 19.725558L334.315265 675.489097a62.205607 62.205607 0 1 1-43.778393-16.706194l41.743153-111.891937a34.187564 34.187564 0 0 1-3.509034-30.869932l10.973707-29.327551a249.916611 249.916611 0 0 0-47.314542-4.520274c-137.490343 0-248.940461 111.545819-248.940461 249.141433S154.944598 980.456075 292.430156 980.456075s248.938866-111.545819 248.938866-249.141433a249.131863 249.131863 0 0 0-133.560224-220.807577z m715.34056 35.728349a248.572012 248.572012 0 0 0-82.242193 181.640374h195.595165a62.272598 62.272598 0 0 1 9.512673-13.766579zM897.196262 816.647975a59.813084 59.813084 0 1 0-59.813084-59.813084 59.813084 59.813084 0 0 0 59.813084 59.813084zM505.422156 354.093458l319.291813 321.105346L976.492461 354.093458H505.422156z m501.30223 33.083813L870.143202 676.127103a86.143601 86.143601 0 0 1 108.698717 51.7439h18.585121a292.068087 292.068087 0 0 1 99.911776-216.895003zM1289.798181 482.173209a247.705919 247.705919 0 0 0-114.203116 27.713395l137.282991 187.564262a62.205607 62.205607 0 1 1-72.975153 92.63372H1047.842293A249.068062 249.068062 0 0 0 1289.798181 980.456075c137.490343 0 248.938866-111.545819 248.938866-249.141433S1427.283738 482.173209 1289.798181 482.173209z" p-id="7357"></path></svg>