<?xml version="1.0" standalone="no"?><!DOCTYPE svg PUBLIC "-//W3C//DTD SVG 1.1//EN" "http://www.w3.org/Graphics/SVG/1.1/DTD/svg11.dtd"><svg t="1522410225862" class="icon" style="" viewBox="0 0 1024 1024" version="1.1" xmlns="http://www.w3.org/2000/svg" p-id="6860" xmlns:xlink="http://www.w3.org/1999/xlink" width="200" height="200"><defs><style type="text/css"></style></defs><path d="M231.8116 896.024304l559.748491 0 0-649.799436-121.773438 0 0-57.359382c0-33.098839-26.790156-61.344137-59.888995-61.344137L415.558507 127.521349c-33.098839 0-61.97347 28.245298-61.97347 61.344137l0 57.359382-121.773438 0L231.8116 896.024304zM393.493979 188.866509c0-11.033287 11.031241-21.435195 22.064528-21.435195l194.33915 0c11.032264 0 19.980054 10.401908 19.980054 21.435195l0 57.359382-236.383732 0L393.493979 188.866509z" p-id="6861"></path><path d="M851.935156 246.533906l0 650.189316c60.375066-1.063215 108.470457-50.383504 108.470457-110.407576L960.405613 357.3682C960.405613 297.345152 912.310222 247.606331 851.935156 246.533906z" p-id="6862"></path><path d="M171.436534 246.517533c-60.375066 0.720408-107.447151 50.609655-107.447151 110.850667l0 428.948469c0 60.241013 47.072085 109.709681 107.447151 110.423949L171.436534 246.517533z" p-id="6863"></path></svg>