<?xml version="1.0" standalone="no"?><!DOCTYPE svg PUBLIC "-//W3C//DTD SVG 1.1//EN" "http://www.w3.org/Graphics/SVG/1.1/DTD/svg11.dtd"><svg t="1522121125805" class="icon" style="" viewBox="0 0 1024 1024" version="1.1" xmlns="http://www.w3.org/2000/svg" p-id="1128" xmlns:xlink="http://www.w3.org/1999/xlink" width="200" height="200"><defs><style type="text/css"></style></defs><path d="M563.199859 1023.999744h-102.399974a51.199987 51.199987 0 0 1-48.639988-34.995191l-43.519989-130.841568-123.391969 61.695985a51.199987 51.199987 0 0 1-59.110386-9.599998l-72.396781-72.422381a51.199987 51.199987 0 0 1-9.599998-59.110386L165.862359 655.359836l-130.867168-43.519989A51.199987 51.199987 0 0 1 0 563.199859v-102.399974a51.199987 51.199987 0 0 1 34.995191-48.639988l130.841568-43.519989-61.695985-123.366369a51.199987 51.199987 0 0 1 9.599998-59.110386l72.396781-72.422381a51.199987 51.199987 0 0 1 59.110386-9.599998l123.391969 61.695985 43.519989-130.841568A51.199987 51.199987 0 0 1 460.799885 0h102.399974a51.199987 51.199987 0 0 1 48.639988 34.995191l43.519989 130.841568 123.391969-61.695985a51.199987 51.199987 0 0 1 59.110386 9.599998l72.396781 72.422381a51.199987 51.199987 0 0 1 9.599998 59.110386L858.137385 368.639908l130.841568 43.519989A51.199987 51.199987 0 0 1 1023.999744 460.799885v102.399974a51.199987 51.199987 0 0 1-34.995191 48.639988l-130.841568 43.519989 61.695985 123.340769a51.199987 51.199987 0 0 1-9.599998 59.110386l-72.396781 72.422381a51.379187 51.379187 0 0 1-59.110386 9.599998l-123.391969-61.670385-43.519989 130.841568A51.199987 51.199987 0 0 1 563.199859 1023.999744z m-65.510383-102.399974h28.595192l46.361589-138.956766a71.859182 71.859182 0 0 1 87.987178-36.351991l130.892767 65.459184 20.198395-20.223995-65.459184-130.867167a72.063982 72.063982 0 0 1 36.351991-88.038378L921.59977 526.310268v-28.620792l-138.956766-46.310389a72.063982 72.063982 0 0 1-36.351991-88.038378l65.459184-130.867167-20.198395-20.223995-130.892767 65.459184a71.910382 71.910382 0 0 1-87.987178-36.351991L526.310268 102.399974h-28.620792l-46.335989 138.956766a71.910382 71.910382 0 0 1-87.987178 36.351991L232.447942 212.249547l-20.198395 20.223995 65.459184 130.867167a72.063982 72.063982 0 0 1-36.351991 88.038378L102.399974 497.689476v28.595192l138.956766 46.310389a72.063982 72.063982 0 0 1 36.351991 88.038378l-65.459184 130.892767 20.198395 20.223995 130.892767-65.459184a71.859182 71.859182 0 0 1 87.987178 36.351991zM409.599898 511.999872a102.399974 102.399974 0 1 1 102.399974 102.399974 102.399974 102.399974 0 0 1-102.399974-102.399974z" fill="#54626C" p-id="1129"></path></svg>