<?xml version="1.0" standalone="no"?><!DOCTYPE svg PUBLIC "-//W3C//DTD SVG 1.1//EN" "http://www.w3.org/Graphics/SVG/1.1/DTD/svg11.dtd"><svg t="1522410241180" class="icon" style="" viewBox="0 0 1024 1024" version="1.1" xmlns="http://www.w3.org/2000/svg" p-id="7100" xmlns:xlink="http://www.w3.org/1999/xlink" width="200" height="200"><defs><style type="text/css"></style></defs><path d="M583.418586 257.005398c52.80567 0 95.766111-42.960441 95.766111-95.768157 0-52.80567-42.959418-95.767134-95.766111-95.767134-52.806693 0-95.768157 42.960441-95.768157 95.767134C487.651452 214.044958 530.612916 257.005398 583.418586 257.005398zM583.418586 106.743116c30.048363 0 54.495148 24.446785 54.495148 54.495148 0 30.049387-24.446785 54.496172-54.495148 54.496172-30.049387 0-54.496172-24.446785-54.496172-54.496172C528.923438 131.189901 553.370223 106.743116 583.418586 106.743116z" p-id="7101"></path><path d="M936.390663 915.116127 622.549815 915.116127c0.925069-1.703805 1.636267-3.559059 2.060939-5.552459l42.205241-198.363813c1.683339-7.916297-1.413186-16.083304-7.922437-20.891819l-127.944997-94.5187c4.92108-6.694469 8.499581-14.368242 10.471492-22.697955l32.852222-138.785903 27.329439 57.247842c3.491521 7.313569 10.827603 11.746532 18.62008 11.746532 1.794879 0 3.614317-0.23536 5.417383-0.725524l164.467819-44.712341c10.999518-2.989077 17.49035-14.328333 14.499226-25.325805-2.989077-11.001565-14.332427-17.496489-25.325805-14.499226l-147.852396 40.193421-41.995463-87.970564 7.718799-32.608675c3.856841-16.293081 1.13894-33.112142-7.656377-47.359634-8.79327-14.249539-22.60995-24.218588-38.903032-28.076452-16.292058-3.852748-33.111119-1.136893-47.358611 7.656377-5.892197 3.63683-11.038404 8.142447-15.337313 13.317307-15.379269-23.134907-39.203884-40.72861-68.305689-47.618531l-49.77873-11.783371c-29.498848-6.985088-59.95551-2.059915-85.754083 13.862729-25.797549 15.924691-43.851741 40.939411-50.833759 70.440305l-23.721261 100.209306c-14.415314 60.900022 23.401989 122.17355 84.300988 136.592958l49.777707 11.783371 0.001023 0c8.757454 2.071172 17.514909 3.064802 26.146497 3.064802 17.176195 0 33.818223-3.952009 48.838312-11.136641-2.442632 14.896268 0.509606 29.998221 8.514931 42.968627 5.203512 8.429996 12.175297 15.347546 20.366863 20.402679l-25.610284 138.101311-184.072319 152.096047c-4.109598 3.39533-6.544043 8.051373-7.253194 12.941753L86.187965 915.114081c-11.397584 0-20.635993 9.245572-20.635993 20.642133 0 11.396561 9.238408 20.642133 20.635993 20.642133L936.390663 956.398346c11.396561 0 20.635993-9.245572 20.635993-20.642133C957.026656 924.361699 947.787224 915.116127 936.390663 915.116127zM524.907984 304.994366c3.422959-2.112104 7.280824-3.197832 11.206226-3.197832 1.654686 0 3.320629 0.193405 4.971222 0.584308 5.564739 1.315972 10.285251 4.721535 13.288654 9.588379 3.003404 4.866844 3.931542 10.612709 2.614547 16.176424l-55.731302 235.43922c-1.318018 5.565762-4.723581 10.285251-9.590426 13.288654-4.865821 3.000334-10.611685 3.931542-16.175401 2.613524-0.001023 0-0.001023 0-0.002047 0-5.564739-1.315972-10.283204-4.721535-13.287631-9.588379-3.003404-4.866844-3.931542-10.611685-2.614547-16.176424l15.420201-65.144696c2.086521-5.195326 3.834328-10.595312 5.16258-16.205077l23.721261-100.211353c1.340531-5.662977 2.227738-11.329023 2.688225-16.9613l8.739035-36.918841C516.635577 312.716234 520.04114 307.998793 524.907984 304.994366zM401.772526 510.921435l0.986467-120.881115 58.138118-21.024849-25.263383 106.727767C428.659897 491.334331 416.504042 503.606843 401.772526 510.921435zM303.310004 504.730433c-38.753629-9.172917-62.820768-48.168046-53.647851-86.920652l23.721261-100.209306c4.444219-18.773576 15.932878-34.694173 32.349779-44.826951 16.418948-10.132778 35.801391-13.262048 54.570873-8.820899l49.779753 11.783371c25.701358 6.083555 44.929282 25.286919 52.299133 48.833195l-87.158059 31.501458c-8.114818 2.935865-13.546527 10.567683-13.617136 19.196201l-1.162476 142.593626c-2.448772-0.319272-4.903683-0.765433-7.357572-1.346671l0.001023 0L303.310004 504.730433zM453.903837 777.12124c3.733021-3.085268 6.262634-7.384178 7.145747-12.145621L487.762993 620.929922c2.166339-0.25378 4.317329-0.623193 6.444782-1.104147 0.520863 0.474814 1.070378 0.927115 1.64957 1.354857l127.823224 94.427626-39.440267 185.366801c-1.065262 5.008061-0.203638 9.971096 2.065032 14.141068L286.896172 915.116127 453.903837 777.12124z" p-id="7102"></path></svg>