<svg xmlns="http://www.w3.org/2000/svg" xmlns:xlink="http://www.w3.org/1999/xlink" fill="none" version="1.1" width="24" height="24" viewBox="0 0 24 24"><defs><clipPath id="master_svg0_431_66098"><rect x="0" y="0" width="24" height="24" rx="0"/></clipPath></defs><g clip-path="url(#master_svg0_431_66098)"><g><path d="M18.031,16.616799999999998L22.3137,20.8995L20.8995,22.3137L16.616799999999998,18.031C15.0769,19.263,13.124,20,11,20C6.0320001,20,2,15.968,2,11C2,6.0320001,6.0320001,2,11,2C15.968,2,20,6.0320001,20,11C20,13.124,19.263,15.0769,18.031,16.616799999999998ZM16.0247,15.8748C17.247498999999998,14.6146,18,12.8956,18,11C18,7.1325002,14.8675,4,11,4C7.1325002,4,4,7.1325002,4,11C4,14.8675,7.1325002,18,11,18C12.8956,18,14.6146,17.247498999999998,15.8748,16.0247L16.0247,15.8748Z" fill="#FFFFFF" fill-opacity="1" style="mix-blend-mode:passthrough"/></g></g></svg>