<svg xmlns="http://www.w3.org/2000/svg" xmlns:xlink="http://www.w3.org/1999/xlink" fill="none" version="1.1" width="60" height="60" viewBox="0 0 60 60"><defs><clipPath id="master_svg0_431_66102"><rect x="0" y="0" width="60" height="60" rx="0"/></clipPath></defs><g clip-path="url(#master_svg0_431_66102)"><g><path d="M57.5,47.4997523984375L55,47.4997523984375L55,22.4997753984375L45,22.4997753984375L45,16.4642253984375L30,1.4642333984375L15,16.4642253984375L15,22.4997753984375L5,22.4997753984375L5,47.4997523984375L2.5,47.4997523984375L2.5,52.4997523984375L57.5,52.4997523984375L57.5,47.4997523984375ZM15,47.5000003984375L10,47.5000003984375L10,27.5000003984375L15,27.5000003984375L15,47.5000003984375ZM45,27.5000003984375L50,27.5000003984375L50,47.5000003984375L45,47.5000003984375L45,27.5000003984375ZM27.5,30.0000003984375L32.5,30.0000003984375L32.5,47.5000003984375L27.5,47.5000003984375L27.5,30.0000003984375Z" fill="#FFFFFF" fill-opacity="1" style="mix-blend-mode:passthrough"/></g></g></svg>