<svg xmlns="http://www.w3.org/2000/svg" xmlns:xlink="http://www.w3.org/1999/xlink" fill="none" version="1.1" width="60" height="60" viewBox="0 0 60 60"><defs><clipPath id="master_svg0_431_66114"><rect x="0" y="0" width="60" height="60" rx="0"/></clipPath></defs><g clip-path="url(#master_svg0_431_66114)"><g><path d="M32.51225703125,42.35224908447265L32.51225703125,47.50675208447266L45.01225303125,47.50675208447266L45.01225303125,52.50675208447266L15.01220703125,52.50675208447266L15.01220703125,47.50675208447266L27.51225703125,47.50675208447266L27.51225703125,42.35224908447265C17.64643203125,41.121994084472654,10.01220703125,32.70600108447266,10.01220703125,22.506875084472654L10.01220703125,7.506874084472656L50.01225303125,7.506874084472656L50.01225303125,22.506875084472654C50.01225303125,32.70600108447266,42.37801003125,41.121994084472654,32.51225703125,42.35224908447265ZM2.51220703125,12.506874084472656L7.51220703125,12.506874084472656L7.51220703125,22.506875084472654L2.51220703125,22.506875084472654L2.51220703125,12.506874084472656ZM52.51225303125,12.506874084472656L57.51225303125,12.506874084472656L57.51225303125,22.506875084472654L52.51225303125,22.506875084472654L52.51225303125,12.506874084472656Z" fill="#FFFFFF" fill-opacity="1" style="mix-blend-mode:passthrough"/></g></g></svg>