<svg xmlns="http://www.w3.org/2000/svg" xmlns:xlink="http://www.w3.org/1999/xlink" fill="none" version="1.1" width="24" height="24" viewBox="0 0 24 24"><defs><linearGradient x1="0.5" y1="0" x2="0.5" y2="1" id="master_svg0_22_52435"><stop offset="0%" stop-color="#FFFFFF" stop-opacity="1"/><stop offset="100%" stop-color="#FFFFFF" stop-opacity="0"/></linearGradient></defs><g><g><g><path d="M11.36657,21.6156C11.62761,22.1281,12.37264,22.1281,12.63368,21.6156C13.1372,20.7488,13.6685,19.8909,14.1639,19.0172C14.4239,18.5585,14.8483,18.2223,15.3347,18.0189C18.442500000000003,16.7193,20.5,13.7113,20.5,10.34379C20.5,5.73564,16.6944,2,12,2C7.30558,2,3.5,5.73564,3.5,10.34379C3.5000000000000013,13.7156,5.56212,16.7239,8.67087,18.0213C9.190349999999999,18.2381,9.64947,18.6187,9.91843,19.1132C10.37817,19.9584,10.89763,20.7833,11.36657,21.6156Z" fill-rule="evenodd" fill="#3860FD" fill-opacity="1"/><path d="M11.36657,21.6156C11.62761,22.1281,12.37264,22.1281,12.63368,21.6156C13.1372,20.7488,13.6685,19.8909,14.1639,19.0172C14.4239,18.5585,14.8483,18.2223,15.3347,18.0189C18.442500000000003,16.7193,20.5,13.7113,20.5,10.34379C20.5,5.73564,16.6944,2,12,2C7.30558,2,3.5,5.73564,3.5,10.34379C3.5000000000000013,13.7156,5.56212,16.7239,8.67087,18.0213C9.190349999999999,18.2381,9.64947,18.6187,9.91843,19.1132C10.37817,19.9584,10.89763,20.7833,11.36657,21.6156Z" fill-rule="evenodd" fill="url(#master_svg0_22_52435)" fill-opacity="1" style="mix-blend-mode:overlay"/></g></g><g><path d="M16.363599999999998,15.4402C16.363599999999998,15.7493,16.1194,16,15.81818,16L8.18182,16C7.8805700000000005,16,7.63636,15.7493,7.63636,15.4402L7.63636,10.40157L6,10.40157L11.632909999999999,5.145759C11.84101,4.9514136,12.15899,4.9514136,12.367090000000001,5.145759L18,10.40157L16.363599999999998,10.40157L16.363599999999998,15.4402ZM9.81818,12.64094L9.81818,13.76063L14.18182,13.76063L14.18182,12.64094L9.81818,12.64094Z" fill="#FFFFFF" fill-opacity="1"/></g></g></svg>