<?xml version="1.0" standalone="no"?>
<!DOCTYPE svg PUBLIC "-//W3C//DTD SVG 1.1//EN" "http://www.w3.org/Graphics/SVG/1.1/DTD/svg11.dtd">
<svg t="1706085892381" class="icon" viewBox="0 0 1024 1024" version="1.1"
  xmlns="http://www.w3.org/2000/svg" p-id="8434" xmlns:xlink="http://www.w3.org/1999/xlink"
  width="200" height="200">
  <path
    d="M975.937784 0H47.99694A47.99694 47.99694 0 0 0 0 47.99694v927.940844a47.99694 47.99694 0 0 0 47.99694 47.99694h143.350862v-63.99592H63.99592V63.99592h895.942884v125.432004h63.99592V47.99694a47.99694 47.99694 0 0 0-47.99694-47.99694zM959.938804 959.938804h-255.53571v63.99592h271.53469a47.99694 47.99694 0 0 0 47.99694-47.99694v-269.742804h-63.99592z"
    fill="#FFFFFF" p-id="8435"></path>
  <path
    d="M1021.374887 474.209769a43.261242 43.261242 0 0 0-12.799184-30.974025l-88.122382-88.186378a43.709214 43.709214 0 0 0-61.820059 0l-451.555213 451.555213a84.666603 84.666603 0 0 0-19.646748 30.910029l-45.181119 125.048029a45.757083 45.757083 0 0 0 42.81327 61.308091 45.885075 45.885075 0 0 0 15.551009-2.687828l125.368008-44.925136a84.986582 84.986582 0 0 0 31.102017-19.710744l451.491217-451.491217a43.261242 43.261242 0 0 0 12.799184-30.846034zM511.967362 911.237909a20.606686 20.606686 0 0 1-7.487523 4.735698l-88.762341 31.869968 31.99796-88.570354a20.350703 20.350703 0 0 1 4.671702-7.35953L889.543292 414.693563l59.516205 59.388214zM563.804057 484.897088l25.342385-31.166013c67.643688-83.066704 212.466455-261.103355 219.378015-269.422825a31.99796 31.99796 0 0 0-47.356981-43.005258c-1.40791 1.471906-1.663894 1.72789-221.617872 271.982661l-14.207095 17.40689-199.347291-160.437772a45.885075 45.885075 0 0 0-38.269561-9.343404 46.397042 46.397042 0 0 0-31.741976 23.358511L130.935653 514.463203a31.99796 31.99796 0 0 0 56.252414 30.526054l115.000668-211.698504L498.784203 491.488668a46.397042 46.397042 0 0 0 65.019854-6.59158z"
    fill="#FFFFFF" p-id="8436"></path>
</svg>