<svg xmlns="http://www.w3.org/2000/svg" xmlns:xlink="http://www.w3.org/1999/xlink" fill="none" version="1.1" width="32" height="32" viewBox="0 0 32 32"><g transform="matrix(0,1,1,0,0,0)"><g><path d="M32,16Q32,16.392776,31.980726,16.785082Q31.961454,17.177387,31.922956,17.568274Q31.884457,17.95916,31.826824,18.347685Q31.76919,18.736212,31.692562,19.121443Q31.615934,19.506674,31.520496,19.88768Q31.42506,20.268688,31.311043,20.644554Q31.197025,21.020416,31.064701,21.390234Q30.932377,21.760052,30.782068,22.122932Q30.63176,22.485809,30.463825,22.840878Q30.295891,23.195946,30.110737,23.542345Q29.925583,23.888744,29.723654,24.225639Q29.521725,24.562534,29.303509,24.889118Q29.085293,25.215702,28.851316,25.531185Q28.61734,25.846668,28.368164,26.150291Q28.118988,26.453911,27.855215,26.74494Q27.591442,27.035969,27.313705,27.313705Q27.035969,27.591442,26.744942,27.855215Q26.453911,28.118988,26.150291,28.368164Q25.846668,28.61734,25.531185,28.851316Q25.215702,29.085293,24.889118,29.303509Q24.562534,29.521725,24.225639,29.723654Q23.888744,29.925583,23.542347,30.110739Q23.195946,30.295891,22.840878,30.463827Q22.485809,30.63176,22.122932,30.78207Q21.760052,30.932381,21.390236,31.064703Q21.020416,31.197025,20.644554,31.311045Q20.268688,31.42506,19.88768,31.520498Q19.506674,31.615936,19.121443,31.692562Q18.736212,31.76919,18.347687,31.826822Q17.95916,31.884457,17.568275,31.922956Q17.177387,31.961454,16.785082,31.980728Q16.392776,32,16,32Q15.607222,32,15.214917,31.980726Q14.822613,31.961454,14.431726,31.922956Q14.040838,31.884457,13.652311,31.826824Q13.263784,31.76919,12.878554,31.692562Q12.493323,31.615934,12.112316,31.520496Q11.73131,31.42506,11.355445,31.311043Q10.979579,31.197025,10.609761,31.064701Q10.239943,30.932377,9.8770638,30.782068Q9.514184,30.63176,9.1591167,30.463825Q8.8040504,30.295891,8.4576511,30.110737Q8.1112518,29.925583,7.7743554,29.723654Q7.4374585,29.521725,7.1108756,29.303509Q6.7842927,29.085293,6.468811,28.851316Q6.1533289,28.61734,5.8497076,28.368164Q5.5460863,28.118988,5.2550569,27.855215Q4.9640274,27.591442,4.6862912,27.313705Q4.408555,27.035969,4.1447821,26.744942Q3.8810084,26.453911,3.6318328,26.150291Q3.3826571,25.846668,3.1486793,25.531185Q2.9147017,25.215702,2.696486,24.889118Q2.4782701,24.562534,2.2763419,24.225639Q2.0744138,23.888744,1.8892597,23.542347Q1.7041054,23.195946,1.5361711,22.840878Q1.3682369,22.485809,1.2179273,22.122932Q1.0676178,21.760052,0.93529487,21.390236Q0.80297196,21.020416,0.68895459,20.644554Q0.57493716,20.268688,0.47949991,19.88768Q0.38406265,19.506674,0.30743548,19.121443Q0.2308083,18.736212,0.17317583,18.347687Q0.11554334,17.95916,0.077044368,17.568275Q0.038545396,17.177387,0.019272698,16.785082Q0,16.392776,0,16Q0,15.607222,0.019272698,15.214917Q0.038545396,14.822613,0.077044368,14.431726Q0.11554334,14.040838,0.17317581,13.652311Q0.2308083,13.263784,0.30743548,12.878554Q0.38406265,12.493323,0.47949988,12.112316Q0.57493716,11.73131,0.68895459,11.355445Q0.80297196,10.979579,0.93529487,10.609761Q1.0676178,10.239943,1.2179273,9.8770638Q1.3682369,9.514184,1.5361711,9.1591167Q1.7041053,8.8040504,1.8892596,8.4576511Q2.0744138,8.1112518,2.2763419,7.7743554Q2.4782701,7.4374585,2.696486,7.1108756Q2.9147017,6.7842927,3.1486793,6.468811Q3.3826568,6.1533289,3.6318326,5.8497076Q3.8810081,5.5460863,4.1447816,5.2550569Q4.408555,4.9640274,4.6862912,4.6862912Q4.9640274,4.408555,5.2550569,4.1447821Q5.5460863,3.8810084,5.8497076,3.6318328Q6.1533289,3.3826571,6.468811,3.1486793Q6.7842932,2.9147017,7.1108761,2.696486Q7.437459,2.4782701,7.7743554,2.2763419Q8.1112518,2.0744138,8.4576511,1.8892597Q8.8040504,1.7041054,9.1591167,1.5361711Q9.514184,1.3682369,9.8770638,1.2179273Q10.239943,1.0676178,10.60976,0.93529487Q10.979579,0.80297196,11.355445,0.68895459Q11.73131,0.57493716,12.112316,0.47949991Q12.493323,0.38406265,12.878554,0.30743548Q13.263784,0.2308083,13.652311,0.17317583Q14.040838,0.11554334,14.431726,0.077044368Q14.822613,0.038545396,15.214918,0.019272698Q15.607222,0,16,0Q16.392776,0,16.785082,0.019272698Q17.177387,0.038545396,17.568274,0.077044368Q17.95916,0.11554334,18.347685,0.17317581Q18.736212,0.2308083,19.121443,0.30743548Q19.506674,0.38406265,19.88768,0.47949988Q20.268688,0.57493716,20.644554,0.68895459Q21.020416,0.80297196,21.390234,0.93529487Q21.760052,1.0676178,22.122932,1.2179273Q22.485809,1.3682369,22.840878,1.5361711Q23.195946,1.7041053,23.542345,1.8892596Q23.888744,2.0744138,24.225639,2.2763419Q24.562534,2.4782701,24.889118,2.696486Q25.215702,2.9147017,25.531185,3.1486793Q25.846668,3.3826568,26.150291,3.6318326Q26.453911,3.8810081,26.74494,4.1447816Q27.035969,4.408555,27.313705,4.6862912Q27.591442,4.9640274,27.855215,5.2550569Q28.118988,5.5460863,28.368164,5.8497076Q28.61734,6.1533289,28.851316,6.468811Q29.085293,6.7842932,29.303509,7.1108761Q29.521725,7.437459,29.723654,7.7743554Q29.925583,8.1112518,30.110739,8.4576511Q30.295891,8.8040504,30.463827,9.1591167Q30.63176,9.514184,30.78207,9.8770638Q30.932381,10.239943,31.064703,10.60976Q31.197025,10.979579,31.311045,11.355445Q31.42506,11.73131,31.520498,12.112316Q31.615936,12.493323,31.692562,12.878554Q31.76919,13.263784,31.826822,13.652311Q31.884457,14.040838,31.922956,14.431726Q31.961454,14.822613,31.980728,15.214918Q32,15.607222,32,16ZM31,16Q31,15.631771,30.981932,15.263985Q30.963863,14.8962,30.927773,14.529744Q30.891678,14.163287,30.837646,13.799042Q30.783615,13.434798,30.711777,13.073644Q30.639938,12.71249,30.550465,12.355296Q30.460995,11.998102,30.354103,11.645729Q30.247211,11.293356,30.123158,10.946651Q29.999104,10.599947,29.858189,10.259748Q29.717274,9.919548,29.559835,9.5866737Q29.402397,9.2537975,29.228817,8.9290485Q29.055233,8.6042995,28.865925,8.2884579Q28.676617,7.9726171,28.47204,7.6664457Q28.267464,7.3602743,28.048111,7.0645099Q27.828756,6.7687454,27.595156,6.4841008Q27.361553,6.1994553,27.114265,5.9266157Q26.866978,5.6537757,26.6066,5.3933983Q26.346222,5.1330209,26.073381,4.8857331Q25.800541,4.6384459,25.515898,4.4048433Q25.231251,4.1712408,24.935488,3.9518869Q24.639723,3.732533,24.333551,3.5279558Q24.02738,3.3233786,23.71154,3.1340706Q23.395699,2.9447632,23.07095,2.7711811Q22.746201,2.597599,22.413324,2.4401605Q22.08045,2.282722,21.74025,2.1418068Q21.400051,2.0008917,21.053345,1.8768389Q20.706642,1.7527863,20.354269,1.645895Q20.001896,1.5390036,19.644701,1.4495312Q19.287506,1.3600588,18.926353,1.2882209Q18.565201,1.2163829,18.200958,1.1623523Q17.836714,1.1083219,17.470257,1.0722291Q17.103802,1.0361363,16.736015,1.0180682Q16.368229,1,16,1Q15.631771,1,15.263985,1.0180681Q14.8962,1.0361363,14.529744,1.0722291Q14.163287,1.1083219,13.799042,1.1623523Q13.434798,1.2163827,13.073644,1.2882208Q12.71249,1.3600588,12.355296,1.4495312Q11.998102,1.5390036,11.645729,1.645895Q11.293356,1.7527863,10.946651,1.8768389Q10.599947,2.0008917,10.259748,2.1418068Q9.919548,2.282722,9.5866737,2.4401605Q9.2537975,2.597599,8.9290485,2.7711811Q8.6042995,2.9447632,8.2884579,3.1340706Q7.9726171,3.3233783,7.6664457,3.5279555Q7.3602743,3.7325327,7.0645099,3.9518867Q6.7687454,4.1712408,6.4841008,4.4048433Q6.1994553,4.6384454,5.9266157,4.8857331Q5.6537757,5.1330204,5.3933983,5.3933978Q5.1330209,5.6537752,4.8857331,5.9266148Q4.6384459,6.1994553,4.4048433,6.4841003Q4.1712408,6.7687454,3.9518869,7.0645094Q3.732533,7.3602743,3.5279558,7.6664457Q3.3233786,7.9726171,3.1340706,8.2884579Q2.9447632,8.6042995,2.7711811,8.9290485Q2.597599,9.2537975,2.4401605,9.5866737Q2.282722,9.919548,2.1418068,10.259748Q2.0008917,10.599947,1.8768389,10.946651Q1.7527863,11.293356,1.645895,11.64573Q1.5390036,11.998103,1.4495311,12.355297Q1.3600587,12.71249,1.2882206,13.073645Q1.2163827,13.434799,1.1623523,13.799044Q1.1083219,14.163287,1.0722291,14.529744Q1.0361363,14.8962,1.0180682,15.263985Q1,15.631771,1,16Q1,16.368229,1.0180681,16.736017Q1.0361363,17.103802,1.0722291,17.470259Q1.1083219,17.836716,1.1623523,18.200958Q1.2163827,18.565201,1.2882206,18.926353Q1.3600585,19.287506,1.4495311,19.644701Q1.5390034,20.001896,1.6458948,20.354271Q1.752786,20.706642,1.8768387,21.053347Q2.0008912,21.400051,2.1418066,21.74025Q2.282722,22.08045,2.4401603,22.413326Q2.5975986,22.746201,2.7711809,23.070951Q2.9447629,23.395699,3.1340706,23.711538Q3.3233783,24.02738,3.5279555,24.333551Q3.7325327,24.639723,3.9518867,24.935488Q4.1712408,25.231251,4.4048433,25.515898Q4.6384454,25.800541,4.8857331,26.073383Q5.1330204,26.346222,5.3933978,26.6066Q5.6537752,26.866978,5.9266148,27.114265Q6.1994553,27.361553,6.4841003,27.595154Q6.7687454,27.828754,7.0645094,28.048109Q7.3602743,28.267464,7.6664457,28.47204Q7.9726171,28.676617,8.2884579,28.865925Q8.6042995,29.055233,8.9290485,29.228817Q9.2537975,29.402397,9.5866737,29.559835Q9.919548,29.717274,10.259748,29.858189Q10.599947,29.999104,10.946651,30.123158Q11.293356,30.247211,11.64573,30.354103Q11.998103,30.460995,12.355297,30.550467Q12.71249,30.639938,13.073645,30.711777Q13.434799,30.783615,13.799044,30.837646Q14.163287,30.891678,14.529744,30.927771Q14.8962,30.963863,15.263985,30.98193Q15.631771,31,16,31Q16.368229,31,16.736017,30.981932Q17.103802,30.963863,17.470259,30.927773Q17.836716,30.891678,18.200958,30.837646Q18.565201,30.783615,18.926353,30.711777Q19.287506,30.639938,19.644701,30.550465Q20.001896,30.460995,20.354271,30.354103Q20.706642,30.247211,21.053347,30.123158Q21.400051,29.999104,21.74025,29.858189Q22.08045,29.717274,22.413326,29.559835Q22.746201,29.402397,23.070951,29.228817Q23.395699,29.055233,23.711538,28.865925Q24.02738,28.676617,24.333551,28.47204Q24.639723,28.267464,24.935488,28.048111Q25.231251,27.828756,25.515898,27.595156Q25.800541,27.361553,26.073383,27.114265Q26.346222,26.866978,26.6066,26.6066Q26.866978,26.346222,27.114265,26.073381Q27.361553,25.800541,27.595154,25.515898Q27.828754,25.231251,28.048109,24.935488Q28.267464,24.639723,28.47204,24.333551Q28.676617,24.02738,28.865925,23.71154Q29.055233,23.395699,29.228817,23.07095Q29.402397,22.746201,29.559835,22.413324Q29.717274,22.08045,29.858189,21.74025Q29.999104,21.400051,30.123158,21.053345Q30.247211,20.706642,30.354103,20.354269Q30.460995,20.001896,30.550467,19.644701Q30.639938,19.287506,30.711777,18.926353Q30.783615,18.565201,30.837646,18.200958Q30.891678,17.836714,30.927771,17.470257Q30.963863,17.103802,30.98193,16.736015Q31,16.368229,31,16Z" fill="#969999" fill-opacity="1"/></g><g><path d="M19.240704100000002,16L11.6707477,22.623711999999998L12.3292523,23.376288000000002L20.7592964,16L12.3292523,8.62371165L11.6707477,9.37628835L19.240704100000002,16Z" fill-rule="evenodd" fill="#969999" fill-opacity="1"/></g></g></svg>