<?xml version="1.0" standalone="no"?><!DOCTYPE svg PUBLIC "-//W3C//DTD SVG 1.1//EN" "http://www.w3.org/Graphics/SVG/1.1/DTD/svg11.dtd"><svg t="1699864805815" class="icon" viewBox="0 0 1024 1024" version="1.1" xmlns="http://www.w3.org/2000/svg" p-id="5018" xmlns:xlink="http://www.w3.org/1999/xlink" width="200" height="200"><path d="M661 811H100a36 36 0 0 1 0-72h561a36 36 0 0 1 0 72z" p-id="5019" fill="#ffffff"></path><path d="M321 960.31a36 36 0 0 1-36-36V427.37a36 36 0 0 1 72 0v496.94a36 36 0 0 1-36 36z" p-id="5020" fill="#ffffff"></path><path d="M426 451.51H147.73a36 36 0 1 1 0-72h250.82l132-117.9h393.37a36 36 0 0 1 0 72H558.06z" p-id="5021" fill="#ffffff"></path><path d="M776.27 696a36 36 0 0 1-36-36V99.5a36 36 0 0 1 72 0V660a36 36 0 0 1-36 36z" p-id="5022" fill="#ffffff"></path><path d="M776 912c-75 0-136-61-136-136s61-136 136-136 136 61 136 136-61 136-136 136z m0-200a64 64 0 1 0 64 64 64.07 64.07 0 0 0-64-64z" p-id="5023" fill="#ffffff"></path></svg>