<svg xmlns="http://www.w3.org/2000/svg" xmlns:xlink="http://www.w3.org/1999/xlink" fill="none" version="1.1" width="60" height="60" viewBox="0 0 60 60"><defs><clipPath id="master_svg0_431_66118"><rect x="0" y="0" width="60" height="60" rx="0"/></clipPath></defs><g clip-path="url(#master_svg0_431_66118)"><g><path d="M35.6395,54.3605L30,60L24.360399,54.3605C13.2735252,51.800999,5,41.860752,5,30C5,16.2,16.2,5,30,5C43.800003,5,55,16.2,55,30C55,41.860752,46.726498,51.800999,35.6395,54.3605ZM15.0583,38.540749C18.727075,44.01725,24.237776,47.5,30.39925,47.5C36.560749,47.5,42.071499,44.01725,45.74025,38.540749C41.721249,34.792998999999995,36.328001,32.5,30.39925,32.5C24.470524,32.5,19.077375,34.792998999999995,15.0583,38.540749ZM30,27.5C34.142250000000004,27.5,37.5,24.142124,37.5,20C37.5,15.857876,34.142250000000004,12.5,30,12.5C25.85775,12.5,22.5,15.857876,22.5,20C22.5,24.142124,25.85775,27.5,30,27.5Z" fill="#FFFFFF" fill-opacity="1" style="mix-blend-mode:passthrough"/></g></g></svg>