<svg xmlns="http://www.w3.org/2000/svg" xmlns:xlink="http://www.w3.org/1999/xlink" fill="none" version="1.1" width="60" height="60" viewBox="0 0 60 60"><defs><clipPath id="master_svg0_431_66106"><rect x="0" y="0" width="60" height="60" rx="0"/></clipPath></defs><g clip-path="url(#master_svg0_431_66106)"><g><path d="M50,55L10,55C8.6193001,55,7.5,53.880749,7.5,52.5L7.5,7.5C7.5,6.1193001,8.6193001,5,10,5L50,5C51.380749,5,52.5,6.1193001,52.5,7.5L52.5,52.5C52.5,53.880749,51.380749,55,50,55ZM17.5,15L17.5,25L27.5,25L27.5,15L17.5,15ZM17.5,30L17.5,35L42.5,35L42.5,30L17.5,30ZM17.5,40L17.5,45L42.5,45L42.5,40L17.5,40ZM32.5,17.5L32.5,22.5L42.5,22.5L42.5,17.5L32.5,17.5Z" fill="#FFFFFF" fill-opacity="1" style="mix-blend-mode:passthrough"/></g></g></svg>