<svg xmlns="http://www.w3.org/2000/svg" xmlns:xlink="http://www.w3.org/1999/xlink" fill="none" version="1.1" width="32" height="32" viewBox="0 0 32 32"><defs><clipPath id="master_svg0_432_66530"><rect x="0" y="0" width="32" height="32" rx="0"/></clipPath></defs><g clip-path="url(#master_svg0_432_66530)"><g><path d="M15.99983790625,2.666601053125C17.20743790625,2.666601053125,18.377036906249998,2.829240953125,19.48943690625,3.1301343531250003C18.96290390625,4.196520853125,18.66650390625,5.396894453125,18.66650390625,6.666600753125C18.66650390625,11.084894153125,22.24823790625,14.666667953125,26.66650390625,14.666667953125C27.55783990625,14.666667953125,28.41397290625,14.517600953125,29.21463990625,14.248667953125C29.28997190625,14.821867953125,29.33317190625,15.406134953125,29.33317190625,16.000001953125C29.33317190625,23.363732953125,23.36357090625,29.333333953125,15.99983790625,29.333333953125L2.66650390625,29.333333953125L6.571450506250001,25.428401953125C4.15861080625,23.015466953125,2.66650390625,19.681867953125,2.66650390625,16.000001953125C2.666530609131,8.636174653125,8.636064006249999,2.666601053125,15.99983790625,2.666601053125ZM10.66650390625,17.333335953125C10.66650390625,20.278802953125,13.05431890625,22.666667953125,15.99983790625,22.666667953125C18.94530490625,22.666667953125,21.33317190625,20.278802953125,21.33317190625,17.333335953125L10.66650390625,17.333335953125ZM26.03890390625,1.759040983125C26.27423690625,1.191331613125,27.05877290625,1.191312943125,27.29410390625,1.759040983125L27.63130590625,2.574147553125C28.20717190625,3.964547353125,29.28183890625,5.074827453125,30.63263690625,5.675721153125L31.58837290625,6.101494353125C32.13610490625,6.345081353125,32.13610490625,7.141774653125,31.58837290625,7.385360753125L30.57663890625,7.835881753125C29.25983590625,8.421587453125,28.20437090625,9.492561353125,27.61836990625,10.837187753125L27.28890390625,11.591094953125C27.04823890625,12.143267953125,26.28463890625,12.143267953125,26.04410390625,11.591094953125L25.71463790625,10.837187753125C25.12863690625,9.492547053125,24.07330290625,8.421587453125,22.75637090625,7.835881753125L21.74330490625,7.385360753125C21.19637090625,7.141548653125,21.19637090625,6.345241053125,21.74330490625,6.101494353125L22.70037290625,5.675721153125C24.05103890625,5.074827453125,25.12583690625,3.964560953125,25.70170390625,2.574147553125L26.03890390625,1.759040983125Z" fill="#FFFFFF" fill-opacity="1" style="mix-blend-mode:passthrough"/></g></g></svg>