<svg xmlns="http://www.w3.org/2000/svg" xmlns:xlink="http://www.w3.org/1999/xlink" fill="none" version="1.1" width="60" height="60" viewBox="0 0 60 60"><defs><clipPath id="master_svg0_431_66122"><rect x="0" y="0" width="60" height="60" rx="0"/></clipPath></defs><g clip-path="url(#master_svg0_431_66122)"><g><path d="M39.998501000000005,5L39.998501000000005,10L37.498501000000005,10L37.498501000000005,18.107275C37.498501000000005,21.001274,38.126498999999995,23.8608,39.339248999999995,26.488499L50.0425,49.678501C50.910248,51.558998,50.0895,53.786999,48.209,54.654751C47.716251,54.882248,47.180252,55,46.637501,55L13.359375,55C11.2882996,55,9.609375,53.320999,9.609375,51.25C9.609375,50.707249,9.72712517,50.171249,9.95452523,49.678501L20.657649,26.488499C21.870401,23.8608,22.498474,21.001274,22.498474,18.107275L22.498474,10L19.998475,10L19.998475,5L39.998501000000005,5ZM32.498501000000005,10L27.498501,10L27.498501,20L32.498501000000005,20L32.498501000000005,10Z" fill="#FFFFFF" fill-opacity="1" style="mix-blend-mode:passthrough"/></g></g></svg>