<svg xmlns="http://www.w3.org/2000/svg" xmlns:xlink="http://www.w3.org/1999/xlink" fill="none" version="1.1" width="60" height="60" viewBox="0 0 60 60"><defs><clipPath id="master_svg0_431_67717"><rect x="0" y="0" width="60" height="60" rx="0"/></clipPath></defs><g clip-path="url(#master_svg0_431_67717)"><g><path d="M33.00005,42.845375L33.00005,47.999878L45.500046,47.999878L45.500046,52.999878L15.5,52.999878L15.5,47.999878L28.00005,47.999878L28.00005,42.845375C18.134225,41.61512,10.5,33.199127000000004,10.5,23.000000999999997L10.5,8L50.500046,8L50.500046,23.000000999999997C50.500046,33.199127000000004,42.865803,41.61512,33.00005,42.845375ZM3,13L8,13L8,23.000000999999997L3,23.000000999999997L3,13ZM53.000046,13L58.000046,13L58.000046,23.000000999999997L53.000046,23.000000999999997L53.000046,13Z" fill="#FFFFFF" fill-opacity="1" style="mix-blend-mode:passthrough"/></g></g></svg>