<svg xmlns="http://www.w3.org/2000/svg" xmlns:xlink="http://www.w3.org/1999/xlink" fill="none" version="1.1" width="24" height="24" viewBox="0 0 24 24"><defs><clipPath id="master_svg0_431_66094"><rect x="0" y="0" width="24" height="24" rx="0"/></clipPath></defs><g clip-path="url(#master_svg0_431_66094)"><g><path d="M3,3C2.44772005,3,2,3.44772005,2,4L2,8L7.5,8L7.5,3L3,3ZM9.5,3L9.5,8L14.5,8L14.5,3L9.5,3ZM16.5,3L16.5,8L22,8L22,4C22,3.44772005,21.552299,3,21,3L16.5,3ZM22,10L16.5,10L16.5,14L22,14L22,10ZM22,16L16.5,16L16.5,21L21,21C21.552299,21,22,20.552299,22,20L22,16ZM14.5,21L14.5,16L9.5,16L9.5,21L14.5,21ZM7.5,21L7.5,16L2,16L2,20C2,20.552299,2.44772005,21,3,21L7.5,21ZM2,14L7.5,14L7.5,10L2,10L2,14ZM9.5,10L14.5,10L14.5,14L9.5,14L9.5,10Z" fill="#FFFFFF" fill-opacity="1" style="mix-blend-mode:passthrough"/></g></g></svg>