<svg xmlns="http://www.w3.org/2000/svg" xmlns:xlink="http://www.w3.org/1999/xlink" fill="none" version="1.1" width="60" height="60" viewBox="0 0 60 60"><defs><clipPath id="master_svg0_431_66110"><rect x="0" y="0" width="60" height="60" rx="0"/></clipPath></defs><g clip-path="url(#master_svg0_431_66110)"><g><path d="M13.12744140625,7.5L46.87748740625,7.5C49.98249040625,7.5,52.50248740625,10.018425,52.50248740625,13.125L52.50248740625,46.875C52.50248740625,49.980003,49.98374140625,52.5,46.87748740625,52.5L13.12744140625,52.5C10.02244110625,52.5,7.50244140625,49.981251,7.50244140625,46.875L7.50244140625,13.125C7.50244140625,10.0199997,10.02086640625,7.5,13.12744140625,7.5ZM32.92749040625,16.0513496L32.92749040625,30.44875C32.92749040625,31.9405,34.13624240625,33.150002,35.626739406249996,33.150002L43.95298740625,33.150002C45.44399240625,33.150002,46.65248840625,31.94125,46.65248840625,30.44875L46.65248840625,16.0513496C46.65248840625,14.5596004,45.44349240625,13.350000399999999,43.95298740625,13.350000399999999L35.626739406249996,13.350000399999999C34.13574240625,13.350000399999999,32.92749040625,14.5587006,32.92749040625,16.0513496ZM13.352441806249999,16.051125499999998L13.352441806249999,41.698997C13.352441806249999,43.190498,14.56136700625,44.400002,16.05176730625,44.400002L24.37811640625,44.400002C25.86899140625,44.400002,27.07749140625,43.192501,27.07749140625,41.698997L27.07749140625,16.051125499999998C27.07749140625,14.5593748,25.86849040625,13.350000399999999,24.37811640625,13.350000399999999L16.05176730625,13.350000399999999C14.560690906249999,13.350000399999999,13.352441806249999,14.557575199999999,13.352441806249999,16.051125499999998Z" fill="#FFFFFF" fill-opacity="1" style="mix-blend-mode:passthrough"/></g></g></svg>