<svg xmlns="http://www.w3.org/2000/svg" xmlns:xlink="http://www.w3.org/1999/xlink" fill="none" version="1.1" width="24" height="24" viewBox="0 0 24 24"><defs><clipPath id="master_svg0_363_51949"><rect x="0" y="0" width="24" height="24" rx="0"/></clipPath></defs><g clip-path="url(#master_svg0_363_51949)"><g><path d="M3.7824938,3.7824938Q1.00000048,6.5649872,1.0000006,10.5000019Q1,14.435015,3.7824936,17.217508000000002Q6.5649881,20.000004,10.5000019,20.000004Q14.435013,20.000004,17.217508000000002,17.217508000000002Q20.000004,14.435013,20.000004,10.5000019Q20.000004,6.5649877,17.217508000000002,3.7824936Q14.435015,1.0000003,10.5000019,1.0000006Q6.5649872,1,3.7824938,3.7824938ZM5.1967075000000005,15.803295Q3,13.606588,3,10.5000019Q3.0000005,7.3934145,5.1967075000000005,5.1967075000000005Q7.393415,3,10.5000019,3.0000007Q13.606588,3.0000005,15.803295,5.1967075000000005Q18.000004,7.3934145,18.000004,10.5000019Q18.000004,13.606588,15.803295,15.803295Q13.606588,18.000004,10.5000019,18.000004Q7.393415,18.000004,5.1967075000000005,15.803295Z" fill-rule="evenodd" fill="#FFFFFF" fill-opacity="1" style="mix-blend-mode:passthrough"/></g><g><path d="M15.90383439942871,17.317814770493165Q15.76321023942871,17.177190600493162,15.687105059428712,16.993456300493165Q15.610999759428712,16.809721960493164,15.610999759428712,16.610849380493164Q15.610999819428711,16.512377671493166,15.63021069942871,16.415798080493165Q15.64942156942871,16.319218490493164,15.687105059428712,16.228242520493165Q15.72478854942871,16.137266520493164,15.77949648942871,16.055390300493166Q15.83420443942871,15.973514080493164,15.903834459428712,15.903884050493165Q15.97346448942871,15.834254030493163,16.055340709428712,15.779546140493164Q16.13721692942871,15.724838200493163,16.22819292942871,15.687154710493164Q16.31916889942871,15.649471160493164,16.41574848942871,15.630260290493164Q16.512328080428713,15.611049410493164,16.61079978942871,15.611049350493165Q16.80967236942871,15.611049350493165,16.99340670942871,15.687154650493165Q17.17714100942871,15.763259830493164,17.31776517942871,15.903883990493163L17.31790661942871,15.903742550493163L21.56055738942871,20.146393580493164L21.56041618942871,20.146534880493164Q21.70104028942871,20.287158980493164,21.77714588942871,20.470893380493163Q21.85325098942871,20.654627780493165,21.85325098942871,20.853500380493166Q21.85325048942871,20.951971980493163,21.83403968942871,21.048551580493164Q21.81482888942871,21.145131080493165,21.777144889428712,21.236106880493164Q21.73946188942871,21.327082680493163,21.684753889428713,21.408958880493163Q21.63004588942871,21.490835180493164,21.56041618942871,21.560465780493164Q21.49078558942871,21.630095480493164,21.408909789428712,21.684803980493164Q21.32703308942871,21.739511480493164,21.23605728942871,21.777194980493164Q21.145081489428712,21.814878480493164,21.04850198942871,21.834089280493163Q20.95192238942871,21.853300080493163,20.853450789428713,21.853300580493162Q20.65457818942871,21.853300580493162,20.47084378942871,21.777195480493162Q20.28710938942871,21.701089880493164,20.14648528942871,21.560465780493164L20.14634398942871,21.560606980493162L15.90369295942871,17.317956210493165L15.90383439942871,17.317814770493165Z" fill-rule="evenodd" fill="#FFFFFF" fill-opacity="1" style="mix-blend-mode:passthrough"/></g></g></svg>