<svg xmlns="http://www.w3.org/2000/svg" xmlns:xlink="http://www.w3.org/1999/xlink" fill="none" version="1.1" width="48" height="48" viewBox="0 0 48 48"><g><g><ellipse cx="24" cy="24" rx="24" ry="24" fill="#FFFFFF" fill-opacity="1"/><path d="M48,24Q48,24.589167,47.971088,25.177626Q47.942181,25.766083,47.884434,26.352413Q47.826683,26.938744,47.740234,27.52153Q47.653786,28.104321,47.538841,28.682167Q47.423901,29.260014,47.280746,29.831526Q47.137589,30.403034,46.966568,30.966833Q46.79554,31.530628,46.597054,32.085354Q46.398567,32.640079,46.173103,33.184399Q45.947639,33.728718,45.69574,34.261322Q45.44384,34.793922,45.166107,35.313522Q44.888374,35.833122,44.58548,36.338467Q44.282589,36.843811,43.955265,37.333683Q43.627941,37.823559,43.276978,38.29678Q42.92601,38.770004,42.55225,39.225437Q42.17849,39.680866,41.782829,40.117409Q41.387169,40.553955,40.970562,40.970558Q40.553959,41.387161,40.117416,41.782825Q39.680874,42.178486,39.225445,42.55225Q38.770012,42.92601,38.296787,43.276974Q37.823563,43.627941,37.333687,43.955265Q36.843811,44.282589,36.338467,44.585484Q35.833122,44.888374,35.313526,45.166107Q34.793922,45.44384,34.261322,45.69574Q33.728722,45.947639,33.184402,46.173103Q32.640083,46.398567,32.085358,46.597054Q31.53063,46.79554,30.966835,46.966568Q30.403036,47.137589,29.831524,47.280746Q29.260014,47.423901,28.682167,47.538841Q28.104321,47.653786,27.521532,47.740231Q26.938744,47.826683,26.352413,47.884434Q25.766083,47.942181,25.177624,47.971092Q24.589167,48,24,48Q23.410831,48,22.822372,47.971088Q22.233917,47.942181,21.647587,47.884434Q21.061256,47.826683,20.478466,47.740234Q19.895676,47.653786,19.317829,47.538841Q18.739983,47.423901,18.168472,47.280746Q17.596964,47.137589,17.033167,46.966568Q16.469368,46.79554,15.914642,46.597054Q15.359916,46.398567,14.815597,46.173103Q14.271278,45.947639,13.738677,45.69574Q13.206077,45.44384,12.686478,45.166107Q12.166879,44.888374,11.661533,44.58548Q11.156188,44.282589,10.666313,43.955265Q10.176439,43.627941,9.7032156,43.276978Q9.2299919,42.92601,8.7745609,42.55225Q8.319128,42.17849,7.8825846,41.782829Q7.4460411,41.387169,7.0294371,40.970562Q6.612833,40.553959,6.2171731,40.117416Q5.8215127,39.680874,5.4477491,39.225445Q5.0739851,38.770012,4.7230191,38.296787Q4.3720522,37.823563,4.0447288,37.333687Q3.7174053,36.843811,3.4145129,36.338467Q3.1116209,35.833122,2.8338895,35.313526Q2.5561581,34.793922,2.3042569,34.261322Q2.0523555,33.728722,1.8268911,33.184402Q1.6014266,32.640083,1.4029424,32.085358Q1.204458,31.53063,1.0334319,30.966835Q0.86240578,30.403036,0.71924984,29.831524Q0.57609397,29.260014,0.46115321,28.682167Q0.34621245,28.104321,0.25976375,27.521532Q0.173315,26.938744,0.11556655,26.352413Q0.057818096,25.766083,0.028909048,25.177624Q0,24.589167,0,24Q0,23.410831,0.028909048,22.822372Q0.057818096,22.233917,0.11556655,21.647587Q0.173315,21.061256,0.25976372,20.478466Q0.34621245,19.895676,0.46115321,19.317829Q0.57609397,18.739983,0.71924984,18.168472Q0.86240578,17.596964,1.0334319,17.033167Q1.204458,16.469368,1.4029423,15.914642Q1.6014266,15.359916,1.8268911,14.815597Q2.0523555,14.271278,2.3042569,13.738677Q2.5561583,13.206077,2.8338897,12.686478Q3.1116211,12.166879,3.4145136,11.661533Q3.7174058,11.156188,4.0447292,10.666313Q4.3720531,10.176439,4.7230191,9.7032156Q5.0739856,9.2299919,5.4477491,8.7745609Q5.8215127,8.319128,6.2171726,7.8825846Q6.612833,7.4460411,7.0294371,7.0294371Q7.4460411,6.612833,7.8825846,6.2171731Q8.319128,5.8215127,8.7745609,5.4477491Q9.2299919,5.0739851,9.7032156,4.7230191Q10.176439,4.3720522,10.666313,4.0447288Q11.156188,3.7174053,11.661533,3.4145129Q12.16688,3.1116209,12.68648,2.8338895Q13.206078,2.5561581,13.738678,2.3042569Q14.271278,2.0523555,14.815597,1.8268911Q15.359916,1.6014266,15.914642,1.4029424Q16.469368,1.204458,17.033167,1.0334319Q17.596964,0.86240578,18.168474,0.71924984Q18.739985,0.57609397,19.317831,0.46115321Q19.895676,0.34621245,20.478466,0.25976375Q21.061256,0.173315,21.647587,0.11556655Q22.233917,0.057818096,22.822372,0.028909048Q23.410831,0,24,0Q24.589167,0,25.177626,0.028909048Q25.766083,0.057818096,26.352413,0.11556655Q26.938744,0.173315,27.52153,0.25976372Q28.104321,0.34621245,28.682167,0.46115321Q29.260014,0.57609397,29.831526,0.71924984Q30.403034,0.86240578,30.966833,1.0334319Q31.530628,1.204458,32.085354,1.4029423Q32.640079,1.6014266,33.184399,1.8268911Q33.728718,2.0523555,34.261322,2.3042569Q34.793922,2.5561583,35.313522,2.8338897Q35.833122,3.1116211,36.338467,3.4145136Q36.843811,3.7174058,37.333683,4.0447292Q37.823559,4.3720531,38.29678,4.7230191Q38.770004,5.0739856,39.225437,5.4477491Q39.680866,5.8215127,40.117409,6.2171726Q40.553955,6.612833,40.970558,7.0294371Q41.387161,7.4460411,41.782825,7.8825846Q42.178486,8.319128,42.55225,8.7745609Q42.92601,9.2299919,43.276974,9.7032156Q43.627941,10.176439,43.955265,10.666313Q44.282589,11.156188,44.585484,11.661533Q44.888374,12.16688,45.166107,12.68648Q45.44384,13.206078,45.69574,13.738678Q45.947639,14.271278,46.173103,14.815597Q46.398567,15.359916,46.597054,15.914642Q46.79554,16.469368,46.966568,17.033167Q47.137589,17.596964,47.280746,18.168474Q47.423901,18.739985,47.538841,19.317831Q47.653786,19.895676,47.740231,20.478466Q47.826683,21.061256,47.884434,21.647587Q47.942181,22.233917,47.971092,22.822372Q48,23.410831,48,24ZM47.5,24Q47.5,23.423107,47.471695,22.846909Q47.44339,22.270714,47.386845,21.696598Q47.330296,21.122482,47.245644,20.551834Q47.160995,19.981186,47.04845,19.415377Q46.935905,18.849569,46.795734,18.289965Q46.65556,17.730362,46.488094,17.17831Q46.320633,16.626257,46.126282,16.083088Q45.931934,15.539917,45.711166,15.006938Q45.490398,14.473959,45.243748,13.952454Q44.997093,13.43095,44.725151,12.922176Q44.453201,12.413402,44.15662,11.918585Q43.860039,11.423767,43.539532,10.944098Q43.219028,10.46443,42.875374,10.001066Q42.531723,9.5377026,42.165745,9.0917578Q41.799767,8.6458139,41.41235,8.2183647Q41.024933,7.7909155,40.617008,7.3829904Q40.209084,6.9750657,39.781635,6.5876484Q39.354187,6.2002311,38.908241,5.8342543Q38.462296,5.468277,37.998932,5.1246228Q37.535568,4.7809677,37.055897,4.4604635Q36.576229,4.1399593,36.081409,3.8433774Q35.586594,3.5467954,35.07782,3.2748504Q34.569046,3.0029049,34.047543,2.7562513Q33.526039,2.509598,32.993057,2.2888308Q32.460075,2.0680635,31.916908,1.8737143Q31.373739,1.6793652,30.82169,1.5119021Q30.269636,1.344439,29.710032,1.2042655Q29.150427,1.0640919,28.58462,0.95154583Q28.018812,0.83899969,27.448164,0.75435203Q26.877516,0.66970432,26.303402,0.61315894Q25.729286,0.55661356,25.153091,0.52830678Q24.576893,0.5,24,0.5Q23.423107,0.5,22.846909,0.52830678Q22.270714,0.55661356,21.696598,0.61315894Q21.122482,0.66970432,20.551834,0.75435197Q19.981186,0.83899969,19.415377,0.95154583Q18.849569,1.0640919,18.289965,1.2042655Q17.730362,1.344439,17.17831,1.5119021Q16.626257,1.6793652,16.083088,1.8737142Q15.539917,2.0680635,15.006938,2.2888308Q14.473959,2.509598,13.952454,2.7562516Q13.43095,3.0029049,12.922176,3.2748504Q12.413402,3.5467954,11.918585,3.8433771Q11.423767,4.1399593,10.944098,4.4604635Q10.46443,4.7809677,10.001066,5.1246228Q9.5377026,5.468277,9.0917578,5.8342543Q8.6458139,6.2002311,8.2183647,6.5876484Q7.7909155,6.9750657,7.3829904,7.3829904Q6.9750657,7.7909155,6.5876484,8.2183647Q6.2002311,8.6458139,5.8342543,9.0917578Q5.468277,9.5377026,5.1246228,10.001066Q4.7809677,10.46443,4.4604635,10.944098Q4.1399593,11.423767,3.8433774,11.918584Q3.5467954,12.413402,3.2748504,12.922176Q3.0029049,13.43095,2.7562513,13.952454Q2.509598,14.473959,2.2888308,15.006938Q2.0680635,15.539917,1.8737143,16.083086Q1.6793652,16.626257,1.5119021,17.17831Q1.344439,17.730362,1.2042655,18.289967Q1.0640919,18.849569,0.95154583,19.415377Q0.83899963,19.981186,0.75435197,20.551834Q0.66970426,21.122482,0.61315894,21.696598Q0.55661356,22.270714,0.52830678,22.846909Q0.5,23.423107,0.5,24Q0.5,24.576893,0.52830678,25.15309Q0.55661356,25.729288,0.61315894,26.303404Q0.66970426,26.877518,0.75435197,27.448164Q0.83899963,28.018814,0.95154583,28.584621Q1.0640919,29.150429,1.2042655,29.710032Q1.344439,30.269634,1.5119021,30.821688Q1.6793652,31.373737,1.8737142,31.916908Q2.0680635,32.460075,2.2888308,32.993057Q2.509598,33.526039,2.7562516,34.047543Q3.0029049,34.569046,3.2748504,35.07782Q3.5467954,35.586594,3.8433771,36.081413Q4.1399593,36.576229,4.4604635,37.055897Q4.7809677,37.535568,5.1246228,37.998932Q5.468277,38.462296,5.8342543,38.908241Q6.2002311,39.354183,6.5876484,39.781631Q6.9750657,40.20908,7.3829904,40.617004Q7.7909155,41.024929,8.2183647,41.412346Q8.6458139,41.799767,9.0917578,42.165745Q9.5377026,42.531723,10.001066,42.875374Q10.46443,43.219028,10.944098,43.539532Q11.423767,43.860039,11.918584,44.156616Q12.413402,44.453201,12.922176,44.725147Q13.43095,44.997093,13.952454,45.243744Q14.473959,45.490398,15.006938,45.711166Q15.539917,45.931934,16.083086,46.126286Q16.626257,46.320633,17.17831,46.488098Q17.730362,46.655563,18.289967,46.795738Q18.849569,46.935905,19.415377,47.048454Q19.981186,47.160999,20.551834,47.245651Q21.122482,47.330299,21.696598,47.386845Q22.270714,47.44339,22.846909,47.471695Q23.423107,47.5,24,47.5Q24.576893,47.5,25.15309,47.471695Q25.729288,47.44339,26.303404,47.386845Q26.877518,47.330296,27.448164,47.245644Q28.018814,47.160995,28.584621,47.04845Q29.150429,46.935905,29.710032,46.795734Q30.269634,46.65556,30.821688,46.488094Q31.373737,46.320633,31.916908,46.126282Q32.460075,45.931934,32.993057,45.711166Q33.526039,45.490398,34.047543,45.243748Q34.569046,44.997093,35.07782,44.725151Q35.586594,44.453201,36.081413,44.15662Q36.576229,43.860039,37.055897,43.539532Q37.535568,43.219028,37.998932,42.875374Q38.462296,42.531723,38.908241,42.165745Q39.354183,41.799767,39.781631,41.41235Q40.20908,41.024933,40.617004,40.617008Q41.024929,40.209084,41.412346,39.781635Q41.799767,39.354187,42.165745,38.908241Q42.531723,38.462296,42.875374,37.998932Q43.219028,37.535568,43.539532,37.055897Q43.860039,36.576229,44.156616,36.081409Q44.453201,35.586594,44.725147,35.07782Q44.997093,34.569046,45.243744,34.047543Q45.490398,33.526039,45.711166,32.993057Q45.931934,32.460075,46.126286,31.916908Q46.320633,31.373739,46.488098,30.82169Q46.655563,30.269636,46.795738,29.710032Q46.935905,29.150427,47.048454,28.58462Q47.160999,28.018812,47.245651,27.448164Q47.330299,26.877516,47.386845,26.303402Q47.44339,25.729286,47.471695,25.153091Q47.5,24.576893,47.5,24Z" fill="#C2E8DE" fill-opacity="1"/></g><g><g><path d="M30.069133370361328,10.15384578704834C27.397533370361327,10.15384578704834,25.021805370361328,11.43770248704834,23.53091737036133,13.42588498704834L23.53091737036133,13.13627008704834C17.06168457036133,13.13627008704834,11.727255050361329,18.05374858704834,11.132930278361329,24.299442787048342C11.061645873361329,25.03662378704834,11.058408454361327,25.77880778704834,11.123218022361328,26.51644278704834C11.654466330361329,32.67457478704834,16.79162977036133,37.56749078704834,23.103778370361326,37.77952078704834L23.103778370361326,37.78655378704834L23.47295937036133,37.78655378704834C23.49226837036133,37.78664078704834,23.51158837036133,37.786684787048344,23.53091737036133,37.786684787048344C26.163199370361326,37.786684787048344,28.60709237036133,36.97304478704834,30.62030837036133,35.58733278704834C33.860307370361326,33.35842178704834,35.98691337036133,29.64988378704834,35.99348237036133,25.46986678704834C35.994049370361324,24.819777787048338,35.94265337036133,24.17072278704834,35.839803370361324,23.528905787048338C37.17919937036133,21.74768178704834,38.23516837036133,19.824970287048338,38.23516837036133,18.18906208704834C38.16316237036133,13.730498987048339,34.52827837036133,10.15384578704834,30.069133370361328,10.15384578704834ZM26.918709370361327,36.43574278704834C30.156381370361327,35.45631478704834,32.79658937036133,33.11095678704834,34.14931837036133,30.08198878704834L30.381256370361328,30.08198878704834C29.71040537036133,32.88747278704834,28.469648370361327,35.11218178704834,26.918709370361327,36.43574278704834ZM35.12358837036133,25.876187787048337C35.12835737036133,25.74131478704834,35.13076037036133,25.60586178704834,35.13076037036133,25.46986678704834C35.130666370361325,25.13980978704834,35.116291370361324,24.810051787048337,35.087709370361324,24.48151778704834C33.29429637036132,26.65344678704834,31.271244370361327,28.47420778704834,30.585476370361327,29.07511278704834L30.59245637036133,29.07638878704834C30.583116370361328,29.12773178704834,30.573591370361328,29.17890878704834,30.56388437036133,29.22991878704834L34.47791437036133,29.22991878704834C34.86222837036133,28.15046178704834,35.079710370361326,27.01956078704834,35.12358837036133,25.876187787048337ZM29.703132370361327,29.18719378704834C29.10822637036133,28.67598478704834,26.060620370361328,26.002518787048338,23.955849370361328,23.05222978704834L23.955849370361328,29.22991878704834L29.694650370361327,29.22991878704834C29.69749437036133,29.21569178704834,29.70032337036133,29.201451787048338,29.703132370361327,29.18719378704834ZM23.955849370361328,30.08198878704834L29.50178137036133,30.08198878704834C28.522047370361328,33.94403178704834,26.35979337036133,36.62450678704834,23.955849370361328,36.90944378704834L23.955849370361328,30.08198878704834ZM23.103778370361326,30.08198878704834L23.103778370361326,36.91036278704834C20.620623570361328,36.62754878704834,18.511854670361327,33.89699278704834,17.552834070361328,30.08198878704834L23.103778370361326,30.08198878704834ZM23.103778370361326,29.22991878704834L23.103778370361326,21.746394787048338C23.09297737036133,21.72800378704834,23.08223037036133,21.70961078704834,23.07153937036133,21.69121978704834L17.36189607036133,21.69121978704834C17.12732747036133,22.872563787048342,16.999795470361327,24.141328787048337,16.999795470361327,25.46147678704834C16.999795470361327,26.78094978704834,17.12719677036133,28.04909078704834,17.361535570361326,29.22991878704834L23.103778370361326,29.22991878704834ZM22.61770237036133,20.839148787048337C22.17490437036133,19.91892148704834,21.903098370361327,19.01689908704834,21.903098370361327,18.18906208704834C21.927875370361328,16.654870487048342,22.37451537036133,15.22510148704834,23.131436370361328,14.00954678704834C20.63668437036133,14.27511408704834,18.51608467036133,17.01093818704834,17.55329137036133,20.839148787048337L22.61770237036133,20.839148787048337ZM20.190929370361328,14.472862687048341C16.93209977036133,15.44339708704834,14.272956870361329,17.79616598704834,12.913327770361327,20.839148787048337L16.68745037036133,20.839148787048337C17.35889487036133,18.08229108704834,18.61193417036133,15.81706098704834,20.190929370361328,14.472862687048341ZM12.912515770361328,30.08198878704834L16.687007870361327,30.08198878704834C17.35834457036133,32.83966778704834,18.611588470361326,35.10559978704834,20.190928470361328,36.450091787048336C16.93145137036133,35.47936578704834,14.271898070361328,33.12585178704834,12.912515770361328,30.08198878704834ZM30.07019837036133,10.94645833704834C26.050680370361327,10.92758798704834,22.77629237036133,14.16955518704834,22.75516837036133,18.18906208704834C22.75516837036133,21.73580778704834,28.70688437036133,27.184803787048338,30.07019837036133,28.38622178704834C31.43138137036133,27.17414978704834,37.383098370361324,21.72515478704834,37.383098370361324,18.18906118704834C37.36197237036133,14.17038968704834,34.08888637036133,10.92876654704834,30.07019837036133,10.94645833704834ZM30.115547370361327,13.95229098704834C29.421598370361327,13.95044068704834,28.766185370361328,14.11597108704834,28.187597370361328,14.41090248704834C26.82364937036133,15.10602668704834,25.886542370361326,16.52022698704834,25.877765370361328,18.15602588704834C25.865265370361328,20.48564478704834,27.740320370361328,22.38604878704834,30.069896370361327,22.40483678704834C30.766834370361327,22.40485878704834,31.42493237036133,22.23746178704834,32.00598337036133,21.940547787048338C33.375736370361324,21.24074878704834,34.31740737036132,19.82122328704834,34.33055137036133,18.17841148704834C34.33047437036133,15.84875868704834,32.445192370361326,13.95850298704834,30.115547370361327,13.95229098704834ZM26.730154370361326,18.20090488704834C26.72128837036133,16.88113308704834,27.471470370361327,15.73278378704834,28.57257237036133,15.17090558704834C29.02240137036133,14.94142148704834,29.53078237036133,14.80980968704834,30.069896370361327,14.80436368704834C31.939010370361327,14.80427078704834,33.45948837036133,16.309545987048338,33.47818037036133,18.17856498704834C33.47811537036133,19.49110318704834,32.72849637036133,20.62902378704834,31.63350437036133,21.18681778704834C31.177639370361327,21.41898078704834,30.661928370361327,21.55059978704834,30.11552837036133,21.55242178704834C28.25647537036133,21.55861978704834,26.74264337036133,20.059925987048338,26.730154370361326,18.20090488704834ZM16.14772417036133,25.46147678704834C16.14772417036133,26.77472578704834,16.27175137036133,28.04123378704834,16.501300370361328,29.22991878704834L12.583951070361328,29.22991878704834C11.711987380361329,26.79266078704834,11.711987380361329,24.12847778704834,12.583951070361328,21.69121978704834L16.50165127036133,21.69121978704834C16.27187777036133,22.88043078704834,16.14772417036133,24.14755978704834,16.14772417036133,25.46147678704834Z" fill-rule="evenodd" fill="#30B690" fill-opacity="1" style="mix-blend-mode:passthrough"/><path d="M30.069133370361328,10.40384578704834Q28.159675370361327,10.40384578704834,26.47103437036133,11.26690678704834Q24.835547370361326,12.10280008704834,23.73092937036133,13.57586908704834L23.28091737036133,14.17598438704834L23.28091737036133,13.13627028704834L23.53091737036133,13.13627028704834L23.53091737036133,13.38627028704834Q18.797508270361327,13.38627028704834,15.296774870361329,16.56091308704834Q11.820456210361328,19.71341418704834,11.381809090361328,24.32312578704834Q11.276843590361327,25.40858778704834,11.372258660361329,26.49456278704834Q11.763581930361328,31.03070778704834,15.117256170361328,34.19595978704834Q18.484712170361327,37.374220787048344,23.112173370361326,37.52966178704834L23.353778370361326,37.537779787048336L23.353778370361326,37.78655578704834L23.103778370361326,37.78655578704834L23.103778370361326,37.53655578704834L23.472960370361328,37.53655578704834L23.53147737036133,37.536684787048344Q27.34728437036133,37.536684787048344,30.47856337036133,35.38139978704834Q32.90501737036133,33.71215678704834,34.299682370361325,31.14106478704834Q35.738741370361325,28.48813178704834,35.74348437036133,25.46947578704834Q35.74431637036133,24.51301378704834,35.59295237036133,23.56846378704834L35.57614537036133,23.46356478704834L35.63999137036133,23.378656787048342Q37.98516837036133,20.259869787048338,37.98516837036133,18.18906208704834Q37.93285037036133,14.95153808704834,35.62198237036132,12.67769078704834Q33.311119370361325,10.403845477048339,30.069133370361328,10.40384578704834ZM30.069133370361328,9.90384578704834Q33.515865370361325,9.90384530704834,35.972671370361326,12.32129408704834Q38.42947537036133,14.73874278704834,38.48516837036133,18.18906208704834Q38.48516837036133,20.42688578704834,36.03961937036133,23.679155787048337L35.83980537036133,23.528905787048338L36.086656370361325,23.48934878704834Q36.24434837036133,24.47341078704834,36.24348437036133,25.47026178704834Q36.23854037036133,28.61537478704834,34.73918537036133,31.37946778704834Q33.28729237036133,34.05606578704834,30.762054370361327,35.79326578704834Q27.502727370361328,38.036684787048344,23.53035737036133,38.036684787048344L23.472960370361328,38.03655578704834L22.853778370361326,38.03655578704834L22.853778370361326,37.779522787048336L23.103778370361326,37.779522787048336L23.095385370361328,38.02938378704834Q18.278996970361327,37.86759678704834,14.774064970361328,34.55958278704834Q11.281810400361328,31.26353378704834,10.874177430361328,26.53832578704834Q10.774724130361328,25.406387787048338,10.884057520361328,24.27575978704834Q11.341056820361327,19.473180787048342,14.960893170361327,16.19052978704834Q18.604557970361327,12.88627028704834,23.53091737036133,12.88627028704834L23.78091737036133,12.88627028704834L23.78091737036133,13.42588498704834L23.53091737036133,13.42588498704834L23.33090537036133,13.27590088704834Q24.50495037036133,11.71024628704834,26.243482370361328,10.82168710704834Q28.039306370361327,9.90384578704834,30.069133370361328,9.90384578704834ZM26.846323370361326,36.19645178704834Q29.214481370361327,35.48006178704834,31.075575370361328,33.83988678704834Q32.92526437036133,32.209761787048336,33.921051370361326,29.98004278704834L34.14931837036133,30.08198878704834L34.14931837036133,30.33198878704834L30.381256370361328,30.33198878704834L30.381256370361328,30.08198878704834L30.62440137036133,30.14012978704834Q29.58436237036133,34.48955478704834,27.080997370361327,36.625906787048336L26.918710370361328,36.43574278704834L26.846323370361326,36.19645178704834ZM26.99109837036133,36.67503278704834L25.84797637036133,37.02083878704834L26.75642437036133,36.24557778704834Q29.13593637036133,34.21491678704834,30.13811137036133,30.02384878704834L30.183988370361327,29.83198878704834L34.53476737036133,29.83198878704834L34.37758837036132,30.18393278704834Q33.33744837036133,32.51296878704834,31.40616237036133,34.21500278704834Q29.46342237036133,35.92713078704834,26.99109837036133,36.67503278704834ZM34.87374537036133,25.86735778704834Q34.880762370361325,25.66879178704834,34.880762370361325,25.46986678704834Q34.88062437036133,24.98564578704834,34.838649370361324,24.503185787048338L35.087709370361324,24.48151878704834L35.280483370361324,24.64069678704834Q33.33067537036133,27.00202878704834,30.75023637036133,29.26314078704834L30.585476370361327,29.07511378704834L30.63040737036133,28.82918478704834L30.884128370361328,28.87553678704834L30.809665370361326,29.27565878704834L30.56388437036133,29.22991878704834L30.56388437036133,28.97991878704834L34.47791437036133,28.97991878704834L34.47791437036133,29.22991878704834L34.24239537036133,29.14606778704834Q34.808992370361324,27.55461178704834,34.87377337036133,25.86659878704834L34.87374537036133,25.86735778704834ZM35.37340737036133,25.88577478704834Q35.30569437036132,27.65023678704834,34.71343437036133,29.31376978704834L34.65428137036133,29.47991878704834L30.263067370361327,29.47991878704834L30.346677370361327,29.03064978704834L30.59245637036133,29.07638878704834L30.54752737036133,29.32231778704834L30.031589370361328,29.22805878704834L30.420717370361327,28.88708578704834Q32.970819370361326,26.65255678704834,34.894935370361324,24.322339787048342L35.28383037036133,23.851362787048338L35.336769370361324,24.45985078704834Q35.38061737036133,24.96387178704834,35.380762370361325,25.46986678704834Q35.380762370361325,25.67766878704834,35.37343637036133,25.88501578704834L35.37340737036133,25.88577478704834ZM29.54019937036133,29.37680578704834Q25.975398370361326,26.31352678704834,23.752330370361328,23.19742078704834L23.955850370361325,23.05222978704834L24.205850370361325,23.05222978704834L24.205850370361325,29.22991878704834L23.955850370361325,29.22991878704834L23.955850370361325,28.97991878704834L29.694650370361327,28.97991878704834L29.694650370361327,29.22991878704834L29.44943637036133,29.18123378704834L29.45792037036133,29.13850878704834L29.703132370361327,29.18719378704834L29.54019937036133,29.37680578704834ZM29.86606837036133,28.99758478704834L29.976772370361328,29.09271178704834L29.899894370361327,29.47991878704834L23.705850370361325,29.47991878704834L23.705850370361325,22.27133678704834L24.159366370361326,22.90703878704834Q26.34723537036133,25.97380678704834,29.86606837036133,28.99758478704834ZM23.955850370361325,29.83198878704834L29.82312237036133,29.83198878704834L29.74410637036133,30.14346178704834Q28.99455837036133,33.098131787048345,27.45709437036133,34.99457078704834Q25.88606537036133,36.93240978704834,23.985277370361327,37.15770578704834L23.705850370361325,37.19082578704834L23.705850370361325,29.83198878704834L23.955850370361325,29.83198878704834ZM23.955850370361325,30.33198878704834L23.955850370361325,30.08198878704834L24.205850370361325,30.08198878704834L24.205850370361325,36.90944378704834L23.955850370361325,36.90944378704834L23.926424370361328,36.661181787048335Q25.625557370361328,36.459784787048335,27.068697370361328,34.679693787048336Q28.536935370361327,32.86864378704834,29.259456370361328,30.02051478704834L29.50178137036133,30.08198878704834L29.50178137036133,30.33198878704834L23.955850370361325,30.33198878704834ZM23.353778370361326,30.08198878704834L23.353778370361326,37.190455787048336L23.07548937036133,37.15875878704834Q21.132557370361326,36.93747378704834,19.56166457036133,34.97707878704834Q18.051988170361327,33.09308178704834,17.310377170361328,30.14293978704834L17.232211070361327,29.83198878704834L23.353778370361326,29.83198878704834L23.353778370361326,30.08198878704834ZM22.853778370361326,30.08198878704834L23.103778370361326,30.08198878704834L23.103778370361326,30.33198878704834L17.55283447036133,30.33198878704834L17.55283447036133,30.08198878704834L17.795289970361328,30.02104078704834Q18.51032777036133,32.86546978704834,19.95184807036133,34.66441678704834Q21.39388237036133,36.46400178704834,23.132068370361328,36.66196878704834L23.103778370361326,36.91036478704834L22.853778370361326,36.91036478704834L22.853778370361326,30.08198878704834ZM22.853778370361326,29.22991878704834L22.853778370361326,21.74639578704834L23.103778370361326,21.74639578704834L22.887926370361328,21.87251978704834L22.855686370361326,21.81734378704834L23.071540370361326,21.69121978704834L23.071540370361326,21.94121978704834L17.36189607036133,21.94121978704834L17.36189607036133,21.69121978704834L17.607108570361326,21.73990878704834Q17.249795470361327,23.539425787048337,17.249795470361327,25.46147678704834Q17.249795470361327,27.38255178704834,17.60675337036133,29.18125478704834L17.361535570361326,29.22991878704834L17.361535570361326,28.97991878704834L23.103778370361326,28.97991878704834L23.103778370361326,29.22991878704834L22.853778370361326,29.22991878704834ZM23.353778370361326,29.47991878704834L17.156272870361327,29.47991878704834L17.116317770361327,29.27858278704834Q16.749795470361327,27.43168378704834,16.749795470361327,25.46147678704834Q16.749795470361327,23.49026778704834,17.116683470361327,21.64253078704834L17.15665577036133,21.44121978704834L23.215011370361328,21.44121978704834L23.353778370361326,21.67871178704834L23.353778370361326,29.22991878704834L23.353778370361326,29.47991878704834ZM22.39242537036133,20.94754878704834Q21.653098370361327,19.41106798704834,21.653098370361327,18.18906208704834Q21.69084037036133,15.85007378704834,22.919218370361328,13.87739918704834L23.131437370361326,14.00954678704834L23.157899370361328,14.258142487048339Q21.41228637036133,14.44396348704834,19.96263507036133,16.245105787048338Q18.513720470361328,18.04533198704834,17.795740170361327,20.90012578704834L17.55329137036133,20.839148787048337L17.55329137036133,20.589148787048337L22.61770237036133,20.589148787048337L22.61770237036133,20.839148787048337L22.39242537036133,20.94754878704834ZM23.015434370361326,21.089148787048337L17.23263117036133,21.089148787048337L17.310840170361327,20.77817278704834Q18.05553437036133,17.81715968704834,19.57312397036133,15.93160728704834Q21.152935370361327,13.96874668704834,23.104974370361326,13.76095108704834L23.61451937036133,13.70670988704834L23.34365637036133,14.14169548704834Q22.188537370361328,15.996723687048341,22.153098370361327,18.18906208704834Q22.153098370361327,19.297028587048338,22.842979370361327,20.73074978704834L23.015434370361326,21.089148787048337ZM20.262287170361326,14.71246288704834Q17.87898827036133,15.42224928704834,16.00481607036133,17.06675338704834Q14.142590270361328,18.70077418704834,13.141579870361328,20.94113378704834L12.913327970361328,20.839148787048337L12.913327970361328,20.589148787048337L16.68745037036133,20.589148787048337L16.68745037036133,20.839148787048337L16.444550970361327,20.77998978704834Q17.50342127036133,16.43241738704834,20.02887437036133,14.28250078704834L20.190929370361328,14.472862687048341L20.262287170361326,14.71246288704834ZM20.11957267036133,14.23326258704834L21.25541137036133,13.89499068704834L20.352985370361328,14.66322608704834Q17.950885770361328,16.70813038704834,16.930350270361327,20.89830878704834L16.883870170361327,21.089148787048337L12.527806070361327,21.089148787048337L12.685075270361327,20.73716478704834Q13.730669270361329,18.39702318704834,15.675041170361329,16.69092278704834Q17.63143827036133,14.97427078704834,20.11957267036133,14.23326258704834ZM12.912515870361329,29.83198878704834L16.88344907036133,29.83198878704834L16.929913970361326,30.022854787048338Q17.95029547036133,34.21432178704834,20.35298347036133,36.259726787048336L21.25540837036133,37.02796078704834L20.119571670361328,36.689692787048344Q17.63093327036133,35.94853678704834,15.674283070361328,34.23136778704834Q13.729645470361328,32.52474478704834,12.684244370361329,30.18393278704834L12.527067870361329,29.83198878704834L12.912515870361329,29.83198878704834ZM12.912515870361329,30.33198878704834L12.912515870361329,30.08198878704834L13.140784470361329,29.98004278704834Q14.141611070361328,32.221043787048345,16.004089370361328,33.85556478704834Q17.878504770361328,35.50056178704834,20.26228527036133,36.21048978704834L20.190928470361328,36.450091787048336L20.028873470361326,36.64045478704834Q17.502808570361328,34.490017787048345,16.444102270361327,30.14112378704834L16.687007870361327,30.08198878704834L16.687007870361327,30.33198878704834L12.912515870361329,30.33198878704834ZM30.069025370361327,11.196455587048339Q27.157898370361327,11.18278888704834,25.089180370361326,13.23102258704834Q23.020464370361328,15.27925588704834,23.00516337036133,18.19037528704834Q23.00516837036133,20.36485578704834,26.09212037036133,24.005456787048338Q27.90983237036133,26.14917678704834,30.23548937036133,28.19866078704834L30.07019837036133,28.38622178704834L29.903944370361327,28.19951578704834Q32.270588370361324,26.09212678704834,34.04640237036133,23.99748278704834Q37.133098370361324,20.35659678704834,37.133098370361324,18.18906118704834Q37.11780137036133,15.279860487048339,35.04981437036133,13.23175218704834Q32.98182637036133,11.18364278704834,30.071300370361328,11.19645618704834L30.069025370361327,11.196455587048339ZM30.06909937036133,10.69646096704834Q33.186603370361325,10.68273639704834,35.40165737036133,12.87649508704834Q37.61670837036132,15.07025428704834,37.633098370361324,18.18906118704834Q37.633098370361324,20.540017787048342,34.42778437036132,24.32081678704834Q32.629282370361324,26.44222378704834,30.23645437036133,28.57292878704834L30.071060370361327,28.72020478704834L29.904909370361327,28.57378478704834Q27.551983370361327,26.50027178704834,25.710760370361328,24.32882078704834Q22.50516837036133,20.54830278704834,22.505170370361327,18.187746987048342Q22.521559370361327,15.06960728704834,24.73739137036133,12.87571478704834Q26.953224370361326,10.68182241704834,30.07137337036133,10.69646113704834L30.06909937036133,10.69646096704834ZM30.114881370361328,14.20229048704834Q29.152366370361328,14.19972368704834,28.30113437036133,14.63363458704834Q27.322195370361328,15.13254258704834,26.736078370361327,16.06386998704834Q26.133860370361326,17.02078248704834,26.127761370361327,18.157367687048342Q26.118942370361328,19.80122658704834,27.273512370361328,20.971406787048338Q28.42808137036133,22.14158678704834,30.071914370361327,22.15484378704834Q31.03715537036133,22.15486678704834,31.89222737036133,21.71792878704834Q32.87570537036133,21.21547378704834,33.46550737036133,20.279797787048338Q34.071420370361324,19.31855678704834,34.08055837036133,18.176411587048342Q34.08049737036133,16.534534887048338,32.91962837036132,15.37060448704834Q31.758758370361328,14.20667318704834,30.11487937036133,14.202289087048339L30.114881370361328,14.20229048704834ZM30.11621237036133,13.70229098704834Q31.966804370361327,13.70722628704834,33.27364737036133,15.017517587048339Q34.58049037036133,16.327806487048342,34.580543370361326,18.180411387048338Q34.570266370361324,19.46482088704834,33.88848537036132,20.54642078704834Q33.225463370361325,21.59825978704834,32.11973937036133,22.163167787048337Q31.15749337036133,22.65487078704834,30.06788037036133,22.654828787048338Q28.217346370361327,22.639904787048337,26.917593370361327,21.32257778704834Q25.617839370361327,20.00525188704834,25.627769370361328,18.15468498704834Q25.634634370361326,16.875314687048338,26.312906370361326,15.797553087048339Q26.972406370361327,14.749619487048339,28.07406237036133,14.18817038704834Q29.03291137036133,13.69940348704834,30.116214370361327,13.70229218704834L30.11621237036133,13.70229098704834ZM26.480159370361328,18.20258428704834Q26.473127370361325,17.155597687048342,27.02269637036133,16.26988648704834Q27.55727937036133,15.408328987048339,28.45894037036133,14.94822308704834Q29.21405237036133,14.562996887048339,30.06737137036133,14.55437658704834Q31.57454337036133,14.55428888704834,32.643831370361326,15.61288498704834Q33.713119370361326,16.671481087048342,33.72816637036133,18.17606548704834Q33.72812837036133,19.21971228704834,33.17837137036133,20.09832858704834Q32.64374537036133,20.952765787048342,31.746982370361327,21.40958078704834Q30.98127737036133,21.79953678704834,30.116363370361327,21.80242078704834Q28.61877037036133,21.807412787048342,27.554496370361328,20.75378278704834Q26.490221370361326,19.70015048704834,26.480159370361328,18.202582387048338L26.480159370361328,18.20258428704834ZM26.98015037036133,18.19922348704834Q26.988823370361327,19.49018768704834,27.906267370361327,20.39845778704834Q28.823711370361327,21.306727787048338,30.114694370361327,21.30242378704834Q30.86050437036133,21.29993678704834,31.520031370361327,20.96405478704834Q33.22808837036133,20.09396268704834,33.22819137036133,18.181065587048337Q33.215202370361325,16.88212208704834,32.29205937036133,15.968210187048339Q31.368917370361327,15.054299387048339,30.072422370361327,15.05435088704834Q29.336599370361327,15.06178428704834,28.68620537036133,15.39358898704834Q26.96719637036133,16.27077678704834,26.98015037036133,18.19922638704834L26.98015037036133,18.19922348704834ZM16.39772417036133,25.46147678704834Q16.39772417036133,27.37505778704834,16.74676517036133,29.18251678704834L16.804196870361327,29.47991878704834L12.407874470361328,29.47991878704834L12.348562170361328,29.31413178704834Q10.969895360361328,25.460569787048343,12.348562170361328,21.60700678704834L12.407874470361328,21.44121978704834L16.804578770361328,21.44121978704834L16.74711177036133,21.73864678704834Q16.39772417036133,23.54693278704834,16.39772417036133,25.46147678704834ZM15.897724170361329,25.46147678704834Q15.897724170361329,23.49906978704834,16.256191270361327,21.64379278704834L16.50165127036133,21.69121978704834L16.50165127036133,21.94121978704834L12.583951270361329,21.94121978704834L12.583951270361329,21.69121978704834L12.819340270361328,21.77543378704834Q11.500930490361329,25.460569787048343,12.819340270361328,29.14570478704834L12.583951270361329,29.22991878704834L12.583951270361329,28.97991878704834L16.501300370361328,28.97991878704834L16.501300370361328,29.22991878704834L16.255835570361327,29.27732178704834Q15.897724170361329,27.42289678704834,15.897724170361329,25.46147678704834Z" fill="#30B690" fill-opacity="1"/></g></g></g></svg>