<svg xmlns="http://www.w3.org/2000/svg" xmlns:xlink="http://www.w3.org/1999/xlink" fill="none" version="1.1" width="52" height="52" viewBox="0 0 52 52"><g><g><ellipse cx="26" cy="26" rx="26" ry="26" fill="#FFFFFF" fill-opacity="1"/><path d="M52,26Q52,26.638264,51.968681,27.275759Q51.937366,27.913256,51.874805,28.548447Q51.812241,29.183636,51.718586,29.814993Q51.624931,30.446346,51.500412,31.072346Q51.375893,31.698345,51.22081,32.317482Q51.065727,32.936619,50.880447,33.547401Q50.695168,34.15818,50.480145,34.759132Q50.265114,35.360085,50.020863,35.949764Q49.776611,36.539444,49.503719,37.116428Q49.230827,37.693413,48.929955,38.256313Q48.629074,38.81921,48.300941,39.366669Q47.972809,39.914124,47.61821,40.444824Q47.263611,40.975521,46.883396,41.488182Q46.503181,42.000839,46.098274,42.494225Q45.693359,42.98761,45.264729,43.460529Q44.836094,43.933453,44.384773,44.384773Q43.933453,44.836094,43.460533,45.264729Q42.98761,45.693359,42.494225,46.098274Q42.000839,46.503181,41.488178,46.883392Q40.975521,47.263603,40.444824,47.618206Q39.914124,47.972805,39.366669,48.300941Q38.81921,48.629074,38.256313,48.929951Q37.693413,49.230827,37.116428,49.503719Q36.539444,49.776611,35.949764,50.020863Q35.360085,50.265114,34.759132,50.480141Q34.15818,50.695168,33.547401,50.880447Q32.936619,51.065727,32.317482,51.22081Q31.698345,51.375893,31.072346,51.500412Q30.446346,51.624931,29.814991,51.718586Q29.183636,51.812241,28.548447,51.874805Q27.913256,51.937363,27.275761,51.968681Q26.638264,52,26,52Q25.361736,52,24.724239,51.968681Q24.086746,51.937363,23.451555,51.874805Q22.816364,51.812241,22.185009,51.718586Q21.553652,51.624931,20.92765,51.500412Q20.301651,51.375893,19.682514,51.22081Q19.063377,51.065727,18.452599,50.880447Q17.841818,50.695168,17.240864,50.480145Q16.63991,50.265114,16.05023,50.020863Q15.46055,49.776611,14.883568,49.503719Q14.306583,49.230827,13.743685,48.929955Q13.180786,48.629074,12.633327,48.300941Q12.085871,47.972809,11.555173,47.61821Q11.024475,47.263611,10.511817,46.883396Q9.9991589,46.503181,9.5057745,46.098274Q9.0123892,45.693359,8.5394669,45.264729Q8.0665445,44.836094,7.6152234,44.384773Q7.1639023,43.933453,6.7352705,43.460533Q6.3066378,42.98761,5.9017277,42.494225Q5.4968166,42.000839,5.1166034,41.488178Q4.7363901,40.975521,4.3817897,40.444824Q4.0271893,39.914124,3.6990559,39.366669Q3.3709226,38.81921,3.0700471,38.256313Q2.7691715,37.693413,2.4962783,37.116428Q2.2233851,36.539444,1.9791319,35.949764Q1.7348789,35.360085,1.5198542,34.759132Q1.3048295,34.15818,1.1195512,33.547401Q0.93427289,32.936619,0.77918732,32.317482Q0.62410182,31.698345,0.49958265,31.072346Q0.37506351,30.446346,0.28141069,29.814991Q0.18775792,29.183636,0.1251971,28.548447Q0.062636271,27.913256,0.031318136,27.275761Q0,26.638264,0,26Q0,25.361736,0.031318136,24.724239Q0.062636271,24.086746,0.1251971,23.451555Q0.18775792,22.816364,0.28141069,22.185009Q0.37506351,21.553652,0.49958265,20.92765Q0.62410182,20.301651,0.77918732,19.682514Q0.93427289,19.063377,1.1195512,18.452599Q1.3048295,17.841818,1.5198542,17.240864Q1.7348789,16.63991,1.9791319,16.05023Q2.2233851,15.46055,2.4962783,14.883568Q2.7691712,14.306583,3.0700469,13.743685Q3.3709226,13.180786,3.6990557,12.633327Q4.0271893,12.085871,4.3817897,11.555173Q4.7363901,11.024475,5.1166034,10.511817Q5.4968166,9.9991589,5.9017277,9.5057745Q6.3066378,9.0123892,6.73527,8.5394669Q7.1639023,8.0665445,7.6152234,7.6152234Q8.0665445,7.1639023,8.5394669,6.7352705Q9.0123882,6.3066378,9.5057735,5.9017277Q9.9991579,5.4968166,10.511816,5.1166034Q11.024475,4.7363901,11.555172,4.3817897Q12.085869,4.0271893,12.633327,3.6990559Q13.180784,3.3709226,13.743684,3.0700471Q14.306581,2.7691715,14.883566,2.4962783Q15.460549,2.2233851,16.050228,1.9791319Q16.639908,1.7348789,17.240862,1.5198542Q17.841816,1.3048295,18.452597,1.1195512Q19.063377,0.93427289,19.682514,0.77918732Q20.301651,0.62410182,20.92765,0.49958265Q21.553652,0.37506351,22.185009,0.28141069Q22.816364,0.18775792,23.451555,0.1251971Q24.086746,0.062636271,24.724239,0.031318136Q25.361736,0,26,0Q26.638264,0,27.275759,0.031318136Q27.913256,0.062636271,28.548447,0.1251971Q29.183636,0.18775792,29.814993,0.28141069Q30.446346,0.37506351,31.072346,0.49958265Q31.698345,0.62410182,32.317482,0.77918732Q32.936619,0.93427289,33.547401,1.1195512Q34.15818,1.3048295,34.759132,1.5198542Q35.360085,1.7348789,35.949764,1.9791319Q36.539444,2.2233851,37.116428,2.4962783Q37.693413,2.7691712,38.256313,3.0700469Q38.81921,3.3709226,39.366669,3.6990557Q39.914124,4.0271893,40.444824,4.3817897Q40.975521,4.7363901,41.488182,5.1166034Q42.000839,5.4968166,42.494225,5.9017277Q42.98761,6.3066378,43.460529,6.73527Q43.933453,7.1639023,44.384773,7.6152234Q44.836094,8.0665445,45.264729,8.5394669Q45.693359,9.0123882,46.098274,9.5057735Q46.503181,9.9991579,46.883392,10.511816Q47.263603,11.024475,47.618206,11.555172Q47.972805,12.085869,48.300941,12.633327Q48.629074,13.180784,48.929951,13.743684Q49.230827,14.306581,49.503719,14.883566Q49.776611,15.460549,50.020863,16.050228Q50.265114,16.639908,50.480141,17.240862Q50.695168,17.841816,50.880447,18.452597Q51.065727,19.063377,51.22081,19.682514Q51.375893,20.301651,51.500412,20.92765Q51.624931,21.553652,51.718586,22.185009Q51.812241,22.816364,51.874805,23.451555Q51.937366,24.086746,51.968681,24.724239Q52,25.361736,52,26ZM51.5,26Q51.5,25.37401,51.469284,24.748775Q51.438568,24.123539,51.377209,23.500565Q51.315849,22.877586,51.223995,22.258371Q51.132145,21.639156,51.010021,21.025196Q50.887894,20.411236,50.73579,19.804005Q50.583687,19.196775,50.401974,18.59774Q50.220257,17.998705,50.009369,17.409307Q49.798477,16.81991,49.558922,16.241571Q49.319366,15.663233,49.05172,15.097345Q48.784073,14.531457,48.488987,13.979383Q48.193897,13.427309,47.872074,12.890379Q47.550251,12.35345,47.202469,11.832958Q46.854691,11.312467,46.481789,10.809668Q46.108887,10.306868,45.711761,9.8229713Q45.314636,9.3390741,44.894249,8.875246Q44.473862,8.411418,44.031219,7.9687767Q43.588577,7.526135,43.124752,7.1057458Q42.660923,6.6853571,42.177025,6.2882333Q41.69313,5.8911095,41.190327,5.5182076Q40.687531,5.1453056,40.167038,4.7975245Q39.646545,4.4497433,39.109619,4.1279202Q38.572685,3.8060973,38.020615,3.5110078Q37.46854,3.2159181,36.902653,2.9482729Q36.336761,2.6806278,35.758423,2.4410717Q35.180084,2.2015159,34.590691,1.9906263Q34.001293,1.7797368,33.402256,1.5980215Q32.803223,1.4163063,32.195992,1.2642031Q31.58876,1.1120999,30.9748,0.98997533Q30.36084,0.86785078,29.741625,0.77599895Q29.122412,0.68414724,28.499437,0.6227895Q27.876461,0.56143171,27.251225,0.53071588Q26.625988,0.5,26,0.5Q25.37401,0.5,24.748775,0.53071582Q24.123539,0.56143171,23.500565,0.6227895Q22.877586,0.68414724,22.258371,0.77599901Q21.639156,0.86785078,21.025196,0.98997533Q20.411236,1.1120999,19.804005,1.2642031Q19.196775,1.4163063,18.59774,1.5980215Q17.998705,1.7797368,17.409307,1.9906263Q16.81991,2.2015159,16.241571,2.4410717Q15.663233,2.6806278,15.097345,2.9482729Q14.531457,3.2159181,13.979383,3.5110078Q13.427309,3.8060973,12.890379,4.1279202Q12.35345,4.4497433,11.832958,4.7975245Q11.312467,5.1453056,10.809668,5.5182076Q10.306868,5.891109,9.8229713,6.2882328Q9.3390741,6.6853566,8.875246,7.1057458Q8.411418,7.526135,7.9687767,7.9687767Q7.526135,8.411418,7.1057458,8.875246Q6.6853571,9.3390741,6.2882333,9.8229713Q5.8911095,10.306868,5.5182076,10.809667Q5.1453056,11.312467,4.7975245,11.832958Q4.4497433,12.35345,4.1279202,12.89038Q3.8060973,13.427309,3.5110078,13.979383Q3.2159181,14.531457,2.9482729,15.097344Q2.6806278,15.663233,2.4410717,16.241571Q2.2015159,16.81991,1.9906263,17.409307Q1.7797368,17.998707,1.5980215,18.597742Q1.4163061,19.196777,1.2642031,19.804005Q1.1120999,20.411236,0.98997533,21.025196Q0.86785078,21.639156,0.77599895,22.258371Q0.68414718,22.877586,0.6227895,23.500565Q0.56143171,24.123539,0.53071588,24.748775Q0.5,25.37401,0.5,26Q0.5,26.625988,0.53071582,27.251225Q0.56143171,27.876461,0.6227895,28.499437Q0.68414718,29.122412,0.77599895,29.741627Q0.86785072,30.36084,0.98997527,30.9748Q1.1120999,31.58876,1.264203,32.195992Q1.416306,32.803223,1.5980214,33.40226Q1.7797366,34.001297,1.9906263,34.590691Q2.2015159,35.180084,2.4410717,35.758423Q2.6806278,36.336761,2.9482729,36.902649Q3.2159181,37.46854,3.5110078,38.020615Q3.8060973,38.572685,4.1279202,39.109615Q4.4497433,39.646545,4.7975245,40.167034Q5.1453056,40.687527,5.5182076,41.190327Q5.891109,41.69313,6.2882328,42.177025Q6.6853566,42.660923,7.1057458,43.124752Q7.526135,43.588577,7.9687767,44.031219Q8.411418,44.473862,8.875246,44.894249Q9.3390741,45.31464,9.8229713,45.711765Q10.306868,46.108887,10.809667,46.481789Q11.312467,46.854691,11.832958,47.202473Q12.35345,47.550255,12.89038,47.872074Q13.427309,48.193897,13.979383,48.488987Q14.531457,48.784073,15.097344,49.05172Q15.663233,49.319366,16.241571,49.558922Q16.81991,49.798477,17.409307,50.009365Q17.998707,50.220257,18.597742,50.401974Q19.196777,50.583687,19.804005,50.73579Q20.411236,50.887894,21.025196,51.010017Q21.639156,51.132141,22.258371,51.223999Q22.877586,51.315849,23.500565,51.377209Q24.123539,51.438568,24.748775,51.469284Q25.37401,51.5,26,51.5Q26.625988,51.5,27.251225,51.469284Q27.876461,51.438568,28.499437,51.377209Q29.122412,51.315849,29.741627,51.223995Q30.36084,51.132145,30.9748,51.010021Q31.58876,50.887894,32.195992,50.73579Q32.803223,50.583687,33.40226,50.401974Q34.001297,50.220257,34.590691,50.009369Q35.180084,49.798477,35.758423,49.558922Q36.336761,49.319366,36.902649,49.05172Q37.46854,48.784073,38.020615,48.488987Q38.572685,48.193897,39.109615,47.872074Q39.646545,47.550251,40.167034,47.202469Q40.687527,46.854691,41.190327,46.481789Q41.69313,46.108887,42.177025,45.711761Q42.660923,45.314636,43.124752,44.894249Q43.588577,44.473862,44.031219,44.031219Q44.473862,43.588577,44.894249,43.124752Q45.31464,42.660923,45.711765,42.177025Q46.108887,41.69313,46.481789,41.190327Q46.854691,40.687531,47.202473,40.167038Q47.550255,39.646545,47.872074,39.109619Q48.193897,38.572685,48.488987,38.020615Q48.784073,37.46854,49.05172,36.902653Q49.319366,36.336761,49.558922,35.758423Q49.798477,35.180084,50.009365,34.590691Q50.220257,34.001293,50.401974,33.402256Q50.583687,32.803223,50.73579,32.195992Q50.887894,31.58876,51.010017,30.9748Q51.132141,30.36084,51.223999,29.741625Q51.315849,29.122412,51.377209,28.499437Q51.438568,27.876461,51.469284,27.251225Q51.5,26.625988,51.5,26Z" fill="#C2E8DE" fill-opacity="1"/></g><g><g><path d="M26.660094906250002,28.5822935Q26.477820906250003,28.4220529,26.24237490625,28.3631911L12.90903952625,25.02985752Q12.81348882625,25.00596988,12.71511385925,25.00118232Q12.61673890025,24.9963948,12.51932015625,25.01089108Q12.42190143625,25.02538741,12.32918265625,25.05861062Q12.23646387625,25.09183383,12.15200817625,25.1425072Q12.06755256625,25.19318068,11.99460553625,25.25935686Q11.92165851625,25.32553309,11.86302351625,25.40466899Q11.80438852625,25.48380482,11.76231878625,25.57285929Q11.72024911625,25.66191369,11.69636142625,25.75746438Q11.65414180625,25.926343068,11.67147183625,26.099554449Q11.68880188625,26.27276585,11.76364284625,26.42993245L17.47791000625,38.429934Q17.52025410625,38.518856,17.57913350625,38.597811Q17.63801240625,38.676765,17.71116350625,38.742716Q17.78431460625,38.808666,17.86892650625,38.859077Q17.95353790625,38.909491,18.04635910625,38.942428Q18.13918020625,38.975363,18.236643306250002,38.989558Q18.33410640625,39.003753,18.43246600625,38.998661Q18.530825606249998,38.993569,18.62630270625,38.969387Q18.72177890625,38.945206,18.810703306249998,38.902862Q18.99617580625,38.814541,19.13181070625,38.660257L26.75087690625,29.9935904Q26.88220990625,29.8441985,26.946375906249997,29.6559198Q27.01054390625,29.4676409,26.99777490625,29.2691391Q26.98500690625,29.0706372,26.89724690625,28.8921318Q26.80948590625,28.7136266,26.660094906250002,28.5822935ZM24.16535590625,29.9054894L14.48094210625,27.484386L18.63139060625,36.200357L24.16535590625,29.9054894Z" fill-rule="evenodd" fill="#30B690" fill-opacity="1" style="mix-blend-mode:passthrough"/></g><g><path d="M39.090797,25.02985752L25.75746438,28.3631911Q25.52201641,28.4220529,25.33974332,28.5822935Q25.26577234,28.6473231,25.20590943,28.725534Q25.1460464,28.8037448,25.10259187,28.8921318Q25.05913734,28.9805188,25.03376126,29.075685Q25.00838512,29.1708512,25.00206256,29.2691398Q24.9957401,29.3674278,25.00871414,29.4650609Q25.02168822,29.5626941,25.05346024,29.6559203Q25.08523226,29.7491462,25.13458133,29.8343828Q25.18393034,29.9196191,25.2489599,29.9935904L32.8680272,38.660257Q33.0036621,38.814541,33.1891346,38.902862Q33.2780581,38.945206,33.3735342,38.969387Q33.4690104,38.993569,33.5673704,38.998661Q33.6657305,39.003753,33.7631931,38.989557Q33.8606567,38.975363,33.9534779,38.942428Q34.046299,38.909491,34.1309109,38.859077Q34.2155218,38.808666,34.2886734,38.742716Q34.361824,38.676765,34.4207039,38.597811Q34.4795837,38.518856,34.5219278,38.429934L40.236196,26.42993245Q40.311036,26.27276585,40.328366,26.099554449Q40.345695,25.926343068,40.303476,25.75746438Q40.279588000000004,25.66191369,40.237518,25.57285929Q40.195448,25.48380482,40.136813000000004,25.40466893Q40.078178,25.32553303,40.005232,25.25935686Q39.932283999999996,25.19318068,39.847829000000004,25.1425072Q39.763372000000004,25.09183383,39.670654,25.05861062Q39.577934,25.02538741,39.480516,25.01089108Q39.383097,24.9963948,39.284722,25.00118232Q39.186348,25.00596988,39.090797,25.02985752ZM27.8344824,29.905489199999998L33.3684473,36.200357L37.518895,27.4843862L27.8344824,29.905489199999998Z" fill-rule="evenodd" fill="#30B690" fill-opacity="1" style="mix-blend-mode:passthrough"/></g><g><path d="M25.35389470625,28.569865703125Q25.29027940625,28.623694183125,25.23645070625,28.687309743125L17.90311765625,37.353976253125Q17.83949792625,37.429162953125,17.79176890625,37.515316053125Q17.74403989625,37.601469953125,17.71403568625,37.695280053125Q17.68403148625,37.789089153125,17.67290526625,37.886950453124996Q17.66177890625,37.984811753125,17.66995823625,38.082963953125Q17.67813753625,38.181115153125,17.70530801625,38.275784453125Q17.73247843625,38.370454753125,17.777595936250002,38.458003953125Q17.82271343625,38.545554153124996,17.88404410625,38.622619653125Q17.94537478625,38.699686053125,18.02056175625,38.763305653125Q18.15597927625,38.877889653124996,18.32254630625,38.938903853125Q18.48911338625,38.999918953125004,18.66650390625,38.999918953125004L33.33316990625,38.999918953125004Q33.43166190625,38.999917953125,33.52825890625,38.980703353125Q33.62485890625,38.961488753124996,33.71585290625,38.923797653125Q33.80684690625,38.886106453125,33.88873890625,38.831388453125Q33.97063190625,38.776669453125,34.04027590625,38.707025553125Q34.10991890625,38.637380553125,34.16463790625,38.555488553125Q34.21935590625,38.473594653125,34.25704690625,38.382600753125004Q34.294738906250004,38.291606853125,34.31395290625,38.195009253125Q34.33316890625,38.098409653125,34.33316990625,37.999918953125004Q34.333170906250004,37.822528853125,34.27215590625,37.655961053125Q34.21114190625,37.489394153125,34.09655690625,37.353976253125L26.76322360625,28.687309803125Q26.69960400625,28.612122833125,26.62253760625,28.550792153125Q26.54547210625,28.489461483125,26.45792200625,28.444343983125002Q26.37037180625,28.399226483125,26.27570250625,28.372056003125Q26.18103310625,28.344885583125,26.08288190625,28.336706283125Q25.984730706249998,28.328526953125,25.88686940625,28.339653253125Q25.78900810625,28.350779533125,25.69519850625,28.380783673125Q25.60138890625,28.410787883125,25.51523490625,28.458516953125Q25.42908140625,28.506245973125,25.35389470625,28.569865703125ZM25.99983690625,30.881378153125L20.82261040625,36.999919453125L31.177063906249998,36.999919453125L25.99983690625,30.881378153125Z" fill-rule="evenodd" fill="#30B690" fill-opacity="1" style="mix-blend-mode:passthrough"/></g><g><path d="M25.9999995,14.75483130625L33.122104,27.81202190625L34.877894999999995,26.85431790625L26.8778954,12.187651786250001Q26.7826443,12.01302736625,26.6278191,11.88814592625Q26.4729939,11.76326453625,26.2821646,11.70713817625Q26.0913353,11.65101210625,25.8935537,11.67218541625Q25.6957722,11.69335883625,25.5211482,11.78860831625Q25.2629433,11.92944723625,25.1221042,12.187651786250001L17.12210441,26.85431790625L18.87789559,27.81202190625L25.9999995,14.75483130625Z" fill-rule="evenodd" fill="#30B690" fill-opacity="1" style="mix-blend-mode:passthrough"/></g></g></g></svg>