<svg xmlns="http://www.w3.org/2000/svg" xmlns:xlink="http://www.w3.org/1999/xlink" fill="none" version="1.1" width="48" height="48" viewBox="0 0 48 48"><g><g><ellipse cx="24" cy="24" rx="24" ry="24" fill="#FFFFFF" fill-opacity="1"/><path d="M48,24Q48,24.589167,47.971088,25.177626Q47.942181,25.766083,47.884434,26.352413Q47.826683,26.938744,47.740234,27.52153Q47.653786,28.104321,47.538841,28.682167Q47.423901,29.260014,47.280746,29.831526Q47.137589,30.403034,46.966568,30.966833Q46.79554,31.530628,46.597054,32.085354Q46.398567,32.640079,46.173103,33.184399Q45.947639,33.728718,45.69574,34.261322Q45.44384,34.793922,45.166107,35.313522Q44.888374,35.833122,44.58548,36.338467Q44.282589,36.843811,43.955265,37.333683Q43.627941,37.823559,43.276978,38.29678Q42.92601,38.770004,42.55225,39.225437Q42.17849,39.680866,41.782829,40.117409Q41.387169,40.553955,40.970562,40.970558Q40.553959,41.387161,40.117416,41.782825Q39.680874,42.178486,39.225445,42.55225Q38.770012,42.92601,38.296787,43.276974Q37.823563,43.627941,37.333687,43.955265Q36.843811,44.282589,36.338467,44.585484Q35.833122,44.888374,35.313526,45.166107Q34.793922,45.44384,34.261322,45.69574Q33.728722,45.947639,33.184402,46.173103Q32.640083,46.398567,32.085358,46.597054Q31.53063,46.79554,30.966835,46.966568Q30.403036,47.137589,29.831524,47.280746Q29.260014,47.423901,28.682167,47.538841Q28.104321,47.653786,27.521532,47.740231Q26.938744,47.826683,26.352413,47.884434Q25.766083,47.942181,25.177624,47.971092Q24.589167,48,24,48Q23.410831,48,22.822372,47.971088Q22.233917,47.942181,21.647587,47.884434Q21.061256,47.826683,20.478466,47.740234Q19.895676,47.653786,19.317829,47.538841Q18.739983,47.423901,18.168472,47.280746Q17.596964,47.137589,17.033167,46.966568Q16.469368,46.79554,15.914642,46.597054Q15.359916,46.398567,14.815597,46.173103Q14.271278,45.947639,13.738677,45.69574Q13.206077,45.44384,12.686478,45.166107Q12.166879,44.888374,11.661533,44.58548Q11.156188,44.282589,10.666313,43.955265Q10.176439,43.627941,9.7032156,43.276978Q9.2299919,42.92601,8.7745609,42.55225Q8.319128,42.17849,7.8825846,41.782829Q7.4460411,41.387169,7.0294371,40.970562Q6.612833,40.553959,6.2171731,40.117416Q5.8215127,39.680874,5.4477491,39.225445Q5.0739851,38.770012,4.7230191,38.296787Q4.3720522,37.823563,4.0447288,37.333687Q3.7174053,36.843811,3.4145129,36.338467Q3.1116209,35.833122,2.8338895,35.313526Q2.5561581,34.793922,2.3042569,34.261322Q2.0523555,33.728722,1.8268911,33.184402Q1.6014266,32.640083,1.4029424,32.085358Q1.204458,31.53063,1.0334319,30.966835Q0.86240578,30.403036,0.71924984,29.831524Q0.57609397,29.260014,0.46115321,28.682167Q0.34621245,28.104321,0.25976375,27.521532Q0.173315,26.938744,0.11556655,26.352413Q0.057818096,25.766083,0.028909048,25.177624Q0,24.589167,0,24Q0,23.410831,0.028909048,22.822372Q0.057818096,22.233917,0.11556655,21.647587Q0.173315,21.061256,0.25976372,20.478466Q0.34621245,19.895676,0.46115321,19.317829Q0.57609397,18.739983,0.71924984,18.168472Q0.86240578,17.596964,1.0334319,17.033167Q1.204458,16.469368,1.4029423,15.914642Q1.6014266,15.359916,1.8268911,14.815597Q2.0523555,14.271278,2.3042569,13.738677Q2.5561583,13.206077,2.8338897,12.686478Q3.1116211,12.166879,3.4145136,11.661533Q3.7174058,11.156188,4.0447292,10.666313Q4.3720531,10.176439,4.7230191,9.7032156Q5.0739856,9.2299919,5.4477491,8.7745609Q5.8215127,8.319128,6.2171726,7.8825846Q6.612833,7.4460411,7.0294371,7.0294371Q7.4460411,6.612833,7.8825846,6.2171731Q8.319128,5.8215127,8.7745609,5.4477491Q9.2299919,5.0739851,9.7032156,4.7230191Q10.176439,4.3720522,10.666313,4.0447288Q11.156188,3.7174053,11.661533,3.4145129Q12.16688,3.1116209,12.68648,2.8338895Q13.206078,2.5561581,13.738678,2.3042569Q14.271278,2.0523555,14.815597,1.8268911Q15.359916,1.6014266,15.914642,1.4029424Q16.469368,1.204458,17.033167,1.0334319Q17.596964,0.86240578,18.168474,0.71924984Q18.739985,0.57609397,19.317831,0.46115321Q19.895676,0.34621245,20.478466,0.25976375Q21.061256,0.173315,21.647587,0.11556655Q22.233917,0.057818096,22.822372,0.028909048Q23.410831,0,24,0Q24.589167,0,25.177626,0.028909048Q25.766083,0.057818096,26.352413,0.11556655Q26.938744,0.173315,27.52153,0.25976372Q28.104321,0.34621245,28.682167,0.46115321Q29.260014,0.57609397,29.831526,0.71924984Q30.403034,0.86240578,30.966833,1.0334319Q31.530628,1.204458,32.085354,1.4029423Q32.640079,1.6014266,33.184399,1.8268911Q33.728718,2.0523555,34.261322,2.3042569Q34.793922,2.5561583,35.313522,2.8338897Q35.833122,3.1116211,36.338467,3.4145136Q36.843811,3.7174058,37.333683,4.0447292Q37.823559,4.3720531,38.29678,4.7230191Q38.770004,5.0739856,39.225437,5.4477491Q39.680866,5.8215127,40.117409,6.2171726Q40.553955,6.612833,40.970558,7.0294371Q41.387161,7.4460411,41.782825,7.8825846Q42.178486,8.319128,42.55225,8.7745609Q42.92601,9.2299919,43.276974,9.7032156Q43.627941,10.176439,43.955265,10.666313Q44.282589,11.156188,44.585484,11.661533Q44.888374,12.16688,45.166107,12.68648Q45.44384,13.206078,45.69574,13.738678Q45.947639,14.271278,46.173103,14.815597Q46.398567,15.359916,46.597054,15.914642Q46.79554,16.469368,46.966568,17.033167Q47.137589,17.596964,47.280746,18.168474Q47.423901,18.739985,47.538841,19.317831Q47.653786,19.895676,47.740231,20.478466Q47.826683,21.061256,47.884434,21.647587Q47.942181,22.233917,47.971092,22.822372Q48,23.410831,48,24ZM47.5,24Q47.5,23.423107,47.471695,22.846909Q47.44339,22.270714,47.386845,21.696598Q47.330296,21.122482,47.245644,20.551834Q47.160995,19.981186,47.04845,19.415377Q46.935905,18.849569,46.795734,18.289965Q46.65556,17.730362,46.488094,17.17831Q46.320633,16.626257,46.126282,16.083088Q45.931934,15.539917,45.711166,15.006938Q45.490398,14.473959,45.243748,13.952454Q44.997093,13.43095,44.725151,12.922176Q44.453201,12.413402,44.15662,11.918585Q43.860039,11.423767,43.539532,10.944098Q43.219028,10.46443,42.875374,10.001066Q42.531723,9.5377026,42.165745,9.0917578Q41.799767,8.6458139,41.41235,8.2183647Q41.024933,7.7909155,40.617008,7.3829904Q40.209084,6.9750657,39.781635,6.5876484Q39.354187,6.2002311,38.908241,5.8342543Q38.462296,5.468277,37.998932,5.1246228Q37.535568,4.7809677,37.055897,4.4604635Q36.576229,4.1399593,36.081409,3.8433774Q35.586594,3.5467954,35.07782,3.2748504Q34.569046,3.0029049,34.047543,2.7562513Q33.526039,2.509598,32.993057,2.2888308Q32.460075,2.0680635,31.916908,1.8737143Q31.373739,1.6793652,30.82169,1.5119021Q30.269636,1.344439,29.710032,1.2042655Q29.150427,1.0640919,28.58462,0.95154583Q28.018812,0.83899969,27.448164,0.75435203Q26.877516,0.66970432,26.303402,0.61315894Q25.729286,0.55661356,25.153091,0.52830678Q24.576893,0.5,24,0.5Q23.423107,0.5,22.846909,0.52830678Q22.270714,0.55661356,21.696598,0.61315894Q21.122482,0.66970432,20.551834,0.75435197Q19.981186,0.83899969,19.415377,0.95154583Q18.849569,1.0640919,18.289965,1.2042655Q17.730362,1.344439,17.17831,1.5119021Q16.626257,1.6793652,16.083088,1.8737142Q15.539917,2.0680635,15.006938,2.2888308Q14.473959,2.509598,13.952454,2.7562516Q13.43095,3.0029049,12.922176,3.2748504Q12.413402,3.5467954,11.918585,3.8433771Q11.423767,4.1399593,10.944098,4.4604635Q10.46443,4.7809677,10.001066,5.1246228Q9.5377026,5.468277,9.0917578,5.8342543Q8.6458139,6.2002311,8.2183647,6.5876484Q7.7909155,6.9750657,7.3829904,7.3829904Q6.9750657,7.7909155,6.5876484,8.2183647Q6.2002311,8.6458139,5.8342543,9.0917578Q5.468277,9.5377026,5.1246228,10.001066Q4.7809677,10.46443,4.4604635,10.944098Q4.1399593,11.423767,3.8433774,11.918584Q3.5467954,12.413402,3.2748504,12.922176Q3.0029049,13.43095,2.7562513,13.952454Q2.509598,14.473959,2.2888308,15.006938Q2.0680635,15.539917,1.8737143,16.083086Q1.6793652,16.626257,1.5119021,17.17831Q1.344439,17.730362,1.2042655,18.289967Q1.0640919,18.849569,0.95154583,19.415377Q0.83899963,19.981186,0.75435197,20.551834Q0.66970426,21.122482,0.61315894,21.696598Q0.55661356,22.270714,0.52830678,22.846909Q0.5,23.423107,0.5,24Q0.5,24.576893,0.52830678,25.15309Q0.55661356,25.729288,0.61315894,26.303404Q0.66970426,26.877518,0.75435197,27.448164Q0.83899963,28.018814,0.95154583,28.584621Q1.0640919,29.150429,1.2042655,29.710032Q1.344439,30.269634,1.5119021,30.821688Q1.6793652,31.373737,1.8737142,31.916908Q2.0680635,32.460075,2.2888308,32.993057Q2.509598,33.526039,2.7562516,34.047543Q3.0029049,34.569046,3.2748504,35.07782Q3.5467954,35.586594,3.8433771,36.081413Q4.1399593,36.576229,4.4604635,37.055897Q4.7809677,37.535568,5.1246228,37.998932Q5.468277,38.462296,5.8342543,38.908241Q6.2002311,39.354183,6.5876484,39.781631Q6.9750657,40.20908,7.3829904,40.617004Q7.7909155,41.024929,8.2183647,41.412346Q8.6458139,41.799767,9.0917578,42.165745Q9.5377026,42.531723,10.001066,42.875374Q10.46443,43.219028,10.944098,43.539532Q11.423767,43.860039,11.918584,44.156616Q12.413402,44.453201,12.922176,44.725147Q13.43095,44.997093,13.952454,45.243744Q14.473959,45.490398,15.006938,45.711166Q15.539917,45.931934,16.083086,46.126286Q16.626257,46.320633,17.17831,46.488098Q17.730362,46.655563,18.289967,46.795738Q18.849569,46.935905,19.415377,47.048454Q19.981186,47.160999,20.551834,47.245651Q21.122482,47.330299,21.696598,47.386845Q22.270714,47.44339,22.846909,47.471695Q23.423107,47.5,24,47.5Q24.576893,47.5,25.15309,47.471695Q25.729288,47.44339,26.303404,47.386845Q26.877518,47.330296,27.448164,47.245644Q28.018814,47.160995,28.584621,47.04845Q29.150429,46.935905,29.710032,46.795734Q30.269634,46.65556,30.821688,46.488094Q31.373737,46.320633,31.916908,46.126282Q32.460075,45.931934,32.993057,45.711166Q33.526039,45.490398,34.047543,45.243748Q34.569046,44.997093,35.07782,44.725151Q35.586594,44.453201,36.081413,44.15662Q36.576229,43.860039,37.055897,43.539532Q37.535568,43.219028,37.998932,42.875374Q38.462296,42.531723,38.908241,42.165745Q39.354183,41.799767,39.781631,41.41235Q40.20908,41.024933,40.617004,40.617008Q41.024929,40.209084,41.412346,39.781635Q41.799767,39.354187,42.165745,38.908241Q42.531723,38.462296,42.875374,37.998932Q43.219028,37.535568,43.539532,37.055897Q43.860039,36.576229,44.156616,36.081409Q44.453201,35.586594,44.725147,35.07782Q44.997093,34.569046,45.243744,34.047543Q45.490398,33.526039,45.711166,32.993057Q45.931934,32.460075,46.126286,31.916908Q46.320633,31.373739,46.488098,30.82169Q46.655563,30.269636,46.795738,29.710032Q46.935905,29.150427,47.048454,28.58462Q47.160999,28.018812,47.245651,27.448164Q47.330299,26.877516,47.386845,26.303402Q47.44339,25.729286,47.471695,25.153091Q47.5,24.576893,47.5,24Z" fill="#C2E8DE" fill-opacity="1"/></g><g><g><path d="M28.3915060625,12C31.3230340625,12.000024441804,33.725725062500004,14.3858168,33.8207050625,17.3910227L33.8236030625,17.5715404L33.8236030625,30.943239C33.8233760625,33.448296,32.193788062500005,35.645452,29.8400630625,36.314203L29.8400630625,36.886217C29.8397770625,37.480598,29.3846930625,37.970113999999995,28.8058550625,37.998678C28.2270180625,38.027243,27.7282200625,37.584799000000004,27.6722950625,36.993190999999996L27.6672250625,36.886217L27.6672250625,36.51478L20.4244260625,36.51478L20.4244260625,36.886217C20.4241399625,37.480602000000005,19.9690580625,37.970123,19.3902177625,37.998688C18.8113770625,38.027254,18.3125758625,37.584801,18.2566566625,36.993190999999996L18.2515873625,36.886217L18.2515873625,36.314206999999996C15.9663109625,35.664541,14.3555331625,33.570145,14.2716700625,31.139359L14.268048262499999,30.943239L14.268048262499999,17.5715404C14.2680725625,14.5647562,16.5941529625,12.10039099,19.5241460625,12.0029707418L19.7001476625,12L28.3915060625,12ZM31.6507640625,27.971750999999998L16.4408879625,27.971750999999998L16.4408879625,30.943239C16.4408888625,32.728254,17.8081908625,34.198355,19.5465993625,34.282448L19.7001476625,34.286163L28.3915060625,34.286163C30.1318440625,34.286161,31.5651550625,32.883759999999995,31.6471400625,31.100727L31.6507640625,30.943239L31.6507640625,27.971750999999998ZM28.3915060625,14.2286162L19.7001476625,14.2286162C17.9598059625,14.228617400000001,16.5264978625,15.6310184,16.4445085625,17.4140525L16.4408879625,17.5715413L16.4408879625,25.743135000000002L31.6507640625,25.743135000000002L31.6507640625,17.5715404C31.6507620625,15.7865236,30.2834620625,14.3164229,28.5450520625,14.2323298L28.3915060625,14.2286162ZM12.0952088625,20.171593700000003C12.6548032625,20.171621299999998,13.1228370625,20.6076202,13.1765582625,21.1789274L13.1816286625,21.285902L13.1816286625,25.958567000000002C13.1813413625,26.55295,12.7262571625,27.042469,12.1474195625,27.071033999999997C11.5685815225,27.099600000000002,11.0697800885,26.657151,11.0138591724,26.065542L11.0087890625,25.958567000000002L11.0087890625,21.285902C11.0087890625,20.670485499999998,11.4951957425,20.171593700000003,12.0952088625,20.171593700000003ZM35.9964450625,20.171593700000003C36.5560380625,20.1716223,37.024069062500004,20.6076202,37.0777890625,21.1789274L37.082863062499996,21.285902L37.082863062499996,25.958567000000002C37.0825730625,26.552947,36.627489062500004,27.042462999999998,36.0486530625,27.071029C35.469818062499996,27.099593,34.971014062500004,26.657147000000002,34.9150920625,26.065542L34.9100250625,25.958567000000002L34.9100250625,21.285902C34.9100250625,20.670485499999998,35.396429062500005,20.171593700000003,35.9964450625,20.171593700000003Z" fill="#3BA185" fill-opacity="1" style="mix-blend-mode:passthrough"/></g><g><path d="M21.37201790625,30.3437496Q21.37201810625,30.4112991,21.36557940625,30.4785233Q21.35914040625,30.5457473,21.34632490625,30.6119987Q21.33350990625,30.6782502,21.31444120625,30.742891Q21.29537270625,30.8075316,21.27023430625,30.8699391Q21.24509640625,30.9323466,21.21413090625,30.99192Q21.18316530625,31.0514932,21.14667030625,31.1076584Q21.11017560625,31.1638236,21.06850290625,31.2160401Q21.02683020625,31.2682567,20.98038080625,31.3160212Q20.93393180625,31.3637857,20.88315340625,31.4066386Q20.83237500625,31.4494915,20.77775640625,31.4870198Q20.72313810625,31.5245483,20.66520540625,31.556391Q20.60727270625,31.5882335,20.54658390625,31.6140833Q20.48589520625,31.6399336,20.42303470625,31.6595421Q20.36017420625,31.6791508,20.29574730625,31.6923289Q20.23132060625,31.7055073,20.16594780625,31.7121284Q20.100575106249998,31.7187493,20.03488590625,31.7187493Q19.96919690625,31.7187493,19.90382410625,31.7121282Q19.83845140625,31.7055073,19.77402440625,31.6923289Q19.70959760625,31.6791511,19.64673697625,31.6595423Q19.58387642625,31.6399338,19.52318757625,31.6140835Q19.46249878625,31.5882335,19.40456622625,31.556391Q19.34663367625,31.5245485,19.29201513625,31.48702Q19.23739671625,31.4494915,19.18661832625,31.4066386Q19.13583999625,31.3637857,19.08939078625,31.3160212Q19.04294156625,31.2682567,19.00126886625,31.2160401Q18.95959615625,31.1638236,18.92310124625,31.1076584Q18.88660636625,31.0514932,18.85564073625,30.99192Q18.82467512625,30.9323466,18.79953700625,30.869939Q18.77439888525,30.8075316,18.75533035425,30.7428908Q18.73626182225,30.6782502,18.72344651825,30.6119988Q18.71063121725,30.5457474,18.70419256155,30.4785233Q18.69775390625,30.4112991,18.69775390625,30.3437496Q18.69775390625,30.2762003,18.70419256155,30.2089761Q18.71063121725,30.141752,18.72344651825,30.0755005Q18.73626182225,30.009249099999998,18.75533035425,29.94460833Q18.77439888525,29.87996757,18.79953700625,29.81755996Q18.82467512625,29.75515252,18.85564075625,29.69557929Q18.88660636625,29.636006,18.92310124625,29.57984072Q18.95959615625,29.52367544,19.00126886625,29.47145909Q19.04294156625,29.41924271,19.08939078625,29.37147805Q19.13583999625,29.32371342,19.18661832625,29.28086054Q19.23739665625,29.23800766,19.29201507625,29.20047921Q19.34663361625,29.16295078,19.40456616625,29.13110822Q19.46249878625,29.09926564,19.52318751625,29.0734156Q19.58387637625,29.047565572,19.64673691625,29.027957018Q19.70959750625,29.008348465,19.77402420625,28.995170228Q19.83845130625,28.981991997,19.90382410625,28.9753709985Q19.96919690625,28.96875,20.03488590625,28.96875Q20.100575106249998,28.96875,20.16594780625,28.9753709985Q20.23132050625,28.981991997,20.29574720625,28.995170228Q20.36017420625,29.008348465,20.42303470625,29.027957018Q20.48589520625,29.047565572,20.54658390625,29.0734156Q20.60727270625,29.09926564,20.66520540625,29.13110821Q20.72313780625,29.16295077,20.77775620625,29.20047918Q20.83237500625,29.23800763,20.88315340625,29.28086054Q20.93393180625,29.32371342,20.98038080625,29.37147805Q21.02683020625,29.41924271,21.06850290625,29.47145909Q21.11017560625,29.52367544,21.14667030625,29.57984066Q21.18316530625,29.636006,21.21413090625,29.69557929Q21.24509670625,29.75515252,21.27023460625,29.81755996Q21.29537300625,29.87996757,21.31444140625,29.94460833Q21.33350990625,30.009249099999998,21.34632520625,30.0755005Q21.35914060625,30.141752,21.36557940625,30.2089761Q21.37201810625,30.2762003,21.37201790625,30.3437496Z" fill="#3BA185" fill-opacity="1" style="mix-blend-mode:passthrough"/></g><g><path d="M26.720703125,30.34362725625C26.71998200589,31.10354375625,27.318847535,31.71997115625,28.057835725,31.71997115625C28.796824025,31.71997115625,29.395689224999998,31.10354375625,29.394966325,30.34362725625C29.395689224999998,29.58371257625,28.796824025,28.96728515625,28.057835725,28.96728515625C27.318847535,28.96728515625,26.71998200589,29.58371257625,26.720703125,30.34362725625Z" fill="#3BA185" fill-opacity="1" style="mix-blend-mode:passthrough"/></g></g></g></svg>