<svg xmlns="http://www.w3.org/2000/svg" xmlns:xlink="http://www.w3.org/1999/xlink" fill="none"
  version="1.1" width="10" height="10" viewBox="0 0 10 10">
  <g transform="matrix(0,1,-1,0,10,-10)">
    <path
      d="M18.4641018,6Q18.4968739,6.0567627,18.5219564,6.1173172Q18.547038999999998,6.1778708,18.564003,6.2411814Q18.5809669,6.304491,18.5895224,6.3694739Q18.5980778,6.4344563,18.5980768,6.4999995Q18.5980778,6.5655432,18.5895224,6.6305265Q18.5809669,6.695509,18.564003,6.7588191Q18.547038999999998,6.8221292,18.5219564,6.8826833Q18.4968739,6.9432378,18.4641018,7Q18.4313307,7.0567627,18.3914299,7.1087618Q18.351530099999998,7.1607609,18.3051834,7.2071071Q18.2588377,7.2534533,18.206838599999998,7.2933536Q18.154838599999998,7.3332539,18.098075899999998,7.366025Q18.0413141,7.398797,17.9807596,7.4238796Q17.9202051,7.4489622,17.856895,7.4659262Q17.793584799999998,7.4828901,17.7286019,7.4914446Q17.6636195,7.5,17.5980759,7.5L12.4019239,7.5Q12.3363805,7.5,12.2713976,7.4914451Q12.2064149,7.4828901,12.1431048,7.4659262Q12.0797949,7.4489622,12.019240400000001,7.4238801Q11.9586862,7.3987975,11.9019239,7.3660254Q11.8451617,7.3332539,11.7931625,7.293354Q11.7411633,7.2534533,11.6948171,7.2071071Q11.6484709,7.1607609,11.6085706,7.1087618Q11.5686703,7.0567627,11.5358984,7Q11.5031267,6.9432378,11.4780444,6.8826838Q11.452962,6.8221292,11.4359982,6.7588196Q11.4190342,6.6955094,11.4104792,6.6305265Q11.4019239,6.5655437,11.4019239,6.5Q11.4019239,6.4344568,11.4104792,6.3694744Q11.4190342,6.3044915,11.4359982,6.2411814Q11.452962,6.1778708,11.4780444,6.1173167Q11.5031267,6.0567627,11.5358984,6L14.1339746,1.5Q14.166746100000001,1.4432378,14.206646899999999,1.3912387Q14.2465472,1.3392394,14.2928934,1.2928932Q14.339239599999999,1.246547,14.391238699999999,1.2066467Q14.4432378,1.1667464,14.5,1.1339746Q14.5567627,1.1012028,14.6173167,1.0761205Q14.6778708,1.051038,14.7411814,1.0340742Q14.804491500000001,1.0171103,14.8694744,1.0085552Q14.9344568,1,15,1Q15.0655437,1,15.1305265,1.0085552Q15.195509399999999,1.0171103,15.258819599999999,1.0340743Q15.3221292,1.0510383,15.382683799999999,1.0761206Q15.4432378,1.101203,15.5,1.1339748Q15.5567627,1.1667466,15.6087618,1.2066469Q15.6607609,1.2465472,15.7071075,1.2928934Q15.7534537,1.3392396,15.793354,1.3912387Q15.833253899999999,1.4432379,15.8660254,1.5000001L18.4641018,6Z"
      fill="#2C3E50" fill-opacity="0.4" />
  </g>
</svg>