<svg xmlns="http://www.w3.org/2000/svg" xmlns:xlink="http://www.w3.org/1999/xlink" fill="none" version="1.1" width="52" height="52" viewBox="0 0 52 52"><defs><clipPath id="master_svg0_242_79180/242_79168"><rect x="10" y="10" width="32" height="32" rx="0"/></clipPath></defs><g><g><ellipse cx="26" cy="26" rx="26" ry="26" fill="#FFFFFF" fill-opacity="1"/><path d="M52,26Q52,26.638264,51.968681,27.275759Q51.937366,27.913256,51.874805,28.548447Q51.812241,29.183636,51.718586,29.814993Q51.624931,30.446346,51.500412,31.072346Q51.375893,31.698345,51.22081,32.317482Q51.065727,32.936619,50.880447,33.547401Q50.695168,34.15818,50.480145,34.759132Q50.265114,35.360085,50.020863,35.949764Q49.776611,36.539444,49.503719,37.116428Q49.230827,37.693413,48.929955,38.256313Q48.629074,38.81921,48.300941,39.366669Q47.972809,39.914124,47.61821,40.444824Q47.263611,40.975521,46.883396,41.488182Q46.503181,42.000839,46.098274,42.494225Q45.693359,42.98761,45.264729,43.460529Q44.836094,43.933453,44.384773,44.384773Q43.933453,44.836094,43.460533,45.264729Q42.98761,45.693359,42.494225,46.098274Q42.000839,46.503181,41.488178,46.883392Q40.975521,47.263603,40.444824,47.618206Q39.914124,47.972805,39.366669,48.300941Q38.81921,48.629074,38.256313,48.929951Q37.693413,49.230827,37.116428,49.503719Q36.539444,49.776611,35.949764,50.020863Q35.360085,50.265114,34.759132,50.480141Q34.15818,50.695168,33.547401,50.880447Q32.936619,51.065727,32.317482,51.22081Q31.698345,51.375893,31.072346,51.500412Q30.446346,51.624931,29.814991,51.718586Q29.183636,51.812241,28.548447,51.874805Q27.913256,51.937363,27.275761,51.968681Q26.638264,52,26,52Q25.361736,52,24.724239,51.968681Q24.086746,51.937363,23.451555,51.874805Q22.816364,51.812241,22.185009,51.718586Q21.553652,51.624931,20.92765,51.500412Q20.301651,51.375893,19.682514,51.22081Q19.063377,51.065727,18.452599,50.880447Q17.841818,50.695168,17.240864,50.480145Q16.63991,50.265114,16.05023,50.020863Q15.46055,49.776611,14.883568,49.503719Q14.306583,49.230827,13.743685,48.929955Q13.180786,48.629074,12.633327,48.300941Q12.085871,47.972809,11.555173,47.61821Q11.024475,47.263611,10.511817,46.883396Q9.9991589,46.503181,9.5057745,46.098274Q9.0123892,45.693359,8.5394669,45.264729Q8.0665445,44.836094,7.6152234,44.384773Q7.1639023,43.933453,6.7352705,43.460533Q6.3066378,42.98761,5.9017277,42.494225Q5.4968166,42.000839,5.1166034,41.488178Q4.7363901,40.975521,4.3817897,40.444824Q4.0271893,39.914124,3.6990559,39.366669Q3.3709226,38.81921,3.0700471,38.256313Q2.7691715,37.693413,2.4962783,37.116428Q2.2233851,36.539444,1.9791319,35.949764Q1.7348789,35.360085,1.5198542,34.759132Q1.3048295,34.15818,1.1195512,33.547401Q0.93427289,32.936619,0.77918732,32.317482Q0.62410182,31.698345,0.49958265,31.072346Q0.37506351,30.446346,0.28141069,29.814991Q0.18775792,29.183636,0.1251971,28.548447Q0.062636271,27.913256,0.031318136,27.275761Q0,26.638264,0,26Q0,25.361736,0.031318136,24.724239Q0.062636271,24.086746,0.1251971,23.451555Q0.18775792,22.816364,0.28141069,22.185009Q0.37506351,21.553652,0.49958265,20.92765Q0.62410182,20.301651,0.77918732,19.682514Q0.93427289,19.063377,1.1195512,18.452599Q1.3048295,17.841818,1.5198542,17.240864Q1.7348789,16.63991,1.9791319,16.05023Q2.2233851,15.46055,2.4962783,14.883568Q2.7691712,14.306583,3.0700469,13.743685Q3.3709226,13.180786,3.6990557,12.633327Q4.0271893,12.085871,4.3817897,11.555173Q4.7363901,11.024475,5.1166034,10.511817Q5.4968166,9.9991589,5.9017277,9.5057745Q6.3066378,9.0123892,6.73527,8.5394669Q7.1639023,8.0665445,7.6152234,7.6152234Q8.0665445,7.1639023,8.5394669,6.7352705Q9.0123882,6.3066378,9.5057735,5.9017277Q9.9991579,5.4968166,10.511816,5.1166034Q11.024475,4.7363901,11.555172,4.3817897Q12.085869,4.0271893,12.633327,3.6990559Q13.180784,3.3709226,13.743684,3.0700471Q14.306581,2.7691715,14.883566,2.4962783Q15.460549,2.2233851,16.050228,1.9791319Q16.639908,1.7348789,17.240862,1.5198542Q17.841816,1.3048295,18.452597,1.1195512Q19.063377,0.93427289,19.682514,0.77918732Q20.301651,0.62410182,20.92765,0.49958265Q21.553652,0.37506351,22.185009,0.28141069Q22.816364,0.18775792,23.451555,0.1251971Q24.086746,0.062636271,24.724239,0.031318136Q25.361736,0,26,0Q26.638264,0,27.275759,0.031318136Q27.913256,0.062636271,28.548447,0.1251971Q29.183636,0.18775792,29.814993,0.28141069Q30.446346,0.37506351,31.072346,0.49958265Q31.698345,0.62410182,32.317482,0.77918732Q32.936619,0.93427289,33.547401,1.1195512Q34.15818,1.3048295,34.759132,1.5198542Q35.360085,1.7348789,35.949764,1.9791319Q36.539444,2.2233851,37.116428,2.4962783Q37.693413,2.7691712,38.256313,3.0700469Q38.81921,3.3709226,39.366669,3.6990557Q39.914124,4.0271893,40.444824,4.3817897Q40.975521,4.7363901,41.488182,5.1166034Q42.000839,5.4968166,42.494225,5.9017277Q42.98761,6.3066378,43.460529,6.73527Q43.933453,7.1639023,44.384773,7.6152234Q44.836094,8.0665445,45.264729,8.5394669Q45.693359,9.0123882,46.098274,9.5057735Q46.503181,9.9991579,46.883392,10.511816Q47.263603,11.024475,47.618206,11.555172Q47.972805,12.085869,48.300941,12.633327Q48.629074,13.180784,48.929951,13.743684Q49.230827,14.306581,49.503719,14.883566Q49.776611,15.460549,50.020863,16.050228Q50.265114,16.639908,50.480141,17.240862Q50.695168,17.841816,50.880447,18.452597Q51.065727,19.063377,51.22081,19.682514Q51.375893,20.301651,51.500412,20.92765Q51.624931,21.553652,51.718586,22.185009Q51.812241,22.816364,51.874805,23.451555Q51.937366,24.086746,51.968681,24.724239Q52,25.361736,52,26ZM51.5,26Q51.5,25.37401,51.469284,24.748775Q51.438568,24.123539,51.377209,23.500565Q51.315849,22.877586,51.223995,22.258371Q51.132145,21.639156,51.010021,21.025196Q50.887894,20.411236,50.73579,19.804005Q50.583687,19.196775,50.401974,18.59774Q50.220257,17.998705,50.009369,17.409307Q49.798477,16.81991,49.558922,16.241571Q49.319366,15.663233,49.05172,15.097345Q48.784073,14.531457,48.488987,13.979383Q48.193897,13.427309,47.872074,12.890379Q47.550251,12.35345,47.202469,11.832958Q46.854691,11.312467,46.481789,10.809668Q46.108887,10.306868,45.711761,9.8229713Q45.314636,9.3390741,44.894249,8.875246Q44.473862,8.411418,44.031219,7.9687767Q43.588577,7.526135,43.124752,7.1057458Q42.660923,6.6853571,42.177025,6.2882333Q41.69313,5.8911095,41.190327,5.5182076Q40.687531,5.1453056,40.167038,4.7975245Q39.646545,4.4497433,39.109619,4.1279202Q38.572685,3.8060973,38.020615,3.5110078Q37.46854,3.2159181,36.902653,2.9482729Q36.336761,2.6806278,35.758423,2.4410717Q35.180084,2.2015159,34.590691,1.9906263Q34.001293,1.7797368,33.402256,1.5980215Q32.803223,1.4163063,32.195992,1.2642031Q31.58876,1.1120999,30.9748,0.98997533Q30.36084,0.86785078,29.741625,0.77599895Q29.122412,0.68414724,28.499437,0.6227895Q27.876461,0.56143171,27.251225,0.53071588Q26.625988,0.5,26,0.5Q25.37401,0.5,24.748775,0.53071582Q24.123539,0.56143171,23.500565,0.6227895Q22.877586,0.68414724,22.258371,0.77599901Q21.639156,0.86785078,21.025196,0.98997533Q20.411236,1.1120999,19.804005,1.2642031Q19.196775,1.4163063,18.59774,1.5980215Q17.998705,1.7797368,17.409307,1.9906263Q16.81991,2.2015159,16.241571,2.4410717Q15.663233,2.6806278,15.097345,2.9482729Q14.531457,3.2159181,13.979383,3.5110078Q13.427309,3.8060973,12.890379,4.1279202Q12.35345,4.4497433,11.832958,4.7975245Q11.312467,5.1453056,10.809668,5.5182076Q10.306868,5.891109,9.8229713,6.2882328Q9.3390741,6.6853566,8.875246,7.1057458Q8.411418,7.526135,7.9687767,7.9687767Q7.526135,8.411418,7.1057458,8.875246Q6.6853571,9.3390741,6.2882333,9.8229713Q5.8911095,10.306868,5.5182076,10.809667Q5.1453056,11.312467,4.7975245,11.832958Q4.4497433,12.35345,4.1279202,12.89038Q3.8060973,13.427309,3.5110078,13.979383Q3.2159181,14.531457,2.9482729,15.097344Q2.6806278,15.663233,2.4410717,16.241571Q2.2015159,16.81991,1.9906263,17.409307Q1.7797368,17.998707,1.5980215,18.597742Q1.4163061,19.196777,1.2642031,19.804005Q1.1120999,20.411236,0.98997533,21.025196Q0.86785078,21.639156,0.77599895,22.258371Q0.68414718,22.877586,0.6227895,23.500565Q0.56143171,24.123539,0.53071588,24.748775Q0.5,25.37401,0.5,26Q0.5,26.625988,0.53071582,27.251225Q0.56143171,27.876461,0.6227895,28.499437Q0.68414718,29.122412,0.77599895,29.741627Q0.86785072,30.36084,0.98997527,30.9748Q1.1120999,31.58876,1.264203,32.195992Q1.416306,32.803223,1.5980214,33.40226Q1.7797366,34.001297,1.9906263,34.590691Q2.2015159,35.180084,2.4410717,35.758423Q2.6806278,36.336761,2.9482729,36.902649Q3.2159181,37.46854,3.5110078,38.020615Q3.8060973,38.572685,4.1279202,39.109615Q4.4497433,39.646545,4.7975245,40.167034Q5.1453056,40.687527,5.5182076,41.190327Q5.891109,41.69313,6.2882328,42.177025Q6.6853566,42.660923,7.1057458,43.124752Q7.526135,43.588577,7.9687767,44.031219Q8.411418,44.473862,8.875246,44.894249Q9.3390741,45.31464,9.8229713,45.711765Q10.306868,46.108887,10.809667,46.481789Q11.312467,46.854691,11.832958,47.202473Q12.35345,47.550255,12.89038,47.872074Q13.427309,48.193897,13.979383,48.488987Q14.531457,48.784073,15.097344,49.05172Q15.663233,49.319366,16.241571,49.558922Q16.81991,49.798477,17.409307,50.009365Q17.998707,50.220257,18.597742,50.401974Q19.196777,50.583687,19.804005,50.73579Q20.411236,50.887894,21.025196,51.010017Q21.639156,51.132141,22.258371,51.223999Q22.877586,51.315849,23.500565,51.377209Q24.123539,51.438568,24.748775,51.469284Q25.37401,51.5,26,51.5Q26.625988,51.5,27.251225,51.469284Q27.876461,51.438568,28.499437,51.377209Q29.122412,51.315849,29.741627,51.223995Q30.36084,51.132145,30.9748,51.010021Q31.58876,50.887894,32.195992,50.73579Q32.803223,50.583687,33.40226,50.401974Q34.001297,50.220257,34.590691,50.009369Q35.180084,49.798477,35.758423,49.558922Q36.336761,49.319366,36.902649,49.05172Q37.46854,48.784073,38.020615,48.488987Q38.572685,48.193897,39.109615,47.872074Q39.646545,47.550251,40.167034,47.202469Q40.687527,46.854691,41.190327,46.481789Q41.69313,46.108887,42.177025,45.711761Q42.660923,45.314636,43.124752,44.894249Q43.588577,44.473862,44.031219,44.031219Q44.473862,43.588577,44.894249,43.124752Q45.31464,42.660923,45.711765,42.177025Q46.108887,41.69313,46.481789,41.190327Q46.854691,40.687531,47.202473,40.167038Q47.550255,39.646545,47.872074,39.109619Q48.193897,38.572685,48.488987,38.020615Q48.784073,37.46854,49.05172,36.902653Q49.319366,36.336761,49.558922,35.758423Q49.798477,35.180084,50.009365,34.590691Q50.220257,34.001293,50.401974,33.402256Q50.583687,32.803223,50.73579,32.195992Q50.887894,31.58876,51.010017,30.9748Q51.132141,30.36084,51.223999,29.741625Q51.315849,29.122412,51.377209,28.499437Q51.438568,27.876461,51.469284,27.251225Q51.5,26.625988,51.5,26Z" fill="#C2E8DE" fill-opacity="1"/></g><g clip-path="url(#master_svg0_242_79180/242_79168)"><g><path d="M16.54796770625,32.5455070234375Q17.42836620625,31.6667080234375,18.66650370625,31.6667080234375L33.33317190625,31.6667080234375Q33.43166190625,31.6667060234375,33.52825890625,31.6474910234375Q33.62485890625,31.6282770234375,33.71585290625,31.5905860234375Q33.80684690625,31.5528950234375,33.88874090625,31.4981750234375Q33.97063490625,31.4434570234375,34.04027790625,31.3738140234375Q34.10992090625,31.3041690234375,34.16464090625,31.2222770234375Q34.21935890625,31.1403850234375,34.25704990625,31.0493890234375Q34.29474090625,30.9583950234375,34.313954906250004,30.8617970234375Q34.33317190625,30.7651980234375,34.33317190625,30.6667080234375L34.33317190625,13.3333740234375Q34.33317190625,13.2348826234375,34.313954906250004,13.1382837134375Q34.29474090625,13.0416848034375,34.25704990625,12.9506906234375Q34.21935890625,12.8596964434375,34.164638906250005,12.7778038934375Q34.10992090625,12.6959112834375,34.04027790625,12.6262673134375Q33.97063490625,12.5566234034375,33.88874090625,12.501904543437501Q33.80684690625,12.447185633437499,33.71585290625,12.4094945834375Q33.62485890625,12.3718035234375,33.52825890625,12.3525888334375Q33.43166190625,12.3333740834375,33.33317190625,12.3333740234375L18.66650370625,12.3333740234375Q16.59543490625,12.3333740234375,15.13096946625,13.7978396434375Q13.66650390625,15.2623050234375,13.66650390625,17.3333740234375L13.66650390625,34.6667080234375Q13.66650396625,34.7652000234375,13.68571871625,34.8617990234375Q13.70493346625,34.9583970234375,13.74262452625,35.0493910234375Q13.780315516249999,35.1403850234375,13.83503436625,35.2222770234375Q13.88975328625,35.304169023437495,13.95939719625,35.373814023437504Q14.02904116625,35.4434590234375,14.11093371625,35.4981750234375Q14.19282632625,35.5528950234375,14.28382050625,35.5905840234375Q14.37481468625,35.628275023437496,14.47141359625,35.647491023437496Q14.56801250625,35.6667060234375,14.66650390625,35.6667080234375Q14.76499530625,35.6667060234375,14.86159421625,35.647491023437496Q14.95819312625,35.628275023437496,15.04918730625,35.5905840234375Q15.14018148625,35.5528950234375,15.22207403625,35.4981750234375Q15.30396664625,35.4434590234375,15.37361061625,35.373814023437504Q15.44325452625,35.304169023437495,15.497973386249999,35.2222770234375Q15.552692296250001,35.1403850234375,15.59038334625,35.0493890234375Q15.62807440625,34.9583970234375,15.64728909625,34.861797023437504Q15.66650384625,34.7652000234375,15.66650390625,34.6667080234375Q15.66650410625,33.4253690234375,16.54796770625,32.5455070234375ZM15.66650390625,30.6626550234375Q16.96247620625,29.6667080234375,18.66650370625,29.6667080234375L32.33317190625,29.6667080234375L32.33317190625,14.3333740234375L18.66650370625,14.3333740234375Q17.42386220625,14.3333739634375,16.54518320625,15.2120532234375Q15.66650390625,16.0907326234375,15.66650390625,17.3333740234375L15.66650390625,30.6626550234375Z" fill-rule="evenodd" fill="#30B690" fill-opacity="1" style="mix-blend-mode:passthrough"/></g><g><path d="M36.33316990625,14.6666259765625Q36.33316790625,14.5681345765625,36.35238290625,14.4715356665625Q36.371596906250005,14.3749367565625,36.40928690625,14.2839425765625Q36.44697990625,14.1929483965625,36.50169790625,14.1110558465625Q36.55641890625,14.0291632365625,36.62606190625,13.9595192665625Q36.69570590625,13.8898753565625,36.77759890625,13.835156496562501Q36.859489906250005,13.780437586562499,36.95048490625,13.7427465365625Q37.04147890625,13.7050554765625,37.13807890625,13.6858407865625Q37.234675906250004,13.6666260365625,37.33316990625,13.6666259765625Q37.43166190625,13.6666260365625,37.52825890625,13.6858407865625Q37.62485890625,13.7050555365625,37.71585090625,13.7427465965625Q37.80684690625,13.780437586562499,37.88873890625,13.8351564365625Q37.97063090625,13.8898753565625,38.04027590625,13.9595192665625Q38.10992090625,14.0291632365625,38.164638906250005,14.1110557865625Q38.21935690625,14.1929483965625,38.25704590625,14.2839425765625Q38.294738906250004,14.3749367565625,38.31395290625,14.4715356665625Q38.33316790625,14.5681345765625,38.33316990625,14.6666259765625L38.33317190625,38.6666259765625Q38.33316990625,38.7651159765625,38.313954906250004,38.8617129765625Q38.294738906250004,38.958312976562496,38.25704990625,39.049306976562505Q38.21935890625,39.1403009765625,38.164638906250005,39.2221949765625Q38.10992090625,39.3040869765625,38.04027590625,39.373731976562496Q37.97063090625,39.443374976562495,37.88873890625,39.4980929765625Q37.80684690625,39.5528109765625,37.71585290625,39.5905019765625Q37.62485890625,39.6281929765625,37.52825890625,39.6474089765625Q37.43166390625,39.666623976562505,37.33317190625,39.6666259765625L18.66650370625,39.6666259765625Q16.59543440625,39.6666259765625,15.13096898625,38.2021599765625Q13.66650396625,36.7376919765625,13.66650390625,34.6666259765625Q13.66650390625,32.5955619765625,15.13096898625,31.1310959765625Q16.59543550625,29.6666259765625,18.66650290625,29.666624976562503L25.98326690625,29.6666259765625L33.33317190625,29.6666259765625Q33.43166190625,29.6666259765625,33.52825890625,29.685840976562503Q33.62485890625,29.7050549765625,33.71585090625,29.7427449765625Q33.80684690625,29.7804369765625,33.88873890625,29.8351559765625Q33.97063290625,29.889873976562498,34.04027590625,29.959517976562502Q34.10992090625,30.0291609765625,34.164636906249996,30.111053976562502Q34.21935690625,30.1929469765625,34.25704590625,30.283940976562498Q34.294738906250004,30.3749349765625,34.31395290625,30.471534976562502Q34.33316790625,30.5681339765625,34.33316990625,30.6666259765625Q34.33316790625,30.7651179765625,34.31395290625,30.8617149765625Q34.294738906250004,30.9583129765625,34.25704590625,31.0493089765625Q34.21935690625,31.1403009765625,34.164636906249996,31.2221949765625Q34.10992090625,31.3040869765625,34.04027590625,31.3737319765625Q33.97063290625,31.4433749765625,33.88874090625,31.4980949765625Q33.80684690625,31.5528129765625,33.71585090625,31.5905039765625Q33.62485890625,31.6281969765625,33.52825890625,31.6474109765625Q33.431659906250005,31.6666259765625,33.33316990625,31.6666259765625L18.66650440625,31.6666259765625Q17.42386390625,31.6666259765625,16.545183506249998,32.5453069765625Q15.66650390625,33.4239879765625,15.66650390625,34.6666259765625Q15.66650400625,35.9092639765625,16.545183506249998,36.7879449765625Q17.423864806250002,37.6666259765625,18.66650370625,37.6666259765625L36.33317190625,37.6666259765625L36.33317190625,14.6666259765625L36.33316990625,14.6666259765625Z" fill-rule="evenodd" fill="#30B690" fill-opacity="1" style="mix-blend-mode:passthrough"/></g><g><path d="M19.33349609375,33.6666259765625L32.666829093749996,33.6666259765625Q32.76532009375,33.6666260365625,32.86191709375,33.6858407865625Q32.958517093750004,33.7050555365625,33.04951109375,33.7427465965625Q33.14050509375,33.7804375865625,33.22239809375,33.8351564365625Q33.30429109375,33.8898753565625,33.373936093750004,33.9595192665625Q33.44357909375,34.0291632365625,33.49829909375,34.1110557865625Q33.55301709375,34.1929483965625,33.59070809375,34.2839425765625Q33.62839909375,34.3749367565625,33.647613093749996,34.4715356665625Q33.66682809375,34.5681345765625,33.666829093749996,34.6666259765625Q33.66682809375,34.7651173765625,33.647613093749996,34.8617162865625Q33.62839909375,34.9583151965625,33.59070809375,35.0493093765625Q33.55301709375,35.1403035565625,33.49829809375,35.2221961065625Q33.44357909375,35.3040887165625,33.373936093750004,35.3737326865625Q33.30429109375,35.4433765965625,33.22239909375,35.4980954565625Q33.14050509375,35.5528143665625,33.04951109375,35.5905054165625Q32.958517093750004,35.6281964765625,32.86191809375,35.6474111665625Q32.76532009375,35.6666259165625,32.666829093749996,35.6666259765625L19.33349609375,35.6666259765625Q19.23500469375,35.6666259165625,19.13840578375,35.6474111665625Q19.04180687375,35.6281964165625,18.95081269375,35.5905053565625Q18.85981851375,35.5528143665625,18.77792596375,35.4980955165625Q18.69603335375,35.4433765965625,18.62638938375,35.3737326865625Q18.55674547375,35.3040887165625,18.50202661375,35.2221961665625Q18.44730770375,35.1403035565625,18.40961665375,35.0493093765625Q18.37192559375,34.9583151965625,18.35271090375,34.8617162865625Q18.33349615375,34.7651173765625,18.33349609375,34.6666259765625Q18.33349615375,34.5681345765625,18.35271090375,34.4715356665625Q18.37192565375,34.3749367565625,18.40961671375,34.2839425765625Q18.44730770375,34.1929483965625,18.50202655375,34.1110558465625Q18.55674547375,34.0291632365625,18.62638938375,33.9595192665625Q18.69603335375,33.8898753565625,18.77792590375,33.8351564965625Q18.85981851375,33.7804375865625,18.95081269375,33.7427465365625Q19.04180687375,33.7050554765625,19.13840578375,33.6858407865625Q19.23500469375,33.6666260365625,19.33349609375,33.6666259765625Z" fill-rule="evenodd" fill="#30B690" fill-opacity="1" style="mix-blend-mode:passthrough"/></g></g></g></svg>