<svg xmlns="http://www.w3.org/2000/svg" xmlns:xlink="http://www.w3.org/1999/xlink" fill="none" version="1.1" width="48" height="48" viewBox="0 0 48 48"><defs><clipPath id="master_svg0_348_55873"><rect x="11" y="11" width="26" height="26" rx="0"/></clipPath></defs><g><g><ellipse cx="24" cy="24" rx="24" ry="24" fill="#FFFFFF" fill-opacity="1"/><path d="M48,24Q48,24.589167,47.971088,25.177626Q47.942181,25.766083,47.884434,26.352413Q47.826683,26.938744,47.740234,27.52153Q47.653786,28.104321,47.538841,28.682167Q47.423901,29.260014,47.280746,29.831526Q47.137589,30.403034,46.966568,30.966833Q46.79554,31.530628,46.597054,32.085354Q46.398567,32.640079,46.173103,33.184399Q45.947639,33.728718,45.69574,34.261322Q45.44384,34.793922,45.166107,35.313522Q44.888374,35.833122,44.58548,36.338467Q44.282589,36.843811,43.955265,37.333683Q43.627941,37.823559,43.276978,38.29678Q42.92601,38.770004,42.55225,39.225437Q42.17849,39.680866,41.782829,40.117409Q41.387169,40.553955,40.970562,40.970558Q40.553959,41.387161,40.117416,41.782825Q39.680874,42.178486,39.225445,42.55225Q38.770012,42.92601,38.296787,43.276974Q37.823563,43.627941,37.333687,43.955265Q36.843811,44.282589,36.338467,44.585484Q35.833122,44.888374,35.313526,45.166107Q34.793922,45.44384,34.261322,45.69574Q33.728722,45.947639,33.184402,46.173103Q32.640083,46.398567,32.085358,46.597054Q31.53063,46.79554,30.966835,46.966568Q30.403036,47.137589,29.831524,47.280746Q29.260014,47.423901,28.682167,47.538841Q28.104321,47.653786,27.521532,47.740231Q26.938744,47.826683,26.352413,47.884434Q25.766083,47.942181,25.177624,47.971092Q24.589167,48,24,48Q23.410831,48,22.822372,47.971088Q22.233917,47.942181,21.647587,47.884434Q21.061256,47.826683,20.478466,47.740234Q19.895676,47.653786,19.317829,47.538841Q18.739983,47.423901,18.168472,47.280746Q17.596964,47.137589,17.033167,46.966568Q16.469368,46.79554,15.914642,46.597054Q15.359916,46.398567,14.815597,46.173103Q14.271278,45.947639,13.738677,45.69574Q13.206077,45.44384,12.686478,45.166107Q12.166879,44.888374,11.661533,44.58548Q11.156188,44.282589,10.666313,43.955265Q10.176439,43.627941,9.7032156,43.276978Q9.2299919,42.92601,8.7745609,42.55225Q8.319128,42.17849,7.8825846,41.782829Q7.4460411,41.387169,7.0294371,40.970562Q6.612833,40.553959,6.2171731,40.117416Q5.8215127,39.680874,5.4477491,39.225445Q5.0739851,38.770012,4.7230191,38.296787Q4.3720522,37.823563,4.0447288,37.333687Q3.7174053,36.843811,3.4145129,36.338467Q3.1116209,35.833122,2.8338895,35.313526Q2.5561581,34.793922,2.3042569,34.261322Q2.0523555,33.728722,1.8268911,33.184402Q1.6014266,32.640083,1.4029424,32.085358Q1.204458,31.53063,1.0334319,30.966835Q0.86240578,30.403036,0.71924984,29.831524Q0.57609397,29.260014,0.46115321,28.682167Q0.34621245,28.104321,0.25976375,27.521532Q0.173315,26.938744,0.11556655,26.352413Q0.057818096,25.766083,0.028909048,25.177624Q0,24.589167,0,24Q0,23.410831,0.028909048,22.822372Q0.057818096,22.233917,0.11556655,21.647587Q0.173315,21.061256,0.25976372,20.478466Q0.34621245,19.895676,0.46115321,19.317829Q0.57609397,18.739983,0.71924984,18.168472Q0.86240578,17.596964,1.0334319,17.033167Q1.204458,16.469368,1.4029423,15.914642Q1.6014266,15.359916,1.8268911,14.815597Q2.0523555,14.271278,2.3042569,13.738677Q2.5561583,13.206077,2.8338897,12.686478Q3.1116211,12.166879,3.4145136,11.661533Q3.7174058,11.156188,4.0447292,10.666313Q4.3720531,10.176439,4.7230191,9.7032156Q5.0739856,9.2299919,5.4477491,8.7745609Q5.8215127,8.319128,6.2171726,7.8825846Q6.612833,7.4460411,7.0294371,7.0294371Q7.4460411,6.612833,7.8825846,6.2171731Q8.319128,5.8215127,8.7745609,5.4477491Q9.2299919,5.0739851,9.7032156,4.7230191Q10.176439,4.3720522,10.666313,4.0447288Q11.156188,3.7174053,11.661533,3.4145129Q12.16688,3.1116209,12.68648,2.8338895Q13.206078,2.5561581,13.738678,2.3042569Q14.271278,2.0523555,14.815597,1.8268911Q15.359916,1.6014266,15.914642,1.4029424Q16.469368,1.204458,17.033167,1.0334319Q17.596964,0.86240578,18.168474,0.71924984Q18.739985,0.57609397,19.317831,0.46115321Q19.895676,0.34621245,20.478466,0.25976375Q21.061256,0.173315,21.647587,0.11556655Q22.233917,0.057818096,22.822372,0.028909048Q23.410831,0,24,0Q24.589167,0,25.177626,0.028909048Q25.766083,0.057818096,26.352413,0.11556655Q26.938744,0.173315,27.52153,0.25976372Q28.104321,0.34621245,28.682167,0.46115321Q29.260014,0.57609397,29.831526,0.71924984Q30.403034,0.86240578,30.966833,1.0334319Q31.530628,1.204458,32.085354,1.4029423Q32.640079,1.6014266,33.184399,1.8268911Q33.728718,2.0523555,34.261322,2.3042569Q34.793922,2.5561583,35.313522,2.8338897Q35.833122,3.1116211,36.338467,3.4145136Q36.843811,3.7174058,37.333683,4.0447292Q37.823559,4.3720531,38.29678,4.7230191Q38.770004,5.0739856,39.225437,5.4477491Q39.680866,5.8215127,40.117409,6.2171726Q40.553955,6.612833,40.970558,7.0294371Q41.387161,7.4460411,41.782825,7.8825846Q42.178486,8.319128,42.55225,8.7745609Q42.92601,9.2299919,43.276974,9.7032156Q43.627941,10.176439,43.955265,10.666313Q44.282589,11.156188,44.585484,11.661533Q44.888374,12.16688,45.166107,12.68648Q45.44384,13.206078,45.69574,13.738678Q45.947639,14.271278,46.173103,14.815597Q46.398567,15.359916,46.597054,15.914642Q46.79554,16.469368,46.966568,17.033167Q47.137589,17.596964,47.280746,18.168474Q47.423901,18.739985,47.538841,19.317831Q47.653786,19.895676,47.740231,20.478466Q47.826683,21.061256,47.884434,21.647587Q47.942181,22.233917,47.971092,22.822372Q48,23.410831,48,24ZM47.5,24Q47.5,23.423107,47.471695,22.846909Q47.44339,22.270714,47.386845,21.696598Q47.330296,21.122482,47.245644,20.551834Q47.160995,19.981186,47.04845,19.415377Q46.935905,18.849569,46.795734,18.289965Q46.65556,17.730362,46.488094,17.17831Q46.320633,16.626257,46.126282,16.083088Q45.931934,15.539917,45.711166,15.006938Q45.490398,14.473959,45.243748,13.952454Q44.997093,13.43095,44.725151,12.922176Q44.453201,12.413402,44.15662,11.918585Q43.860039,11.423767,43.539532,10.944098Q43.219028,10.46443,42.875374,10.001066Q42.531723,9.5377026,42.165745,9.0917578Q41.799767,8.6458139,41.41235,8.2183647Q41.024933,7.7909155,40.617008,7.3829904Q40.209084,6.9750657,39.781635,6.5876484Q39.354187,6.2002311,38.908241,5.8342543Q38.462296,5.468277,37.998932,5.1246228Q37.535568,4.7809677,37.055897,4.4604635Q36.576229,4.1399593,36.081409,3.8433774Q35.586594,3.5467954,35.07782,3.2748504Q34.569046,3.0029049,34.047543,2.7562513Q33.526039,2.509598,32.993057,2.2888308Q32.460075,2.0680635,31.916908,1.8737143Q31.373739,1.6793652,30.82169,1.5119021Q30.269636,1.344439,29.710032,1.2042655Q29.150427,1.0640919,28.58462,0.95154583Q28.018812,0.83899969,27.448164,0.75435203Q26.877516,0.66970432,26.303402,0.61315894Q25.729286,0.55661356,25.153091,0.52830678Q24.576893,0.5,24,0.5Q23.423107,0.5,22.846909,0.52830678Q22.270714,0.55661356,21.696598,0.61315894Q21.122482,0.66970432,20.551834,0.75435197Q19.981186,0.83899969,19.415377,0.95154583Q18.849569,1.0640919,18.289965,1.2042655Q17.730362,1.344439,17.17831,1.5119021Q16.626257,1.6793652,16.083088,1.8737142Q15.539917,2.0680635,15.006938,2.2888308Q14.473959,2.509598,13.952454,2.7562516Q13.43095,3.0029049,12.922176,3.2748504Q12.413402,3.5467954,11.918585,3.8433771Q11.423767,4.1399593,10.944098,4.4604635Q10.46443,4.7809677,10.001066,5.1246228Q9.5377026,5.468277,9.0917578,5.8342543Q8.6458139,6.2002311,8.2183647,6.5876484Q7.7909155,6.9750657,7.3829904,7.3829904Q6.9750657,7.7909155,6.5876484,8.2183647Q6.2002311,8.6458139,5.8342543,9.0917578Q5.468277,9.5377026,5.1246228,10.001066Q4.7809677,10.46443,4.4604635,10.944098Q4.1399593,11.423767,3.8433774,11.918584Q3.5467954,12.413402,3.2748504,12.922176Q3.0029049,13.43095,2.7562513,13.952454Q2.509598,14.473959,2.2888308,15.006938Q2.0680635,15.539917,1.8737143,16.083086Q1.6793652,16.626257,1.5119021,17.17831Q1.344439,17.730362,1.2042655,18.289967Q1.0640919,18.849569,0.95154583,19.415377Q0.83899963,19.981186,0.75435197,20.551834Q0.66970426,21.122482,0.61315894,21.696598Q0.55661356,22.270714,0.52830678,22.846909Q0.5,23.423107,0.5,24Q0.5,24.576893,0.52830678,25.15309Q0.55661356,25.729288,0.61315894,26.303404Q0.66970426,26.877518,0.75435197,27.448164Q0.83899963,28.018814,0.95154583,28.584621Q1.0640919,29.150429,1.2042655,29.710032Q1.344439,30.269634,1.5119021,30.821688Q1.6793652,31.373737,1.8737142,31.916908Q2.0680635,32.460075,2.2888308,32.993057Q2.509598,33.526039,2.7562516,34.047543Q3.0029049,34.569046,3.2748504,35.07782Q3.5467954,35.586594,3.8433771,36.081413Q4.1399593,36.576229,4.4604635,37.055897Q4.7809677,37.535568,5.1246228,37.998932Q5.468277,38.462296,5.8342543,38.908241Q6.2002311,39.354183,6.5876484,39.781631Q6.9750657,40.20908,7.3829904,40.617004Q7.7909155,41.024929,8.2183647,41.412346Q8.6458139,41.799767,9.0917578,42.165745Q9.5377026,42.531723,10.001066,42.875374Q10.46443,43.219028,10.944098,43.539532Q11.423767,43.860039,11.918584,44.156616Q12.413402,44.453201,12.922176,44.725147Q13.43095,44.997093,13.952454,45.243744Q14.473959,45.490398,15.006938,45.711166Q15.539917,45.931934,16.083086,46.126286Q16.626257,46.320633,17.17831,46.488098Q17.730362,46.655563,18.289967,46.795738Q18.849569,46.935905,19.415377,47.048454Q19.981186,47.160999,20.551834,47.245651Q21.122482,47.330299,21.696598,47.386845Q22.270714,47.44339,22.846909,47.471695Q23.423107,47.5,24,47.5Q24.576893,47.5,25.15309,47.471695Q25.729288,47.44339,26.303404,47.386845Q26.877518,47.330296,27.448164,47.245644Q28.018814,47.160995,28.584621,47.04845Q29.150429,46.935905,29.710032,46.795734Q30.269634,46.65556,30.821688,46.488094Q31.373737,46.320633,31.916908,46.126282Q32.460075,45.931934,32.993057,45.711166Q33.526039,45.490398,34.047543,45.243748Q34.569046,44.997093,35.07782,44.725151Q35.586594,44.453201,36.081413,44.15662Q36.576229,43.860039,37.055897,43.539532Q37.535568,43.219028,37.998932,42.875374Q38.462296,42.531723,38.908241,42.165745Q39.354183,41.799767,39.781631,41.41235Q40.20908,41.024933,40.617004,40.617008Q41.024929,40.209084,41.412346,39.781635Q41.799767,39.354187,42.165745,38.908241Q42.531723,38.462296,42.875374,37.998932Q43.219028,37.535568,43.539532,37.055897Q43.860039,36.576229,44.156616,36.081409Q44.453201,35.586594,44.725147,35.07782Q44.997093,34.569046,45.243744,34.047543Q45.490398,33.526039,45.711166,32.993057Q45.931934,32.460075,46.126286,31.916908Q46.320633,31.373739,46.488098,30.82169Q46.655563,30.269636,46.795738,29.710032Q46.935905,29.150427,47.048454,28.58462Q47.160999,28.018812,47.245651,27.448164Q47.330299,26.877516,47.386845,26.303402Q47.44339,25.729286,47.471695,25.153091Q47.5,24.576893,47.5,24Z" fill="#C2E8DE" fill-opacity="1"/></g><g clip-path="url(#master_svg0_348_55873)"><g><path d="M20.3919921475,33.208251953125L20.3919921475,28.333251953125Q20.3919922075,28.244609691125,20.4092854875,28.157670673125Q20.4265786975,28.070731643125,20.4605006575,27.988836883125Q20.4944225575,27.906942103125,20.5436695775,27.833238723125Q20.5929166075,27.759535433125,20.6555961375,27.696855903125Q20.7182756675,27.634176373125,20.7919790175,27.584929403125Q20.8656823375,27.535682383125,20.9475771175,27.501760483125Q21.0294718775,27.467838523125,21.1164109075,27.450545193125Q21.2033499255,27.433251973125,21.2919921875,27.433251913125L26.7086591875,27.433251913125Q26.797301287499998,27.433251973125,26.884240187499998,27.450545253125Q26.9711789875,27.467838463125,27.0530738875,27.501760423125Q27.1349687875,27.535682323125,27.2086724875,27.584929343125Q27.2823752875,27.634176373125,27.3450555875,27.696855903125Q27.4077348875,27.759535433125,27.4569816875,27.833238783125Q27.5062284875,27.906942103125,27.5401506875,27.988836883125Q27.5740723875,28.070731643125,27.5913657875,28.157670673125Q27.608658787499998,28.244609691125,27.6086592875,28.333251953125L27.6086592875,33.208251953125Q27.608658787499998,33.296894053125,27.5913657875,33.383833453125Q27.5740718875,33.470771753125,27.5401501875,33.552666653125Q27.5062279875,33.634561553124996,27.4569811875,33.708264853125Q27.4077338875,33.781968153125,27.3450550875,33.844647453125Q27.2823752875,33.907326653125,27.2086720875,33.956573953125Q27.1349687875,34.005821253125,27.0530738875,34.039742953125Q26.9711789875,34.073664653125,26.884240187499998,34.090958153125Q26.797301287499998,34.108251553125,26.7086591875,34.108252053125L21.2919921875,34.108252053125Q21.2033499255,34.108251553125,21.1164109075,34.090958153125Q21.0294718775,34.073664653125,20.9475771175,34.039742953125Q20.8656823375,34.005821253125,20.7919789575,33.956573953125Q20.7182756675,33.907326653125,20.6555961375,33.844647453125Q20.5929166075,33.781968153125,20.5436696375,33.708264853125Q20.4944226175,33.634561553124996,20.4605007175,33.552666653125Q20.4265787575,33.470771753125,20.4092854275,33.383833453125Q20.3919922075,33.296894053125,20.3919921475,33.208251953125ZM22.1919922275,29.233251993125L22.1919922275,32.308252053125L25.8086590875,32.308252053125L25.8086590875,29.233251993125L22.1919922275,29.233251993125Z" fill="#30B690" fill-opacity="1" style="mix-blend-mode:passthrough"/></g><g><rect x="13.7080078125" y="15.333251953125" width="20.58333396911621" height="13" rx="2" fill-opacity="0" stroke-opacity="1" stroke="#30B690" fill="none" stroke-width="1.7999999523162842" style="mix-blend-mode:passthrough"/></g><g><path d="M22.9169921875,24.72500002L25.0836588875,24.72500002Q25.1723010875,24.72500008,25.2592398875,24.74229336Q25.3461789875,24.75958657,25.4280736875,24.79350853Q25.5099682875,24.82743043,25.583671787500002,24.87667739Q25.6573752875,24.92592442,25.720054887499998,24.98860395Q25.7827343875,25.05128348,25.8319811875,25.12498683Q25.8812281875,25.19869015,25.9151501875,25.28058493Q25.9490720875,25.36247969,25.9663652875,25.44941872Q25.9836587875,25.536357738,25.9836587875,25.625Q25.9836587875,25.713642262,25.9663652875,25.80058128Q25.9490720875,25.88752031,25.9151501875,25.96941507Q25.8812279875,26.05130985,25.8319811875,26.12501323Q25.7827338875,26.19871652,25.7200545875,26.26139605Q25.6573748875,26.32407558,25.5836715875,26.37332255Q25.5099682875,26.42256957,25.4280736875,26.45649147Q25.3461789875,26.49041343,25.2592401875,26.50770664Q25.1723010875,26.52499992,25.0836588875,26.52499998L22.9169921875,26.52499998Q22.8283499255,26.52499992,22.7414109075,26.50770664Q22.6544718775,26.49041343,22.5725771175,26.45649147Q22.4906823375,26.42256957,22.4169789575,26.37332261Q22.3432756675,26.32407558,22.2805961375,26.26139605Q22.2179166075,26.19871652,22.1686696375,26.12501317Q22.1194226175,26.05130985,22.0855007175,25.96941507Q22.0515787575,25.88752031,22.0342855475,25.80058128Q22.0169922675,25.713642262,22.0169922075,25.625Q22.0169922675,25.536357738,22.0342855475,25.44941872Q22.0515787575,25.36247969,22.0855007175,25.28058493Q22.1194226175,25.19869015,22.1686695775,25.12498677Q22.2179166075,25.05128348,22.2805961375,24.98860395Q22.3432756675,24.92592442,22.4169790175,24.87667745Q22.4906823375,24.82743043,22.5725771175,24.79350853Q22.6544718775,24.75958657,22.7414109075,24.74229336Q22.8283499255,24.72500008,22.9169921875,24.72500002Z" fill-rule="evenodd" fill="#30B690" fill-opacity="1" style="mix-blend-mode:passthrough"/></g><g><path d="M18.5830078125,32.308251973125L29.4163408125,32.308251973125Q29.5049818125,32.308252033125,29.5919208125,32.325545313125Q29.6788598125,32.342838523125,29.7607538125,32.376760483125Q29.842647812499997,32.410682383125,29.9163518125,32.459929343125Q29.9900548125,32.509176373125,30.0527358125,32.571855903125Q30.1154138125,32.634535433125,30.1646618125,32.708238783125Q30.2139078125,32.781942103125,30.2478308125,32.863836883125Q30.281752812500002,32.945731643125,30.299046812500002,33.032670673125Q30.3163398125,33.119609691125,30.316340812500002,33.208251953125Q30.3163398125,33.296894215125,30.299045812499998,33.383833233125Q30.2817538125,33.470772263125,30.2478318125,33.552667023125Q30.2139088125,33.634561803125,30.164662812499998,33.708265183125Q30.1154158125,33.781968473125,30.0527358125,33.844648003125Q29.9900558125,33.907327533125,29.9163518125,33.956574503125Q29.842648812500002,34.005821523125,29.7607538125,34.039743423125Q29.6788598125,34.073665383125,29.5919208125,34.090958593125Q29.5049818125,34.108251873125,29.4163408125,34.108251933125L18.5830078125,34.108251933125Q18.4943655505,34.108251873125,18.4074265325,34.090958593125Q18.3204875025,34.073665383125,18.2385927425,34.039743423125Q18.1566979625,34.005821523125,18.0829945825,33.956574563125Q18.0092912925,33.907327533125,17.9466117625,33.844648003125Q17.8839322325,33.781968473125,17.8346852625,33.708265123125Q17.7854382425,33.634561803125,17.7515163425,33.552667023125Q17.7175943825,33.470772263125,17.7003011725,33.383833233125Q17.6830078925,33.296894215125,17.6830078325,33.208251953125Q17.6830078925,33.119609691125,17.7003011725,33.032670673125Q17.7175943825,32.945731643125,17.7515163425,32.863836883125Q17.7854382425,32.781942103125,17.8346852025,32.708238723125Q17.8839322325,32.634535433125,17.9466117625,32.571855903125Q18.0092912925,32.509176373125,18.0829946425,32.459929403125Q18.1566979625,32.410682383125,18.2385927425,32.376760483125Q18.3204875025,32.342838523125,18.4074265325,32.325545313125Q18.4943655505,32.308252033125,18.5830078125,32.308251973125Z" fill-rule="evenodd" fill="#30B690" fill-opacity="1" style="mix-blend-mode:passthrough"/></g></g></g></svg>