<svg xmlns="http://www.w3.org/2000/svg" xmlns:xlink="http://www.w3.org/1999/xlink" fill="none" version="1.1" width="48" height="48" viewBox="0 0 48 48"><g><g><ellipse cx="24" cy="24" rx="24" ry="24" fill="#FFFFFF" fill-opacity="1"/><path d="M48,24Q48,24.589167,47.971088,25.177626Q47.942181,25.766083,47.884434,26.352413Q47.826683,26.938744,47.740234,27.52153Q47.653786,28.104321,47.538841,28.682167Q47.423901,29.260014,47.280746,29.831526Q47.137589,30.403034,46.966568,30.966833Q46.79554,31.530628,46.597054,32.085354Q46.398567,32.640079,46.173103,33.184399Q45.947639,33.728718,45.69574,34.261322Q45.44384,34.793922,45.166107,35.313522Q44.888374,35.833122,44.58548,36.338467Q44.282589,36.843811,43.955265,37.333683Q43.627941,37.823559,43.276978,38.29678Q42.92601,38.770004,42.55225,39.225437Q42.17849,39.680866,41.782829,40.117409Q41.387169,40.553955,40.970562,40.970558Q40.553959,41.387161,40.117416,41.782825Q39.680874,42.178486,39.225445,42.55225Q38.770012,42.92601,38.296787,43.276974Q37.823563,43.627941,37.333687,43.955265Q36.843811,44.282589,36.338467,44.585484Q35.833122,44.888374,35.313526,45.166107Q34.793922,45.44384,34.261322,45.69574Q33.728722,45.947639,33.184402,46.173103Q32.640083,46.398567,32.085358,46.597054Q31.53063,46.79554,30.966835,46.966568Q30.403036,47.137589,29.831524,47.280746Q29.260014,47.423901,28.682167,47.538841Q28.104321,47.653786,27.521532,47.740231Q26.938744,47.826683,26.352413,47.884434Q25.766083,47.942181,25.177624,47.971092Q24.589167,48,24,48Q23.410831,48,22.822372,47.971088Q22.233917,47.942181,21.647587,47.884434Q21.061256,47.826683,20.478466,47.740234Q19.895676,47.653786,19.317829,47.538841Q18.739983,47.423901,18.168472,47.280746Q17.596964,47.137589,17.033167,46.966568Q16.469368,46.79554,15.914642,46.597054Q15.359916,46.398567,14.815597,46.173103Q14.271278,45.947639,13.738677,45.69574Q13.206077,45.44384,12.686478,45.166107Q12.166879,44.888374,11.661533,44.58548Q11.156188,44.282589,10.666313,43.955265Q10.176439,43.627941,9.7032156,43.276978Q9.2299919,42.92601,8.7745609,42.55225Q8.319128,42.17849,7.8825846,41.782829Q7.4460411,41.387169,7.0294371,40.970562Q6.612833,40.553959,6.2171731,40.117416Q5.8215127,39.680874,5.4477491,39.225445Q5.0739851,38.770012,4.7230191,38.296787Q4.3720522,37.823563,4.0447288,37.333687Q3.7174053,36.843811,3.4145129,36.338467Q3.1116209,35.833122,2.8338895,35.313526Q2.5561581,34.793922,2.3042569,34.261322Q2.0523555,33.728722,1.8268911,33.184402Q1.6014266,32.640083,1.4029424,32.085358Q1.204458,31.53063,1.0334319,30.966835Q0.86240578,30.403036,0.71924984,29.831524Q0.57609397,29.260014,0.46115321,28.682167Q0.34621245,28.104321,0.25976375,27.521532Q0.173315,26.938744,0.11556655,26.352413Q0.057818096,25.766083,0.028909048,25.177624Q0,24.589167,0,24Q0,23.410831,0.028909048,22.822372Q0.057818096,22.233917,0.11556655,21.647587Q0.173315,21.061256,0.25976372,20.478466Q0.34621245,19.895676,0.46115321,19.317829Q0.57609397,18.739983,0.71924984,18.168472Q0.86240578,17.596964,1.0334319,17.033167Q1.204458,16.469368,1.4029423,15.914642Q1.6014266,15.359916,1.8268911,14.815597Q2.0523555,14.271278,2.3042569,13.738677Q2.5561583,13.206077,2.8338897,12.686478Q3.1116211,12.166879,3.4145136,11.661533Q3.7174058,11.156188,4.0447292,10.666313Q4.3720531,10.176439,4.7230191,9.7032156Q5.0739856,9.2299919,5.4477491,8.7745609Q5.8215127,8.319128,6.2171726,7.8825846Q6.612833,7.4460411,7.0294371,7.0294371Q7.4460411,6.612833,7.8825846,6.2171731Q8.319128,5.8215127,8.7745609,5.4477491Q9.2299919,5.0739851,9.7032156,4.7230191Q10.176439,4.3720522,10.666313,4.0447288Q11.156188,3.7174053,11.661533,3.4145129Q12.16688,3.1116209,12.68648,2.8338895Q13.206078,2.5561581,13.738678,2.3042569Q14.271278,2.0523555,14.815597,1.8268911Q15.359916,1.6014266,15.914642,1.4029424Q16.469368,1.204458,17.033167,1.0334319Q17.596964,0.86240578,18.168474,0.71924984Q18.739985,0.57609397,19.317831,0.46115321Q19.895676,0.34621245,20.478466,0.25976375Q21.061256,0.173315,21.647587,0.11556655Q22.233917,0.057818096,22.822372,0.028909048Q23.410831,0,24,0Q24.589167,0,25.177626,0.028909048Q25.766083,0.057818096,26.352413,0.11556655Q26.938744,0.173315,27.52153,0.25976372Q28.104321,0.34621245,28.682167,0.46115321Q29.260014,0.57609397,29.831526,0.71924984Q30.403034,0.86240578,30.966833,1.0334319Q31.530628,1.204458,32.085354,1.4029423Q32.640079,1.6014266,33.184399,1.8268911Q33.728718,2.0523555,34.261322,2.3042569Q34.793922,2.5561583,35.313522,2.8338897Q35.833122,3.1116211,36.338467,3.4145136Q36.843811,3.7174058,37.333683,4.0447292Q37.823559,4.3720531,38.29678,4.7230191Q38.770004,5.0739856,39.225437,5.4477491Q39.680866,5.8215127,40.117409,6.2171726Q40.553955,6.612833,40.970558,7.0294371Q41.387161,7.4460411,41.782825,7.8825846Q42.178486,8.319128,42.55225,8.7745609Q42.92601,9.2299919,43.276974,9.7032156Q43.627941,10.176439,43.955265,10.666313Q44.282589,11.156188,44.585484,11.661533Q44.888374,12.16688,45.166107,12.68648Q45.44384,13.206078,45.69574,13.738678Q45.947639,14.271278,46.173103,14.815597Q46.398567,15.359916,46.597054,15.914642Q46.79554,16.469368,46.966568,17.033167Q47.137589,17.596964,47.280746,18.168474Q47.423901,18.739985,47.538841,19.317831Q47.653786,19.895676,47.740231,20.478466Q47.826683,21.061256,47.884434,21.647587Q47.942181,22.233917,47.971092,22.822372Q48,23.410831,48,24ZM47.5,24Q47.5,23.423107,47.471695,22.846909Q47.44339,22.270714,47.386845,21.696598Q47.330296,21.122482,47.245644,20.551834Q47.160995,19.981186,47.04845,19.415377Q46.935905,18.849569,46.795734,18.289965Q46.65556,17.730362,46.488094,17.17831Q46.320633,16.626257,46.126282,16.083088Q45.931934,15.539917,45.711166,15.006938Q45.490398,14.473959,45.243748,13.952454Q44.997093,13.43095,44.725151,12.922176Q44.453201,12.413402,44.15662,11.918585Q43.860039,11.423767,43.539532,10.944098Q43.219028,10.46443,42.875374,10.001066Q42.531723,9.5377026,42.165745,9.0917578Q41.799767,8.6458139,41.41235,8.2183647Q41.024933,7.7909155,40.617008,7.3829904Q40.209084,6.9750657,39.781635,6.5876484Q39.354187,6.2002311,38.908241,5.8342543Q38.462296,5.468277,37.998932,5.1246228Q37.535568,4.7809677,37.055897,4.4604635Q36.576229,4.1399593,36.081409,3.8433774Q35.586594,3.5467954,35.07782,3.2748504Q34.569046,3.0029049,34.047543,2.7562513Q33.526039,2.509598,32.993057,2.2888308Q32.460075,2.0680635,31.916908,1.8737143Q31.373739,1.6793652,30.82169,1.5119021Q30.269636,1.344439,29.710032,1.2042655Q29.150427,1.0640919,28.58462,0.95154583Q28.018812,0.83899969,27.448164,0.75435203Q26.877516,0.66970432,26.303402,0.61315894Q25.729286,0.55661356,25.153091,0.52830678Q24.576893,0.5,24,0.5Q23.423107,0.5,22.846909,0.52830678Q22.270714,0.55661356,21.696598,0.61315894Q21.122482,0.66970432,20.551834,0.75435197Q19.981186,0.83899969,19.415377,0.95154583Q18.849569,1.0640919,18.289965,1.2042655Q17.730362,1.344439,17.17831,1.5119021Q16.626257,1.6793652,16.083088,1.8737142Q15.539917,2.0680635,15.006938,2.2888308Q14.473959,2.509598,13.952454,2.7562516Q13.43095,3.0029049,12.922176,3.2748504Q12.413402,3.5467954,11.918585,3.8433771Q11.423767,4.1399593,10.944098,4.4604635Q10.46443,4.7809677,10.001066,5.1246228Q9.5377026,5.468277,9.0917578,5.8342543Q8.6458139,6.2002311,8.2183647,6.5876484Q7.7909155,6.9750657,7.3829904,7.3829904Q6.9750657,7.7909155,6.5876484,8.2183647Q6.2002311,8.6458139,5.8342543,9.0917578Q5.468277,9.5377026,5.1246228,10.001066Q4.7809677,10.46443,4.4604635,10.944098Q4.1399593,11.423767,3.8433774,11.918584Q3.5467954,12.413402,3.2748504,12.922176Q3.0029049,13.43095,2.7562513,13.952454Q2.509598,14.473959,2.2888308,15.006938Q2.0680635,15.539917,1.8737143,16.083086Q1.6793652,16.626257,1.5119021,17.17831Q1.344439,17.730362,1.2042655,18.289967Q1.0640919,18.849569,0.95154583,19.415377Q0.83899963,19.981186,0.75435197,20.551834Q0.66970426,21.122482,0.61315894,21.696598Q0.55661356,22.270714,0.52830678,22.846909Q0.5,23.423107,0.5,24Q0.5,24.576893,0.52830678,25.15309Q0.55661356,25.729288,0.61315894,26.303404Q0.66970426,26.877518,0.75435197,27.448164Q0.83899963,28.018814,0.95154583,28.584621Q1.0640919,29.150429,1.2042655,29.710032Q1.344439,30.269634,1.5119021,30.821688Q1.6793652,31.373737,1.8737142,31.916908Q2.0680635,32.460075,2.2888308,32.993057Q2.509598,33.526039,2.7562516,34.047543Q3.0029049,34.569046,3.2748504,35.07782Q3.5467954,35.586594,3.8433771,36.081413Q4.1399593,36.576229,4.4604635,37.055897Q4.7809677,37.535568,5.1246228,37.998932Q5.468277,38.462296,5.8342543,38.908241Q6.2002311,39.354183,6.5876484,39.781631Q6.9750657,40.20908,7.3829904,40.617004Q7.7909155,41.024929,8.2183647,41.412346Q8.6458139,41.799767,9.0917578,42.165745Q9.5377026,42.531723,10.001066,42.875374Q10.46443,43.219028,10.944098,43.539532Q11.423767,43.860039,11.918584,44.156616Q12.413402,44.453201,12.922176,44.725147Q13.43095,44.997093,13.952454,45.243744Q14.473959,45.490398,15.006938,45.711166Q15.539917,45.931934,16.083086,46.126286Q16.626257,46.320633,17.17831,46.488098Q17.730362,46.655563,18.289967,46.795738Q18.849569,46.935905,19.415377,47.048454Q19.981186,47.160999,20.551834,47.245651Q21.122482,47.330299,21.696598,47.386845Q22.270714,47.44339,22.846909,47.471695Q23.423107,47.5,24,47.5Q24.576893,47.5,25.15309,47.471695Q25.729288,47.44339,26.303404,47.386845Q26.877518,47.330296,27.448164,47.245644Q28.018814,47.160995,28.584621,47.04845Q29.150429,46.935905,29.710032,46.795734Q30.269634,46.65556,30.821688,46.488094Q31.373737,46.320633,31.916908,46.126282Q32.460075,45.931934,32.993057,45.711166Q33.526039,45.490398,34.047543,45.243748Q34.569046,44.997093,35.07782,44.725151Q35.586594,44.453201,36.081413,44.15662Q36.576229,43.860039,37.055897,43.539532Q37.535568,43.219028,37.998932,42.875374Q38.462296,42.531723,38.908241,42.165745Q39.354183,41.799767,39.781631,41.41235Q40.20908,41.024933,40.617004,40.617008Q41.024929,40.209084,41.412346,39.781635Q41.799767,39.354187,42.165745,38.908241Q42.531723,38.462296,42.875374,37.998932Q43.219028,37.535568,43.539532,37.055897Q43.860039,36.576229,44.156616,36.081409Q44.453201,35.586594,44.725147,35.07782Q44.997093,34.569046,45.243744,34.047543Q45.490398,33.526039,45.711166,32.993057Q45.931934,32.460075,46.126286,31.916908Q46.320633,31.373739,46.488098,30.82169Q46.655563,30.269636,46.795738,29.710032Q46.935905,29.150427,47.048454,28.58462Q47.160999,28.018812,47.245651,27.448164Q47.330299,26.877516,47.386845,26.303402Q47.44339,25.729286,47.471695,25.153091Q47.5,24.576893,47.5,24Z" fill="#C2E8DE" fill-opacity="1"/></g><g><g><path d="M31.555555,16.6875L31.555555,31.3125C31.555555,31.415625,31.47094,31.5,31.367521,31.5L16.700854800000002,31.5C16.5974355,31.5,16.5128202,31.415625,16.5128202,31.3125L16.5128202,16.6875C16.5128202,16.5843749,16.5974355,16.5,16.700854800000002,16.5L31.367521,16.5C31.47094,16.5,31.555555,16.5843749,31.555555,16.6875ZM15.0085468,16.5L15.0085468,31.5C15.0085468,32.327343,15.6831193,33,16.5128202,33L31.555555,33C32.385256,33,33.059827999999996,32.327343,33.059827999999996,31.5L33.059827999999996,16.5C33.059827999999996,15.672656100000001,32.385256,15,31.555555,15L16.5128202,15C15.6831193,15,15.0085468,15.672656100000001,15.0085468,16.5ZM17.264957,12L15.8547008,12C15.8029914,12,15.760683799999999,12.042187501,15.760683799999999,12.09375L15.760683799999999,14.15625C15.760683799999999,14.2078125,15.8029914,14.25,15.8547008,14.25L17.1709399,14.25C17.222649099999998,14.25,17.264957,14.2078125,17.264957,14.15625L17.264957,12ZM20.2735043,12L18.8632479,12C18.8115377,12,18.7692308,12.042187501,18.7692308,12.09375L18.7692308,14.15625C18.7692308,14.2078125,18.8115377,14.25,18.8632479,14.25L20.1794872,14.25C20.2311964,14.25,20.2735043,14.2078125,20.2735043,14.15625L20.2735043,12ZM23.282051,12L21.871794700000002,12C21.820085499999998,12,21.7777777,12.042187501,21.7777777,12.09375L21.7777777,14.15625C21.7777777,14.2078125,21.820085499999998,14.25,21.871794700000002,14.25L23.188034000000002,14.25C23.239743,14.25,23.282051,14.2078125,23.282051,14.15625L23.282051,12ZM26.290598,12L24.880342,12C24.828632,12,24.786324999999998,12.042187501,24.786324999999998,12.09375L24.786324999999998,14.15625C24.786324999999998,14.2078125,24.828632,14.25,24.880342,14.25L26.196581000000002,14.25C26.24829,14.25,26.290598,14.2078125,26.290598,14.15625L26.290598,12ZM29.299145,12L27.888888,12C27.837178,12,27.794871,12.042187501,27.794871,12.09375L27.794871,14.15625C27.794871,14.2078125,27.837178,14.25,27.888888,14.25L29.205128,14.25C29.256836,14.25,29.299145,14.2078125,29.299145,14.15625L29.299145,12ZM32.307692,12L30.897436,12C30.845726,12,30.803419,12.042187501,30.803419,12.09375L30.803419,14.15625C30.803419,14.2078125,30.845726,14.25,30.897436,14.25L32.213674999999995,14.25C32.265383,14.25,32.307692,14.2078125,32.307692,14.15625L32.307692,12ZM17.264957,33.75L15.8547008,33.75C15.8029914,33.75,15.760683799999999,33.792187,15.760683799999999,33.84375L15.760683799999999,35.90625C15.760683799999999,35.957811,15.8029914,36,15.8547008,36L17.1709399,36C17.222649099999998,36,17.264957,35.957811,17.264957,35.90625L17.264957,33.75ZM20.2735043,33.75L18.8632479,33.75C18.8115377,33.75,18.7692308,33.792187,18.7692308,33.84375L18.7692308,35.90625C18.7692308,35.957811,18.8115377,36,18.8632479,36L20.1794872,36C20.2311964,36,20.2735043,35.957811,20.2735043,35.90625L20.2735043,33.75ZM23.282051,33.75L21.871794700000002,33.75C21.820085499999998,33.75,21.7777777,33.792187,21.7777777,33.84375L21.7777777,35.90625C21.7777777,35.957811,21.820085499999998,36,21.871794700000002,36L23.188034000000002,36C23.239743,36,23.282051,35.957811,23.282051,35.90625L23.282051,33.75ZM26.290598,33.75L24.880342,33.75C24.828632,33.75,24.786324999999998,33.792187,24.786324999999998,33.84375L24.786324999999998,35.90625C24.786324999999998,35.957811,24.828632,36,24.880342,36L26.196581000000002,36C26.24829,36,26.290598,35.957811,26.290598,35.90625L26.290598,33.75ZM29.299145,33.75L27.888888,33.75C27.837178,33.75,27.794871,33.792187,27.794871,33.84375L27.794871,35.90625C27.794871,35.957811,27.837178,36,27.888888,36L29.205128,36C29.256836,36,29.299145,35.957811,29.299145,35.90625L29.299145,33.75ZM32.307692,33.75L30.897436,33.75C30.845726,33.75,30.803419,33.792187,30.803419,33.84375L30.803419,35.90625C30.803419,35.957811,30.845726,36,30.897436,36L32.213674999999995,36C32.265383,36,32.307692,35.957811,32.307692,35.90625L32.307692,33.75ZM36.068375,15.75L33.905983,15.75C33.854273,15.75,33.811966,15.7921875,33.811966,15.84375L33.811966,17.15625C33.811966,17.2078123,33.854273,17.25,33.905983,17.25L35.974357999999995,17.25C36.026066,17.25,36.068375,17.2078123,36.068375,17.15625L36.068375,15.75ZM36.068375,18.75L33.905983,18.75C33.854273,18.75,33.811966,18.792186700000002,33.811966,18.84375L33.811966,20.15625C33.811966,20.2078123,33.854273,20.25,33.905983,20.25L35.974357999999995,20.25C36.026066,20.25,36.068375,20.2078123,36.068375,20.15625L36.068375,18.75ZM36.068375,21.75L33.905983,21.75C33.854273,21.75,33.811966,21.7921877,33.811966,21.84375L33.811966,23.15625C33.811966,23.207812,33.854273,23.25,33.905983,23.25L35.974357999999995,23.25C36.026066,23.25,36.068375,23.207812,36.068375,23.15625L36.068375,21.75ZM36.068375,24.75L33.905983,24.75C33.854273,24.75,33.811966,24.792188,33.811966,24.84375L33.811966,26.15625C33.811966,26.207812,33.854273,26.25,33.905983,26.25L35.974357999999995,26.25C36.026066,26.25,36.068375,26.207812,36.068375,26.15625L36.068375,24.75ZM36.068375,27.75L33.905983,27.75C33.854273,27.75,33.811966,27.792187,33.811966,27.84375L33.811966,29.15625C33.811966,29.207811,33.854273,29.25,33.905983,29.25L35.974357999999995,29.25C36.026066,29.25,36.068375,29.207811,36.068375,29.15625L36.068375,27.75ZM36.068375,30.75L33.905983,30.75C33.854273,30.75,33.811966,30.792187,33.811966,30.84375L33.811966,32.15625C33.811966,32.207811,33.854273,32.25,33.905983,32.25L35.974357999999995,32.25C36.026066,32.25,36.068375,32.207811,36.068375,32.15625L36.068375,30.75ZM14.2564101,15.75L12.094017088,15.75C12.042307694,15.75,12,15.7921875,12,15.84375L12,17.15625C12,17.2078123,12.042307694,17.25,12.094017088,17.25L14.1623931,17.25C14.2141025,17.25,14.2564101,17.2078123,14.2564101,17.15625L14.2564101,15.75ZM14.2564101,18.75L12.094017088,18.75C12.042307694,18.75,12,18.792186700000002,12,18.84375L12,20.15625C12,20.2078123,12.042307694,20.25,12.094017088,20.25L14.1623931,20.25C14.2141025,20.25,14.2564101,20.2078123,14.2564101,20.15625L14.2564101,18.75ZM14.2564101,21.75L12.094017088,21.75C12.042307694,21.75,12,21.7921877,12,21.84375L12,23.15625C12,23.207812,12.042307694,23.25,12.094017088,23.25L14.1623931,23.25C14.2141025,23.25,14.2564101,23.207812,14.2564101,23.15625L14.2564101,21.75ZM14.2564101,24.75L12.094017088,24.75C12.042307694,24.75,12,24.792188,12,24.84375L12,26.15625C12,26.207812,12.042307694,26.25,12.094017088,26.25L14.1623931,26.25C14.2141025,26.25,14.2564101,26.207812,14.2564101,26.15625L14.2564101,24.75ZM14.2564101,27.75L12.094017088,27.75C12.042307694,27.75,12,27.792187,12,27.84375L12,29.15625C12,29.207811,12.042307694,29.25,12.094017088,29.25L14.1623931,29.25C14.2141025,29.25,14.2564101,29.207811,14.2564101,29.15625L14.2564101,27.75ZM14.2564101,30.75L12.094017088,30.75C12.042307694,30.75,12,30.792187,12,30.84375L12,32.15625C12,32.207811,12.042307694,32.25,12.094017088,32.25L14.1623931,32.25C14.2141025,32.25,14.2564101,32.207811,14.2564101,32.15625L14.2564101,30.75ZM28.547009,19.59375L28.547009,28.40625C28.547009,28.457811,28.5047,28.5,28.452991,28.5L19.6153846,28.5C19.5636744,28.5,19.5213675,28.457811,19.5213675,28.40625L19.5213675,19.59375C19.5213675,19.542186700000002,19.5636744,19.5,19.6153846,19.5L28.452991,19.5C28.5047,19.5,28.547009,19.542186700000002,28.547009,19.59375ZM18.3931623,18C18.1863251,18,18.0170937,18.1687503,18.0170937,18.375L18.0170937,29.625C18.0170937,29.831249,18.1863251,30,18.3931623,30L29.675213,30C29.88205,30,30.051281,29.831249,30.051281,29.625L30.051281,18.375C30.051281,18.1687503,29.88205,18,29.675213,18L18.3931623,18Z" fill="#3BA185" fill-opacity="1" style="mix-blend-mode:passthrough"/></g></g></g></svg>