<svg xmlns="http://www.w3.org/2000/svg" xmlns:xlink="http://www.w3.org/1999/xlink" fill="none" version="1.1" width="48" height="48" viewBox="0 0 48 48"><g><g><ellipse cx="24" cy="24" rx="24" ry="24" fill="#FFFFFF" fill-opacity="1"/><path d="M48,24Q48,24.589167,47.971088,25.177626Q47.942181,25.766083,47.884434,26.352413Q47.826683,26.938744,47.740234,27.52153Q47.653786,28.104321,47.538841,28.682167Q47.423901,29.260014,47.280746,29.831526Q47.137589,30.403034,46.966568,30.966833Q46.79554,31.530628,46.597054,32.085354Q46.398567,32.640079,46.173103,33.184399Q45.947639,33.728718,45.69574,34.261322Q45.44384,34.793922,45.166107,35.313522Q44.888374,35.833122,44.58548,36.338467Q44.282589,36.843811,43.955265,37.333683Q43.627941,37.823559,43.276978,38.29678Q42.92601,38.770004,42.55225,39.225437Q42.17849,39.680866,41.782829,40.117409Q41.387169,40.553955,40.970562,40.970558Q40.553959,41.387161,40.117416,41.782825Q39.680874,42.178486,39.225445,42.55225Q38.770012,42.92601,38.296787,43.276974Q37.823563,43.627941,37.333687,43.955265Q36.843811,44.282589,36.338467,44.585484Q35.833122,44.888374,35.313526,45.166107Q34.793922,45.44384,34.261322,45.69574Q33.728722,45.947639,33.184402,46.173103Q32.640083,46.398567,32.085358,46.597054Q31.53063,46.79554,30.966835,46.966568Q30.403036,47.137589,29.831524,47.280746Q29.260014,47.423901,28.682167,47.538841Q28.104321,47.653786,27.521532,47.740231Q26.938744,47.826683,26.352413,47.884434Q25.766083,47.942181,25.177624,47.971092Q24.589167,48,24,48Q23.410831,48,22.822372,47.971088Q22.233917,47.942181,21.647587,47.884434Q21.061256,47.826683,20.478466,47.740234Q19.895676,47.653786,19.317829,47.538841Q18.739983,47.423901,18.168472,47.280746Q17.596964,47.137589,17.033167,46.966568Q16.469368,46.79554,15.914642,46.597054Q15.359916,46.398567,14.815597,46.173103Q14.271278,45.947639,13.738677,45.69574Q13.206077,45.44384,12.686478,45.166107Q12.166879,44.888374,11.661533,44.58548Q11.156188,44.282589,10.666313,43.955265Q10.176439,43.627941,9.7032156,43.276978Q9.2299919,42.92601,8.7745609,42.55225Q8.319128,42.17849,7.8825846,41.782829Q7.4460411,41.387169,7.0294371,40.970562Q6.612833,40.553959,6.2171731,40.117416Q5.8215127,39.680874,5.4477491,39.225445Q5.0739851,38.770012,4.7230191,38.296787Q4.3720522,37.823563,4.0447288,37.333687Q3.7174053,36.843811,3.4145129,36.338467Q3.1116209,35.833122,2.8338895,35.313526Q2.5561581,34.793922,2.3042569,34.261322Q2.0523555,33.728722,1.8268911,33.184402Q1.6014266,32.640083,1.4029424,32.085358Q1.204458,31.53063,1.0334319,30.966835Q0.86240578,30.403036,0.71924984,29.831524Q0.57609397,29.260014,0.46115321,28.682167Q0.34621245,28.104321,0.25976375,27.521532Q0.173315,26.938744,0.11556655,26.352413Q0.057818096,25.766083,0.028909048,25.177624Q0,24.589167,0,24Q0,23.410831,0.028909048,22.822372Q0.057818096,22.233917,0.11556655,21.647587Q0.173315,21.061256,0.25976372,20.478466Q0.34621245,19.895676,0.46115321,19.317829Q0.57609397,18.739983,0.71924984,18.168472Q0.86240578,17.596964,1.0334319,17.033167Q1.204458,16.469368,1.4029423,15.914642Q1.6014266,15.359916,1.8268911,14.815597Q2.0523555,14.271278,2.3042569,13.738677Q2.5561583,13.206077,2.8338897,12.686478Q3.1116211,12.166879,3.4145136,11.661533Q3.7174058,11.156188,4.0447292,10.666313Q4.3720531,10.176439,4.7230191,9.7032156Q5.0739856,9.2299919,5.4477491,8.7745609Q5.8215127,8.319128,6.2171726,7.8825846Q6.612833,7.4460411,7.0294371,7.0294371Q7.4460411,6.612833,7.8825846,6.2171731Q8.319128,5.8215127,8.7745609,5.4477491Q9.2299919,5.0739851,9.7032156,4.7230191Q10.176439,4.3720522,10.666313,4.0447288Q11.156188,3.7174053,11.661533,3.4145129Q12.16688,3.1116209,12.68648,2.8338895Q13.206078,2.5561581,13.738678,2.3042569Q14.271278,2.0523555,14.815597,1.8268911Q15.359916,1.6014266,15.914642,1.4029424Q16.469368,1.204458,17.033167,1.0334319Q17.596964,0.86240578,18.168474,0.71924984Q18.739985,0.57609397,19.317831,0.46115321Q19.895676,0.34621245,20.478466,0.25976375Q21.061256,0.173315,21.647587,0.11556655Q22.233917,0.057818096,22.822372,0.028909048Q23.410831,0,24,0Q24.589167,0,25.177626,0.028909048Q25.766083,0.057818096,26.352413,0.11556655Q26.938744,0.173315,27.52153,0.25976372Q28.104321,0.34621245,28.682167,0.46115321Q29.260014,0.57609397,29.831526,0.71924984Q30.403034,0.86240578,30.966833,1.0334319Q31.530628,1.204458,32.085354,1.4029423Q32.640079,1.6014266,33.184399,1.8268911Q33.728718,2.0523555,34.261322,2.3042569Q34.793922,2.5561583,35.313522,2.8338897Q35.833122,3.1116211,36.338467,3.4145136Q36.843811,3.7174058,37.333683,4.0447292Q37.823559,4.3720531,38.29678,4.7230191Q38.770004,5.0739856,39.225437,5.4477491Q39.680866,5.8215127,40.117409,6.2171726Q40.553955,6.612833,40.970558,7.0294371Q41.387161,7.4460411,41.782825,7.8825846Q42.178486,8.319128,42.55225,8.7745609Q42.92601,9.2299919,43.276974,9.7032156Q43.627941,10.176439,43.955265,10.666313Q44.282589,11.156188,44.585484,11.661533Q44.888374,12.16688,45.166107,12.68648Q45.44384,13.206078,45.69574,13.738678Q45.947639,14.271278,46.173103,14.815597Q46.398567,15.359916,46.597054,15.914642Q46.79554,16.469368,46.966568,17.033167Q47.137589,17.596964,47.280746,18.168474Q47.423901,18.739985,47.538841,19.317831Q47.653786,19.895676,47.740231,20.478466Q47.826683,21.061256,47.884434,21.647587Q47.942181,22.233917,47.971092,22.822372Q48,23.410831,48,24ZM47.5,24Q47.5,23.423107,47.471695,22.846909Q47.44339,22.270714,47.386845,21.696598Q47.330296,21.122482,47.245644,20.551834Q47.160995,19.981186,47.04845,19.415377Q46.935905,18.849569,46.795734,18.289965Q46.65556,17.730362,46.488094,17.17831Q46.320633,16.626257,46.126282,16.083088Q45.931934,15.539917,45.711166,15.006938Q45.490398,14.473959,45.243748,13.952454Q44.997093,13.43095,44.725151,12.922176Q44.453201,12.413402,44.15662,11.918585Q43.860039,11.423767,43.539532,10.944098Q43.219028,10.46443,42.875374,10.001066Q42.531723,9.5377026,42.165745,9.0917578Q41.799767,8.6458139,41.41235,8.2183647Q41.024933,7.7909155,40.617008,7.3829904Q40.209084,6.9750657,39.781635,6.5876484Q39.354187,6.2002311,38.908241,5.8342543Q38.462296,5.468277,37.998932,5.1246228Q37.535568,4.7809677,37.055897,4.4604635Q36.576229,4.1399593,36.081409,3.8433774Q35.586594,3.5467954,35.07782,3.2748504Q34.569046,3.0029049,34.047543,2.7562513Q33.526039,2.509598,32.993057,2.2888308Q32.460075,2.0680635,31.916908,1.8737143Q31.373739,1.6793652,30.82169,1.5119021Q30.269636,1.344439,29.710032,1.2042655Q29.150427,1.0640919,28.58462,0.95154583Q28.018812,0.83899969,27.448164,0.75435203Q26.877516,0.66970432,26.303402,0.61315894Q25.729286,0.55661356,25.153091,0.52830678Q24.576893,0.5,24,0.5Q23.423107,0.5,22.846909,0.52830678Q22.270714,0.55661356,21.696598,0.61315894Q21.122482,0.66970432,20.551834,0.75435197Q19.981186,0.83899969,19.415377,0.95154583Q18.849569,1.0640919,18.289965,1.2042655Q17.730362,1.344439,17.17831,1.5119021Q16.626257,1.6793652,16.083088,1.8737142Q15.539917,2.0680635,15.006938,2.2888308Q14.473959,2.509598,13.952454,2.7562516Q13.43095,3.0029049,12.922176,3.2748504Q12.413402,3.5467954,11.918585,3.8433771Q11.423767,4.1399593,10.944098,4.4604635Q10.46443,4.7809677,10.001066,5.1246228Q9.5377026,5.468277,9.0917578,5.8342543Q8.6458139,6.2002311,8.2183647,6.5876484Q7.7909155,6.9750657,7.3829904,7.3829904Q6.9750657,7.7909155,6.5876484,8.2183647Q6.2002311,8.6458139,5.8342543,9.0917578Q5.468277,9.5377026,5.1246228,10.001066Q4.7809677,10.46443,4.4604635,10.944098Q4.1399593,11.423767,3.8433774,11.918584Q3.5467954,12.413402,3.2748504,12.922176Q3.0029049,13.43095,2.7562513,13.952454Q2.509598,14.473959,2.2888308,15.006938Q2.0680635,15.539917,1.8737143,16.083086Q1.6793652,16.626257,1.5119021,17.17831Q1.344439,17.730362,1.2042655,18.289967Q1.0640919,18.849569,0.95154583,19.415377Q0.83899963,19.981186,0.75435197,20.551834Q0.66970426,21.122482,0.61315894,21.696598Q0.55661356,22.270714,0.52830678,22.846909Q0.5,23.423107,0.5,24Q0.5,24.576893,0.52830678,25.15309Q0.55661356,25.729288,0.61315894,26.303404Q0.66970426,26.877518,0.75435197,27.448164Q0.83899963,28.018814,0.95154583,28.584621Q1.0640919,29.150429,1.2042655,29.710032Q1.344439,30.269634,1.5119021,30.821688Q1.6793652,31.373737,1.8737142,31.916908Q2.0680635,32.460075,2.2888308,32.993057Q2.509598,33.526039,2.7562516,34.047543Q3.0029049,34.569046,3.2748504,35.07782Q3.5467954,35.586594,3.8433771,36.081413Q4.1399593,36.576229,4.4604635,37.055897Q4.7809677,37.535568,5.1246228,37.998932Q5.468277,38.462296,5.8342543,38.908241Q6.2002311,39.354183,6.5876484,39.781631Q6.9750657,40.20908,7.3829904,40.617004Q7.7909155,41.024929,8.2183647,41.412346Q8.6458139,41.799767,9.0917578,42.165745Q9.5377026,42.531723,10.001066,42.875374Q10.46443,43.219028,10.944098,43.539532Q11.423767,43.860039,11.918584,44.156616Q12.413402,44.453201,12.922176,44.725147Q13.43095,44.997093,13.952454,45.243744Q14.473959,45.490398,15.006938,45.711166Q15.539917,45.931934,16.083086,46.126286Q16.626257,46.320633,17.17831,46.488098Q17.730362,46.655563,18.289967,46.795738Q18.849569,46.935905,19.415377,47.048454Q19.981186,47.160999,20.551834,47.245651Q21.122482,47.330299,21.696598,47.386845Q22.270714,47.44339,22.846909,47.471695Q23.423107,47.5,24,47.5Q24.576893,47.5,25.15309,47.471695Q25.729288,47.44339,26.303404,47.386845Q26.877518,47.330296,27.448164,47.245644Q28.018814,47.160995,28.584621,47.04845Q29.150429,46.935905,29.710032,46.795734Q30.269634,46.65556,30.821688,46.488094Q31.373737,46.320633,31.916908,46.126282Q32.460075,45.931934,32.993057,45.711166Q33.526039,45.490398,34.047543,45.243748Q34.569046,44.997093,35.07782,44.725151Q35.586594,44.453201,36.081413,44.15662Q36.576229,43.860039,37.055897,43.539532Q37.535568,43.219028,37.998932,42.875374Q38.462296,42.531723,38.908241,42.165745Q39.354183,41.799767,39.781631,41.41235Q40.20908,41.024933,40.617004,40.617008Q41.024929,40.209084,41.412346,39.781635Q41.799767,39.354187,42.165745,38.908241Q42.531723,38.462296,42.875374,37.998932Q43.219028,37.535568,43.539532,37.055897Q43.860039,36.576229,44.156616,36.081409Q44.453201,35.586594,44.725147,35.07782Q44.997093,34.569046,45.243744,34.047543Q45.490398,33.526039,45.711166,32.993057Q45.931934,32.460075,46.126286,31.916908Q46.320633,31.373739,46.488098,30.82169Q46.655563,30.269636,46.795738,29.710032Q46.935905,29.150427,47.048454,28.58462Q47.160999,28.018812,47.245651,27.448164Q47.330299,26.877516,47.386845,26.303402Q47.44339,25.729286,47.471695,25.153091Q47.5,24.576893,47.5,24Z" fill="#C2E8DE" fill-opacity="1"/></g><g><path d="M34.24066,26.842772C33.036190000000005,26.835155,32.004879,27.571438,31.57962,28.617466C31.515959,28.772339,31.368263,28.873896,31.200197,28.873896L30.555944,28.873896C29.657049,28.873896,28.926218,28.145229,28.926218,27.248997L28.926218,25.649487C31.849543,25.408291,34.151533,22.910007,34.151533,19.8633204C34.151533,16.7734728,31.653465,14.254878,28.506054,14.074615699999999C27.576601,12.2542194,25.646392,11,23.405517,11C20.403252600000002,11,17.9510217,13.249470200000001,17.737119200000002,16.1006618C15.529347900000001,16.7099991,13.9225378,18.5735559,13.9225378,20.7798643C13.9225378,23.382243000000003,16.1583204,25.520001,18.9797869,25.669797000000003L19.1478529,25.669797000000003L19.1478529,27.248997C19.1478529,28.145229,18.4170208,28.873896,17.5181246,28.873896L16.8738728,28.873896C16.7058067,28.873896,16.5581131,28.772339,16.494452,28.617466C16.0691943,27.571438,15.035336000000001,26.835155,13.8334117,26.842772C12.2342414,26.852927,10.945737835,28.190931,11.0017597228,29.785362C11.052688703,31.308708,12.308088399999999,32.529921,13.8512368,32.529921C15.0506148,32.529921,16.0742869,31.793638,16.4969983,30.750149C16.5581131,30.597815,16.7083535,30.498796,16.8738728,30.498796L17.5181246,30.498796C19.3184652,30.498796,20.7775803,29.044004,20.7775803,27.248997L20.7775803,25.872909999999997C20.7775803,25.761198,20.8692522,25.669797000000003,20.9812965,25.669797000000003L23.018456,25.669797000000003C23.130499,25.669797000000003,23.222172,25.761198,23.222172,25.872909999999997L23.222172,31.143679C23.222172,31.311247,23.120314,31.458502,22.96498,31.521976C21.915843000000002,31.945974,21.177372,32.976768,21.185012999999998,34.175133C21.195197,35.769566,22.537176000000002,37.051714000000004,24.136347999999998,36.998394000000005C25.666764999999998,36.947617,26.889059,35.693398,26.889059,34.157358C26.889059,32.961533,26.150588,31.940895,25.103997,31.519436C24.95121,31.458502,24.851898,31.308708,24.851898,31.143679L24.851898,25.872909999999997C24.851898,25.761198,24.943571,25.669797000000003,25.055614,25.669797000000003L27.092773,25.669797000000003C27.204819,25.669797000000003,27.296492,25.761198,27.296492,25.872909999999997L27.296492,27.248997C27.296492,29.044003,28.755606,30.498796,30.555944,30.498796L31.200197,30.498796C31.365719,30.498796,31.515959,30.597815,31.577072,30.750149C31.999784,31.793638,33.023457,32.529921,34.222834,32.529921C35.765984,32.529921,37.021383,31.308708,37.072311,29.785364C37.128333999999995,28.190931,35.839832,26.852929,34.24066,26.842772ZM13.8512368,30.90502C13.1764276,30.90502,12.6289411,30.359156,12.6289411,29.686346C12.6289411,29.013538,13.1764276,28.46767,13.8512368,28.46767C14.5260463,28.46767,15.0735326,29.013536,15.0735326,29.686346C15.0735326,30.359158,14.5260463,30.905022,13.8512368,30.90502ZM25.259332999999998,34.154819C25.259332999999998,34.827631,24.711845,35.373495,24.037036999999998,35.373495C23.362226,35.373495,22.814740999999998,34.827631,22.814740999999998,34.154819C22.814740999999998,33.48201,23.362226,32.936144,24.037036999999998,32.936144C24.711845,32.936144,25.259332999999998,33.48201,25.259332999999998,34.154819ZM19.0256224,24.044898C18.0656114,23.986503,17.1794462,23.605667,16.5250096,22.976019C15.896035699999999,22.371759,15.5522647,21.592315,15.5522647,20.7798653C15.5522647,20.0918217,15.796724300000001,19.4342451,16.2576318,18.8756862C16.7287245,18.3044319,17.408627,17.8753576,18.1700153,17.6671667L19.2751741,17.3624978L19.3592072,16.2225289C19.4305086,15.255206099999999,19.8786831,14.3564332,20.6171532,13.6861622C21.375996,13.0006576,22.364017,12.6248995,23.405517,12.6248995C24.184730000000002,12.6248995,24.941025,12.835628700000001,25.59037,13.2367759C26.219343000000002,13.6226895,26.723541,14.1660151,27.052034,14.8108974L27.477291,15.6411195L28.411839,15.6944366C29.532276,15.7579093,30.573774,16.227606299999998,31.345346,17.0121284C32.104191,17.7864943,32.524353000000005,18.7995176,32.524353000000005,19.8633194C32.524353000000005,22.168646000000003,30.70364,24.044896,28.465313,24.044896L19.0256224,24.044898ZM34.222834,30.90502C33.548027000000005,30.90502,33.00054,30.359156,33.00054,29.686346C33.00054,29.013538,33.548027000000005,28.46767,34.222836,28.46767C34.897646,28.46767,35.445133,29.013536,35.445133,29.686346C35.445133,30.359158,34.897646,30.905022,34.222834,30.90502Z" fill="#3BA185" fill-opacity="1" style="mix-blend-mode:passthrough"/></g></g></svg>