<svg xmlns="http://www.w3.org/2000/svg" xmlns:xlink="http://www.w3.org/1999/xlink" fill="none" version="1.1" width="48" height="48" viewBox="0 0 48 48"><defs><clipPath id="master_svg0_348_55869"><rect x="11" y="11" width="26" height="26" rx="0"/></clipPath></defs><g><g><ellipse cx="24" cy="24" rx="24" ry="24" fill="#FFFFFF" fill-opacity="1"/><path d="M48,24Q48,24.589167,47.971088,25.177626Q47.942181,25.766083,47.884434,26.352413Q47.826683,26.938744,47.740234,27.52153Q47.653786,28.104321,47.538841,28.682167Q47.423901,29.260014,47.280746,29.831526Q47.137589,30.403034,46.966568,30.966833Q46.79554,31.530628,46.597054,32.085354Q46.398567,32.640079,46.173103,33.184399Q45.947639,33.728718,45.69574,34.261322Q45.44384,34.793922,45.166107,35.313522Q44.888374,35.833122,44.58548,36.338467Q44.282589,36.843811,43.955265,37.333683Q43.627941,37.823559,43.276978,38.29678Q42.92601,38.770004,42.55225,39.225437Q42.17849,39.680866,41.782829,40.117409Q41.387169,40.553955,40.970562,40.970558Q40.553959,41.387161,40.117416,41.782825Q39.680874,42.178486,39.225445,42.55225Q38.770012,42.92601,38.296787,43.276974Q37.823563,43.627941,37.333687,43.955265Q36.843811,44.282589,36.338467,44.585484Q35.833122,44.888374,35.313526,45.166107Q34.793922,45.44384,34.261322,45.69574Q33.728722,45.947639,33.184402,46.173103Q32.640083,46.398567,32.085358,46.597054Q31.53063,46.79554,30.966835,46.966568Q30.403036,47.137589,29.831524,47.280746Q29.260014,47.423901,28.682167,47.538841Q28.104321,47.653786,27.521532,47.740231Q26.938744,47.826683,26.352413,47.884434Q25.766083,47.942181,25.177624,47.971092Q24.589167,48,24,48Q23.410831,48,22.822372,47.971088Q22.233917,47.942181,21.647587,47.884434Q21.061256,47.826683,20.478466,47.740234Q19.895676,47.653786,19.317829,47.538841Q18.739983,47.423901,18.168472,47.280746Q17.596964,47.137589,17.033167,46.966568Q16.469368,46.79554,15.914642,46.597054Q15.359916,46.398567,14.815597,46.173103Q14.271278,45.947639,13.738677,45.69574Q13.206077,45.44384,12.686478,45.166107Q12.166879,44.888374,11.661533,44.58548Q11.156188,44.282589,10.666313,43.955265Q10.176439,43.627941,9.7032156,43.276978Q9.2299919,42.92601,8.7745609,42.55225Q8.319128,42.17849,7.8825846,41.782829Q7.4460411,41.387169,7.0294371,40.970562Q6.612833,40.553959,6.2171731,40.117416Q5.8215127,39.680874,5.4477491,39.225445Q5.0739851,38.770012,4.7230191,38.296787Q4.3720522,37.823563,4.0447288,37.333687Q3.7174053,36.843811,3.4145129,36.338467Q3.1116209,35.833122,2.8338895,35.313526Q2.5561581,34.793922,2.3042569,34.261322Q2.0523555,33.728722,1.8268911,33.184402Q1.6014266,32.640083,1.4029424,32.085358Q1.204458,31.53063,1.0334319,30.966835Q0.86240578,30.403036,0.71924984,29.831524Q0.57609397,29.260014,0.46115321,28.682167Q0.34621245,28.104321,0.25976375,27.521532Q0.173315,26.938744,0.11556655,26.352413Q0.057818096,25.766083,0.028909048,25.177624Q0,24.589167,0,24Q0,23.410831,0.028909048,22.822372Q0.057818096,22.233917,0.11556655,21.647587Q0.173315,21.061256,0.25976372,20.478466Q0.34621245,19.895676,0.46115321,19.317829Q0.57609397,18.739983,0.71924984,18.168472Q0.86240578,17.596964,1.0334319,17.033167Q1.204458,16.469368,1.4029423,15.914642Q1.6014266,15.359916,1.8268911,14.815597Q2.0523555,14.271278,2.3042569,13.738677Q2.5561583,13.206077,2.8338897,12.686478Q3.1116211,12.166879,3.4145136,11.661533Q3.7174058,11.156188,4.0447292,10.666313Q4.3720531,10.176439,4.7230191,9.7032156Q5.0739856,9.2299919,5.4477491,8.7745609Q5.8215127,8.319128,6.2171726,7.8825846Q6.612833,7.4460411,7.0294371,7.0294371Q7.4460411,6.612833,7.8825846,6.2171731Q8.319128,5.8215127,8.7745609,5.4477491Q9.2299919,5.0739851,9.7032156,4.7230191Q10.176439,4.3720522,10.666313,4.0447288Q11.156188,3.7174053,11.661533,3.4145129Q12.16688,3.1116209,12.68648,2.8338895Q13.206078,2.5561581,13.738678,2.3042569Q14.271278,2.0523555,14.815597,1.8268911Q15.359916,1.6014266,15.914642,1.4029424Q16.469368,1.204458,17.033167,1.0334319Q17.596964,0.86240578,18.168474,0.71924984Q18.739985,0.57609397,19.317831,0.46115321Q19.895676,0.34621245,20.478466,0.25976375Q21.061256,0.173315,21.647587,0.11556655Q22.233917,0.057818096,22.822372,0.028909048Q23.410831,0,24,0Q24.589167,0,25.177626,0.028909048Q25.766083,0.057818096,26.352413,0.11556655Q26.938744,0.173315,27.52153,0.25976372Q28.104321,0.34621245,28.682167,0.46115321Q29.260014,0.57609397,29.831526,0.71924984Q30.403034,0.86240578,30.966833,1.0334319Q31.530628,1.204458,32.085354,1.4029423Q32.640079,1.6014266,33.184399,1.8268911Q33.728718,2.0523555,34.261322,2.3042569Q34.793922,2.5561583,35.313522,2.8338897Q35.833122,3.1116211,36.338467,3.4145136Q36.843811,3.7174058,37.333683,4.0447292Q37.823559,4.3720531,38.29678,4.7230191Q38.770004,5.0739856,39.225437,5.4477491Q39.680866,5.8215127,40.117409,6.2171726Q40.553955,6.612833,40.970558,7.0294371Q41.387161,7.4460411,41.782825,7.8825846Q42.178486,8.319128,42.55225,8.7745609Q42.92601,9.2299919,43.276974,9.7032156Q43.627941,10.176439,43.955265,10.666313Q44.282589,11.156188,44.585484,11.661533Q44.888374,12.16688,45.166107,12.68648Q45.44384,13.206078,45.69574,13.738678Q45.947639,14.271278,46.173103,14.815597Q46.398567,15.359916,46.597054,15.914642Q46.79554,16.469368,46.966568,17.033167Q47.137589,17.596964,47.280746,18.168474Q47.423901,18.739985,47.538841,19.317831Q47.653786,19.895676,47.740231,20.478466Q47.826683,21.061256,47.884434,21.647587Q47.942181,22.233917,47.971092,22.822372Q48,23.410831,48,24ZM47.5,24Q47.5,23.423107,47.471695,22.846909Q47.44339,22.270714,47.386845,21.696598Q47.330296,21.122482,47.245644,20.551834Q47.160995,19.981186,47.04845,19.415377Q46.935905,18.849569,46.795734,18.289965Q46.65556,17.730362,46.488094,17.17831Q46.320633,16.626257,46.126282,16.083088Q45.931934,15.539917,45.711166,15.006938Q45.490398,14.473959,45.243748,13.952454Q44.997093,13.43095,44.725151,12.922176Q44.453201,12.413402,44.15662,11.918585Q43.860039,11.423767,43.539532,10.944098Q43.219028,10.46443,42.875374,10.001066Q42.531723,9.5377026,42.165745,9.0917578Q41.799767,8.6458139,41.41235,8.2183647Q41.024933,7.7909155,40.617008,7.3829904Q40.209084,6.9750657,39.781635,6.5876484Q39.354187,6.2002311,38.908241,5.8342543Q38.462296,5.468277,37.998932,5.1246228Q37.535568,4.7809677,37.055897,4.4604635Q36.576229,4.1399593,36.081409,3.8433774Q35.586594,3.5467954,35.07782,3.2748504Q34.569046,3.0029049,34.047543,2.7562513Q33.526039,2.509598,32.993057,2.2888308Q32.460075,2.0680635,31.916908,1.8737143Q31.373739,1.6793652,30.82169,1.5119021Q30.269636,1.344439,29.710032,1.2042655Q29.150427,1.0640919,28.58462,0.95154583Q28.018812,0.83899969,27.448164,0.75435203Q26.877516,0.66970432,26.303402,0.61315894Q25.729286,0.55661356,25.153091,0.52830678Q24.576893,0.5,24,0.5Q23.423107,0.5,22.846909,0.52830678Q22.270714,0.55661356,21.696598,0.61315894Q21.122482,0.66970432,20.551834,0.75435197Q19.981186,0.83899969,19.415377,0.95154583Q18.849569,1.0640919,18.289965,1.2042655Q17.730362,1.344439,17.17831,1.5119021Q16.626257,1.6793652,16.083088,1.8737142Q15.539917,2.0680635,15.006938,2.2888308Q14.473959,2.509598,13.952454,2.7562516Q13.43095,3.0029049,12.922176,3.2748504Q12.413402,3.5467954,11.918585,3.8433771Q11.423767,4.1399593,10.944098,4.4604635Q10.46443,4.7809677,10.001066,5.1246228Q9.5377026,5.468277,9.0917578,5.8342543Q8.6458139,6.2002311,8.2183647,6.5876484Q7.7909155,6.9750657,7.3829904,7.3829904Q6.9750657,7.7909155,6.5876484,8.2183647Q6.2002311,8.6458139,5.8342543,9.0917578Q5.468277,9.5377026,5.1246228,10.001066Q4.7809677,10.46443,4.4604635,10.944098Q4.1399593,11.423767,3.8433774,11.918584Q3.5467954,12.413402,3.2748504,12.922176Q3.0029049,13.43095,2.7562513,13.952454Q2.509598,14.473959,2.2888308,15.006938Q2.0680635,15.539917,1.8737143,16.083086Q1.6793652,16.626257,1.5119021,17.17831Q1.344439,17.730362,1.2042655,18.289967Q1.0640919,18.849569,0.95154583,19.415377Q0.83899963,19.981186,0.75435197,20.551834Q0.66970426,21.122482,0.61315894,21.696598Q0.55661356,22.270714,0.52830678,22.846909Q0.5,23.423107,0.5,24Q0.5,24.576893,0.52830678,25.15309Q0.55661356,25.729288,0.61315894,26.303404Q0.66970426,26.877518,0.75435197,27.448164Q0.83899963,28.018814,0.95154583,28.584621Q1.0640919,29.150429,1.2042655,29.710032Q1.344439,30.269634,1.5119021,30.821688Q1.6793652,31.373737,1.8737142,31.916908Q2.0680635,32.460075,2.2888308,32.993057Q2.509598,33.526039,2.7562516,34.047543Q3.0029049,34.569046,3.2748504,35.07782Q3.5467954,35.586594,3.8433771,36.081413Q4.1399593,36.576229,4.4604635,37.055897Q4.7809677,37.535568,5.1246228,37.998932Q5.468277,38.462296,5.8342543,38.908241Q6.2002311,39.354183,6.5876484,39.781631Q6.9750657,40.20908,7.3829904,40.617004Q7.7909155,41.024929,8.2183647,41.412346Q8.6458139,41.799767,9.0917578,42.165745Q9.5377026,42.531723,10.001066,42.875374Q10.46443,43.219028,10.944098,43.539532Q11.423767,43.860039,11.918584,44.156616Q12.413402,44.453201,12.922176,44.725147Q13.43095,44.997093,13.952454,45.243744Q14.473959,45.490398,15.006938,45.711166Q15.539917,45.931934,16.083086,46.126286Q16.626257,46.320633,17.17831,46.488098Q17.730362,46.655563,18.289967,46.795738Q18.849569,46.935905,19.415377,47.048454Q19.981186,47.160999,20.551834,47.245651Q21.122482,47.330299,21.696598,47.386845Q22.270714,47.44339,22.846909,47.471695Q23.423107,47.5,24,47.5Q24.576893,47.5,25.15309,47.471695Q25.729288,47.44339,26.303404,47.386845Q26.877518,47.330296,27.448164,47.245644Q28.018814,47.160995,28.584621,47.04845Q29.150429,46.935905,29.710032,46.795734Q30.269634,46.65556,30.821688,46.488094Q31.373737,46.320633,31.916908,46.126282Q32.460075,45.931934,32.993057,45.711166Q33.526039,45.490398,34.047543,45.243748Q34.569046,44.997093,35.07782,44.725151Q35.586594,44.453201,36.081413,44.15662Q36.576229,43.860039,37.055897,43.539532Q37.535568,43.219028,37.998932,42.875374Q38.462296,42.531723,38.908241,42.165745Q39.354183,41.799767,39.781631,41.41235Q40.20908,41.024933,40.617004,40.617008Q41.024929,40.209084,41.412346,39.781635Q41.799767,39.354187,42.165745,38.908241Q42.531723,38.462296,42.875374,37.998932Q43.219028,37.535568,43.539532,37.055897Q43.860039,36.576229,44.156616,36.081409Q44.453201,35.586594,44.725147,35.07782Q44.997093,34.569046,45.243744,34.047543Q45.490398,33.526039,45.711166,32.993057Q45.931934,32.460075,46.126286,31.916908Q46.320633,31.373739,46.488098,30.82169Q46.655563,30.269636,46.795738,29.710032Q46.935905,29.150427,47.048454,28.58462Q47.160999,28.018812,47.245651,27.448164Q47.330299,26.877516,47.386845,26.303402Q47.44339,25.729286,47.471695,25.153091Q47.5,24.576893,47.5,24Z" fill="#C2E8DE" fill-opacity="1"/></g><g clip-path="url(#master_svg0_348_55869)"><g><path d="M16.4163412125,35.733416046875L31.5830078125,35.733416046875Q33.5663418125,35.733416046875,33.5663418125,33.750082046875L33.5663418125,14.250081446875Q33.5663418125,12.266748066875,31.5830078125,12.266748066875L16.4163412125,12.266748066875Q15.5948173125,12.266748006875,15.013912532500001,12.847652886875Q14.4330078325,13.428557666875,14.4330078325,14.250081446875L14.4330079525,33.750082046875Q14.4330078325,34.571619046875,15.0139153625,35.152521046874995Q15.5948155825,35.733416046875,16.4163412125,35.733416046875ZM31.7663418125,33.750082046875Q31.7663418125,33.933416046874996,31.5830078125,33.933416046874996L16.4163412125,33.933416046874996Q16.2330078525,33.933416046874996,16.2330078525,33.750082046875L16.2330077925,14.250081446875Q16.2330077925,14.066748026875,16.4163411125,14.066748026875L31.5830078125,14.066748026875Q31.7663418125,14.066748026875,31.7663418125,14.250081446875L31.7663418125,33.750082046875Z" fill-rule="evenodd" fill="#30B690" fill-opacity="1" style="mix-blend-mode:passthrough"/></g><g><path d="M25.6249998,20.821073046875L23.02537632,23.538850046874998Q22.96410465,23.602905046875,22.89151347,23.653778046875Q22.81892228,23.704649046874998,22.73780125,23.740381046875Q22.65668026,23.776113046875,22.57014686,23.795335046875Q22.48361344,23.814555046875,22.394993052,23.816524046875Q22.306372665,23.818494046875,22.21907094,23.803136046875Q22.13176921,23.787779046875002,22.04914111,23.755684046875Q21.96651298,23.723589046875,21.89173383,23.675992046875002Q21.81695467,23.628395046875,21.75289816,23.567123046875Q21.619771,23.439784046874998,21.54738545,23.270377046874998Q21.47500002,23.100971246874998,21.4749999,22.916747046875003L21.47500002,13.166748046875Q21.47500008,13.078105784875,21.49229336,12.991166766875Q21.50958657,12.904227736875,21.54350853,12.822332976875Q21.57743043,12.740438196875001,21.62667739,12.666734816875Q21.67592442,12.593031526875,21.73860395,12.530351996875Q21.80128348,12.467672466875,21.87498683,12.418425496875Q21.94869015,12.369178476875,22.03058493,12.335256576875Q22.11247969,12.301334616875,22.19941872,12.284041406875Q22.286357738,12.266748126875001,22.375,12.266748066875L28.8749995,12.266748066875Q28.963641199999998,12.266748126875001,29.05058,12.284041406875Q29.1375189,12.301334616875,29.2194142,12.335256576875Q29.3013086,12.369178476875,29.3750119,12.418425436875Q29.4487157,12.467672466875,29.5113955,12.530351996875Q29.5740747,12.593031526875,29.6233215,12.666734876875Q29.6725688,12.740438196875001,29.7064905,12.822332976875Q29.7404127,12.904227736875,29.7577057,12.991166766875Q29.7749996,13.078105784875,29.7749996,13.166748046875L29.7749996,22.916747046875003Q29.7749996,23.005389246874998,29.7577057,23.092328046875Q29.7404127,23.179267046874998,29.7064905,23.261162046875Q29.6725688,23.343057046875,29.623322,23.416759046875Q29.5740747,23.490463046875,29.5113955,23.553143046875Q29.4487157,23.615822046875,29.3750124,23.665070046875Q29.3013086,23.714315046875,29.2194142,23.748238046875002Q29.1375189,23.782160046875,29.05058,23.799454046875Q28.963641199999998,23.816748046875,28.8749995,23.816748046875Q28.690776800000002,23.816748046875,28.5213699,23.744363046875Q28.351962999999998,23.671978046874997,28.2246232,23.538850046874998L25.6249998,20.821073046875ZM25.002898000000002,18.868659046875Q24.9884465,18.882482546875,24.9746234,18.896933546875L23.27499998,20.673804746875L23.27499998,14.066748026875L27.9749994,14.066748026875L27.9749994,20.673805246875L26.2753761,18.896934046875Q26.1516323,18.767565746875,25.9878011,18.695400746875002Q25.823969599999998,18.623234746875,25.6449928,18.619257946875Q25.4660158,18.615280146875,25.2991407,18.680097546875Q25.1322656,18.744915046875,25.002898000000002,18.868659046875Z" fill-rule="evenodd" fill="#30B690" fill-opacity="1" style="mix-blend-mode:passthrough"/></g><g><path d="M16.4169921875,12.266748066875L31.5836591875,12.266748066875Q31.6723011875,12.266748126875001,31.759240187499998,12.284041406875Q31.8461791875,12.301334616875,31.928074187500002,12.335256576875Q32.0099681875,12.369178476875,32.0836711875,12.418425436875Q32.1573751875,12.467672466875,32.2200541875,12.530351996875Q32.2827341875,12.593031526875,32.3319811875,12.666734876875Q32.3812271875,12.740438196875001,32.415150187500004,12.822332976875Q32.4490721875,12.904227736875,32.4663661875,12.991166766875Q32.4836581875,13.078105784875,32.4836601875,13.166748046875Q32.4836581875,13.255390308875,32.4663661875,13.342329326875Q32.4490721875,13.429268356875,32.415150187500004,13.511163116875Q32.3812271875,13.593057896874999,32.3319811875,13.666761276875Q32.2827341875,13.740464566875,32.2200551875,13.803144096875Q32.1573751875,13.865823626875,32.0836721875,13.915070596875Q32.0099691875,13.964317616875,31.928074187500002,13.998239516875Q31.8461791875,14.032161476875,31.759240187499998,14.049454686875Q31.6723021875,14.066747966874999,31.5836601875,14.066748026875L16.4169921875,14.066748026875Q16.3283499255,14.066747966874999,16.2414109075,14.049454686875Q16.1544718775,14.032161476875,16.0725771175,13.998239516875Q15.990682337500001,13.964317616875,15.9169789575,13.915070656875Q15.8432756675,13.865823626875,15.7805961375,13.803144096875Q15.7179166075,13.740464566875,15.6686696375,13.666761216875Q15.6194226175,13.593057896874999,15.5855007175,13.511163116875Q15.5515787575,13.429268356875,15.5342855475,13.342329326875Q15.516992267500001,13.255390308875,15.5169922075,13.166748046875Q15.516992267500001,13.078105784875,15.5342855475,12.991166766875Q15.5515787575,12.904227736875,15.5855007175,12.822332976875Q15.6194226175,12.740438196875001,15.6686695775,12.666734816875Q15.7179166075,12.593031526875,15.7805961375,12.530351996875Q15.8432756675,12.467672466875,15.9169790175,12.418425496875Q15.990682337500001,12.369178476875,16.0725771175,12.335256576875Q16.1544718775,12.301334616875,16.2414109075,12.284041406875Q16.3283499255,12.266748126875001,16.4169921875,12.266748066875Z" fill-rule="evenodd" fill="#30B690" fill-opacity="1" style="mix-blend-mode:passthrough"/></g></g></g></svg>