<svg xmlns="http://www.w3.org/2000/svg" xmlns:xlink="http://www.w3.org/1999/xlink" fill="none" version="1.1" width="24" height="24" viewBox="0 0 24 24"><defs><clipPath id="master_svg0_348_46604"><rect x="0" y="0" width="24" height="24" rx="0"/></clipPath></defs><g clip-path="url(#master_svg0_348_46604)"><g><path d="M3.7824938,3.7824938Q1.00000048,6.5649872,1.0000006,10.5000019Q1,14.435015,3.7824936,17.217508000000002Q6.5649881,20.000004,10.5000019,20.000004Q14.435013,20.000004,17.217508000000002,17.217508000000002Q20.000004,14.435013,20.000004,10.5000019Q20.000004,6.5649877,17.217508000000002,3.7824936Q14.435015,1.0000003,10.5000019,1.0000006Q6.5649872,1,3.7824938,3.7824938ZM5.1967075000000005,15.803295Q3,13.606588,3,10.5000019Q3.0000005,7.3934145,5.1967075000000005,5.1967075000000005Q7.393415,3,10.5000019,3.0000007Q13.606588,3.0000005,15.803295,5.1967075000000005Q18.000004,7.3934145,18.000004,10.5000019Q18.000004,13.606588,15.803295,15.803295Q13.606588,18.000004,10.5000019,18.000004Q7.393415,18.000004,5.1967075000000005,15.803295Z" fill-rule="evenodd" fill="#30B690" fill-opacity="1" style="mix-blend-mode:passthrough"/></g><g><path d="M15.903693019428712,17.317956150493163Q15.76304071942871,17.177303910493166,15.686920289428711,16.993532840493163Q15.610799789428711,16.809761750493163,15.610799789428711,16.610849380493164Q15.61079984942871,16.512357980493164,15.63001459942871,16.415759070493163Q15.649229349428712,16.319160160493166,15.68692040942871,16.228165980493163Q15.72461139942871,16.137171800493164,15.77933024942871,16.055279250493165Q15.834049169428711,15.973386640493164,15.903693079428711,15.903742670493164Q15.97333704942871,15.834098760493164,16.05522959942871,15.779379900493165Q16.13712220942871,15.724660990493163,16.22811638942871,15.686969940493164Q16.319110569428712,15.649278880493164,16.41570947942871,15.630064190493163Q16.51230838942871,15.610849440493164,16.61079978942871,15.610849380493164Q16.80971215942871,15.610849380493164,16.99348324942871,15.686969820493164Q17.177254319428712,15.763090310493164,17.31790655942871,15.903742610493165L21.56055738942871,20.146393580493164Q21.70120958942871,20.287045680493165,21.777330389428712,20.470816580493164Q21.853450789428713,20.654587780493163,21.853450789428713,20.853500380493166Q21.853450789428713,20.951991080493165,21.83423568942871,21.048590180493164Q21.815020589428713,21.145188780493164,21.77732988942871,21.236183180493164Q21.73963828942871,21.327177080493165,21.68491978942871,21.409069980493165Q21.63020088942871,21.490962980493165,21.56055738942871,21.560606980493162Q21.490913389428712,21.630250480493164,21.40902038942871,21.684969380493165Q21.32712748942871,21.739687880493165,21.23613358942871,21.777379080493162Q21.14513918942871,21.815070180493166,21.048540089428712,21.834284780493164Q20.951941489428712,21.853500380493166,20.853450789428713,21.853500380493166Q20.65453818942871,21.853500380493166,20.47076728942871,21.777379980493166Q20.286996089428712,21.701259180493164,20.14634398942871,21.560606980493162L15.90369295942871,17.317956210493165L15.903693019428712,17.317956150493163Z" fill-rule="evenodd" fill="#30B690" fill-opacity="1" style="mix-blend-mode:passthrough"/></g></g></svg>