<svg xmlns="http://www.w3.org/2000/svg" xmlns:xlink="http://www.w3.org/1999/xlink" fill="none"
  version="1.1" width="24" height="24" viewBox="0 0 24 24">
  <defs>
    <clipPath id="master_svg0_313_62187">
      <rect x="0" y="0" width="24" height="24" rx="0" />
    </clipPath>
  </defs>
  <g clip-path="url(#master_svg0_313_62187)">
    <g>
      <path class="fill"
        d="M4,20L20,20L20,13L22,13L22,21C22,21.552299,21.552299,22,21,22L3,22C2.44772005,22,2,21.552299,2,21L2,13L4,13L4,20ZM14,10L14,15L10,15L10,10L8.1742206,10C7.3198671,10,6.8589582,8.9978824,7.4149637,8.3492088L11.2407436,3.88579923C11.6398392,3.4201878900000002,12.360161,3.4201878900000002,12.759256,3.88579935L16.585036000000002,8.3492088C17.141042,8.9978824,16.680132,10,15.825779,10L14,10Z"
        fill="#7E8C88" fill-opacity="1" style="mix-blend-mode:passthrough" />
    </g>
  </g>
</svg>