<svg xmlns="http://www.w3.org/2000/svg" xmlns:xlink="http://www.w3.org/1999/xlink" fill="none" version="1.1" width="24" height="24" viewBox="0 0 24 24"><defs><clipPath id="master_svg0_348_46638"><rect x="0" y="0" width="24" height="24" rx="0"/></clipPath></defs><g clip-path="url(#master_svg0_348_46638)"><g><path d="M17.302580040664672,9.733134301776122L17.303356040664674,9.732357501776123Q17.444008040664674,9.591704801776123,17.520128040664673,9.407933701776123Q17.596249040664674,9.224162601776122,17.596251040664672,9.025250401776123Q17.59625004066467,8.926759201776123,17.57703404066467,8.830160101776123Q17.557820040664673,8.733561001776124,17.520128040664673,8.642566701776122Q17.48243704066467,8.551572601776122,17.427719040664673,8.469679801776124Q17.372999040664673,8.387787301776124,17.303356040664674,8.318143401776123Q17.233711040664673,8.248499401776122,17.151819040664673,8.193780401776124Q17.069927040664673,8.139061701776123,16.978934040664672,8.101370801776124Q16.887940040664674,8.063679701776124,16.79134004066467,8.044465101776122Q16.69474204066467,8.025250401776123,16.596251040664672,8.025250401776123Q16.39733804066467,8.025250401776123,16.21356704066467,8.101370801776124Q16.02979604066467,8.177491201776123,15.889144040664673,8.318143401776123L8.464543540664673,15.742743101776123Q8.318086840664673,15.889200101776122,8.110981240664673,15.889200101776122Q7.903900840664673,15.889200101776122,7.757486140664673,15.742772101776122Q7.611000340664673,15.596298101776123,7.611000340664673,15.389219101776122Q7.611000340664673,15.182112101776124,7.757457940664673,15.035654101776123L16.596259040664673,6.196804501776123Q18.010505040664675,4.782605811776123,19.42469004066467,6.196803601776123Q20.838881040664674,7.611055401776123,19.42469304066467,9.025244201776122L10.585843340664674,17.86409310177612Q9.560724540664673,18.889212101776124,8.110975540664672,18.889212101776124Q6.6612279406646735,18.889212101776124,5.636111240664673,17.86409310177612Q4.610985040664673,16.838972101776122,4.610985040664673,15.389224101776122Q4.610985040664673,13.939477401776124,5.636110040664673,12.914358601776122L13.060757840664673,5.489712001776123Q13.201409540664672,5.349059461776123,13.277529940664673,5.165288391776123Q13.353650340664673,4.981517371776123,13.353650340664673,4.782605171776123Q13.353649340664672,4.684113762776123,13.334434740664673,4.587514847776123Q13.315220140664673,4.490915931776123,13.277529040664673,4.399921741776123Q13.239837840664674,4.308927561776123,13.185119840664672,4.227034951776123Q13.130400940664673,4.145142341776123,13.060756940664673,4.075498401776123Q12.991112040664673,4.005854491776123,12.909219940664673,3.951135631776123Q12.827327040664672,3.896416721776123,12.736333140664673,3.858725671776123Q12.645339240664672,3.8210346717761228,12.548740640664672,3.801819921776123Q12.452141040664673,3.7826051717761233,12.353650340664673,3.7826051717761233Q12.154737740664673,3.782605231776123,11.970966540664673,3.858725671776123Q11.787195440664673,3.934846101776123,11.646543740664672,4.075498281776123L11.646229940664673,4.075812221776123L4.221900460664672,11.500140701776123Q2.610985040664673,13.111047301776123,2.610985040664673,15.389224101776122Q2.610985100664673,17.667403101776124,4.221896110664673,19.278306101776124Q5.832798740664673,20.88921310177612,8.110975540664672,20.88921310177612Q10.389150840664673,20.88921310177612,12.000057440664673,19.278306101776124L20.838909040664674,10.439456501776123Q22.010464040664672,9.267900901776123,22.010464040664672,7.611043501776123Q22.010464040664672,5.954198701776123,20.838911040664673,4.782596201776123Q19.667355040664674,3.6110299017761234,18.010494040664675,3.6110299017761234Q16.35364604066467,3.6110300017761228,15.182041040664673,4.782595081776123L6.343242640664673,13.621442301776122Q5.611000040664672,14.353686801776123,5.611000040664672,15.389219101776122Q5.611000040664672,16.424777101776122,6.343212340664673,17.156927101776123Q7.075423440664673,17.889200101776122,8.110981240664673,17.889200101776122Q9.146513240664673,17.889200101776122,9.878757240664672,17.156955101776123L17.302580040664672,9.733134301776122Z" fill-rule="evenodd" fill="#2C3E50" fill-opacity="1" style="mix-blend-mode:passthrough"/></g></g></svg>