<?xml version="1.0" standalone="no"?><!DOCTYPE svg PUBLIC "-//W3C//DTD SVG 1.1//EN" "http://www.w3.org/Graphics/SVG/1.1/DTD/svg11.dtd"><svg class="icon" width="200px" height="200.00px" viewBox="0 0 1024 1024" version="1.1" xmlns="http://www.w3.org/2000/svg"><path fill="#ffffff" d="M709.333333 133.674667l-64 64A340.48 340.48 0 0 0 512 170.666667c-188.586667 0-341.333333 152.746667-341.333333 341.333333s152.746667 341.333333 341.333333 341.333333 341.333333-152.746667 341.333333-341.333333a340.48 340.48 0 0 0-27.008-133.333333l64-64A424.576 424.576 0 0 1 938.666667 512c0 235.52-191.146667 426.666667-426.666667 426.666667S85.333333 747.52 85.333333 512 276.48 85.333333 512 85.333333a424.96 424.96 0 0 1 197.333333 48.341334z m74.197334 46.464l60.330666 60.330666L512 572.330667 451.669333 512l331.861334-331.861333z" /></svg>