<?xml version="1.0" standalone="no"?><!DOCTYPE svg PUBLIC "-//W3C//DTD SVG 1.1//EN" "http://www.w3.org/Graphics/SVG/1.1/DTD/svg11.dtd"><svg class="icon" width="200px" height="200.00px" viewBox="0 0 1024 1024" version="1.1" xmlns="http://www.w3.org/2000/svg"><path fill="#ffffff" d="M469.333333 765.354667A341.376 341.376 0 0 1 512 85.333333a341.333333 341.333333 0 0 1 42.666667 680.021334v88.490666c168.362667 3.925333 298.666667 30.848 298.666666 63.488 0 35.328-152.832 64-341.333333 64s-341.333333-28.672-341.333333-64c0-32.64 130.304-59.562667 298.666666-63.488v-88.490666zM512 682.666667a256 256 0 1 0 0-512 256 256 0 0 0 0 512z m0-170.666667a85.333333 85.333333 0 1 1 0-170.666667 85.333333 85.333333 0 0 1 0 170.666667z" /></svg>