<?xml version="1.0" standalone="no"?><!DOCTYPE svg PUBLIC "-//W3C//DTD SVG 1.1//EN" "http://www.w3.org/Graphics/SVG/1.1/DTD/svg11.dtd"><svg class="icon" width="200px" height="200.00px" viewBox="0 0 1024 1024" version="1.1" xmlns="http://www.w3.org/2000/svg"><path fill="#ffffff" d="M128 768h768a21.333333 21.333333 0 0 1 17.066667 34.133333l-89.6 119.466667a42.666667 42.666667 0 0 1-34.133334 17.066667h-554.666666a42.666667 42.666667 0 0 1-34.133334-17.066667l-89.6-119.466667A21.333333 21.333333 0 0 1 128 768zM640 103.466667V640a42.666667 42.666667 0 0 1-42.666667 42.666667H172.373333a21.333333 21.333333 0 0 1-16.64-34.645334L602.026667 90.154667a21.333333 21.333333 0 0 1 37.973333 13.312z" /></svg>