<?xml version="1.0" standalone="no"?><!DOCTYPE svg PUBLIC "-//W3C//DTD SVG 1.1//EN" "http://www.w3.org/Graphics/SVG/1.1/DTD/svg11.dtd"><svg class="icon" width="200px" height="200.00px" viewBox="0 0 1024 1024" version="1.1" xmlns="http://www.w3.org/2000/svg"><path fill="#ffffff" d="M384 170.666667h232.362667a42.666667 42.666667 0 0 1 36.181333 20.053333L800 426.666667h188.074667a21.333333 21.333333 0 0 1 18.730666 31.573333L837.845333 768H810.666667a256.426667 256.426667 0 0 1-65.493334-8.448L880.213333 512H145.066667l44.714666 248.490667A256.554667 256.554667 0 0 1 128 768h-23.253333l-52.906667-291.029333A42.666667 42.666667 0 0 1 93.738667 426.666667H128V213.333333a42.666667 42.666667 0 0 1 42.666667-42.666666h42.666666V42.666667h170.666667v128z m-170.666667 256h486.058667l-106.666667-170.666667H213.333333v170.666667zM128 853.333333a255.061333 255.061333 0 0 0 170.666667-65.194666A255.061333 255.061333 0 0 0 469.333333 853.333333a255.061333 255.061333 0 0 0 170.666667-65.194666A255.061333 255.061333 0 0 0 810.666667 853.333333h85.333333v85.333334h-85.333333a339.754667 339.754667 0 0 1-170.666667-45.653334A339.754667 339.754667 0 0 1 469.333333 938.666667a339.754667 339.754667 0 0 1-170.666666-45.653334A339.754667 339.754667 0 0 1 128 938.666667H42.666667v-85.333334h85.333333z" /></svg>