<?xml version="1.0" standalone="no"?><!DOCTYPE svg PUBLIC "-//W3C//DTD SVG 1.1//EN" "http://www.w3.org/Graphics/SVG/1.1/DTD/svg11.dtd"><svg t="1765176709969" class="icon" viewBox="0 0 1025 1024" version="1.1" xmlns="http://www.w3.org/2000/svg" p-id="5248" xmlns:xlink="http://www.w3.org/1999/xlink" width="200.1953125" height="200"><path d="M584.248889 910.222222c-242.972444 0-439.978667-66.446222-439.978667-148.423111 0-33.962667 35.214222-64.853333 92.216889-89.884444 5.802667 14.222222 24.576 27.534222 52.736 39.424-34.531556 14.848-56.775111 32.028444-56.775111 50.631111 0 54.613333 181.816889 98.759111 351.914667 98.759111 169.984 0 351.857778-44.202667 351.857777-98.759111 0-18.602667-22.243556-35.783111-56.775111-50.631111 28.16-11.889778 46.876444-25.144889 52.736-39.424 56.945778 25.031111 92.103111 55.921778 92.103111 89.884444C1024.284444 843.776 827.278222 910.222222 584.248889 910.222222z m157.468444-205.937778h-303.786666c-33.678222 0-64.853333-19.854222-82.261334-52.167111L239.672889 435.598222 48.014222 435.370667l-48.014222-188.074667h71.907556l30.037333 53.930667h539.136c33.678222 0 64.853333 19.797333 82.204444 52.167111l87.210667 162.702222 13.425778 25.088c9.045333 16.782222 13.824 36.010667 13.824 55.751111-0.056889 59.278222-43.008 107.406222-96.028445 107.292445z m-52.963555-321.137777a51.143111 51.143111 0 0 0-40.789334-27.875556H511.943111v129.706667h225.735111l5.404445-0.398222-54.328889-101.432889z m-185.230222-122.311111h-47.900445V166.798222H143.928889v-53.76h647.281778v53.76H503.523556v94.037334z" fill="#ffffff" p-id="5249"></path></svg>