<?xml version="1.0" standalone="no"?>
<!DOCTYPE svg PUBLIC "-//W3C//DTD SVG 1.1//EN" "http://www.w3.org/Graphics/SVG/1.1/DTD/svg11.dtd">
<svg t="1766113244484" class="icon" viewBox="0 0 1024 1024" version="1.1"
  xmlns="http://www.w3.org/2000/svg" p-id="14222" xmlns:xlink="http://www.w3.org/1999/xlink"
  width="200" height="200">
  <path
    d="M512 112c220.912 0 400 179.072 400 400 0 220.912-179.088 400-400 400C291.072 912 112 732.912 112 512 112 291.072 291.072 112 512 112z m0 96c-167.904 0-304 136.096-304 304s136.096 304 304 304 304-136.096 304-304-136.096-304-304-304z m182.912 165.824l2.528 1.472a48 48 0 0 1 16.736 63.616l-1.472 2.528-160 256c-18.24 29.168-59.968 30.048-79.632 2.656l-1.776-2.656-160-256a48 48 0 0 1 79.776-53.312l1.632 2.432L512 581.44l119.296-190.88a48 48 0 0 1 63.616-16.736z"
    fill="#ffffff" p-id="14223" style="transform-origin:center;transform:scale(1.25);"></path>
</svg>