<?xml version="1.0" standalone="no"?>
<!DOCTYPE svg PUBLIC "-//W3C//DTD SVG 1.1//EN" "http://www.w3.org/Graphics/SVG/1.1/DTD/svg11.dtd">
<svg t="1706085757826" class="icon" viewBox="0 0 1024 1024" version="1.1"
  xmlns="http://www.w3.org/2000/svg" p-id="2371" xmlns:xlink="http://www.w3.org/1999/xlink"
  width="200" height="200">
  <path
    d="M995.555556 827.733333h-131.982223l-52.337777-212.195555a28.444444 28.444444 0 0 0-25.031112-21.617778 29.013333 29.013333 0 0 0-28.444444 16.497778l-110.364444 239.502222L512 580.266667a56.888889 56.888889 0 0 0 29.013333-48.924445 56.888889 56.888889 0 1 0-113.777777 0 56.888889 56.888889 0 0 0 19.342222 42.097778l-124.017778 254.293333H128a28.444444 28.444444 0 0 0 0 56.888889H341.333333a28.444444 28.444444 0 0 0 25.6-15.928889l110.364445-227.555555L625.777778 927.288889a28.444444 28.444444 0 0 0 25.6 15.36 28.444444 28.444444 0 0 0 25.031111-16.497778l101.262222-219.022222 38.115556 155.306667a28.444444 28.444444 0 0 0 27.875555 21.617777h151.893334a28.444444 28.444444 0 0 0 0-56.888889z"
    p-id="2372" fill="#FFFFFF"></path>
  <path
    d="M995.555556 967.111111H56.888889V36.977778a28.444444 28.444444 0 0 0-56.888889 0V995.555556a28.444444 28.444444 0 0 0 28.444444 28.444444h967.111112a28.444444 28.444444 0 0 0 0-56.888889zM910.222222 248.604444a14.222222 14.222222 0 0 0-13.084444 8.533334l-13.084445 30.72-23.893333-89.315556a13.653333 13.653333 0 0 0-14.222222-10.808889 14.222222 14.222222 0 0 0-13.653334 11.377778l-9.102222 42.097778h-18.204444l-32.426667-132.551111a13.653333 13.653333 0 0 0-14.222222-10.808889 14.222222 14.222222 0 0 0-13.653333 11.946667L725.902222 227.555556l-21.617778-17.066667a14.222222 14.222222 0 0 0-13.653333 0 14.222222 14.222222 0 0 0-9.102222 10.808889l-8.533333 50.631111-39.822223-97.848889a14.791111 14.791111 0 0 0-13.653333-9.102222 14.222222 14.222222 0 0 0-13.084444 9.671111l-25.6 73.955555h-19.342223a14.222222 14.222222 0 0 0 0 28.444445h29.013334a14.222222 14.222222 0 0 0 13.653333-9.671111l16.497778-47.786667 44.373333 109.226667a14.222222 14.222222 0 0 0 14.791111 8.533333 14.222222 14.222222 0 0 0 12.515556-11.946667l12.515555-76.8 21.617778 17.066667a14.222222 14.222222 0 0 0 22.755556-9.102222l11.946666-73.955556 18.204445 75.093334a14.222222 14.222222 0 0 0 13.653333 10.808889h40.96a14.222222 14.222222 0 0 0 13.084445-8.533334l19.911111 73.386667a14.222222 14.222222 0 0 0 12.515555 10.24 14.222222 14.222222 0 0 0 13.084445-8.533333l25.6-59.733334h31.857777a14.222222 14.222222 0 0 0 0-28.444444z"
    p-id="2373" fill="#FFFFFF"></path>
  <path
    d="M949.475556 0h-420.977778A74.524444 74.524444 0 0 0 455.111111 74.524444v279.893334a74.524444 74.524444 0 0 0 73.386667 74.524444h420.977778A74.524444 74.524444 0 0 0 1024 354.417778V74.524444A74.524444 74.524444 0 0 0 949.475556 0zM967.111111 354.417778a17.635556 17.635556 0 0 1-17.635555 17.635555h-420.977778A17.635556 17.635556 0 0 1 512 354.417778V74.524444A17.635556 17.635556 0 0 1 528.497778 56.888889h420.977778a17.635556 17.635556 0 0 1 17.635555 17.635555z"
    p-id="2374" fill="#FFFFFF"></path>
</svg>