<svg xmlns="http://www.w3.org/2000/svg" xmlns:xlink="http://www.w3.org/1999/xlink" fill="none"
  version="1.1" viewBox="0 0 20 20">
  <defs>
    <clipPath id="master_svg0_353_49453">
      <rect x="0" y="0" width="20" height="20" rx="0" />
    </clipPath>
  </defs>
  <g clip-path="url(#master_svg0_353_49453)">
    <g>
      <path class='fill'
        d="M10.468521599999999,1.91434836Q10.4190092,1.8747381,10.3635488,1.84400254Q10.308089299999999,1.81326699,10.2482557,1.79227877Q10.188423199999999,1.77129048,10.1259151,1.76064527Q10.0634079,1.75,10,1.75000006Q9.9365926,1.75000006,9.8740854,1.76064527Q9.8115778,1.77129048,9.7517452,1.7922787100000002Q9.6919122,1.81326699,9.6364517,1.8440026Q9.5809917,1.8747381,9.5314789,1.91434842L3.28147876,6.9143481Q3.21560603,6.9670463,3.16308582,7.033061Q3.11056566,7.0990758,3.07402265,7.175108Q3.0374795199999998,7.2511406,3.01873976,7.3333907Q3,7.4156408,3,7.4999995L3,17.499999000000003Q3,17.573866000000002,3.01441109,17.646316Q3.02882212,17.718764,3.0570904,17.787010000000002Q3.08535868,17.855255,3.12639785,17.916674999999998Q3.16743702,17.978094,3.21966994,18.030327Q3.27190292,18.08256,3.33332238,18.123598Q3.39474183,18.164637,3.46298748,18.192905Q3.53123312,18.221173999999998,3.60368228,18.235585Q3.676131457,18.249997,3.75,18.249997999999998L16.25,18.249997999999998Q16.323867999999997,18.249997,16.396317,18.235585Q16.468764999999998,18.221173999999998,16.537011,18.192905Q16.605257,18.164637,16.666677,18.123598Q16.728096,18.08256,16.780329000000002,18.030327Q16.832561,17.978094,16.8736,17.916674999999998Q16.914639,17.855255,16.942906999999998,17.787010000000002Q16.971176,17.718764,16.985587000000002,17.646316Q16.999997999999998,17.573866000000002,16.999999000000003,17.499999000000003L16.999999000000003,7.4999995Q16.999997999999998,7.4156408,16.981258,7.3333907Q16.962519,7.2511406,16.925976,7.175108Q16.889433,7.0990758,16.836913,7.033061Q16.784393,6.9670463,16.718521000000003,6.9143481L10.468521599999999,1.91434836ZM10,3.46046871L4.5,7.8604684L4.5,16.75L15.5,16.75L15.5,7.8604684L10,3.46046871Z"
        fill-rule="evenodd" fill="#12B385" fill-opacity="1" style="mix-blend-mode:passthrough" />
    </g>
    <g>
      <path class='fill'
        d="M7.1669921875,17.50016209375L7.1669921875,12.08349609375Q7.1669921875,12.00962755075,7.1814032775,11.93717837375Q7.1958143075,11.86472921375,7.2240825875,11.79648357375Q7.2523508675,11.72823792375,7.2933900375,11.66681847375Q7.3344292075,11.60539901375,7.3866621275,11.55316603375Q7.4388951075,11.50093311375,7.5003145675,11.45989394375Q7.5617340175,11.41885477375,7.6299796675,11.39058649375Q7.6982253075,11.36231821375,7.7706744675,11.34790718375Q7.8431236445,11.33349609375,7.9169921875,11.33349609375L12.0836586875,11.33349609375Q12.157526987499999,11.33349609375,12.2299761875,11.34790718375Q12.3024253875,11.36231821375,12.3706707875,11.39058649375Q12.4389161875,11.41885477375,12.5003361875,11.45989394375Q12.5617556875,11.50093311375,12.6139888875,11.55316603375Q12.6662215875,11.60539901375,12.707261087500001,11.66681847375Q12.748300087499999,11.72823792375,12.7765683875,11.79648357375Q12.804836787500001,11.86472921375,12.819247687499999,11.93717837375Q12.8336591875,12.00962755075,12.8336591875,12.08349609375L12.8336591875,17.50016209375Q12.8336591875,17.57403089375,12.819247687499999,17.64647959375Q12.804836787500001,17.71892879375,12.7765683875,17.78717419375Q12.748300087499999,17.85542009375,12.7072605875,17.916839593749998Q12.6662215875,17.97825909375,12.6139888875,18.03049229375Q12.5617556875,18.08272509375,12.5003361875,18.12376399375Q12.4389161875,18.16480299375,12.3706707875,18.19307139375Q12.3024253875,18.22133969375,12.2299761875,18.235751193749998Q12.157526987499999,18.25016209375,12.0836586875,18.250162593749998L7.9169921875,18.250162593749998Q7.8431236445,18.25016209375,7.7706744675,18.235751193749998Q7.6982253075,18.22133969375,7.6299796675,18.19307139375Q7.5617340175,18.16480259375,7.5003145675,18.12376359375Q7.4388951075,18.08272459375,7.3866621275,18.030491793750002Q7.3344292075,17.97825909375,7.2933900375,17.91683909375Q7.2523508675,17.85542009375,7.2240825875,17.78717419375Q7.1958143075,17.71892879375,7.1814032775,17.64647959375Q7.1669921875,17.57403089375,7.1669921875,17.50016209375ZM11.3336586875,12.83349609375L8.6669921875,12.83349609375L8.6669921875,16.75016309375L11.3336586875,16.75016309375L11.3336586875,12.83349609375Z"
        fill-rule="evenodd" fill="#12B385" fill-opacity="1" style="mix-blend-mode:passthrough" />
    </g>
    <g>
      <path class='fill'
        d="M3.75,16.75L16.25,16.75Q16.323867999999997,16.75,16.396317,16.76441109Q16.468764999999998,16.77882212,16.537011,16.8070904Q16.605257,16.83535868,16.666677,16.87639785Q16.728096,16.91743702,16.780329000000002,16.96966994Q16.832561,17.02190292,16.8736,17.08332238Q16.914639,17.14474183,16.942908,17.21298748Q16.971176,17.28123312,16.985588,17.35368228Q16.999999000000003,17.426131457,17,17.5Q16.999999000000003,17.573868543,16.985588,17.64631772Q16.971176,17.71876688,16.942908,17.78701252Q16.91464,17.85525817,16.873601,17.91667762Q16.832561,17.97809708,16.78033,18.03033006Q16.728096,18.08256298,16.666677,18.12360215Q16.605257,18.16464132,16.537011,18.1929096Q16.468764999999998,18.22117788,16.396317,18.23558891Q16.323867999999997,18.25,16.25,18.25L3.75,18.25Q3.676131457,18.25,3.60368228,18.23558891Q3.53123312,18.22117788,3.46298748,18.1929096Q3.39474183,18.16464132,3.33332238,18.12360215Q3.27190292,18.08256298,3.21966994,18.03033006Q3.16743702,17.97809708,3.12639785,17.91667762Q3.08535868,17.85525817,3.0570904,17.78701252Q3.02882212,17.71876688,3.01441109,17.64631772Q3,17.573868543,3,17.5Q3,17.426131457,3.01441109,17.35368228Q3.02882212,17.28123312,3.0570904,17.21298748Q3.08535868,17.14474183,3.12639785,17.08332238Q3.16743702,17.02190292,3.21966994,16.96966994Q3.27190292,16.91743702,3.33332238,16.87639785Q3.39474183,16.83535868,3.46298748,16.8070904Q3.53123312,16.77882212,3.60368228,16.76441109Q3.676131457,16.75,3.75,16.75Z"
        fill-rule="evenodd" fill="#12B385" fill-opacity="1" style="mix-blend-mode:passthrough" />
    </g>
  </g>
</svg>