<svg xmlns="http://www.w3.org/2000/svg" xmlns:xlink="http://www.w3.org/1999/xlink" fill="none" version="1.1" width="48" height="48" viewBox="0 0 48 48"><defs><clipPath id="master_svg0_353_53861"><rect x="10" y="10" width="28" height="28" rx="0"/></clipPath></defs><g><g><ellipse cx="24" cy="24" rx="24" ry="24" fill="#FFFFFF" fill-opacity="1"/><path d="M48,24Q48,24.589167,47.971088,25.177626Q47.942181,25.766083,47.884434,26.352413Q47.826683,26.938744,47.740234,27.52153Q47.653786,28.104321,47.538841,28.682167Q47.423901,29.260014,47.280746,29.831526Q47.137589,30.403034,46.966568,30.966833Q46.79554,31.530628,46.597054,32.085354Q46.398567,32.640079,46.173103,33.184399Q45.947639,33.728718,45.69574,34.261322Q45.44384,34.793922,45.166107,35.313522Q44.888374,35.833122,44.58548,36.338467Q44.282589,36.843811,43.955265,37.333683Q43.627941,37.823559,43.276978,38.29678Q42.92601,38.770004,42.55225,39.225437Q42.17849,39.680866,41.782829,40.117409Q41.387169,40.553955,40.970562,40.970558Q40.553959,41.387161,40.117416,41.782825Q39.680874,42.178486,39.225445,42.55225Q38.770012,42.92601,38.296787,43.276974Q37.823563,43.627941,37.333687,43.955265Q36.843811,44.282589,36.338467,44.585484Q35.833122,44.888374,35.313526,45.166107Q34.793922,45.44384,34.261322,45.69574Q33.728722,45.947639,33.184402,46.173103Q32.640083,46.398567,32.085358,46.597054Q31.53063,46.79554,30.966835,46.966568Q30.403036,47.137589,29.831524,47.280746Q29.260014,47.423901,28.682167,47.538841Q28.104321,47.653786,27.521532,47.740231Q26.938744,47.826683,26.352413,47.884434Q25.766083,47.942181,25.177624,47.971092Q24.589167,48,24,48Q23.410831,48,22.822372,47.971088Q22.233917,47.942181,21.647587,47.884434Q21.061256,47.826683,20.478466,47.740234Q19.895676,47.653786,19.317829,47.538841Q18.739983,47.423901,18.168472,47.280746Q17.596964,47.137589,17.033167,46.966568Q16.469368,46.79554,15.914642,46.597054Q15.359916,46.398567,14.815597,46.173103Q14.271278,45.947639,13.738677,45.69574Q13.206077,45.44384,12.686478,45.166107Q12.166879,44.888374,11.661533,44.58548Q11.156188,44.282589,10.666313,43.955265Q10.176439,43.627941,9.7032156,43.276978Q9.2299919,42.92601,8.7745609,42.55225Q8.319128,42.17849,7.8825846,41.782829Q7.4460411,41.387169,7.0294371,40.970562Q6.612833,40.553959,6.2171731,40.117416Q5.8215127,39.680874,5.4477491,39.225445Q5.0739851,38.770012,4.7230191,38.296787Q4.3720522,37.823563,4.0447288,37.333687Q3.7174053,36.843811,3.4145129,36.338467Q3.1116209,35.833122,2.8338895,35.313526Q2.5561581,34.793922,2.3042569,34.261322Q2.0523555,33.728722,1.8268911,33.184402Q1.6014266,32.640083,1.4029424,32.085358Q1.204458,31.53063,1.0334319,30.966835Q0.86240578,30.403036,0.71924984,29.831524Q0.57609397,29.260014,0.46115321,28.682167Q0.34621245,28.104321,0.25976375,27.521532Q0.173315,26.938744,0.11556655,26.352413Q0.057818096,25.766083,0.028909048,25.177624Q0,24.589167,0,24Q0,23.410831,0.028909048,22.822372Q0.057818096,22.233917,0.11556655,21.647587Q0.173315,21.061256,0.25976372,20.478466Q0.34621245,19.895676,0.46115321,19.317829Q0.57609397,18.739983,0.71924984,18.168472Q0.86240578,17.596964,1.0334319,17.033167Q1.204458,16.469368,1.4029423,15.914642Q1.6014266,15.359916,1.8268911,14.815597Q2.0523555,14.271278,2.3042569,13.738677Q2.5561583,13.206077,2.8338897,12.686478Q3.1116211,12.166879,3.4145136,11.661533Q3.7174058,11.156188,4.0447292,10.666313Q4.3720531,10.176439,4.7230191,9.7032156Q5.0739856,9.2299919,5.4477491,8.7745609Q5.8215127,8.319128,6.2171726,7.8825846Q6.612833,7.4460411,7.0294371,7.0294371Q7.4460411,6.612833,7.8825846,6.2171731Q8.319128,5.8215127,8.7745609,5.4477491Q9.2299919,5.0739851,9.7032156,4.7230191Q10.176439,4.3720522,10.666313,4.0447288Q11.156188,3.7174053,11.661533,3.4145129Q12.16688,3.1116209,12.68648,2.8338895Q13.206078,2.5561581,13.738678,2.3042569Q14.271278,2.0523555,14.815597,1.8268911Q15.359916,1.6014266,15.914642,1.4029424Q16.469368,1.204458,17.033167,1.0334319Q17.596964,0.86240578,18.168474,0.71924984Q18.739985,0.57609397,19.317831,0.46115321Q19.895676,0.34621245,20.478466,0.25976375Q21.061256,0.173315,21.647587,0.11556655Q22.233917,0.057818096,22.822372,0.028909048Q23.410831,0,24,0Q24.589167,0,25.177626,0.028909048Q25.766083,0.057818096,26.352413,0.11556655Q26.938744,0.173315,27.52153,0.25976372Q28.104321,0.34621245,28.682167,0.46115321Q29.260014,0.57609397,29.831526,0.71924984Q30.403034,0.86240578,30.966833,1.0334319Q31.530628,1.204458,32.085354,1.4029423Q32.640079,1.6014266,33.184399,1.8268911Q33.728718,2.0523555,34.261322,2.3042569Q34.793922,2.5561583,35.313522,2.8338897Q35.833122,3.1116211,36.338467,3.4145136Q36.843811,3.7174058,37.333683,4.0447292Q37.823559,4.3720531,38.29678,4.7230191Q38.770004,5.0739856,39.225437,5.4477491Q39.680866,5.8215127,40.117409,6.2171726Q40.553955,6.612833,40.970558,7.0294371Q41.387161,7.4460411,41.782825,7.8825846Q42.178486,8.319128,42.55225,8.7745609Q42.92601,9.2299919,43.276974,9.7032156Q43.627941,10.176439,43.955265,10.666313Q44.282589,11.156188,44.585484,11.661533Q44.888374,12.16688,45.166107,12.68648Q45.44384,13.206078,45.69574,13.738678Q45.947639,14.271278,46.173103,14.815597Q46.398567,15.359916,46.597054,15.914642Q46.79554,16.469368,46.966568,17.033167Q47.137589,17.596964,47.280746,18.168474Q47.423901,18.739985,47.538841,19.317831Q47.653786,19.895676,47.740231,20.478466Q47.826683,21.061256,47.884434,21.647587Q47.942181,22.233917,47.971092,22.822372Q48,23.410831,48,24ZM47.5,24Q47.5,23.423107,47.471695,22.846909Q47.44339,22.270714,47.386845,21.696598Q47.330296,21.122482,47.245644,20.551834Q47.160995,19.981186,47.04845,19.415377Q46.935905,18.849569,46.795734,18.289965Q46.65556,17.730362,46.488094,17.17831Q46.320633,16.626257,46.126282,16.083088Q45.931934,15.539917,45.711166,15.006938Q45.490398,14.473959,45.243748,13.952454Q44.997093,13.43095,44.725151,12.922176Q44.453201,12.413402,44.15662,11.918585Q43.860039,11.423767,43.539532,10.944098Q43.219028,10.46443,42.875374,10.001066Q42.531723,9.5377026,42.165745,9.0917578Q41.799767,8.6458139,41.41235,8.2183647Q41.024933,7.7909155,40.617008,7.3829904Q40.209084,6.9750657,39.781635,6.5876484Q39.354187,6.2002311,38.908241,5.8342543Q38.462296,5.468277,37.998932,5.1246228Q37.535568,4.7809677,37.055897,4.4604635Q36.576229,4.1399593,36.081409,3.8433774Q35.586594,3.5467954,35.07782,3.2748504Q34.569046,3.0029049,34.047543,2.7562513Q33.526039,2.509598,32.993057,2.2888308Q32.460075,2.0680635,31.916908,1.8737143Q31.373739,1.6793652,30.82169,1.5119021Q30.269636,1.344439,29.710032,1.2042655Q29.150427,1.0640919,28.58462,0.95154583Q28.018812,0.83899969,27.448164,0.75435203Q26.877516,0.66970432,26.303402,0.61315894Q25.729286,0.55661356,25.153091,0.52830678Q24.576893,0.5,24,0.5Q23.423107,0.5,22.846909,0.52830678Q22.270714,0.55661356,21.696598,0.61315894Q21.122482,0.66970432,20.551834,0.75435197Q19.981186,0.83899969,19.415377,0.95154583Q18.849569,1.0640919,18.289965,1.2042655Q17.730362,1.344439,17.17831,1.5119021Q16.626257,1.6793652,16.083088,1.8737142Q15.539917,2.0680635,15.006938,2.2888308Q14.473959,2.509598,13.952454,2.7562516Q13.43095,3.0029049,12.922176,3.2748504Q12.413402,3.5467954,11.918585,3.8433771Q11.423767,4.1399593,10.944098,4.4604635Q10.46443,4.7809677,10.001066,5.1246228Q9.5377026,5.468277,9.0917578,5.8342543Q8.6458139,6.2002311,8.2183647,6.5876484Q7.7909155,6.9750657,7.3829904,7.3829904Q6.9750657,7.7909155,6.5876484,8.2183647Q6.2002311,8.6458139,5.8342543,9.0917578Q5.468277,9.5377026,5.1246228,10.001066Q4.7809677,10.46443,4.4604635,10.944098Q4.1399593,11.423767,3.8433774,11.918584Q3.5467954,12.413402,3.2748504,12.922176Q3.0029049,13.43095,2.7562513,13.952454Q2.509598,14.473959,2.2888308,15.006938Q2.0680635,15.539917,1.8737143,16.083086Q1.6793652,16.626257,1.5119021,17.17831Q1.344439,17.730362,1.2042655,18.289967Q1.0640919,18.849569,0.95154583,19.415377Q0.83899963,19.981186,0.75435197,20.551834Q0.66970426,21.122482,0.61315894,21.696598Q0.55661356,22.270714,0.52830678,22.846909Q0.5,23.423107,0.5,24Q0.5,24.576893,0.52830678,25.15309Q0.55661356,25.729288,0.61315894,26.303404Q0.66970426,26.877518,0.75435197,27.448164Q0.83899963,28.018814,0.95154583,28.584621Q1.0640919,29.150429,1.2042655,29.710032Q1.344439,30.269634,1.5119021,30.821688Q1.6793652,31.373737,1.8737142,31.916908Q2.0680635,32.460075,2.2888308,32.993057Q2.509598,33.526039,2.7562516,34.047543Q3.0029049,34.569046,3.2748504,35.07782Q3.5467954,35.586594,3.8433771,36.081413Q4.1399593,36.576229,4.4604635,37.055897Q4.7809677,37.535568,5.1246228,37.998932Q5.468277,38.462296,5.8342543,38.908241Q6.2002311,39.354183,6.5876484,39.781631Q6.9750657,40.20908,7.3829904,40.617004Q7.7909155,41.024929,8.2183647,41.412346Q8.6458139,41.799767,9.0917578,42.165745Q9.5377026,42.531723,10.001066,42.875374Q10.46443,43.219028,10.944098,43.539532Q11.423767,43.860039,11.918584,44.156616Q12.413402,44.453201,12.922176,44.725147Q13.43095,44.997093,13.952454,45.243744Q14.473959,45.490398,15.006938,45.711166Q15.539917,45.931934,16.083086,46.126286Q16.626257,46.320633,17.17831,46.488098Q17.730362,46.655563,18.289967,46.795738Q18.849569,46.935905,19.415377,47.048454Q19.981186,47.160999,20.551834,47.245651Q21.122482,47.330299,21.696598,47.386845Q22.270714,47.44339,22.846909,47.471695Q23.423107,47.5,24,47.5Q24.576893,47.5,25.15309,47.471695Q25.729288,47.44339,26.303404,47.386845Q26.877518,47.330296,27.448164,47.245644Q28.018814,47.160995,28.584621,47.04845Q29.150429,46.935905,29.710032,46.795734Q30.269634,46.65556,30.821688,46.488094Q31.373737,46.320633,31.916908,46.126282Q32.460075,45.931934,32.993057,45.711166Q33.526039,45.490398,34.047543,45.243748Q34.569046,44.997093,35.07782,44.725151Q35.586594,44.453201,36.081413,44.15662Q36.576229,43.860039,37.055897,43.539532Q37.535568,43.219028,37.998932,42.875374Q38.462296,42.531723,38.908241,42.165745Q39.354183,41.799767,39.781631,41.41235Q40.20908,41.024933,40.617004,40.617008Q41.024929,40.209084,41.412346,39.781635Q41.799767,39.354187,42.165745,38.908241Q42.531723,38.462296,42.875374,37.998932Q43.219028,37.535568,43.539532,37.055897Q43.860039,36.576229,44.156616,36.081409Q44.453201,35.586594,44.725147,35.07782Q44.997093,34.569046,45.243744,34.047543Q45.490398,33.526039,45.711166,32.993057Q45.931934,32.460075,46.126286,31.916908Q46.320633,31.373739,46.488098,30.82169Q46.655563,30.269636,46.795738,29.710032Q46.935905,29.150427,47.048454,28.58462Q47.160999,28.018812,47.245651,27.448164Q47.330299,26.877516,47.386845,26.303402Q47.44339,25.729286,47.471695,25.153091Q47.5,24.576893,47.5,24Z" fill="#C2E8DE" fill-opacity="1"/></g><g clip-path="url(#master_svg0_353_53861)"><g><path d="M26.6000009,17.002561593750002L26.6000009,17.00348809375Q26.6000004,17.09212969375,26.6172938,17.17906899375Q26.6345868,17.26600789375,26.6685085,17.347902793750002Q26.702430200000002,17.42979769375,26.7516775,17.50350089375Q26.8009243,17.577204693749998,26.8636041,17.63988399375Q26.9262834,17.70256329375,26.9999866,17.75181009375Q27.0736895,17.80105729375,27.1555843,17.834979493749998Q27.2374792,17.86890129375,27.324419,17.88619469375Q27.4113579,17.90348819375,27.5000005,17.90348819375Q27.5886426,17.90348819375,27.6755815,17.886195193749998Q27.7625198,17.86890129375,27.8444147,17.834979493749998Q27.9263096,17.80105729375,28.0000124,17.75181059375Q28.0737162,17.70256329375,28.1363955,17.63988399375Q28.1990747,17.577204693749998,28.248322,17.50350089375Q28.2975693,17.42979769375,28.331491,17.347902793750002Q28.3654127,17.26600789375,28.3827066,17.17906899375Q28.4000001,17.09212969375,28.4000006,17.00348809375L28.4000001,17.002561593750002L28.4000001,15.83349629375Q28.4000001,14.01095649375,27.111268,12.72222539375Q25.8225365,11.43349576375,24.0000002,11.43349564375Q22.1774637,11.43349605375,20.88873252,12.72222560375Q19.60000008,14.01095649375,19.59999996,15.83349629375L19.59999996,23.963530093750002Q19.60000002,24.052172093750002,19.6172933,24.13911009375Q19.63458651,24.22604909375,19.66850847,24.307943093749998Q19.70243037,24.38983909375,19.75167739,24.463543093749998Q19.80092442,24.53724709375,19.86360395,24.59992609375Q19.92628348,24.662605093750003,19.99998683,24.71185209375Q20.07369015,24.761099093749998,20.15558493,24.79502009375Q20.23747969,24.82894309375,20.32441872,24.84623609375Q20.411357738,24.86352909375,20.5,24.86353009375Q20.588642262,24.86352909375,20.67558128,24.84623609375Q20.76252031,24.82894309375,20.84441507,24.79502009375Q20.92630985,24.76109809375,21.00001323,24.71185109375Q21.07371652,24.66260309375,21.13639605,24.599925093750002Q21.19907558,24.537245093750002,21.24832255,24.46354209375Q21.29756957,24.38983809375,21.33149147,24.307943093749998Q21.36541343,24.22604909375,21.38270664,24.13911009375Q21.39999992,24.052172093750002,21.39999998,23.963530093750002L21.40000004,15.83349629375Q21.40000004,14.75654149375,22.1615239,13.995018493749999Q22.923047099999998,13.23349613375,24.0000002,13.23349571375Q25.0769534,13.23349589375,25.8384767,13.99501829375Q26.6000009,14.75654149375,26.6000009,15.83349629375L26.6000009,17.002561593750002Z" fill-rule="evenodd" fill="#30B690" fill-opacity="1" style="mix-blend-mode:passthrough"/></g><g><path d="M28.4000001,24.003123713945L28.4000001,32.166822465625Q28.4000001,33.989356965625,27.111268,35.278090265624996Q25.822536,36.566823265625004,24.0000002,36.566823265625004Q22.1774645,36.566823265625004,20.88873208,35.278090265624996Q19.59999996,33.989356965625,19.59999996,32.166822465625L19.59999996,30.982654565625Q19.60000002,30.894011965625,19.6172933,30.807072665625Q19.63458651,30.720133765625,19.66850847,30.638238865625Q19.70243037,30.556344065624998,19.75167739,30.482640765625Q19.80092442,30.408937465625,19.86360395,30.346258165625Q19.92628348,30.283578365625,19.99998683,30.234331165625Q20.07369015,30.185084365625002,20.15558493,30.151162665625Q20.23747969,30.117240865625,20.32441872,30.099947465625Q20.411357738,30.082654465624998,20.5,30.082654465624998Q20.588642262,30.082654465624998,20.67558128,30.099947465625Q20.76252031,30.117240465625,20.84441507,30.151162165625Q20.92630985,30.185083865625,21.00001323,30.234331165625Q21.07371652,30.283577965625,21.13639605,30.346257665625Q21.19907558,30.408936965625,21.24832255,30.482640265625Q21.29756957,30.556344065624998,21.33149147,30.638238865625Q21.36541343,30.720133765625,21.38270664,30.807072665625Q21.39999992,30.894011965625,21.39999998,30.982654565625L21.40000004,32.166822465625Q21.40000004,33.243774365625,22.1615245,34.005298265625Q22.9230487,34.766824265625004,24.0000002,34.766824265625004Q25.0769515,34.766824265625004,25.8384762,34.005298265625Q26.6000009,33.243774365625,26.6000009,32.166822465625L26.6000009,24.002197265625Q26.6000004,23.913555003625,26.6172938,23.826615985625Q26.6345868,23.739676955625,26.6685085,23.657782195625Q26.702430200000002,23.575887415625,26.7516775,23.502184035625Q26.8009243,23.428480745625,26.8636041,23.365801215625Q26.9262834,23.303121685625,26.9999866,23.253874715625Q27.0736895,23.204627695625,27.1555843,23.170705795625Q27.2374792,23.136783835625,27.324419,23.119490625625Q27.4113579,23.102197345625,27.5000005,23.102197285625Q27.5886426,23.102197345625,27.6755815,23.119490625625Q27.7625198,23.136783835625,27.8444147,23.170705795625Q27.9263096,23.204627695625,28.0000124,23.253874655625Q28.0737162,23.303121685625,28.1363955,23.365801215625Q28.1990747,23.428480745625,28.248322,23.502184095625Q28.2975693,23.575887415625,28.331491,23.657782195625Q28.3654127,23.739676955625,28.3827066,23.826615985625Q28.4000001,23.913555003625,28.4000006,24.002197265625L28.4000001,24.003123713945Z" fill-rule="evenodd" fill="#30B690" fill-opacity="1" style="mix-blend-mode:passthrough"/></g><g><path d="M15.824738775,21.40000004L16.994001375,21.40000004Q17.082643475,21.39999998,17.169582375,21.3827067Q17.256521175,21.36541349,17.338416074999998,21.33149153Q17.420310975,21.29756963,17.494014274999998,21.24832261Q17.567717575,21.19907558,17.630396875,21.13639605Q17.693076175,21.07371652,17.742323374999998,21.00001317Q17.791570175,20.92630985,17.825492375,20.84441507Q17.859414075,20.76252031,17.876708075,20.67558128Q17.894000975,20.588642262,17.894001475,20.5Q17.894000975,20.411357738,17.876708075,20.32441872Q17.859415075,20.23747969,17.825492875000002,20.15558493Q17.791570675,20.07369015,17.742323875,19.99998677Q17.693076575,19.92628348,17.630397275,19.86360395Q17.567717575,19.80092442,17.494014775,19.75167745Q17.420310975,19.70243043,17.338416074999998,19.66850853Q17.256521175,19.63458657,17.169582375,19.61729336Q17.082643475,19.60000008,16.994001375,19.60000002L15.824738775,19.59999996Q14.005330075,19.59999996,12.719163715,20.88957489Q11.433984165,22.1781605,11.433983925,24.0000002Q11.433984335,25.8218398,12.719163805,27.110425499999998Q14.005329875,28.4000001,15.824738775,28.4000001L24.000652375,28.4000001Q24.089294375,28.3999996,24.176233375000002,28.3827066Q24.263172375,28.3654127,24.345066375000002,28.331491Q24.426961374999998,28.2975693,24.500663375000002,28.2483225Q24.574367375,28.1990752,24.637047375,28.1363959Q24.699727375000002,28.0737162,24.748973375,28.0000129Q24.798219375000002,27.9263096,24.832142375,27.8444147Q24.866064375,27.7625198,24.883358375,27.675581Q24.900652375,27.5886426,24.900652375,27.5000005Q24.900652375,27.4113579,24.883358375,27.3244181Q24.866064375,27.2374792,24.832142375,27.1555843Q24.798219375000002,27.0736895,24.748973375,26.9999866Q24.699726374999997,26.9262829,24.637046375,26.8636036Q24.574367375,26.8009243,24.500663375000002,26.751677Q24.426960375,26.702430200000002,24.345066375000002,26.6685085Q24.263172375,26.6345868,24.176233375000002,26.6172938Q24.089294375,26.6000004,24.000652375,26.6000004L23.999726375,26.6000009L15.824738775,26.6000009Q14.752310075,26.6000009,13.993639275,25.8393192Q13.233984415,25.077651,13.233983995,24.0000002Q13.233984175,22.9223502,13.993639275,22.1606817Q14.752310475,21.40000004,15.824738775,21.40000004Z" fill-rule="evenodd" fill="#30B690" fill-opacity="1" style="mix-blend-mode:passthrough"/></g><g><path d="M31.0396018,26.6000009L31.0386753,26.6000009Q30.9500327,26.6000004,30.8630934,26.6172938Q30.7761545,26.6345868,30.6942596,26.6685085Q30.6123648,26.702430200000002,30.5386615,26.7516775Q30.464958199999998,26.8009243,30.4022789,26.8636041Q30.3395987,26.9262834,30.2903519,26.9999866Q30.2411046,27.0736895,30.2071829,27.1555843Q30.1732612,27.2374792,30.155967699999998,27.324419Q30.1386747,27.4113579,30.1386752,27.5000005Q30.1386747,27.5886426,30.1559682,27.6755815Q30.1732616,27.7625198,30.207183399999998,27.8444147Q30.2411051,27.9263096,30.2903519,28.0000124Q30.3395987,28.0737162,30.4022789,28.1363955Q30.464958199999998,28.1990747,30.5386615,28.248322Q30.6123648,28.2975693,30.6942596,28.331491Q30.7761545,28.3654127,30.8630939,28.3827066Q30.9500327,28.4000001,31.0386753,28.4000006L31.0396018,28.4000001L32.160134299999996,28.4000001Q33.98489,28.4000001,35.275433,27.1118608Q36.566668,25.8230286,36.566668,24.0000002Q36.566668,22.1769714,35.275433,20.888139549999998Q33.98489,19.60000008,32.160134299999996,19.59999996L24,19.59999996Q23.911357738,19.60000002,23.82441872,19.6172933Q23.73747969,19.63458651,23.65558493,19.66850847Q23.57369015,19.70243037,23.49998677,19.75167739Q23.42628348,19.80092442,23.36360395,19.86360395Q23.30092442,19.92628348,23.25167745,19.99998683Q23.20243043,20.07369015,23.16850853,20.15558493Q23.13458657,20.23747969,23.11729336,20.32441872Q23.10000008,20.411357738,23.10000002,20.5Q23.10000008,20.588642262,23.11729336,20.67558128Q23.13458657,20.76252031,23.16850853,20.84441507Q23.20243043,20.92630985,23.25167739,21.00001323Q23.30092442,21.07371652,23.36360395,21.13639605Q23.42628348,21.19907558,23.49998683,21.24832255Q23.57369015,21.29756957,23.65558493,21.33149147Q23.73747969,21.36541343,23.82441872,21.38270664Q23.911357738,21.39999992,24,21.39999998L32.160134299999996,21.40000004Q33.240287800000004,21.40000004,34.003826000000004,22.162117Q34.766667999999996,22.9235389,34.766667999999996,24.0000002Q34.766667999999996,25.0764613,34.003826000000004,25.8378839Q33.240287800000004,26.6000009,32.160134299999996,26.6000009L31.0396018,26.6000009Z" fill-rule="evenodd" fill="#30B690" fill-opacity="1" style="mix-blend-mode:passthrough"/></g></g></g></svg>