<svg xmlns="http://www.w3.org/2000/svg" xmlns:xlink="http://www.w3.org/1999/xlink" fill="none" version="1.1" width="48" height="48" viewBox="0 0 48 48"><defs><clipPath id="master_svg0_353_49952"><rect x="9.230769157409668" y="9.230769157409668" width="29.538461685180664" height="29.538461685180664" rx="0"/></clipPath></defs><g><g><ellipse cx="24" cy="24" rx="24" ry="24" fill="#FFFFFF" fill-opacity="1"/><path d="M48,24Q48,24.589167,47.971088,25.177626Q47.942181,25.766083,47.884434,26.352413Q47.826683,26.938744,47.740234,27.52153Q47.653786,28.104321,47.538841,28.682167Q47.423901,29.260014,47.280746,29.831526Q47.137589,30.403034,46.966568,30.966833Q46.79554,31.530628,46.597054,32.085354Q46.398567,32.640079,46.173103,33.184399Q45.947639,33.728718,45.69574,34.261322Q45.44384,34.793922,45.166107,35.313522Q44.888374,35.833122,44.58548,36.338467Q44.282589,36.843811,43.955265,37.333683Q43.627941,37.823559,43.276978,38.29678Q42.92601,38.770004,42.55225,39.225437Q42.17849,39.680866,41.782829,40.117409Q41.387169,40.553955,40.970562,40.970558Q40.553959,41.387161,40.117416,41.782825Q39.680874,42.178486,39.225445,42.55225Q38.770012,42.92601,38.296787,43.276974Q37.823563,43.627941,37.333687,43.955265Q36.843811,44.282589,36.338467,44.585484Q35.833122,44.888374,35.313526,45.166107Q34.793922,45.44384,34.261322,45.69574Q33.728722,45.947639,33.184402,46.173103Q32.640083,46.398567,32.085358,46.597054Q31.53063,46.79554,30.966835,46.966568Q30.403036,47.137589,29.831524,47.280746Q29.260014,47.423901,28.682167,47.538841Q28.104321,47.653786,27.521532,47.740231Q26.938744,47.826683,26.352413,47.884434Q25.766083,47.942181,25.177624,47.971092Q24.589167,48,24,48Q23.410831,48,22.822372,47.971088Q22.233917,47.942181,21.647587,47.884434Q21.061256,47.826683,20.478466,47.740234Q19.895676,47.653786,19.317829,47.538841Q18.739983,47.423901,18.168472,47.280746Q17.596964,47.137589,17.033167,46.966568Q16.469368,46.79554,15.914642,46.597054Q15.359916,46.398567,14.815597,46.173103Q14.271278,45.947639,13.738677,45.69574Q13.206077,45.44384,12.686478,45.166107Q12.166879,44.888374,11.661533,44.58548Q11.156188,44.282589,10.666313,43.955265Q10.176439,43.627941,9.7032156,43.276978Q9.2299919,42.92601,8.7745609,42.55225Q8.319128,42.17849,7.8825846,41.782829Q7.4460411,41.387169,7.0294371,40.970562Q6.612833,40.553959,6.2171731,40.117416Q5.8215127,39.680874,5.4477491,39.225445Q5.0739851,38.770012,4.7230191,38.296787Q4.3720522,37.823563,4.0447288,37.333687Q3.7174053,36.843811,3.4145129,36.338467Q3.1116209,35.833122,2.8338895,35.313526Q2.5561581,34.793922,2.3042569,34.261322Q2.0523555,33.728722,1.8268911,33.184402Q1.6014266,32.640083,1.4029424,32.085358Q1.204458,31.53063,1.0334319,30.966835Q0.86240578,30.403036,0.71924984,29.831524Q0.57609397,29.260014,0.46115321,28.682167Q0.34621245,28.104321,0.25976375,27.521532Q0.173315,26.938744,0.11556655,26.352413Q0.057818096,25.766083,0.028909048,25.177624Q0,24.589167,0,24Q0,23.410831,0.028909048,22.822372Q0.057818096,22.233917,0.11556655,21.647587Q0.173315,21.061256,0.25976372,20.478466Q0.34621245,19.895676,0.46115321,19.317829Q0.57609397,18.739983,0.71924984,18.168472Q0.86240578,17.596964,1.0334319,17.033167Q1.204458,16.469368,1.4029423,15.914642Q1.6014266,15.359916,1.8268911,14.815597Q2.0523555,14.271278,2.3042569,13.738677Q2.5561583,13.206077,2.8338897,12.686478Q3.1116211,12.166879,3.4145136,11.661533Q3.7174058,11.156188,4.0447292,10.666313Q4.3720531,10.176439,4.7230191,9.7032156Q5.0739856,9.2299919,5.4477491,8.7745609Q5.8215127,8.319128,6.2171726,7.8825846Q6.612833,7.4460411,7.0294371,7.0294371Q7.4460411,6.612833,7.8825846,6.2171731Q8.319128,5.8215127,8.7745609,5.4477491Q9.2299919,5.0739851,9.7032156,4.7230191Q10.176439,4.3720522,10.666313,4.0447288Q11.156188,3.7174053,11.661533,3.4145129Q12.16688,3.1116209,12.68648,2.8338895Q13.206078,2.5561581,13.738678,2.3042569Q14.271278,2.0523555,14.815597,1.8268911Q15.359916,1.6014266,15.914642,1.4029424Q16.469368,1.204458,17.033167,1.0334319Q17.596964,0.86240578,18.168474,0.71924984Q18.739985,0.57609397,19.317831,0.46115321Q19.895676,0.34621245,20.478466,0.25976375Q21.061256,0.173315,21.647587,0.11556655Q22.233917,0.057818096,22.822372,0.028909048Q23.410831,0,24,0Q24.589167,0,25.177626,0.028909048Q25.766083,0.057818096,26.352413,0.11556655Q26.938744,0.173315,27.52153,0.25976372Q28.104321,0.34621245,28.682167,0.46115321Q29.260014,0.57609397,29.831526,0.71924984Q30.403034,0.86240578,30.966833,1.0334319Q31.530628,1.204458,32.085354,1.4029423Q32.640079,1.6014266,33.184399,1.8268911Q33.728718,2.0523555,34.261322,2.3042569Q34.793922,2.5561583,35.313522,2.8338897Q35.833122,3.1116211,36.338467,3.4145136Q36.843811,3.7174058,37.333683,4.0447292Q37.823559,4.3720531,38.29678,4.7230191Q38.770004,5.0739856,39.225437,5.4477491Q39.680866,5.8215127,40.117409,6.2171726Q40.553955,6.612833,40.970558,7.0294371Q41.387161,7.4460411,41.782825,7.8825846Q42.178486,8.319128,42.55225,8.7745609Q42.92601,9.2299919,43.276974,9.7032156Q43.627941,10.176439,43.955265,10.666313Q44.282589,11.156188,44.585484,11.661533Q44.888374,12.16688,45.166107,12.68648Q45.44384,13.206078,45.69574,13.738678Q45.947639,14.271278,46.173103,14.815597Q46.398567,15.359916,46.597054,15.914642Q46.79554,16.469368,46.966568,17.033167Q47.137589,17.596964,47.280746,18.168474Q47.423901,18.739985,47.538841,19.317831Q47.653786,19.895676,47.740231,20.478466Q47.826683,21.061256,47.884434,21.647587Q47.942181,22.233917,47.971092,22.822372Q48,23.410831,48,24ZM47.5,24Q47.5,23.423107,47.471695,22.846909Q47.44339,22.270714,47.386845,21.696598Q47.330296,21.122482,47.245644,20.551834Q47.160995,19.981186,47.04845,19.415377Q46.935905,18.849569,46.795734,18.289965Q46.65556,17.730362,46.488094,17.17831Q46.320633,16.626257,46.126282,16.083088Q45.931934,15.539917,45.711166,15.006938Q45.490398,14.473959,45.243748,13.952454Q44.997093,13.43095,44.725151,12.922176Q44.453201,12.413402,44.15662,11.918585Q43.860039,11.423767,43.539532,10.944098Q43.219028,10.46443,42.875374,10.001066Q42.531723,9.5377026,42.165745,9.0917578Q41.799767,8.6458139,41.41235,8.2183647Q41.024933,7.7909155,40.617008,7.3829904Q40.209084,6.9750657,39.781635,6.5876484Q39.354187,6.2002311,38.908241,5.8342543Q38.462296,5.468277,37.998932,5.1246228Q37.535568,4.7809677,37.055897,4.4604635Q36.576229,4.1399593,36.081409,3.8433774Q35.586594,3.5467954,35.07782,3.2748504Q34.569046,3.0029049,34.047543,2.7562513Q33.526039,2.509598,32.993057,2.2888308Q32.460075,2.0680635,31.916908,1.8737143Q31.373739,1.6793652,30.82169,1.5119021Q30.269636,1.344439,29.710032,1.2042655Q29.150427,1.0640919,28.58462,0.95154583Q28.018812,0.83899969,27.448164,0.75435203Q26.877516,0.66970432,26.303402,0.61315894Q25.729286,0.55661356,25.153091,0.52830678Q24.576893,0.5,24,0.5Q23.423107,0.5,22.846909,0.52830678Q22.270714,0.55661356,21.696598,0.61315894Q21.122482,0.66970432,20.551834,0.75435197Q19.981186,0.83899969,19.415377,0.95154583Q18.849569,1.0640919,18.289965,1.2042655Q17.730362,1.344439,17.17831,1.5119021Q16.626257,1.6793652,16.083088,1.8737142Q15.539917,2.0680635,15.006938,2.2888308Q14.473959,2.509598,13.952454,2.7562516Q13.43095,3.0029049,12.922176,3.2748504Q12.413402,3.5467954,11.918585,3.8433771Q11.423767,4.1399593,10.944098,4.4604635Q10.46443,4.7809677,10.001066,5.1246228Q9.5377026,5.468277,9.0917578,5.8342543Q8.6458139,6.2002311,8.2183647,6.5876484Q7.7909155,6.9750657,7.3829904,7.3829904Q6.9750657,7.7909155,6.5876484,8.2183647Q6.2002311,8.6458139,5.8342543,9.0917578Q5.468277,9.5377026,5.1246228,10.001066Q4.7809677,10.46443,4.4604635,10.944098Q4.1399593,11.423767,3.8433774,11.918584Q3.5467954,12.413402,3.2748504,12.922176Q3.0029049,13.43095,2.7562513,13.952454Q2.509598,14.473959,2.2888308,15.006938Q2.0680635,15.539917,1.8737143,16.083086Q1.6793652,16.626257,1.5119021,17.17831Q1.344439,17.730362,1.2042655,18.289967Q1.0640919,18.849569,0.95154583,19.415377Q0.83899963,19.981186,0.75435197,20.551834Q0.66970426,21.122482,0.61315894,21.696598Q0.55661356,22.270714,0.52830678,22.846909Q0.5,23.423107,0.5,24Q0.5,24.576893,0.52830678,25.15309Q0.55661356,25.729288,0.61315894,26.303404Q0.66970426,26.877518,0.75435197,27.448164Q0.83899963,28.018814,0.95154583,28.584621Q1.0640919,29.150429,1.2042655,29.710032Q1.344439,30.269634,1.5119021,30.821688Q1.6793652,31.373737,1.8737142,31.916908Q2.0680635,32.460075,2.2888308,32.993057Q2.509598,33.526039,2.7562516,34.047543Q3.0029049,34.569046,3.2748504,35.07782Q3.5467954,35.586594,3.8433771,36.081413Q4.1399593,36.576229,4.4604635,37.055897Q4.7809677,37.535568,5.1246228,37.998932Q5.468277,38.462296,5.8342543,38.908241Q6.2002311,39.354183,6.5876484,39.781631Q6.9750657,40.20908,7.3829904,40.617004Q7.7909155,41.024929,8.2183647,41.412346Q8.6458139,41.799767,9.0917578,42.165745Q9.5377026,42.531723,10.001066,42.875374Q10.46443,43.219028,10.944098,43.539532Q11.423767,43.860039,11.918584,44.156616Q12.413402,44.453201,12.922176,44.725147Q13.43095,44.997093,13.952454,45.243744Q14.473959,45.490398,15.006938,45.711166Q15.539917,45.931934,16.083086,46.126286Q16.626257,46.320633,17.17831,46.488098Q17.730362,46.655563,18.289967,46.795738Q18.849569,46.935905,19.415377,47.048454Q19.981186,47.160999,20.551834,47.245651Q21.122482,47.330299,21.696598,47.386845Q22.270714,47.44339,22.846909,47.471695Q23.423107,47.5,24,47.5Q24.576893,47.5,25.15309,47.471695Q25.729288,47.44339,26.303404,47.386845Q26.877518,47.330296,27.448164,47.245644Q28.018814,47.160995,28.584621,47.04845Q29.150429,46.935905,29.710032,46.795734Q30.269634,46.65556,30.821688,46.488094Q31.373737,46.320633,31.916908,46.126282Q32.460075,45.931934,32.993057,45.711166Q33.526039,45.490398,34.047543,45.243748Q34.569046,44.997093,35.07782,44.725151Q35.586594,44.453201,36.081413,44.15662Q36.576229,43.860039,37.055897,43.539532Q37.535568,43.219028,37.998932,42.875374Q38.462296,42.531723,38.908241,42.165745Q39.354183,41.799767,39.781631,41.41235Q40.20908,41.024933,40.617004,40.617008Q41.024929,40.209084,41.412346,39.781635Q41.799767,39.354187,42.165745,38.908241Q42.531723,38.462296,42.875374,37.998932Q43.219028,37.535568,43.539532,37.055897Q43.860039,36.576229,44.156616,36.081409Q44.453201,35.586594,44.725147,35.07782Q44.997093,34.569046,45.243744,34.047543Q45.490398,33.526039,45.711166,32.993057Q45.931934,32.460075,46.126286,31.916908Q46.320633,31.373739,46.488098,30.82169Q46.655563,30.269636,46.795738,29.710032Q46.935905,29.150427,47.048454,28.58462Q47.160999,28.018812,47.245651,27.448164Q47.330299,26.877516,47.386845,26.303402Q47.44339,25.729286,47.471695,25.153091Q47.5,24.576893,47.5,24Z" fill="#C2E8DE" fill-opacity="1"/></g><g clip-path="url(#master_svg0_353_49952)"><g><path d="M14.538386344909668,32.00022759490967Q14.538386744909667,29.307917594909668,17.230693844909666,29.307917594909668L30.769156344909668,29.307917594909668Q30.867648344909668,29.307917594909668,30.964245344909667,29.28870259490967Q31.060843344909667,29.269488594909667,31.15183734490967,29.231795594909666Q31.242831344909668,29.194104594909668,31.32472534490967,29.139384594909668Q31.406619344909668,29.084666594909667,31.476262344909667,29.015023594909668Q31.545905344909666,28.945378594909666,31.60062534490967,28.863486594909666Q31.655343344909667,28.781592594909668,31.69303434490967,28.690600594909668Q31.730727344909667,28.599604594909668,31.74994134490967,28.503006594909667Q31.769156344909668,28.406409594909668,31.769156344909668,28.307917594909668L31.769156344909668,12.307917594909668Q31.769156344909668,12.209426194909668,31.74994134490967,12.112827284909669Q31.730727344909667,12.016228374909668,31.69303434490967,11.925234194909669Q31.655343344909667,11.834240014909668,31.60062534490967,11.752347464909668Q31.545905344909666,11.670454854909668,31.476262344909667,11.600810884909668Q31.406619344909668,11.531166974909668,31.32472534490967,11.476448114909669Q31.242831344909668,11.421729204909667,31.15183734490967,11.384038154909668Q31.060843344909667,11.346347094909667,30.964245344909667,11.327132404909667Q30.867648344909668,11.307917654909668,30.769156344909668,11.307917594909668L17.230693844909666,11.307917194909669Q15.287075744909668,11.307917194909669,13.912730934909668,12.682262124909668Q12.538386344909668,14.056606794909667,12.538386344909668,16.000225494909667L12.538386344909668,32.00022759490967Q12.538386404909668,32.09871959490967,12.557601154909667,32.19531759490967Q12.576815904909669,32.29191459490967,12.614506964909667,32.38290659490967Q12.652197954909667,32.47390259490967,12.706916804909667,32.555796594909665Q12.761635724909668,32.63768859490967,12.831279634909668,32.70733359490967Q12.900923604909668,32.77697659490967,12.982816154909669,32.83169459490966Q13.064708764909668,32.88641259490967,13.155702944909669,32.92410559490967Q13.246697124909668,32.96179659490967,13.343296034909669,32.98101159490967Q13.439894944909668,33.00022759490967,13.538386344909668,33.00022759490967Q13.636877744909668,33.00022759490967,13.733476654909667,32.98101359490967Q13.830075564909668,32.96179659490967,13.921069744909667,32.92410559490967Q14.012063924909668,32.88641259490967,14.093956474909668,32.83169459490966Q14.175849084909668,32.77697659490967,14.245493054909668,32.70733359490967Q14.315136964909668,32.63768859490967,14.369855824909667,32.555796594909665Q14.424574734909669,32.47390259490967,14.462265784909668,32.382908594909665Q14.499956844909669,32.29191459490967,14.519171534909669,32.19531759490967Q14.538386284909668,32.09871959490967,14.538386344909668,32.00022759490967ZM23.525904644909666,27.307917594909668L17.230693844909666,27.307917594909668Q15.711789144909668,27.307917594909668,14.538386344909668,28.151052594909668L14.538386344909668,16.000225494909667Q14.538386344909668,13.307917294909668,17.230693844909666,13.307917294909668L29.769156344909668,13.307917594909668L29.769156344909668,27.307917594909668L23.525904644909666,27.307917594909668Z" fill-rule="evenodd" fill="#30B690" fill-opacity="1" style="mix-blend-mode:passthrough"/></g><g><path d="M33.46146334490967,13.538386344909668Q33.46146334490967,13.439894944909668,33.48067534490967,13.343296034909669Q33.49989034490967,13.246697124909668,33.53758134490967,13.155702944909669Q33.57527034490967,13.064708764909668,33.62999234490967,12.982816214909668Q33.68471034490967,12.900923604909668,33.75435534490967,12.831279634909668Q33.82400034490966,12.761635724909668,33.905890344909665,12.706916864909669Q33.98778434490967,12.652197954909667,34.07877634490967,12.614506904909668Q34.16977234490967,12.576815844909667,34.26637134490967,12.557601154909667Q34.36297134490967,12.538386404909668,34.46146334490967,12.538386344909668Q34.55995234490967,12.538386404909668,34.65655034490967,12.557601154909667Q34.75315034490967,12.576815904909669,34.844144344909665,12.614506964909667Q34.93513734490966,12.652197954909667,35.01702934490967,12.706916804909667Q35.098923344909664,12.761635724909668,35.16856834490967,12.831279634909668Q35.23821134490967,12.900923604909668,35.29293134490967,12.982816154909669Q35.34764934490967,13.064708764909668,35.385340344909665,13.155702944909669Q35.42303134490967,13.246697124909668,35.44224634490967,13.343296034909669Q35.46146334490967,13.439894944909668,35.46146334490967,13.538386344909668L35.46146334490967,35.69223334490967Q35.46146334490967,35.79072434490967,35.44224834490967,35.88732034490967Q35.42303134490967,35.98392034490966,35.385340344909665,36.07491434490967Q35.34764934490967,36.16590834490967,35.292929344909666,36.24780134490967Q35.23821134490967,36.32969334490967,35.16856834490967,36.399338344909665Q35.098923344909664,36.468981344909665,35.01703134490967,36.52370134490967Q34.93513734490966,36.57841934490967,34.844144344909665,36.61611034490967Q34.75315034490967,36.65380034490967,34.65655034490967,36.67301434490967Q34.55995234490967,36.69223334490967,34.46146334490967,36.69223334490967L17.230693844909666,36.69223334490967Q15.287076844909668,36.69223334490967,13.912730394909667,35.31788534490967Q12.538386344909668,33.94353734490967,12.538386344909668,31.99992434490967Q12.538386344909668,30.05631134490967,13.912730694909667,28.68196534490967Q15.287077344909669,27.30761834490967,17.230693844909666,27.30761834490967L30.769156344909668,27.30761834490967Q30.867648344909668,27.307617344909666,30.964245344909667,27.326831344909667Q31.060843344909667,27.34604534490967,31.15183734490967,27.383736344909668Q31.242831344909668,27.421427344909667,31.32472534490967,27.476145344909668Q31.406615344909667,27.530865344909667,31.47626034490967,27.60051034490967Q31.545905344909666,27.670153344909668,31.600623344909668,27.75204634490967Q31.65534134490967,27.833937344909668,31.693032344909668,27.924932344909667Q31.730723344909666,28.015926344909666,31.74993834490967,28.11252534490967Q31.769152344909667,28.209124344909668,31.76915434490967,28.307617344909666Q31.769152344909667,28.40610834490967,31.74993834490967,28.50270634490967Q31.730723344909666,28.59930434490967,31.693032344909668,28.690298344909667Q31.65534134490967,28.78129134490967,31.600623344909668,28.863185344909667Q31.545905344909666,28.94507734490967,31.47626034490967,29.014722344909668Q31.406615344909667,29.08436534490967,31.324723344909668,29.13908434490967Q31.242831344909668,29.19380234490967,31.151835344909667,29.23149434490967Q31.060843344909667,29.269185344909666,30.96424434490967,29.288401344909666Q30.86764634490967,29.30761634490967,30.76915434490967,29.307617344909666L23.984628344909666,29.30761834490967L17.230693844909666,29.30761834490967Q14.538386344909668,29.30761834490967,14.538386344909668,31.99992434490967Q14.538386344909668,34.69223334490967,17.230693844909666,34.69223334490967L33.46146334490967,34.69223334490967L33.46146334490967,13.538386344909668Z" fill-rule="evenodd" fill="#30B690" fill-opacity="1" style="mix-blend-mode:passthrough"/></g><g><path d="M17.846491813659668,30.999812126159668L30.15418481365967,30.999812126159668Q30.252674813659667,30.99981218615967,30.34927481365967,31.01902693615967Q30.445871813659668,31.03824168615967,30.536866813659667,31.07593274615967Q30.62785981365967,31.113623736159667,30.70975281365967,31.168342586159667Q30.79164581365967,31.223061506159667,30.861290813659668,31.292705416159666Q30.930933813659667,31.362349386159668,30.98565281365967,31.444241936159667Q31.040371813659668,31.526134546159668,31.078061813659666,31.617128726159667Q31.115752813659668,31.70812290615967,31.13496881365967,31.804721816159667Q31.154183813659667,31.901320726159668,31.15418481365967,31.999812126159668Q31.154183813659667,32.09830352615967,31.13496881365967,32.194902436159666Q31.115753813659666,32.29150134615967,31.07806281365967,32.382495526159666Q31.040371813659668,32.47348970615967,30.98565281365967,32.55538225615967Q30.930933813659667,32.637274866159665,30.861290813659668,32.706918836159666Q30.79164581365967,32.77656274615967,30.709753813659667,32.83128160615967Q30.62785981365967,32.88600051615967,30.536866813659667,32.92369156615967Q30.445871813659668,32.96138262615967,30.34927481365967,32.98059731615967Q30.252674813659667,32.99981206615967,30.15418481365967,32.99981212615967L17.846491813659668,32.99981212615967Q17.748000413659668,32.99981206615967,17.651401503659667,32.98059731615967Q17.55480259365967,32.96138256615967,17.463808413659667,32.92369150615967Q17.372814233659668,32.88600051615967,17.29092168365967,32.83128166615967Q17.209029073659668,32.77656274615967,17.139385103659666,32.706918836159666Q17.069741193659667,32.637274866159665,17.01502233365967,32.555382316159665Q16.960303423659667,32.47348970615967,16.922612373659668,32.382495526159666Q16.884921313659667,32.29150134615967,16.86570662365967,32.194902436159666Q16.84649187365967,32.09830352615967,16.846491813659668,31.999812126159668Q16.84649187365967,31.901320726159668,16.86570662365967,31.804721816159667Q16.88492137365967,31.70812290615967,16.92261243365967,31.617128726159667Q16.960303423659667,31.526134546159668,17.015022273659667,31.44424199615967Q17.069741193659667,31.362349386159668,17.139385103659666,31.292705416159666Q17.209029073659668,31.223061506159667,17.290921623659667,31.16834264615967Q17.372814233659668,31.113623736159667,17.463808413659667,31.075932686159668Q17.55480259365967,31.038241626159667,17.651401503659667,31.01902693615967Q17.748000413659668,30.99981218615967,17.846491813659668,30.999812126159668Z" fill-rule="evenodd" fill="#30B690" fill-opacity="1" style="mix-blend-mode:passthrough"/></g></g></g></svg>