<svg xmlns="http://www.w3.org/2000/svg" xmlns:xlink="http://www.w3.org/1999/xlink" fill="none" version="1.1" width="48" height="48" viewBox="0 0 48 48"><defs><clipPath id="master_svg0_353_54305"><rect x="11" y="11" width="26" height="26" rx="0"/></clipPath></defs><g><g><ellipse cx="24" cy="24" rx="24" ry="24" fill="#FFFFFF" fill-opacity="1"/><path d="M48,24Q48,24.589167,47.971088,25.177626Q47.942181,25.766083,47.884434,26.352413Q47.826683,26.938744,47.740234,27.52153Q47.653786,28.104321,47.538841,28.682167Q47.423901,29.260014,47.280746,29.831526Q47.137589,30.403034,46.966568,30.966833Q46.79554,31.530628,46.597054,32.085354Q46.398567,32.640079,46.173103,33.184399Q45.947639,33.728718,45.69574,34.261322Q45.44384,34.793922,45.166107,35.313522Q44.888374,35.833122,44.58548,36.338467Q44.282589,36.843811,43.955265,37.333683Q43.627941,37.823559,43.276978,38.29678Q42.92601,38.770004,42.55225,39.225437Q42.17849,39.680866,41.782829,40.117409Q41.387169,40.553955,40.970562,40.970558Q40.553959,41.387161,40.117416,41.782825Q39.680874,42.178486,39.225445,42.55225Q38.770012,42.92601,38.296787,43.276974Q37.823563,43.627941,37.333687,43.955265Q36.843811,44.282589,36.338467,44.585484Q35.833122,44.888374,35.313526,45.166107Q34.793922,45.44384,34.261322,45.69574Q33.728722,45.947639,33.184402,46.173103Q32.640083,46.398567,32.085358,46.597054Q31.53063,46.79554,30.966835,46.966568Q30.403036,47.137589,29.831524,47.280746Q29.260014,47.423901,28.682167,47.538841Q28.104321,47.653786,27.521532,47.740231Q26.938744,47.826683,26.352413,47.884434Q25.766083,47.942181,25.177624,47.971092Q24.589167,48,24,48Q23.410831,48,22.822372,47.971088Q22.233917,47.942181,21.647587,47.884434Q21.061256,47.826683,20.478466,47.740234Q19.895676,47.653786,19.317829,47.538841Q18.739983,47.423901,18.168472,47.280746Q17.596964,47.137589,17.033167,46.966568Q16.469368,46.79554,15.914642,46.597054Q15.359916,46.398567,14.815597,46.173103Q14.271278,45.947639,13.738677,45.69574Q13.206077,45.44384,12.686478,45.166107Q12.166879,44.888374,11.661533,44.58548Q11.156188,44.282589,10.666313,43.955265Q10.176439,43.627941,9.7032156,43.276978Q9.2299919,42.92601,8.7745609,42.55225Q8.319128,42.17849,7.8825846,41.782829Q7.4460411,41.387169,7.0294371,40.970562Q6.612833,40.553959,6.2171731,40.117416Q5.8215127,39.680874,5.4477491,39.225445Q5.0739851,38.770012,4.7230191,38.296787Q4.3720522,37.823563,4.0447288,37.333687Q3.7174053,36.843811,3.4145129,36.338467Q3.1116209,35.833122,2.8338895,35.313526Q2.5561581,34.793922,2.3042569,34.261322Q2.0523555,33.728722,1.8268911,33.184402Q1.6014266,32.640083,1.4029424,32.085358Q1.204458,31.53063,1.0334319,30.966835Q0.86240578,30.403036,0.71924984,29.831524Q0.57609397,29.260014,0.46115321,28.682167Q0.34621245,28.104321,0.25976375,27.521532Q0.173315,26.938744,0.11556655,26.352413Q0.057818096,25.766083,0.028909048,25.177624Q0,24.589167,0,24Q0,23.410831,0.028909048,22.822372Q0.057818096,22.233917,0.11556655,21.647587Q0.173315,21.061256,0.25976372,20.478466Q0.34621245,19.895676,0.46115321,19.317829Q0.57609397,18.739983,0.71924984,18.168472Q0.86240578,17.596964,1.0334319,17.033167Q1.204458,16.469368,1.4029423,15.914642Q1.6014266,15.359916,1.8268911,14.815597Q2.0523555,14.271278,2.3042569,13.738677Q2.5561583,13.206077,2.8338897,12.686478Q3.1116211,12.166879,3.4145136,11.661533Q3.7174058,11.156188,4.0447292,10.666313Q4.3720531,10.176439,4.7230191,9.7032156Q5.0739856,9.2299919,5.4477491,8.7745609Q5.8215127,8.319128,6.2171726,7.8825846Q6.612833,7.4460411,7.0294371,7.0294371Q7.4460411,6.612833,7.8825846,6.2171731Q8.319128,5.8215127,8.7745609,5.4477491Q9.2299919,5.0739851,9.7032156,4.7230191Q10.176439,4.3720522,10.666313,4.0447288Q11.156188,3.7174053,11.661533,3.4145129Q12.16688,3.1116209,12.68648,2.8338895Q13.206078,2.5561581,13.738678,2.3042569Q14.271278,2.0523555,14.815597,1.8268911Q15.359916,1.6014266,15.914642,1.4029424Q16.469368,1.204458,17.033167,1.0334319Q17.596964,0.86240578,18.168474,0.71924984Q18.739985,0.57609397,19.317831,0.46115321Q19.895676,0.34621245,20.478466,0.25976375Q21.061256,0.173315,21.647587,0.11556655Q22.233917,0.057818096,22.822372,0.028909048Q23.410831,0,24,0Q24.589167,0,25.177626,0.028909048Q25.766083,0.057818096,26.352413,0.11556655Q26.938744,0.173315,27.52153,0.25976372Q28.104321,0.34621245,28.682167,0.46115321Q29.260014,0.57609397,29.831526,0.71924984Q30.403034,0.86240578,30.966833,1.0334319Q31.530628,1.204458,32.085354,1.4029423Q32.640079,1.6014266,33.184399,1.8268911Q33.728718,2.0523555,34.261322,2.3042569Q34.793922,2.5561583,35.313522,2.8338897Q35.833122,3.1116211,36.338467,3.4145136Q36.843811,3.7174058,37.333683,4.0447292Q37.823559,4.3720531,38.29678,4.7230191Q38.770004,5.0739856,39.225437,5.4477491Q39.680866,5.8215127,40.117409,6.2171726Q40.553955,6.612833,40.970558,7.0294371Q41.387161,7.4460411,41.782825,7.8825846Q42.178486,8.319128,42.55225,8.7745609Q42.92601,9.2299919,43.276974,9.7032156Q43.627941,10.176439,43.955265,10.666313Q44.282589,11.156188,44.585484,11.661533Q44.888374,12.16688,45.166107,12.68648Q45.44384,13.206078,45.69574,13.738678Q45.947639,14.271278,46.173103,14.815597Q46.398567,15.359916,46.597054,15.914642Q46.79554,16.469368,46.966568,17.033167Q47.137589,17.596964,47.280746,18.168474Q47.423901,18.739985,47.538841,19.317831Q47.653786,19.895676,47.740231,20.478466Q47.826683,21.061256,47.884434,21.647587Q47.942181,22.233917,47.971092,22.822372Q48,23.410831,48,24ZM47.5,24Q47.5,23.423107,47.471695,22.846909Q47.44339,22.270714,47.386845,21.696598Q47.330296,21.122482,47.245644,20.551834Q47.160995,19.981186,47.04845,19.415377Q46.935905,18.849569,46.795734,18.289965Q46.65556,17.730362,46.488094,17.17831Q46.320633,16.626257,46.126282,16.083088Q45.931934,15.539917,45.711166,15.006938Q45.490398,14.473959,45.243748,13.952454Q44.997093,13.43095,44.725151,12.922176Q44.453201,12.413402,44.15662,11.918585Q43.860039,11.423767,43.539532,10.944098Q43.219028,10.46443,42.875374,10.001066Q42.531723,9.5377026,42.165745,9.0917578Q41.799767,8.6458139,41.41235,8.2183647Q41.024933,7.7909155,40.617008,7.3829904Q40.209084,6.9750657,39.781635,6.5876484Q39.354187,6.2002311,38.908241,5.8342543Q38.462296,5.468277,37.998932,5.1246228Q37.535568,4.7809677,37.055897,4.4604635Q36.576229,4.1399593,36.081409,3.8433774Q35.586594,3.5467954,35.07782,3.2748504Q34.569046,3.0029049,34.047543,2.7562513Q33.526039,2.509598,32.993057,2.2888308Q32.460075,2.0680635,31.916908,1.8737143Q31.373739,1.6793652,30.82169,1.5119021Q30.269636,1.344439,29.710032,1.2042655Q29.150427,1.0640919,28.58462,0.95154583Q28.018812,0.83899969,27.448164,0.75435203Q26.877516,0.66970432,26.303402,0.61315894Q25.729286,0.55661356,25.153091,0.52830678Q24.576893,0.5,24,0.5Q23.423107,0.5,22.846909,0.52830678Q22.270714,0.55661356,21.696598,0.61315894Q21.122482,0.66970432,20.551834,0.75435197Q19.981186,0.83899969,19.415377,0.95154583Q18.849569,1.0640919,18.289965,1.2042655Q17.730362,1.344439,17.17831,1.5119021Q16.626257,1.6793652,16.083088,1.8737142Q15.539917,2.0680635,15.006938,2.2888308Q14.473959,2.509598,13.952454,2.7562516Q13.43095,3.0029049,12.922176,3.2748504Q12.413402,3.5467954,11.918585,3.8433771Q11.423767,4.1399593,10.944098,4.4604635Q10.46443,4.7809677,10.001066,5.1246228Q9.5377026,5.468277,9.0917578,5.8342543Q8.6458139,6.2002311,8.2183647,6.5876484Q7.7909155,6.9750657,7.3829904,7.3829904Q6.9750657,7.7909155,6.5876484,8.2183647Q6.2002311,8.6458139,5.8342543,9.0917578Q5.468277,9.5377026,5.1246228,10.001066Q4.7809677,10.46443,4.4604635,10.944098Q4.1399593,11.423767,3.8433774,11.918584Q3.5467954,12.413402,3.2748504,12.922176Q3.0029049,13.43095,2.7562513,13.952454Q2.509598,14.473959,2.2888308,15.006938Q2.0680635,15.539917,1.8737143,16.083086Q1.6793652,16.626257,1.5119021,17.17831Q1.344439,17.730362,1.2042655,18.289967Q1.0640919,18.849569,0.95154583,19.415377Q0.83899963,19.981186,0.75435197,20.551834Q0.66970426,21.122482,0.61315894,21.696598Q0.55661356,22.270714,0.52830678,22.846909Q0.5,23.423107,0.5,24Q0.5,24.576893,0.52830678,25.15309Q0.55661356,25.729288,0.61315894,26.303404Q0.66970426,26.877518,0.75435197,27.448164Q0.83899963,28.018814,0.95154583,28.584621Q1.0640919,29.150429,1.2042655,29.710032Q1.344439,30.269634,1.5119021,30.821688Q1.6793652,31.373737,1.8737142,31.916908Q2.0680635,32.460075,2.2888308,32.993057Q2.509598,33.526039,2.7562516,34.047543Q3.0029049,34.569046,3.2748504,35.07782Q3.5467954,35.586594,3.8433771,36.081413Q4.1399593,36.576229,4.4604635,37.055897Q4.7809677,37.535568,5.1246228,37.998932Q5.468277,38.462296,5.8342543,38.908241Q6.2002311,39.354183,6.5876484,39.781631Q6.9750657,40.20908,7.3829904,40.617004Q7.7909155,41.024929,8.2183647,41.412346Q8.6458139,41.799767,9.0917578,42.165745Q9.5377026,42.531723,10.001066,42.875374Q10.46443,43.219028,10.944098,43.539532Q11.423767,43.860039,11.918584,44.156616Q12.413402,44.453201,12.922176,44.725147Q13.43095,44.997093,13.952454,45.243744Q14.473959,45.490398,15.006938,45.711166Q15.539917,45.931934,16.083086,46.126286Q16.626257,46.320633,17.17831,46.488098Q17.730362,46.655563,18.289967,46.795738Q18.849569,46.935905,19.415377,47.048454Q19.981186,47.160999,20.551834,47.245651Q21.122482,47.330299,21.696598,47.386845Q22.270714,47.44339,22.846909,47.471695Q23.423107,47.5,24,47.5Q24.576893,47.5,25.15309,47.471695Q25.729288,47.44339,26.303404,47.386845Q26.877518,47.330296,27.448164,47.245644Q28.018814,47.160995,28.584621,47.04845Q29.150429,46.935905,29.710032,46.795734Q30.269634,46.65556,30.821688,46.488094Q31.373737,46.320633,31.916908,46.126282Q32.460075,45.931934,32.993057,45.711166Q33.526039,45.490398,34.047543,45.243748Q34.569046,44.997093,35.07782,44.725151Q35.586594,44.453201,36.081413,44.15662Q36.576229,43.860039,37.055897,43.539532Q37.535568,43.219028,37.998932,42.875374Q38.462296,42.531723,38.908241,42.165745Q39.354183,41.799767,39.781631,41.41235Q40.20908,41.024933,40.617004,40.617008Q41.024929,40.209084,41.412346,39.781635Q41.799767,39.354187,42.165745,38.908241Q42.531723,38.462296,42.875374,37.998932Q43.219028,37.535568,43.539532,37.055897Q43.860039,36.576229,44.156616,36.081409Q44.453201,35.586594,44.725147,35.07782Q44.997093,34.569046,45.243744,34.047543Q45.490398,33.526039,45.711166,32.993057Q45.931934,32.460075,46.126286,31.916908Q46.320633,31.373739,46.488098,30.82169Q46.655563,30.269636,46.795738,29.710032Q46.935905,29.150427,47.048454,28.58462Q47.160999,28.018812,47.245651,27.448164Q47.330299,26.877516,47.386845,26.303402Q47.44339,25.729286,47.471695,25.153091Q47.5,24.576893,47.5,24Z" fill="#C2E8DE" fill-opacity="1"/></g><g clip-path="url(#master_svg0_353_54305)"><g><path d="M28.1691451875,13.43283653Q27.9955501875,13.35271549,27.8043751875,13.350085140000001Q27.6132001875,13.34745479,27.437465187500003,13.42276943L20.2222113875,16.5150211L13.5441445375,13.43283653Q13.4636609575,13.39569032,13.3774769575,13.37495941Q13.2912929775,13.3542285,13.2027206045,13.35070956Q13.1141482255,13.34719062,13.0265912275,13.3610189Q12.9390342275,13.37484717,12.8558573675,13.40549129Q12.7726805175,13.43613541,12.6970802875,13.4824177Q12.6214799875,13.52869999,12.5563616175,13.5888418Q12.4912431875,13.64898366,12.4391090875,13.72067386Q12.3869749875,13.79236406,12.3498287175,13.87284765Q12.2669921475,14.05232684,12.2669922075,14.25L12.2669922075,30.5Q12.2669922075,30.628941,12.3031948175,30.752693Q12.3393974275,30.876448,12.408890187499999,30.98506Q12.4783830075,31.09367,12.5755752375,31.178398Q12.6727673675,31.26313,12.7898398375,31.317163L19.8315066875,34.567163Q20.0051021875,34.647285,20.1962775875,34.649916000000005Q20.3874525875,34.652546,20.5631866875,34.57723L27.7784401875,31.48498L34.4565081875,34.567163Q34.5369911875,34.604309,34.6231761875,34.625038Q34.7093581875,34.645769,34.7979311875,34.649288Q34.8865031875,34.652806999999996,34.9740601875,34.638979Q35.061617187500005,34.625153,35.1447941875,34.594507Q35.2279701875,34.563862,35.303572187499995,34.517578Q35.3791731875,34.471295999999995,35.4442901875,34.411156Q35.5094091875,34.351012999999995,35.561542187499995,34.279324Q35.6136781875,34.207634,35.650823187499995,34.127151Q35.7336601875,33.947674,35.7336601875,33.75L35.7336601875,17.5Q35.7336581875,17.3710599,35.697456187499995,17.247306299999998Q35.661255187500004,17.1235528,35.591762187499995,17.0149422Q35.5222681875,16.9063311,35.4250751875,16.8216004Q35.327884187500004,16.7368701,35.2108111875,16.6828365L28.1691451875,13.43283653ZM27.7784401875,15.23497891L20.5631866875,18.3272305Q20.3874525875,18.402545,20.1962775875,18.3999147Q20.0051021875,18.397284499999998,19.8315066875,18.3171635L14.0669921675,15.6566184L14.0669921675,29.924149999999997L20.2222113875,32.76502L27.437465187500003,29.67277Q27.6132011875,29.597455,27.8043751875,29.600085Q27.9955501875,29.602715,28.1691451875,29.682837L33.933660187499996,32.343382L33.933660187499996,18.0758491L27.7784401875,15.23497891Z" fill-rule="evenodd" fill="#30B690" fill-opacity="1" style="mix-blend-mode:passthrough"/></g><g><path d="M26.8919922075,14.25Q26.8919922675,14.161357738,26.9092855475,14.07441872Q26.9265787575,13.98747969,26.9605007175,13.90558493Q26.9944226175,13.823690150000001,27.0436695775,13.74998677Q27.0929166075,13.67628348,27.1555961375,13.61360395Q27.2182756675,13.55092442,27.2919790175,13.50167745Q27.3656823375,13.45243043,27.4475771175,13.41850853Q27.5294718775,13.38458657,27.6164109075,13.36729336Q27.7033499255,13.350000080000001,27.7919921875,13.35000002Q27.8806344495,13.350000080000001,27.9675734675,13.36729336Q28.0545124975,13.38458657,28.1364072575,13.41850853Q28.2183020375,13.45243043,28.2920054175,13.50167739Q28.3657087075,13.55092442,28.4283882375,13.61360395Q28.4910677675,13.67628348,28.5403147375,13.74998683Q28.5895617575,13.823690150000001,28.6234836575,13.90558493Q28.6574056175,13.98747969,28.6746988275,14.07441872Q28.6919921075,14.161357738,28.6919921675,14.25L28.6919921675,30.5Q28.6919921075,30.588642,28.6746988275,30.675579Q28.6574056175,30.76252,28.6234836575,30.844414Q28.5895617575,30.926308,28.5403147975,31.000011Q28.4910677675,31.073715,28.4283882375,31.136395Q28.3657087075,31.199074,28.2920053575,31.248322Q28.2183020375,31.297567,28.1364072575,31.33149Q28.0545124975,31.36541,27.9675734675,31.382706Q27.8806344495,31.399998,27.7919921875,31.4Q27.7033499255,31.399998,27.6164109075,31.382706Q27.5294718775,31.36541,27.4475771175,31.33149Q27.3656823375,31.297567,27.2919789575,31.248322Q27.2182756675,31.199074,27.1555961375,31.136395Q27.0929166075,31.073715,27.0436696375,31.000011Q26.9944226175,30.926308,26.9605007175,30.844414Q26.9265787575,30.76252,26.9092855475,30.675579Q26.8919922675,30.588642,26.8919922075,30.5L26.8919922075,14.25Z" fill-rule="evenodd" fill="#30B690" fill-opacity="1" style="mix-blend-mode:passthrough"/></g><g><path d="M19.3080078325,17.5Q19.3080078925,17.411357738,19.3253011725,17.32441872Q19.3425943825,17.23747969,19.3765163425,17.15558493Q19.4104382425,17.07369015,19.4596852025,16.99998677Q19.5089322325,16.92628348,19.5716117625,16.86360395Q19.6342912925,16.80092442,19.7079946425,16.75167745Q19.7816979625,16.70243043,19.8635927425,16.66850853Q19.9454875025,16.63458657,20.0324265325,16.61729336Q20.1193655505,16.60000008,20.2080078125,16.60000002Q20.2966500745,16.60000008,20.3835890925,16.61729336Q20.4705281225,16.63458657,20.5524228825,16.66850853Q20.6343176625,16.70243043,20.7080210425,16.75167739Q20.7817243325,16.80092442,20.8444038625,16.86360395Q20.9070833925,16.92628348,20.9563303625,16.99998683Q21.0055773825,17.07369015,21.0394992825,17.15558493Q21.0734212425,17.23747969,21.0907144525,17.32441872Q21.1080077325,17.411357738,21.1080077925,17.5L21.1080077925,33.75Q21.1080077325,33.838642,21.0907144525,33.925579Q21.0734212425,34.012519999999995,21.0394992825,34.094414Q21.0055773825,34.176308,20.9563304225,34.250011Q20.9070833925,34.323715,20.8444038625,34.386395Q20.7817243325,34.449073999999996,20.7080209825,34.498322Q20.6343176625,34.547567,20.5524228825,34.58149Q20.4705281225,34.61541,20.3835890925,34.632706Q20.2966500745,34.649998,20.2080078125,34.65Q20.1193655505,34.649998,20.0324265325,34.632706Q19.9454875025,34.61541,19.8635927425,34.58149Q19.7816979625,34.547567,19.7079945825,34.498322Q19.6342912925,34.449073999999996,19.5716117625,34.386395Q19.5089322325,34.323715,19.4596852625,34.250011Q19.4104382425,34.176308,19.3765163425,34.094414Q19.3425943825,34.012519999999995,19.3253011725,33.925579Q19.3080078925,33.838642,19.3080078325,33.75L19.3080078325,17.5Z" fill-rule="evenodd" fill="#30B690" fill-opacity="1" style="mix-blend-mode:passthrough"/></g><g><path d="M30.934844,16.6919303L30.935349000000002,16.6921632Q31.114828,16.7750001,31.312500999999997,16.7750001Q31.401142,16.7750001,31.488081,16.7577069Q31.575020000000002,16.7404134,31.656914999999998,16.7064915Q31.73881,16.6725695,31.812511999999998,16.6233225Q31.886215999999997,16.5740757,31.948895999999998,16.5113962Q32.011576,16.4487166,32.060822,16.3750131Q32.110068999999996,16.3013098,32.143991,16.2194149Q32.177914,16.1375203,32.195206999999996,16.0505812Q32.2125,15.9636424,32.212501,15.875Q32.212502,15.7460598,32.176299,15.6223061Q32.140097,15.4985526,32.070602,15.3899416Q32.00111,15.2813307,31.903918,15.1966002Q31.806725999999998,15.11186975,31.689652000000002,15.057836290000001L31.689104,15.05758339L28.168819,13.43283659Q27.995224,13.35271561,27.804049,13.3500852Q27.612873999999998,13.34745491,27.43714,13.42276949L20.2218857,16.5150208L17.06465235,15.05783647Q16.88517317,14.97500002,16.6875,14.97500002Q16.598857738,14.97500002,16.51191872,14.9922933Q16.42497969,15.00958651,16.34308493,15.04350841Q16.26119015,15.07743031,16.18748677,15.12667727Q16.11378348,15.1759243,16.05110395,15.23860383Q15.98842442,15.301283399999999,15.93917745,15.3749866Q15.88993043,15.4486899,15.85600853,15.5305848Q15.82208657,15.6124796,15.80479336,15.6994185Q15.787500080000001,15.7863576,15.78750002,15.875Q15.78750002,16.0039401,15.82370263,16.127693700000002Q15.85990524,16.2514472,15.929397999999999,16.3600583Q15.99889076,16.4686689,16.09608293,16.5533996Q16.19327509,16.6381299,16.31034753,16.6921635L16.31098369,16.6924567L19.8311808,18.317163Q20.0047765,18.397284499999998,20.1959515,18.3999143Q20.3871264,18.402545,20.5628605,18.32723L27.778115,15.23497885L30.934844,16.6919303Z" fill-rule="evenodd" fill="#30B690" fill-opacity="1" style="mix-blend-mode:passthrough"/></g><g><path d="M30.934844,32.9419303L30.935349000000002,32.9421632Q31.114828,33.0250001,31.312500999999997,33.0250001Q31.401142,33.0250001,31.488081,33.0077069Q31.575020000000002,32.9904134,31.656914999999998,32.9564915Q31.73881,32.9225695,31.812511999999998,32.8733225Q31.886215999999997,32.8240757,31.948895999999998,32.7613962Q32.011576,32.6987166,32.060822,32.6250131Q32.110068999999996,32.5513098,32.143991,32.4694149Q32.177914,32.3875203,32.195206999999996,32.3005812Q32.2125,32.2136424,32.212501,32.125Q32.212502,31.9960598,32.176299,31.8723061Q32.140097,31.7485526,32.070602,31.6399416Q32.00111,31.5313307,31.903918,31.4466002Q31.806725999999998,31.36186975,31.689652000000002,31.30783629L31.689104,31.30758339L28.168819,29.68283659Q27.995224,29.60271561,27.804049,29.6000852Q27.612873999999998,29.59745491,27.43714,29.67276949L20.2218857,32.7650208L17.06465235,31.30783647Q16.88517317,31.22500002,16.6875,31.22500002Q16.598857738,31.22500002,16.51191872,31.2422933Q16.42497969,31.25958651,16.34308493,31.29350841Q16.26119015,31.32743031,16.18748677,31.37667727Q16.11378348,31.4259243,16.05110395,31.48860383Q15.98842442,31.5512834,15.93917745,31.6249866Q15.88993043,31.6986899,15.85600853,31.7805848Q15.82208657,31.8624796,15.80479336,31.9494185Q15.787500080000001,32.0363576,15.78750002,32.125Q15.78750002,32.2539401,15.82370263,32.3776937Q15.85990524,32.5014472,15.929397999999999,32.6100583Q15.99889076,32.7186689,16.09608293,32.8033996Q16.19327509,32.8881299,16.31034753,32.9421635L16.31098369,32.9424567L19.8311808,34.567163Q20.0047765,34.6472845,20.1959515,34.6499143Q20.3871264,34.652545,20.5628605,34.57723L27.778115,31.48497885L30.934844,32.9419303Z" fill-rule="evenodd" fill="#30B690" fill-opacity="1" style="mix-blend-mode:passthrough"/></g></g></g></svg>