<svg xmlns="http://www.w3.org/2000/svg" xmlns:xlink="http://www.w3.org/1999/xlink" fill="none" version="1.1" width="48" height="48" viewBox="0 0 48 48"><g><g><ellipse cx="24" cy="24" rx="24" ry="24" fill="#FFFFFF" fill-opacity="1"/><path d="M48,24Q48,24.589167,47.971088,25.177626Q47.942181,25.766083,47.884434,26.352413Q47.826683,26.938744,47.740234,27.52153Q47.653786,28.104321,47.538841,28.682167Q47.423901,29.260014,47.280746,29.831526Q47.137589,30.403034,46.966568,30.966833Q46.79554,31.530628,46.597054,32.085354Q46.398567,32.640079,46.173103,33.184399Q45.947639,33.728718,45.69574,34.261322Q45.44384,34.793922,45.166107,35.313522Q44.888374,35.833122,44.58548,36.338467Q44.282589,36.843811,43.955265,37.333683Q43.627941,37.823559,43.276978,38.29678Q42.92601,38.770004,42.55225,39.225437Q42.17849,39.680866,41.782829,40.117409Q41.387169,40.553955,40.970562,40.970558Q40.553959,41.387161,40.117416,41.782825Q39.680874,42.178486,39.225445,42.55225Q38.770012,42.92601,38.296787,43.276974Q37.823563,43.627941,37.333687,43.955265Q36.843811,44.282589,36.338467,44.585484Q35.833122,44.888374,35.313526,45.166107Q34.793922,45.44384,34.261322,45.69574Q33.728722,45.947639,33.184402,46.173103Q32.640083,46.398567,32.085358,46.597054Q31.53063,46.79554,30.966835,46.966568Q30.403036,47.137589,29.831524,47.280746Q29.260014,47.423901,28.682167,47.538841Q28.104321,47.653786,27.521532,47.740231Q26.938744,47.826683,26.352413,47.884434Q25.766083,47.942181,25.177624,47.971092Q24.589167,48,24,48Q23.410831,48,22.822372,47.971088Q22.233917,47.942181,21.647587,47.884434Q21.061256,47.826683,20.478466,47.740234Q19.895676,47.653786,19.317829,47.538841Q18.739983,47.423901,18.168472,47.280746Q17.596964,47.137589,17.033167,46.966568Q16.469368,46.79554,15.914642,46.597054Q15.359916,46.398567,14.815597,46.173103Q14.271278,45.947639,13.738677,45.69574Q13.206077,45.44384,12.686478,45.166107Q12.166879,44.888374,11.661533,44.58548Q11.156188,44.282589,10.666313,43.955265Q10.176439,43.627941,9.7032156,43.276978Q9.2299919,42.92601,8.7745609,42.55225Q8.319128,42.17849,7.8825846,41.782829Q7.4460411,41.387169,7.0294371,40.970562Q6.612833,40.553959,6.2171731,40.117416Q5.8215127,39.680874,5.4477491,39.225445Q5.0739851,38.770012,4.7230191,38.296787Q4.3720522,37.823563,4.0447288,37.333687Q3.7174053,36.843811,3.4145129,36.338467Q3.1116209,35.833122,2.8338895,35.313526Q2.5561581,34.793922,2.3042569,34.261322Q2.0523555,33.728722,1.8268911,33.184402Q1.6014266,32.640083,1.4029424,32.085358Q1.204458,31.53063,1.0334319,30.966835Q0.86240578,30.403036,0.71924984,29.831524Q0.57609397,29.260014,0.46115321,28.682167Q0.34621245,28.104321,0.25976375,27.521532Q0.173315,26.938744,0.11556655,26.352413Q0.057818096,25.766083,0.028909048,25.177624Q0,24.589167,0,24Q0,23.410831,0.028909048,22.822372Q0.057818096,22.233917,0.11556655,21.647587Q0.173315,21.061256,0.25976372,20.478466Q0.34621245,19.895676,0.46115321,19.317829Q0.57609397,18.739983,0.71924984,18.168472Q0.86240578,17.596964,1.0334319,17.033167Q1.204458,16.469368,1.4029423,15.914642Q1.6014266,15.359916,1.8268911,14.815597Q2.0523555,14.271278,2.3042569,13.738677Q2.5561583,13.206077,2.8338897,12.686478Q3.1116211,12.166879,3.4145136,11.661533Q3.7174058,11.156188,4.0447292,10.666313Q4.3720531,10.176439,4.7230191,9.7032156Q5.0739856,9.2299919,5.4477491,8.7745609Q5.8215127,8.319128,6.2171726,7.8825846Q6.612833,7.4460411,7.0294371,7.0294371Q7.4460411,6.612833,7.8825846,6.2171731Q8.319128,5.8215127,8.7745609,5.4477491Q9.2299919,5.0739851,9.7032156,4.7230191Q10.176439,4.3720522,10.666313,4.0447288Q11.156188,3.7174053,11.661533,3.4145129Q12.16688,3.1116209,12.68648,2.8338895Q13.206078,2.5561581,13.738678,2.3042569Q14.271278,2.0523555,14.815597,1.8268911Q15.359916,1.6014266,15.914642,1.4029424Q16.469368,1.204458,17.033167,1.0334319Q17.596964,0.86240578,18.168474,0.71924984Q18.739985,0.57609397,19.317831,0.46115321Q19.895676,0.34621245,20.478466,0.25976375Q21.061256,0.173315,21.647587,0.11556655Q22.233917,0.057818096,22.822372,0.028909048Q23.410831,0,24,0Q24.589167,0,25.177626,0.028909048Q25.766083,0.057818096,26.352413,0.11556655Q26.938744,0.173315,27.52153,0.25976372Q28.104321,0.34621245,28.682167,0.46115321Q29.260014,0.57609397,29.831526,0.71924984Q30.403034,0.86240578,30.966833,1.0334319Q31.530628,1.204458,32.085354,1.4029423Q32.640079,1.6014266,33.184399,1.8268911Q33.728718,2.0523555,34.261322,2.3042569Q34.793922,2.5561583,35.313522,2.8338897Q35.833122,3.1116211,36.338467,3.4145136Q36.843811,3.7174058,37.333683,4.0447292Q37.823559,4.3720531,38.29678,4.7230191Q38.770004,5.0739856,39.225437,5.4477491Q39.680866,5.8215127,40.117409,6.2171726Q40.553955,6.612833,40.970558,7.0294371Q41.387161,7.4460411,41.782825,7.8825846Q42.178486,8.319128,42.55225,8.7745609Q42.92601,9.2299919,43.276974,9.7032156Q43.627941,10.176439,43.955265,10.666313Q44.282589,11.156188,44.585484,11.661533Q44.888374,12.16688,45.166107,12.68648Q45.44384,13.206078,45.69574,13.738678Q45.947639,14.271278,46.173103,14.815597Q46.398567,15.359916,46.597054,15.914642Q46.79554,16.469368,46.966568,17.033167Q47.137589,17.596964,47.280746,18.168474Q47.423901,18.739985,47.538841,19.317831Q47.653786,19.895676,47.740231,20.478466Q47.826683,21.061256,47.884434,21.647587Q47.942181,22.233917,47.971092,22.822372Q48,23.410831,48,24ZM47.5,24Q47.5,23.423107,47.471695,22.846909Q47.44339,22.270714,47.386845,21.696598Q47.330296,21.122482,47.245644,20.551834Q47.160995,19.981186,47.04845,19.415377Q46.935905,18.849569,46.795734,18.289965Q46.65556,17.730362,46.488094,17.17831Q46.320633,16.626257,46.126282,16.083088Q45.931934,15.539917,45.711166,15.006938Q45.490398,14.473959,45.243748,13.952454Q44.997093,13.43095,44.725151,12.922176Q44.453201,12.413402,44.15662,11.918585Q43.860039,11.423767,43.539532,10.944098Q43.219028,10.46443,42.875374,10.001066Q42.531723,9.5377026,42.165745,9.0917578Q41.799767,8.6458139,41.41235,8.2183647Q41.024933,7.7909155,40.617008,7.3829904Q40.209084,6.9750657,39.781635,6.5876484Q39.354187,6.2002311,38.908241,5.8342543Q38.462296,5.468277,37.998932,5.1246228Q37.535568,4.7809677,37.055897,4.4604635Q36.576229,4.1399593,36.081409,3.8433774Q35.586594,3.5467954,35.07782,3.2748504Q34.569046,3.0029049,34.047543,2.7562513Q33.526039,2.509598,32.993057,2.2888308Q32.460075,2.0680635,31.916908,1.8737143Q31.373739,1.6793652,30.82169,1.5119021Q30.269636,1.344439,29.710032,1.2042655Q29.150427,1.0640919,28.58462,0.95154583Q28.018812,0.83899969,27.448164,0.75435203Q26.877516,0.66970432,26.303402,0.61315894Q25.729286,0.55661356,25.153091,0.52830678Q24.576893,0.5,24,0.5Q23.423107,0.5,22.846909,0.52830678Q22.270714,0.55661356,21.696598,0.61315894Q21.122482,0.66970432,20.551834,0.75435197Q19.981186,0.83899969,19.415377,0.95154583Q18.849569,1.0640919,18.289965,1.2042655Q17.730362,1.344439,17.17831,1.5119021Q16.626257,1.6793652,16.083088,1.8737142Q15.539917,2.0680635,15.006938,2.2888308Q14.473959,2.509598,13.952454,2.7562516Q13.43095,3.0029049,12.922176,3.2748504Q12.413402,3.5467954,11.918585,3.8433771Q11.423767,4.1399593,10.944098,4.4604635Q10.46443,4.7809677,10.001066,5.1246228Q9.5377026,5.468277,9.0917578,5.8342543Q8.6458139,6.2002311,8.2183647,6.5876484Q7.7909155,6.9750657,7.3829904,7.3829904Q6.9750657,7.7909155,6.5876484,8.2183647Q6.2002311,8.6458139,5.8342543,9.0917578Q5.468277,9.5377026,5.1246228,10.001066Q4.7809677,10.46443,4.4604635,10.944098Q4.1399593,11.423767,3.8433774,11.918584Q3.5467954,12.413402,3.2748504,12.922176Q3.0029049,13.43095,2.7562513,13.952454Q2.509598,14.473959,2.2888308,15.006938Q2.0680635,15.539917,1.8737143,16.083086Q1.6793652,16.626257,1.5119021,17.17831Q1.344439,17.730362,1.2042655,18.289967Q1.0640919,18.849569,0.95154583,19.415377Q0.83899963,19.981186,0.75435197,20.551834Q0.66970426,21.122482,0.61315894,21.696598Q0.55661356,22.270714,0.52830678,22.846909Q0.5,23.423107,0.5,24Q0.5,24.576893,0.52830678,25.15309Q0.55661356,25.729288,0.61315894,26.303404Q0.66970426,26.877518,0.75435197,27.448164Q0.83899963,28.018814,0.95154583,28.584621Q1.0640919,29.150429,1.2042655,29.710032Q1.344439,30.269634,1.5119021,30.821688Q1.6793652,31.373737,1.8737142,31.916908Q2.0680635,32.460075,2.2888308,32.993057Q2.509598,33.526039,2.7562516,34.047543Q3.0029049,34.569046,3.2748504,35.07782Q3.5467954,35.586594,3.8433771,36.081413Q4.1399593,36.576229,4.4604635,37.055897Q4.7809677,37.535568,5.1246228,37.998932Q5.468277,38.462296,5.8342543,38.908241Q6.2002311,39.354183,6.5876484,39.781631Q6.9750657,40.20908,7.3829904,40.617004Q7.7909155,41.024929,8.2183647,41.412346Q8.6458139,41.799767,9.0917578,42.165745Q9.5377026,42.531723,10.001066,42.875374Q10.46443,43.219028,10.944098,43.539532Q11.423767,43.860039,11.918584,44.156616Q12.413402,44.453201,12.922176,44.725147Q13.43095,44.997093,13.952454,45.243744Q14.473959,45.490398,15.006938,45.711166Q15.539917,45.931934,16.083086,46.126286Q16.626257,46.320633,17.17831,46.488098Q17.730362,46.655563,18.289967,46.795738Q18.849569,46.935905,19.415377,47.048454Q19.981186,47.160999,20.551834,47.245651Q21.122482,47.330299,21.696598,47.386845Q22.270714,47.44339,22.846909,47.471695Q23.423107,47.5,24,47.5Q24.576893,47.5,25.15309,47.471695Q25.729288,47.44339,26.303404,47.386845Q26.877518,47.330296,27.448164,47.245644Q28.018814,47.160995,28.584621,47.04845Q29.150429,46.935905,29.710032,46.795734Q30.269634,46.65556,30.821688,46.488094Q31.373737,46.320633,31.916908,46.126282Q32.460075,45.931934,32.993057,45.711166Q33.526039,45.490398,34.047543,45.243748Q34.569046,44.997093,35.07782,44.725151Q35.586594,44.453201,36.081413,44.15662Q36.576229,43.860039,37.055897,43.539532Q37.535568,43.219028,37.998932,42.875374Q38.462296,42.531723,38.908241,42.165745Q39.354183,41.799767,39.781631,41.41235Q40.20908,41.024933,40.617004,40.617008Q41.024929,40.209084,41.412346,39.781635Q41.799767,39.354187,42.165745,38.908241Q42.531723,38.462296,42.875374,37.998932Q43.219028,37.535568,43.539532,37.055897Q43.860039,36.576229,44.156616,36.081409Q44.453201,35.586594,44.725147,35.07782Q44.997093,34.569046,45.243744,34.047543Q45.490398,33.526039,45.711166,32.993057Q45.931934,32.460075,46.126286,31.916908Q46.320633,31.373739,46.488098,30.82169Q46.655563,30.269636,46.795738,29.710032Q46.935905,29.150427,47.048454,28.58462Q47.160999,28.018812,47.245651,27.448164Q47.330299,26.877516,47.386845,26.303402Q47.44339,25.729286,47.471695,25.153091Q47.5,24.576893,47.5,24Z" fill="#C2E8DE" fill-opacity="1"/></g><g><g><path d="M30.069133370361328,10.15384578704834C27.397533370361327,10.15384578704834,25.021805370361328,11.43770248704834,23.53091737036133,13.42588498704834L23.53091737036133,13.13627008704834C17.06702087036133,13.13627008704834,11.736056030361329,18.04563948704834,11.134410631361328,24.28399078704834C11.062105395361328,25.02196878704834,11.058007218361329,25.765026787048342,11.122116096361328,26.50358078704834C11.647315020361328,32.66775978704834,16.787235770361328,37.567341787048335,23.103778370361326,37.77952078704834L23.103778370361326,37.78655378704834L23.47295937036133,37.78655378704834C23.49226837036133,37.78664078704834,23.51158837036133,37.786684787048344,23.53091737036133,37.786684787048344C26.163199370361326,37.786684787048344,28.60709237036133,36.97304478704834,30.62030837036133,35.58733278704834C33.860307370361326,33.35842178704834,35.98691337036133,29.64988378704834,35.99348237036133,25.46986678704834C35.994049370361324,24.819777787048338,35.94265337036133,24.17072278704834,35.839803370361324,23.528905787048338C37.17919937036133,21.74768178704834,38.23516837036133,19.824970287048338,38.23516837036133,18.18906208704834C38.16316237036133,13.730498987048339,34.52827837036133,10.15384578704834,30.069133370361328,10.15384578704834ZM26.918709370361327,36.43574278704834C30.156467370361327,35.45628878704834,32.79673037036133,33.11083078704834,34.14942737036132,30.08174378704834L30.381315370361328,30.08174378704834C29.71047737036133,32.88734378704834,28.469694370361328,35.11214378704834,26.918709370361327,36.43574278704834ZM35.12369737036133,25.87310778704834C35.12839337036132,25.73925278704834,35.13076037036133,25.60482678704834,35.13076037036133,25.46986678704834C35.130666370361325,25.13980978704834,35.116291370361324,24.810051787048337,35.087709370361324,24.48151778704834C33.29429637036132,26.65344678704834,31.271244370361327,28.47420778704834,30.585476370361327,29.07511278704834L30.59245637036133,29.07638878704834C30.583130370361328,29.12764978704834,30.57362337036133,29.17874578704834,30.56393237036133,29.22967478704834L34.47791437036133,29.22967478704834C34.86254737036133,28.14932578704834,35.08006837036133,27.01744778704834,35.12369737036133,25.87310778704834ZM29.703132370361327,29.18719578704834C29.108228370361328,28.67598778704834,26.06062137036133,26.00252078704834,23.955849370361328,23.05222978704834L23.955849370361328,29.22967478704834L29.69470037036133,29.22967478704834C29.69752737036133,29.21552778704834,29.70033837036133,29.20136878704834,29.703132370361327,29.18719578704834ZM23.955849370361328,30.08174378704834L29.501842370361327,30.08174378704834C28.522136370361327,33.94391678704834,26.35984337036133,36.62450078704834,23.955849370361328,36.90944378704834L23.955849370361328,30.08174378704834ZM23.103778370361326,30.08174378704834L23.103778370361326,36.91036278704834C20.620570170361326,36.62754378704834,18.51176457036133,33.89687678704834,17.552772970361328,30.08174378704834L23.103778370361326,30.08174378704834ZM23.103778370361326,29.22967478704834L23.103778370361326,21.746394787048338C23.09292937036133,21.727921787048338,23.08213537036133,21.70944778704834,23.071396370361327,21.69097478704834L17.36194467036133,21.69097478704834C17.12734507036133,22.87238878704834,16.999795470361327,24.141236787048342,16.999795470361327,25.46147678704834C16.999795470361327,26.78085778704834,17.12717917036133,28.04891478704834,17.36148687036133,29.22967478704834L23.103778370361326,29.22967478704834ZM22.617585370361326,20.838904787048342C22.17485737036133,19.91876218704834,21.903098370361327,19.016826587048342,21.903098370361327,18.18906208704834C21.927875370361328,16.654870487048342,22.37451537036133,15.22510148704834,23.131436370361328,14.00954678704834C20.63673787036133,14.27510838704834,18.51617427036133,17.01082178704834,17.553352370361328,20.838904787048342L22.617585370361326,20.838904787048342ZM20.190928470361328,14.472862687048341C16.932186170361327,15.44337128704834,14.273098970361328,17.79604048704834,12.913436870361329,20.838904787048342L16.68750997036133,20.838904787048342C17.358969170361327,18.08215758704834,18.61197997036133,15.817021387048339,20.190928470361328,14.472862687048341ZM12.912406770361327,30.08174378704834L16.686948770361326,30.08174378704834C17.358271170361327,32.83953578704834,18.611541770361328,35.105559787048335,20.190928470361328,36.450091787048336C16.931364070361326,35.47933878704834,14.271755970361328,33.12572578704834,12.912406770361327,30.08174378704834ZM30.07019837036133,10.94645833704834C26.050680370361327,10.92758798704834,22.77629237036133,14.16955518704834,22.75516837036133,18.18906208704834C22.75516837036133,21.73580778704834,28.70688437036133,27.184803787048338,30.07019837036133,28.38622178704834C31.43138137036133,27.17414978704834,37.383098370361324,21.72515478704834,37.383098370361324,18.18906118704834C37.36197237036133,14.17038968704834,34.08888637036133,10.92876654704834,30.07019837036133,10.94645833704834ZM30.115547370361327,13.95229098704834C28.734506370361327,13.94860838704834,27.50609237036133,14.60785098704834,26.732076370361327,15.63066098704834C26.20024437036133,16.33327248704834,25.882856370361328,17.20749758704834,25.877765370361328,18.15626998704834C25.865265370361328,20.48588878704834,27.740320370361328,22.386293787048338,30.069896370361327,22.40508078704834C31.456888370361327,22.40512478704834,32.69005037036133,21.74209378704834,33.46823837036133,20.71472178704834C34.00294137036133,20.008975987048338,34.32292737036133,19.13125128704834,34.33055137036133,18.17841148704834C34.33047437036133,15.84875868704834,32.445192370361326,13.95850298704834,30.115547370361327,13.95229098704834ZM26.730154370361326,18.20090488704834C26.724971370361327,17.42942808704834,26.979158370361326,16.71652698704834,27.411192370361327,16.14510438704834C28.020242370361327,15.339800387048339,28.982561370361328,14.81559228704834,30.069896370361327,14.80460788704834C31.939010370361327,14.80451488704834,33.45948837036133,16.30979008704834,33.47818037036133,18.17880918704834C33.47814137036133,18.94303988704834,33.22399137036133,19.64807318704834,32.79550737036133,20.21386078704834C32.18165237036133,21.02417578704834,31.210172370361327,21.548771787048338,30.11552837036133,21.55242178704834C28.25647537036133,21.55861978704834,26.74264337036133,20.059925987048338,26.730154370361326,18.20090488704834ZM16.14772417036133,25.46147678704834C16.14772417036133,26.77463478704834,16.27173427036133,28.04106078704834,16.501253170361327,29.22967478704834L12.583951070361328,29.22967478704834C11.711987380361329,26.79241678704834,11.711987380361329,24.128233787048337,12.583951070361328,21.69097478704834L16.501697970361327,21.69097478704834C16.271894470361328,22.88025778704834,16.14772417036133,24.14747078704834,16.14772417036133,25.46147678704834Z" fill-rule="evenodd" fill="#30B690" fill-opacity="1" style="mix-blend-mode:passthrough"/><path d="M30.069133370361328,10.40384578704834Q28.159675370361327,10.40384578704834,26.47103437036133,11.26690678704834Q24.835547370361326,12.10280008704834,23.73092937036133,13.57586908704834L23.28091737036133,14.17598438704834L23.28091737036133,13.13627028704834L23.53091737036133,13.13627028704834L23.53091737036133,13.38627028704834Q18.801663870361327,13.38627028704834,15.302150770361328,16.55603978704834Q11.827331540361328,19.70344258704834,11.383255000361329,24.307989787048342Q11.276793060361328,25.394598787048338,11.371179550361328,26.48196278704834Q11.758028980361328,31.02234978704834,15.112877870361327,34.19182478704834Q18.48128037036133,37.37410478704834,23.112173370361326,37.52966178704834L23.353778370361326,37.537779787048336L23.353778370361326,37.78655578704834L23.103778370361326,37.78655578704834L23.103778370361326,37.53655578704834L23.472960370361328,37.53655578704834L23.53147737036133,37.536684787048344Q27.34728437036133,37.536684787048344,30.47856337036133,35.38139978704834Q32.90501737036133,33.71215678704834,34.299682370361325,31.14106478704834Q35.738741370361325,28.48813178704834,35.74348437036133,25.46947578704834Q35.74431637036133,24.51301378704834,35.59295237036133,23.56846378704834L35.57614537036133,23.46356478704834L35.63999137036133,23.378656787048342Q37.98516837036133,20.259869787048338,37.98516837036133,18.18906208704834Q37.93285037036133,14.95153808704834,35.62198237036132,12.67769078704834Q33.311119370361325,10.403845477048339,30.069133370361328,10.40384578704834ZM30.069133370361328,9.90384578704834Q33.515865370361325,9.90384530704834,35.972671370361326,12.32129408704834Q38.42947537036133,14.73874278704834,38.48516837036133,18.18906208704834Q38.48516837036133,20.42688578704834,36.03961937036133,23.679155787048337L35.83980537036133,23.528905787048338L36.086656370361325,23.48934878704834Q36.24434837036133,24.47341078704834,36.24348437036133,25.47026178704834Q36.23854037036133,28.61537478704834,34.73918537036133,31.37946778704834Q33.28729237036133,34.05606578704834,30.762054370361327,35.79326578704834Q27.502727370361328,38.036684787048344,23.53035737036133,38.036684787048344L23.472960370361328,38.03655578704834L22.853778370361326,38.03655578704834L22.853778370361326,37.779522787048336L23.103778370361326,37.779522787048336L23.095385370361328,38.02938378704834Q18.27542447036133,37.86747478704834,14.769508870361328,34.555279787048335Q11.276025180361328,31.25483078704834,10.873052670361329,26.52520078704834Q10.774671490361328,25.39181778704834,10.885564180361328,24.259991787048342Q11.348220820361329,19.46279238704834,14.966487870361329,16.18545818704834Q18.608882870361327,12.88627028704834,23.53091737036133,12.88627028704834L23.78091737036133,12.88627028704834L23.78091737036133,13.42588498704834L23.53091737036133,13.42588498704834L23.33090537036133,13.27590088704834Q24.50495037036133,11.71024628704834,26.243482370361328,10.82168710704834Q28.039306370361327,9.90384578704834,30.069133370361328,9.90384578704834ZM26.846323370361326,36.19645178704834Q29.21454637036133,35.48004078704834,31.07567237036133,33.83980078704834Q32.92539637036133,32.209606787048344,33.92115737036133,29.97980778704834L34.14942937036133,30.08174378704834L34.14942937036133,30.33174378704834L30.381317370361327,30.33174378704834L30.381317370361327,30.08174378704834L30.62446237036133,30.13988178704834Q29.58444437036133,34.48948378704834,27.080997370361327,36.625906787048336L26.918710370361328,36.43574278704834L26.846323370361326,36.19645178704834ZM26.99109837036133,36.67503278704834L25.847975370361326,37.02083878704834L26.75642437036133,36.24557778704834Q29.13601637036133,34.21485378704834,30.13817037036133,30.02360778704834L30.18404537036133,29.83174378704834L34.53486637036133,29.83174378704834L34.377700370361325,30.18368478704834Q33.337585370361325,32.51280678704834,31.406263370361327,34.21491178704834Q29.463489370361327,35.92711178704834,26.99109837036133,36.67503278704834ZM34.87384937036133,25.86434078704834Q34.880762370361325,25.66736278704834,34.880762370361325,25.46986678704834Q34.88062437036133,24.98564578704834,34.838649370361324,24.503185787048338L35.087709370361324,24.48151878704834L35.280483370361324,24.64069678704834Q33.33067537036133,27.00202878704834,30.75023637036133,29.26314078704834L30.585476370361327,29.07511378704834L30.63040737036133,28.82918478704834L30.884124370361327,28.87553678704834L30.809715370361328,29.27541078704834L30.563934370361327,29.22967478704834L30.563934370361327,28.97967478704834L34.47791437036133,28.97967478704834L34.47791437036133,29.22967478704834L34.24239537036133,29.14582378704834Q34.80946737036133,27.55304478704834,34.873878370361325,25.86358478704834L34.87384937036133,25.86434078704834ZM35.37351637036133,25.88263178704834Q35.30619037036133,27.64860778704834,34.71343437036133,29.31352478704834L34.65428137036133,29.47967478704834L30.263122370361327,29.47967478704834L30.34667637036133,29.03065378704834L30.59245637036133,29.07638878704834L30.54752737036133,29.32231778704834L30.031589370361328,29.22805878704834L30.420717370361327,28.88708578704834Q32.970819370361326,26.65255678704834,34.894935370361324,24.322339787048342L35.28383037036133,23.851362787048338L35.336769370361324,24.45985078704834Q35.38061737036133,24.96387178704834,35.380762370361325,25.46986678704834Q35.380762370361325,25.676201787048342,35.37354437036133,25.88187578704834L35.37351637036133,25.88263178704834ZM29.54019937036133,29.37680678704834Q25.97540837036133,26.31354078704834,23.75233237036133,23.19742078704834L23.955850370361325,23.05222978704834L24.205850370361325,23.05222978704834L24.205850370361325,29.22967478704834L23.955850370361325,29.22967478704834L23.955850370361325,28.97967478704834L29.694702370361327,28.97967478704834L29.694702370361327,29.22967478704834L29.449485370361327,29.18100078704834L29.45791637036133,29.13852178704834L29.703132370361327,29.18719778704834L29.54019937036133,29.37680678704834ZM29.86606837036133,28.99758578704834L29.97676637036133,29.09271178704834L29.89995537036133,29.47967478704834L23.705850370361325,29.47967478704834L23.705850370361325,22.27133678704834L24.159368370361328,22.90703878704834Q26.347246370361326,25.97382078704834,29.86606837036133,28.99758578704834ZM23.955850370361325,29.83174378704834L29.82317737036133,29.83174378704834L29.74416737036133,30.14321378704834Q28.994640370361328,33.09798178704834,27.45715337036133,34.99449478704834Q25.88610637036133,36.93240278704834,23.985277370361327,37.15770578704834L23.705850370361325,37.19082578704834L23.705850370361325,29.83174378704834L23.955850370361325,29.83174378704834ZM23.955850370361325,30.33174378704834L23.955850370361325,30.08174378704834L24.205850370361325,30.08174378704834L24.205850370361325,36.90944378704834L23.955850370361325,36.90944378704834L23.926424370361328,36.661181787048335Q25.625591370361327,36.459780787048345,27.068754370361326,34.67961778704834Q28.537019370361328,32.868490787048344,29.25951737036133,30.02027378704834L29.501842370361327,30.08174378704834L29.501842370361327,30.33174378704834L23.955850370361325,30.33174378704834ZM23.353778370361326,30.08174378704834L23.353778370361326,37.190455787048336L23.07548937036133,37.15875878704834Q21.132514370361328,36.93746878704834,19.561601670361327,34.97700178704834Q18.051902770361327,33.09293078704834,17.310316070361328,30.14268778704834L17.232154870361327,29.83174378704834L23.353778370361326,29.83174378704834L23.353778370361326,30.08174378704834ZM22.853778370361326,30.08174378704834L23.103778370361326,30.08174378704834L23.103778370361326,30.33174378704834L17.552773470361327,30.33174378704834L17.552773470361327,30.08174378704834L17.795231770361326,30.02079878704834Q18.51024627036133,32.86532878704834,19.951788870361327,34.66434378704834Q21.393842370361327,36.46399978704834,23.132068370361328,36.66196878704834L23.103778370361326,36.91036478704834L22.853778370361326,36.91036478704834L22.853778370361326,30.08174378704834ZM22.853778370361326,29.22967478704834L22.853778370361326,21.74639578704834L23.103778370361326,21.74639578704834L22.887924370361326,21.872518787048342L22.855543370361328,21.817098787048337L23.07139737036133,21.690975787048338L23.07139737036133,21.940975787048338L17.361945170361327,21.940975787048338L17.361945170361327,21.690975787048338L17.60715677036133,21.739668787048338Q17.249795470361327,23.53929078704834,17.249795470361327,25.46147678704834Q17.249795470361327,27.38241878704834,17.60670567036133,29.18101378704834L17.361487370361328,29.22967478704834L17.361487370361328,28.97967478704834L23.103778370361326,28.97967478704834L23.103778370361326,29.22967478704834L22.853778370361326,29.22967478704834ZM23.353778370361326,29.47967478704834L17.156222370361327,29.47967478704834L17.116269070361326,29.27833478704834Q16.749795470361327,27.431544787048338,16.749795470361327,25.46147678704834Q16.749795470361327,23.49012978704834,17.116733070361327,21.642282787048337L17.156707270361327,21.440975787048338L23.21487037036133,21.440975787048338L23.353778370361326,21.67871178704834L23.353778370361326,29.22967478704834L23.353778370361326,29.47967478704834ZM22.39230637036133,20.947297787048342Q21.653098370361327,19.41096968704834,21.653098370361327,18.18906208704834Q21.69084037036133,15.85007378704834,22.919218370361328,13.87739918704834L23.131437370361326,14.00954678704834L23.157899370361328,14.258142487048339Q21.41232537036133,14.443959187048339,19.962694170361328,16.24503178704834Q18.51380107036133,18.04518798704834,17.79580117036133,20.89988378704834L17.553352370361328,20.838904787048342L17.553352370361328,20.588904787048342L22.61758637036133,20.588904787048342L22.61758637036133,20.838904787048342L22.39230637036133,20.947297787048342ZM23.015307370361327,21.088904787048342L17.23268697036133,21.088904787048342L17.31090357036133,20.77792478704834Q18.05562017036133,17.81700708704834,19.573186870361326,15.93152858704834Q21.152977370361327,13.96874208704834,23.104974370361326,13.76095108704834L23.61451937036133,13.70670988704834L23.34365637036133,14.14169548704834Q22.188537370361328,15.996723687048341,22.153098370361327,18.18906208704834Q22.153098370361327,19.296937987048338,22.84286537036133,20.73051078704834L23.015307370361327,21.088904787048342ZM20.26228527036133,14.71246288704834Q17.879052170361327,15.42223028704834,16.00491337036133,17.06666758704834Q14.142723570361328,18.700619687048338,13.141688070361328,20.94089378704834L12.913436870361329,20.838904787048342L12.913436870361329,20.588904787048342L16.687510470361328,20.588904787048342L16.687510470361328,20.838904787048342L16.444611570361328,20.779741787048337Q17.503503770361327,16.43234678704834,20.02887247036133,14.28250078704834L20.190928470361328,14.472862687048341L20.26228527036133,14.71246288704834ZM20.119571670361328,14.23326258704834L21.255409370361328,13.89499088704834L20.352984470361328,14.66322608704834Q17.95096587036133,16.70806408704834,16.930409470361326,20.89806678704834L16.883927370361327,21.088904787048342L12.527904970361329,21.088904787048342L12.685188270361328,20.73691478704834Q13.730807770361327,18.39686298704834,15.675142770361328,16.69083308704834Q17.631504070361327,14.97425078704834,20.119571670361328,14.23326258704834ZM12.912406770361327,29.83174378704834L16.883392370361328,29.83174378704834L16.929855370361327,30.02261478704834Q17.95021577036133,34.21425178704834,20.352984470361328,36.259726787048336L21.255409370361328,37.02796078704834L20.119571670361328,36.689692787048344Q17.63086697036133,35.94851378704834,15.67418147036133,34.231276787048344Q13.729507670361329,32.524580787048336,12.684134370361328,30.18368278704834L12.526968970361327,29.83174378704834L12.912406770361327,29.83174378704834ZM12.912406770361327,30.33174378704834L12.912406770361327,30.08174378704834L13.140679570361328,29.97980378704834Q14.141477570361328,32.22088878704834,16.003992570361326,33.85547878704834Q17.87843897036133,35.50054078704834,20.26228527036133,36.21048978704834L20.190928470361328,36.450091787048336L20.02887247036133,36.64045478704834Q17.502727070361328,34.48994778704834,16.444042170361328,30.14087578704834L16.686948770361326,30.08174378704834L16.686948770361326,30.33174378704834L12.912406770361327,30.33174378704834ZM30.069025370361327,11.196455587048339Q27.157898370361327,11.18278888704834,25.089180370361326,13.23102258704834Q23.020464370361328,15.27925588704834,23.00516337036133,18.19037528704834Q23.00516837036133,20.36485578704834,26.09212037036133,24.005456787048338Q27.90983237036133,26.14917678704834,30.23548937036133,28.19866078704834L30.07019837036133,28.38622178704834L29.903944370361327,28.19951578704834Q32.270588370361324,26.09212678704834,34.04640237036133,23.99748278704834Q37.133098370361324,20.35659678704834,37.133098370361324,18.18906118704834Q37.11780137036133,15.279860487048339,35.04981437036133,13.23175218704834Q32.98182637036133,11.18364278704834,30.071300370361328,11.19645618704834L30.069025370361327,11.196455587048339ZM30.06909937036133,10.69646096704834Q33.186603370361325,10.68273639704834,35.40165737036133,12.87649508704834Q37.61670837036132,15.07025428704834,37.633098370361324,18.18906118704834Q37.633098370361324,20.540017787048342,34.42778437036132,24.32081678704834Q32.629282370361324,26.44222378704834,30.23645437036133,28.57292878704834L30.071060370361327,28.72020478704834L29.904909370361327,28.57378478704834Q27.551983370361327,26.50027178704834,25.710760370361328,24.32882078704834Q22.50516837036133,20.54830278704834,22.505170370361327,18.187746987048342Q22.521559370361327,15.06960728704834,24.73739137036133,12.87571478704834Q26.953224370361326,10.68182241704834,30.07137337036133,10.69646113704834L30.06909937036133,10.69646096704834ZM30.114881370361328,14.20229048704834Q28.130523370361328,14.19699858704834,26.93142937036133,15.78152178704834Q26.134864370361328,16.83387188704834,26.127761370361327,18.15761188704834Q26.118942370361328,19.801470787048338,27.273512370361328,20.97165078704834Q28.42808137036133,22.14183178704834,30.071914370361327,22.155088787048342Q32.06355837036133,22.15514478704834,33.268955370361326,20.56377278704834Q34.069917370361324,19.50659278704834,34.08055837036133,18.176411587048342Q34.08049737036133,16.534534887048338,32.91962837036132,15.37060448704834Q31.758758370361328,14.20667318704834,30.11487937036133,14.202289087048339L30.114881370361328,14.20229048704834ZM30.11621237036133,13.70229098704834Q31.966804370361327,13.70722628704834,33.27364737036133,15.017517587048339Q34.58049037036133,16.327806487048342,34.580543370361326,18.180411387048338Q34.56857637036133,19.67638488704834,33.66752637036133,20.865670787048337Q32.31206937036133,22.65515278704834,30.06788037036133,22.65507278704834Q28.217346370361327,22.64014878704834,26.917593370361327,21.32282178704834Q25.617839370361327,20.00549598704834,25.627769370361328,18.15492918704834Q25.63576737036133,16.664783987048338,26.532725370361327,15.47980118704834Q27.88237037036133,13.69633528704834,30.116214370361327,13.70229218704834L30.11621237036133,13.70229098704834ZM26.480159370361328,18.202585187048342Q26.471899370361328,16.97291468704834,27.211776370361328,15.99433138704834Q28.287021370361327,14.572606087048339,30.06737137036133,14.55462078704834Q31.57454337036133,14.55453298704834,32.643831370361326,15.61312918704834Q33.713119370361326,16.67172528704834,33.72816637036133,18.17630958704834Q33.728122370361326,19.39649388704834,32.99480637036133,20.36479278704834Q31.910259370361327,21.79643778704834,30.116363370361327,21.80242078704834Q28.61877037036133,21.807412787048342,27.554496370361328,20.75378278704834Q26.490221370361326,19.70015048704834,26.480159370361328,18.202582387048338L26.480159370361328,18.202585187048342ZM26.98015037036133,18.19922348704834Q26.988823370361327,19.49018768704834,27.906267370361327,20.39845778704834Q28.823711370361327,21.306727787048338,30.114694370361327,21.30242378704834Q31.661136370361326,21.29726578704834,32.59621037036133,20.062928187048342Q33.22813037036133,19.22851748704834,33.22819137036133,18.18130968704834Q33.215202370361325,16.88236618704834,32.29205937036133,15.96845438704834Q31.368917370361327,15.05454348704834,30.072422370361327,15.05459498704834Q28.537664370361327,15.07009978704834,27.61061137036133,16.29587788704834Q26.973028370361327,17.13916298704834,26.98015037036133,18.19922538704834L26.98015037036133,18.19922348704834ZM16.39772417036133,25.46147678704834Q16.39772417036133,27.37493078704834,16.746718870361327,29.18227678704834L16.804145770361327,29.47967478704834L12.407874470361328,29.47967478704834L12.348562170361328,29.31388778704834Q10.969895360361328,25.46032478704834,12.348562170361328,21.60676278704834L12.407874470361328,21.440975787048338L16.804629770361327,21.440975787048338L16.74715807036133,21.73840478704834Q16.39772417036133,23.54679978704834,16.39772417036133,25.46147678704834ZM15.897724170361329,25.46147678704834Q15.897724170361329,23.49893378704834,16.256238970361327,21.64354578704834L16.501698470361326,21.690975787048338L16.501698470361326,21.940975787048338L12.583951270361329,21.940975787048338L12.583951270361329,21.690975787048338L12.819340270361328,21.77518978704834Q11.500930490361329,25.46032478704834,12.819340270361328,29.14546078704834L12.583951270361329,29.22967478704834L12.583951270361329,28.97967478704834L16.501253170361327,28.97967478704834L16.501253170361327,29.22967478704834L16.255787870361328,29.27707378704834Q15.897724170361329,27.42276478704834,15.897724170361329,25.46147678704834Z" fill="#30B690" fill-opacity="1"/></g></g></g></svg>