<svg xmlns="http://www.w3.org/2000/svg" xmlns:xlink="http://www.w3.org/1999/xlink" fill="none"
  version="1.1" viewBox="0 0 20 20">
  <defs>
    <clipPath id="master_svg0_353_49477">
      <rect x="0" y="0" width="20" height="20" rx="0" />
    </clipPath>
  </defs>
  <g clip-path="url(#master_svg0_353_49477)">
    <g>
      <path class='fill'
        d="M1.3330077525,2.91650390625L1.3330077525,14.99983690625Q1.3330078125,15.07370490625,1.3474188425,15.14615290625Q1.3618298725,15.21860190625,1.3900982124999999,15.28684790625Q1.4183664325,15.35509290625,1.4594056025,15.41651390625Q1.5004447724999999,15.47793190625,1.5526776925,15.53016590625Q1.6049106725,15.58239890625,1.6663301325,15.62343790625Q1.7277495825,15.66447590625,1.7959952325,15.69274490625Q1.8642408825,15.72101390625,1.9366900725,15.73542590625Q2.0091392625,15.74983590625,2.0830078125,15.74983690625L7.4996743125,15.74983690625Q8.2245445125,15.74983690625,8.7371096125,16.26240190625Q9.2496738125,16.77496590625,9.2496738125,17.49983690625Q9.2496734125,17.57370490625,9.264083812500001,17.646152906250002Q9.2784948125,17.71860090625,9.3067632125,17.78684690625Q9.335031512499999,17.85509290625,9.3760705125,17.91651290625Q9.4171100125,17.97793190625,9.4693432125,18.030165906249998Q9.521575912500001,18.08239890625,9.5829954125,18.12343790625Q9.6444149125,18.16447590625,9.712660812500001,18.19274490625Q9.7809067125,18.22101390625,9.853355412500001,18.23542490625Q9.9258051125,18.24983590625,9.9996743125,18.24983690625Q10.073542612499999,18.24983590625,10.1459923125,18.23542590625Q10.2184410125,18.22101390625,10.2866859125,18.19274490625Q10.3549318125,18.16447590625,10.4163513125,18.12343790625Q10.4777717125,18.08239790625,10.5300045125,18.03016490625Q10.5822372125,17.97793190625,10.6232757125,17.91651290625Q10.6643143125,17.85509290625,10.6925831125,17.78684790625Q10.7208519125,17.71860190625,10.7352629125,17.64615390625Q10.7496738125,17.57370490625,10.7496748125,17.49983690625L10.7496748125,6.24983720625Q10.7496748125,4.55845870625,9.5536971125,3.36248108625Q8.3577199125,2.16650384625,6.6663408125,2.16650384625L2.0830078125,2.16650384625Q2.0091392625,2.16650390625,1.9366900725,2.1809149362499998Q1.8642408825,2.19532596625,1.7959952325,2.22359430625Q1.7277495825,2.25186252625,1.6663301625,2.29290169625Q1.6049106725,2.33394086625,1.5526776925,2.38617378625Q1.5004447724999999,2.43840676625,1.4594056025,2.49982622625Q1.4183664325,2.56124567625,1.3900982124999999,2.62949132625Q1.3618298725,2.69773697625,1.3474187825000001,2.77018616625Q1.3330078125,2.84263535625,1.3330077525,2.91650390625ZM9.2496738125,14.75361790625L9.2496738125,6.24983720625Q9.2496738125,5.17977860625,8.4930367125,4.42314140625Q7.7363996125,3.66650396625,6.6663408125,3.66650396625L2.8330078725,3.66650396625L2.8330078725,14.24983690625L7.4996743125,14.24983690625Q8.4790101125,14.24983690625,9.2496738125,14.75361790625Z"
        fill-rule="evenodd" fill="#666666" fill-opacity="1" style="mix-blend-mode:passthrough" />
    </g>
    <g>
      <path class='fill'
        d="M17.916666499999998,15.74983690625Q17.9905348,15.74983590625,18.0629845,15.73542490625Q18.1354332,15.72101390625,18.203678099999998,15.69274490625Q18.271924,15.66447590625,18.333343499999998,15.62343790625Q18.3947639,15.58239890625,18.4469967,15.53016690625Q18.4992294,15.47793390625,18.5402679,15.41651390625Q18.5813065,15.35509390625,18.6095753,15.28684790625Q18.637844100000002,15.21860190625,18.652255099999998,15.14615290625Q18.666666,15.07370490625,18.666667,14.99983690625L18.666667,2.91650390625Q18.666666,2.84263535625,18.652255099999998,2.77018616625Q18.637844100000002,2.69773697625,18.6095753,2.62949132625Q18.5813065,2.56124567625,18.5402679,2.49982625625Q18.4992294,2.43840676625,18.4469967,2.38617378625Q18.3947639,2.33394086625,18.333343499999998,2.29290169625Q18.271924,2.25186252625,18.203678099999998,2.22359430625Q18.1354332,2.19532596625,18.0629835,2.18091487625Q17.9905348,2.16650390625,17.916666499999998,2.16650384625L13.3333333,2.16650384625Q11.6419545,2.16650384625,10.44597718,3.36248108625Q9.25000018,4.55845810625,9.25000018,6.24983720625L9.24999994,17.49983690625Q9.25,17.57370490625,9.26441103,17.646152906250002Q9.27882206,17.71860090625,9.3070904,17.78684690625Q9.335358620000001,17.85509290625,9.37639779,17.91651290625Q9.41743696,17.97793190625,9.46966988,18.030165906249998Q9.52190286,18.08239890625,9.58332232,18.12343790625Q9.64474177,18.16447590625,9.71298742,18.19274490625Q9.78123307,18.22101390625,9.85368226,18.23542490625Q9.92613145,18.24983590625,10,18.24983690625Q10.07386855,18.24983590625,10.14631774,18.23542590625Q10.21876693,18.22101390625,10.28701258,18.19274490625Q10.35525823,18.16447590625,10.41667765,18.12343790625Q10.47809714,18.08239790625,10.53033012,18.03016490625Q10.58256304,17.97793190625,10.62360221,17.91651290625Q10.664641379999999,17.85509290625,10.6929096,17.78684790625Q10.72117794,17.71860190625,10.73558903,17.64615390625Q10.75,17.57370490625,10.75000006,17.49983690625Q10.75000006,16.77496590625,11.2625645,16.26240190625Q11.7751297,15.74983690625,12.5,15.74983690625L17.916666499999998,15.74983690625ZM10.75000012,14.75361890625Q11.5206652,14.24983690625,12.5,14.24983690625L17.166666,14.24983690625L17.166666,3.66650396625L13.3333333,3.66650396625Q12.263274899999999,3.66650396625,11.5066375,4.42314140625Q10.7500003,5.17977860625,10.7500003,6.24983720625L10.75000012,14.75361890625Z"
        fill-rule="evenodd" fill="#666666" fill-opacity="1" style="mix-blend-mode:passthrough" />
    </g>
  </g>
</svg>