<svg xmlns="http://www.w3.org/2000/svg" xmlns:xlink="http://www.w3.org/1999/xlink" fill="none" version="1.1" width="20" height="20" viewBox="0 0 20 20"><defs><clipPath id="master_svg0_353_49471"><rect x="0" y="0" width="20" height="20" rx="0"/></clipPath></defs><g clip-path="url(#master_svg0_353_49471)"><g><path d="M18.249997999999998,10.0016914548L18.249997999999998,17.4999995Q18.249997,17.573867800000002,18.235585,17.6463165Q18.221173999999998,17.7187657,18.192905,17.7870111Q18.164637,17.8552566,18.123598,17.916676Q18.08256,17.9780951,18.030327,18.0303288Q17.978094,18.0825615,17.916674999999998,18.123601Q17.855255,18.1646404,17.787010000000002,18.192909200000003Q17.718764,18.2211781,17.646316,18.235588999999997Q17.573866000000002,18.25,17.499999000000003,18.25L2.5,18.25Q2.426131457,18.25,2.35368228,18.235588999999997Q2.28123312,18.2211781,2.21298748,18.192909200000003Q2.14474183,18.1646404,2.08332238,18.1236019Q2.02190292,18.0825624,1.96966994,18.0303297Q1.91743702,17.978096999999998,1.87639785,17.9166765Q1.8353586800000001,17.855257,1.8070903999999999,17.7870116Q1.77882212,17.7187662,1.7644110899999998,17.646317Q1.75,17.573867800000002,1.75,17.4999995L1.75,10.0034586587Q1.75,9.929590106,1.7644110899999998,9.85714093Q1.77882212,9.78469175,1.8070903999999999,9.71644613Q1.8353586800000001,9.64820051,1.87639785,9.58678105Q1.91743702,9.5253616,1.96966994,9.47312862Q2.02190292,9.420895699999999,2.08332238,9.37985653Q2.14474183,9.33881736,2.21298748,9.31054914Q2.28123312,9.2822808,2.35368228,9.26786977Q2.426131457,9.25345874,2.5,9.25345868Q2.573868543,9.25345874,2.64631772,9.26786977Q2.71876688,9.2822808,2.78701252,9.31054914Q2.85525817,9.33881736,2.91667762,9.37985659Q2.97809708,9.420895699999999,3.03033006,9.47312862Q3.08256298,9.5253616,3.12360215,9.58678105Q3.16464132,9.64820051,3.1929096,9.71644613Q3.22117788,9.78469177,3.23558891,9.85714096Q3.25,9.929590136,3.25,10.0034586787L3.25,16.7499995L16.749999000000003,16.7499995L16.749999000000003,10Q16.749997999999998,9.926131457,16.764409999999998,9.85368228Q16.77882,9.78123312,16.807088999999998,9.71298748Q16.835358,9.64474183,16.876396,9.58332238Q16.917437,9.52190292,16.969669,9.46966994Q17.021902,9.41743702,17.083320999999998,9.37639785Q17.14474,9.33535868,17.212986,9.3070904Q17.281232,9.27882212,17.353682,9.26441109Q17.42613,9.25,17.5,9.25Q17.573867999999997,9.25,17.646317,9.26441109Q17.718764999999998,9.27882212,17.787011,9.3070904Q17.855257,9.33535868,17.916676000000002,9.37639785Q17.978096,9.41743702,18.030329000000002,9.46966994Q18.082561,9.52190292,18.123601,9.58332238Q18.164639,9.64474183,18.192908,9.71298748Q18.221176,9.78123312,18.235588,9.85368228Q18.25,9.926131457,18.25,10L18.249997999999998,10.0016914548Z" fill-rule="evenodd" fill="#666666" fill-opacity="1" style="mix-blend-mode:passthrough"/></g><g><path d="M6.78048426,9.05332023375L9.9999998,12.27283569375L13.2196698,9.05316603375Q13.3251591,8.94767683375,13.4629869,8.89058649375Q13.6008158,8.83349609375,13.75,8.83349609375Q13.8238678,8.83349609375,13.896316500000001,8.84790718375Q13.968765699999999,8.86231821375,14.0370111,8.89058649375Q14.1052566,8.91885477375,14.166675999999999,8.95989394375Q14.2280951,9.00093311375,14.2803288,9.05316603375Q14.3325615,9.10539901375,14.373601,9.16681847375Q14.4146404,9.22823792375,14.4429092,9.29648357375Q14.4711781,9.36472921375,14.485589,9.43717837375Q14.5,9.50962755075,14.5,9.58349609375Q14.5,9.73268042375,14.4429092,9.87050879375Q14.3858185,10.00833714375,14.2803297,10.11382633375L14.2798681,10.11428797375L10.5303297,13.86382579375Q10.4248405,13.96931509375,10.2870121,14.026405293749999Q10.1491838,14.083495593750001,9.9999995,14.083495593750001Q9.8508153,14.083495093749999,9.7129869,14.026405293749999Q9.5751586,13.96931459375,9.4696696,13.86382579375L5.71966994,10.11382615375Q5.61418074,10.00833696375,5.5570904,9.87050867375Q5.5,9.73268036375,5.5,9.58349609375Q5.5,9.50962755075,5.51441109,9.43717837375Q5.52882212,9.36472921375,5.5570904,9.29648357375Q5.58535868,9.22823792375,5.62639785,9.16681847375Q5.66743702,9.10539901375,5.71966994,9.05316603375Q5.77190292,9.00093311375,5.83332238,8.95989394375Q5.89474183,8.91885477375,5.96298748,8.89058649375Q6.03123312,8.86231821375,6.10368228,8.84790718375Q6.176131457,8.83349609375,6.25,8.83349609375Q6.39918427,8.83349609375,6.53701258,8.89058643375Q6.67484087,8.94767683375,6.78033006,9.05316603375L6.78048426,9.05332023375Z" fill-rule="evenodd" fill="#666666" fill-opacity="1" style="mix-blend-mode:passthrough"/></g><g><path d="M9.2470703125,2.5Q9.2470703125,2.426131457,9.2614814025,2.35368228Q9.2758924325,2.28123312,9.3041607125,2.21298748Q9.3324289925,2.14474183,9.3734681625,2.08332238Q9.4145073325,2.02190292,9.4667402525,1.96966994Q9.5189732325,1.91743702,9.5803926925,1.87639785Q9.6418121425,1.8353586800000001,9.7100577925,1.8070903999999999Q9.7783034325,1.77882212,9.8507525925,1.7644110899999998Q9.9232017695,1.75,9.9970703125,1.75Q10.0709388555,1.75,10.1433880325,1.7644110899999998Q10.2158371925,1.77882212,10.2840828325,1.8070903999999999Q10.3523284825,1.8353586800000001,10.4137479325,1.87639785Q10.4751673925,1.91743702,10.5274003725,1.96966994Q10.5796332925,2.02190292,10.6206724625,2.08332238Q10.6617116325,2.14474183,10.6899799125,2.21298748Q10.7182481925,2.28123312,10.7326592225,2.35368228Q10.7470703125,2.426131457,10.7470703125,2.5L10.7470703125,13.333333Q10.7470703125,13.407202,10.7326592225,13.47965Q10.7182481925,13.552099,10.6899799125,13.620344Q10.6617116325,13.68859,10.6206724625,13.75001Q10.5796332925,13.811429,10.5274003725,13.863662Q10.4751673925,13.915895,10.4137479325,13.956934Q10.3523284825,13.997972,10.2840828325,14.026241Q10.2158371925,14.05451,10.1433880325,14.068921Q10.0709388555,14.083332,9.9970703125,14.083333Q9.9232017695,14.083332,9.8507525925,14.068922Q9.7783034325,14.05451,9.7100577925,14.026241Q9.6418121425,13.997972,9.5803926925,13.956934Q9.5189732325,13.915895,9.4667402525,13.863663Q9.4145073325,13.81143,9.3734681625,13.75001Q9.3324289925,13.68859,9.3041607125,13.620344Q9.2758924325,13.552099,9.2614814025,13.47965Q9.2470703125,13.407202,9.2470703125,13.333333L9.2470703125,2.5Z" fill-rule="evenodd" fill="#666666" fill-opacity="1" style="mix-blend-mode:passthrough"/></g></g></svg>