<svg xmlns="http://www.w3.org/2000/svg" xmlns:xlink="http://www.w3.org/1999/xlink" fill="none" version="1.1" width="20" height="20" viewBox="0 0 20 20"><defs><clipPath id="master_svg0_353_49485"><rect x="0" y="0" width="20" height="20" rx="0"/></clipPath></defs><g clip-path="url(#master_svg0_353_49485)"><g><path d="M3.5774379874999997,3.57694960625Q0.9169911175,6.23739620625,0.9169912375,9.99983690625Q0.9169921875,13.76227790625,3.5774379874999997,16.42272390625Q6.2378840875,19.08316990625,10.0003251875,19.08316990625Q13.7627661875,19.08316990625,16.4232121875,16.42272290625Q19.0836581875,13.76227590625,19.0836581875,9.99983410625Q19.0836581875,6.23739580625,16.4232111875,3.57694960625Q13.7627641875,0.91650318625,10.0003223875,0.91650295625Q6.2378840875,0.91650390625,3.5774379874999997,3.57694960625ZM4.6380982875,15.36206390625Q2.4169921875,13.14095890625,2.4169921875,9.99983690625Q2.4169912375,6.85871700625,4.6380982875,4.63761000625Q6.8592042875,2.41650390625,10.0003223875,2.41650295625Q13.1414441875,2.41650318625,15.3625521875,4.63761000625Q17.5836581875,6.85871600625,17.5836581875,9.99983410625Q17.5836581875,13.14095690625,15.3625521875,15.36206390625Q13.1414471875,17.58316990625,10.0003251875,17.58316990625Q6.8592037875,17.58316990625,4.6380982875,15.36206390625Z" fill-rule="evenodd" fill="#666666" fill-opacity="1" style="mix-blend-mode:passthrough"/></g><g><path d="M1.6669921875,9.25L18.3336581875,9.25Q18.4075281875,9.25,18.4799751875,9.26441109Q18.5524231875,9.27882212,18.6206681875,9.3070904Q18.6889131875,9.33535868,18.7503341875,9.37639785Q18.8117521875,9.41743702,18.8639871875,9.46966994Q18.9162201875,9.52190292,18.9572581875,9.58332238Q18.9982981875,9.64474183,19.0265651875,9.71298748Q19.0548341875,9.78123312,19.0692461875,9.85368228Q19.0836561875,9.926131457,19.0836581875,10Q19.0836561875,10.073868543,19.0692461875,10.14631772Q19.0548341875,10.21876688,19.0265651875,10.28701252Q18.9982981875,10.35525817,18.9572581875,10.41667762Q18.9162201875,10.47809708,18.8639871875,10.53033006Q18.8117521875,10.58256298,18.7503341875,10.62360215Q18.6889131875,10.66464132,18.6206681875,10.6929096Q18.5524231875,10.72117788,18.4799761875,10.73558891Q18.4075281875,10.75,18.3336581875,10.75L1.6669921875,10.75Q1.5931236445,10.75,1.5206744675,10.73558891Q1.4482253075,10.72117788,1.3799796675,10.6929096Q1.3117340175,10.66464132,1.2503145675,10.62360215Q1.1888951075,10.58256298,1.1366621275,10.53033006Q1.0844292075,10.47809708,1.0433900375,10.41667762Q1.0023508675000001,10.35525817,0.9740825875,10.28701252Q0.9458143075,10.21876688,0.9314032775,10.14631772Q0.9169921875,10.073868543,0.9169921875,10Q0.9169921875,9.926131457,0.9314032775,9.85368228Q0.9458143075,9.78123312,0.9740825875,9.71298748Q1.0023508675000001,9.64474183,1.0433900375,9.58332238Q1.0844292075,9.52190292,1.1366621275,9.46966994Q1.1888951075,9.41743702,1.2503145675,9.37639785Q1.3117340175,9.33535868,1.3799796675,9.3070904Q1.4482253075,9.27882212,1.5206744675,9.26441109Q1.5931236445,9.25,1.6669921875,9.25Z" fill-rule="evenodd" fill="#666666" fill-opacity="1" style="mix-blend-mode:passthrough"/></g><g><path d="M6.9469416475,3.82873730625Q5.9169921875,6.40361550625,5.9169921875,9.99983690625Q5.9169921875,13.59605890625,6.9469416475,16.17093690625Q8.1118329875,19.08316990625,10.0003254875,19.08316990625Q11.888817787499999,19.08316990625,13.0537089875,16.17093690625Q14.0836581875,13.59605890625,14.0836581875,9.99983690625Q14.0836581875,6.40361450625,13.0537089875,3.82873730625Q11.888817787499999,0.91650366625,10.0003254875,0.91650390625Q8.1118327875,0.91650390625,6.9469416475,3.82873730625ZM8.339657087500001,15.61385090625Q7.4169921875,13.30718390625,7.4169921875,9.99983690625Q7.4169922475,6.69248870625,8.339657087500001,4.385822506249999Q8.7478677875,3.36529350625,9.2477538875,2.83670950625Q9.6451456875,2.41650390625,10.0003254875,2.41650390625Q10.3555051875,2.41650384625,10.7528972875,2.8367100062499997Q11.2527823875,3.36529300625,11.6609935875,4.385822506249999Q12.5836586875,6.69248960625,12.5836586875,9.99983690625Q12.5836586875,13.30718290625,11.6609935875,15.61385090625Q11.2527808875,16.63438390625,10.7528972875,17.16296590625Q10.3555063875,17.58317090625,10.0003254875,17.58317090625Q9.6451460875,17.58317090625,9.2477538875,17.16296390625Q8.7478682875,16.63437990625,8.339657087500001,15.61385090625Z" fill-rule="evenodd" fill="#666666" fill-opacity="1" style="mix-blend-mode:passthrough"/></g><g><path d="M3.577090685,4.75640320875Q3.471601965,4.65091406875,3.414511915,4.51308607875Q3.357421875,4.37525808875,3.357421875,4.22607421875Q3.357421875,4.15220567575,3.371832965,4.07975649875Q3.386243995,4.00730733875,3.414512275,3.93906169875Q3.442780555,3.87081604875,3.483819725,3.80939659875Q3.524858895,3.74797713875,3.577091815,3.69574415875Q3.629324795,3.64351123875,3.690744255,3.60247206875Q3.752163705,3.56143289875,3.820409355,3.53316461875Q3.888654995,3.50489633875,3.961104155,3.49048530875Q4.033553332,3.47607421875,4.107421875,3.47607421875Q4.256606455,3.47607421875,4.394434985,3.53316473875Q4.532263545,3.59025525875,4.637752775,3.69574492875Q5.687684375,4.74567925875,7.048433275,5.3212331187499995Q8.456652675,5.91686561875,9.999958975,5.91686591875Q11.543293975000001,5.91686571875,12.951522875,5.32123271875Q14.312274875,4.74568092875,15.362211875,3.69574397875Q15.467700875,3.59025483875,15.605529875,3.53316449875Q15.743358875,3.47607421875,15.892542875,3.47607421875Q15.966410875,3.47607421875,16.038859875,3.49048530875Q16.111308875,3.50489633875,16.179553875,3.53316461875Q16.247799875,3.56143289875,16.309218875,3.60247206875Q16.370639875000002,3.64351123875,16.422872875,3.69574415875Q16.475104875,3.74797713875,16.516142875,3.80939659875Q16.557181874999998,3.87081604875,16.585450875,3.93906169875Q16.613719875,4.00730733875,16.628130875,4.07975649875Q16.642541875,4.15220567575,16.642542875,4.22607421875Q16.642542875,4.37525857875,16.585452875,4.51308697875Q16.528361875,4.65091532875,16.422872875,4.75640457875L16.422513875,4.75676291875Q15.165828875,6.01331431875,13.535853375,6.70273831875Q11.847473175000001,7.41686581875,9.999958975,7.41686581875Q8.152471975000001,7.41686581875,6.464100575,6.70273781875Q4.834272985,6.01337201875,3.577669855,4.75698178875L3.577090975,4.75640290875L3.577090685,4.75640320875Z" fill-rule="evenodd" fill="#666666" fill-opacity="1" style="mix-blend-mode:passthrough"/></g><g><path d="M6.464100575,13.29762433075Q4.833897705,13.98714864375,3.5770912150000003,15.243957793749999Q3.471602205,15.34944699375,3.414512035,15.48727509375Q3.357421875,15.62510319375,3.357421875,15.77428719375Q3.357421875,15.84815549375,3.371832965,15.92060469375Q3.386243995,15.99305389375,3.414512275,16.06129929375Q3.442780555,16.12954499375,3.483819725,16.19096469375Q3.524858895,16.25238419375,3.577091815,16.30461719375Q3.629324795,16.35685019375,3.690744255,16.39788909375Q3.752163705,16.43892809375,3.820409355,16.46719649375Q3.888654995,16.49546479375,3.961104155,16.50987579375Q4.033553332,16.52428699375,4.107421875,16.52428719375Q4.256606325,16.52428719375,4.394434755,16.46719649375Q4.532263155,16.41010619375,4.637752415,16.30461689375Q5.687684375,15.254682893750001,7.048433275,14.67912899375Q8.456653575,14.08349627375,9.999959475,14.08349621375Q11.543293975000001,14.08349609375,12.951523775,14.67912939375Q14.312273875,15.25468059375,15.362211875,16.30461759375Q15.467700875,16.41010669375,15.605529875,16.46719689375Q15.743358875,16.52428719375,15.892542875,16.52428719375Q15.966410875,16.52428699375,16.038859875,16.50987579375Q16.111308875,16.49546479375,16.179553875,16.46719649375Q16.247799875,16.43892809375,16.309218875,16.39788909375Q16.370639875000002,16.35685019375,16.422872875,16.30461719375Q16.475104875,16.25238419375,16.516142875,16.19096469375Q16.557181874999998,16.12954499375,16.585450875,16.06129929375Q16.613719875,15.99305389375,16.628130875,15.92060469375Q16.642541875,15.84815549375,16.642542875,15.77428719375Q16.642541875,15.62510249375,16.585451875,15.487274393749999Q16.528360875,15.34944579375,16.422872875,15.24395679375Q15.166060875,13.98714584375,13.535853375,13.29762360475Q11.847473175000001,12.58349609375,9.999959475,12.58349627375Q8.152472475,12.58349633375,6.464100575,13.29762433075Z" fill-rule="evenodd" fill="#666666" fill-opacity="1" style="mix-blend-mode:passthrough"/></g></g></svg>