<svg xmlns="http://www.w3.org/2000/svg" xmlns:xlink="http://www.w3.org/1999/xlink" fill="none"
  version="1.1" viewBox="0 0 20 20">
  <defs>
    <clipPath id="master_svg0_356_48751">
      <rect x="0" y="0" width="20" height="20" rx="0" />
    </clipPath>
  </defs>
  <g clip-path="url(#master_svg0_356_48751)">
    <g>
      <path class="fill"
        d="M10.75000006,9.58349609372941L10.75349975,17.08290859375L10.75349987,17.08314609375L10.75349998,17.08349609375Q10.75349993,17.157363893750002,10.73908883,17.22981259375Q10.7246778,17.30226179375,10.69640958,17.37050719375Q10.66814125,17.43875269375,10.62710214,17.50017209375Q10.58606297,17.56159119375,10.53383005,17.61382489375Q10.4815971,17.66605759375,10.42017764,17.70709709375Q10.35875821,17.74813649375,10.29051256,17.776405293750003Q10.22226691,17.80467419375,10.14981773,17.819085093749997Q10.077368535,17.83349609375,10.0034999847,17.83349609375Q9.929653548,17.83349609375,9.85722521,17.819092793750002Q9.78479688,17.80469039375,9.71656835,17.776438693750002Q9.64833987,17.74818609375,9.58693159,17.70717049375Q9.52552336,17.66615489375,9.47329384,17.613948793749998Q9.42106432,17.56174369375,9.38001955,17.50035479375Q9.33897471,17.43896579375,9.310691,17.37075089375Q9.28240728,17.30253549375,9.26797092,17.23011449375Q9.25353456,17.15769289375,9.25350004,17.08384659375L9.25349993,17.08349609375L9.25000024,9.58408340003L9.25000012,9.58384609214L9.25,9.58349609375Q9.25,9.50962755075,9.26441109,9.43717837375Q9.27882212,9.36472921375,9.3070904,9.29648357375Q9.33535868,9.22823792375,9.37639785,9.16681847375Q9.41743702,9.10539901375,9.46966994,9.05316603375Q9.52190292,9.00093311375,9.58332238,8.95989394375Q9.64474183,8.91885477375,9.71298748,8.89058649375Q9.78123312,8.86231821375,9.85368228,8.84790718375Q9.926131457,8.83349609375,10,8.83349609375Q10.073846467,8.83349609375,10.14627483,8.84789860375Q10.21870318,8.86230111375,10.28693172,8.89055299375Q10.35516024,8.91880488375,10.41656852,8.95982104375Q10.47797677,9.00083720375,10.53020632,9.05304229375Q10.58243585,9.10524746375,10.62348062,9.16663658375Q10.66452539,9.22802570375,10.69280916,9.29624104375Q10.721092819999999,9.36445638375,10.73552907,9.43687801375Q10.74996543,9.50929963575,10.74999994,9.58314609533L10.75000006,9.58349609372941Z"
        fill-rule="evenodd" fill="#666666" fill-opacity="1" style="mix-blend-mode:passthrough" />
    </g>
    <g>
      <path class="fill"
        d="M0.85204554,9.89525940625Q1.11247289,12.02013490625,2.53117639,13.62332490625Q2.6379424499999997,13.74397490625,2.78483685,13.81013590625Q2.93173145,13.87629690625,3.09283785,13.87629690625Q3.16670635,13.87629690625,3.23915555,13.86188590625Q3.31160475,13.84747490625,3.37985025,13.81920490625Q3.44809595,13.79093790625,3.5095154500000003,13.74989790625Q3.57093475,13.70885990625,3.62316775,13.65662690625Q3.67540075,13.60439290625,3.71643975,13.54297390625Q3.75747895,13.48155390625,3.78574725,13.41330790625Q3.81401535,13.34506190625,3.82842655,13.27261390625Q3.84283785,13.20016490625,3.84283785,13.12629690625Q3.84283805,12.98896290625,3.79417445,12.86054040625Q3.74551105,12.73211670625,3.65449905,12.62926960625Q2.54463863,11.37508300625,2.34090501,9.71278290625Q2.13717115,8.05048080625,2.9113042499999997,6.56539180625Q3.68543795,5.08030390625,5.16483835,4.29538020625Q6.64424225,3.51045471625,8.308001950000001,3.70208024625Q9.97172925,3.8937043562499998,11.23396205,4.99441220625Q12.49619325,6.09511830625,12.91243425,7.71728800625Q12.92784325,7.77734040625,12.95290325,7.83404730625Q12.97796425,7.89075420625,13.01199725,7.94257640625Q13.04603025,7.99439810625,13.08811025,8.039928406249999Q13.13019025,8.08545870625,13.17917425,8.12346170625Q13.22816025,8.161464206249999,13.28272025,8.19090750625Q13.33728025,8.220350306250001,13.39593525,8.24043460625Q13.45459025,8.26051900625,13.51574525,8.27069950625Q13.57690225,8.280880006250001,13.63890025,8.280880006250001L14.60598325,8.280880006250001Q15.68627125,8.280047406249999,16.50677525,8.79993720625Q17.33303625,9.32347680625,17.61909325,10.226360306250001Q17.92420425,11.18939210625,17.60112025,12.14651580625Q17.278249250000002,13.10301190625,16.45278425,13.68394790625L16.451700250000002,13.68471090625Q16.37788525,13.73661690625,16.31848925,13.80454990625Q16.259092250000002,13.87248390625,16.217505250000002,13.95256790625Q16.175917249999998,14.03265190625,16.15451225,14.12031390625Q16.13310825,14.20797490625,16.13310825,14.29821390625Q16.13310825,14.37208190625,16.147518249999997,14.44453090625Q16.16192925,14.51697890625,16.19019825,14.58522490625Q16.21846625,14.65347090625,16.25950525,14.71489090625Q16.30054425,14.77630990625,16.352777250000003,14.82854290625Q16.40501025,14.88077590625,16.466429249999997,14.92181490625Q16.527848249999998,14.96285390625,16.59609425,14.99112190625Q16.664340250000002,15.01938990625,16.73678925,15.03380090625Q16.809239249999997,15.04821290625,16.88310825,15.04821390625Q17.12042125,15.04821390625,17.31454025,14.91170090625Q17.315464249999998,14.91105090625,17.31638725,14.91039990625Q18.54266325,14.04727090625,19.02233725,12.62625600625Q19.50237125,11.20417120625,19.04904025,9.77331730625Q18.59781625,8.349110606250001,17.309617250000002,7.53287600625Q16.12095525,6.77971120625,14.60598325,6.78088020625L14.19655125,6.78088020625Q13.60901525,5.07531070625,12.21981725,3.86388599625Q10.60633855,2.45688074625,8.47963195,2.2119314662500003Q6.35289525,1.96698206625,4.46180965,2.97033282725Q2.57072675,3.9736823062499997,1.581171539,5.87203290625Q0.59161794,7.77038240625,0.85204554,9.89525940625Z"
        fill-rule="evenodd" fill="#666666" fill-opacity="1" style="mix-blend-mode:passthrough" />
    </g>
    <g>
      <path class="fill"
        d="M9.4699733125,8.33294708L6.8183068625,10.98457245Q6.7128157625,11.090061949999999,6.6557242825,11.22789145Q6.5986328125,11.36572075,6.5986328125,11.51490665Q6.5986328125,11.58877515,6.6130439025,11.661224149999999Q6.6274549325,11.73367305,6.6557232125,11.801918950000001Q6.6839914925,11.87016465,6.7250306625,11.931584149999999Q6.7660698325,11.99300365,6.8183027525,12.04523655Q6.8705357325,12.09746935,6.9319551925,12.138508550000001Q6.9933746425,12.17954775,7.0616202925,12.20781615Q7.1298659325,12.23608445,7.2023150925,12.250495449999999Q7.2747642695,12.26490645,7.3486328125,12.26490665Q7.4978156125,12.26490665,7.6356427625,12.20781735Q7.7734698925,12.15072825,7.8789588825,12.04524065L7.8793030425,12.04489635L10.0002992125,9.92393305L12.1216397125,12.04524065Q12.2271290125,12.15072825,12.364955912500001,12.20781735Q12.5027833125,12.26490665,12.6519661125,12.26490665Q12.7258344125,12.26490645,12.7982836125,12.250495449999999Q12.8707323125,12.236084250000001,12.9389782125,12.20781585Q13.007223612499999,12.17954775,13.0686431125,12.138508550000001Q13.1300626125,12.09746935,13.1822958125,12.04523655Q13.234528512499999,11.99300365,13.2755675125,11.931584149999999Q13.3166070125,11.87016465,13.344875312500001,11.801918950000001Q13.3731437125,11.73367305,13.3875551125,11.661223849999999Q13.4019661125,11.58877515,13.4019661125,11.51490665Q13.4019661125,11.36572075,13.344874812499999,11.227890949999999Q13.2877831125,11.090061649999999,13.1822920125,10.98457215L13.181766012499999,10.98404665L10.530625112500001,8.33294713Q10.4783924125,8.28071505,10.4169731125,8.23967665Q10.3555541125,8.19863826,10.2873092125,8.17037058Q10.219064212500001,8.14210284,10.146616012500001,8.1276921Q10.0741672125,8.11328137,10.0002992125,8.11328137Q9.9264316125,8.11328137,9.8539829125,8.1276921Q9.781534712500001,8.14210284,9.7132892125,8.17037058Q9.6450443125,8.19863826,9.5836253125,8.23967665Q9.5222063125,8.28071499,9.4699733125,8.33294708Z"
        fill-rule="evenodd" fill="#666666" fill-opacity="1" style="mix-blend-mode:passthrough" />
    </g>
  </g>
</svg>