<svg xmlns="http://www.w3.org/2000/svg" xmlns:xlink="http://www.w3.org/1999/xlink" fill="none"
  version="1.1" viewBox="0 0 24 24">
  <defs>
    <clipPath id="master_svg0_353_53689">
      <rect x="0" y="0" width="24" height="24" rx="0" />
    </clipPath>
    <mask id="master_svg1_353_53696" style="mask-type:alpha" maskUnits="objectBoundingBox">
      <g>
        <g>
          <path d="M24,0L0,0L0,24L24,24L24,0Z" fill="#333333" fill-opacity="1"
            style="mix-blend-mode:passthrough" />
        </g>
      </g>
    </mask>
  </defs>
  <g clip-path="url(#master_svg0_353_53689)">
    <g mask="url(#master_svg1_353_53696)">
      <g>
        <g>
          <path
            d="M19,12Q18.999999000000003,11.9015086,19.019213999999998,11.80490969Q19.038427,11.70831078,19.076118,11.6173166Q19.11381,11.52632242,19.168529,11.44442987Q19.223247999999998,11.36253726,19.292892000000002,11.29289329Q19.362535,11.22324938,19.444428000000002,11.168530520000001Q19.526321,11.113811609999999,19.617314999999998,11.07612056Q19.708309,11.0384295,19.804909000000002,11.01921481Q19.901508,11.00000006,20,11Q20.098492,11.00000006,20.195089,11.01921481Q20.291687,11.03842956,20.382683,11.07612062Q20.473675,11.113811609999999,20.555569,11.16853046Q20.637461,11.22324938,20.707106,11.29289329Q20.776749,11.36253726,20.831469,11.44442981Q20.886187,11.52632242,20.923878,11.6173166Q20.961571,11.70831078,20.980785,11.80490969Q21,11.9015086,21,12L21,20Q21,20.0984917,20.980785,20.1950903Q20.961571,20.2916889,20.923878,20.382682799999998Q20.886187,20.4736767,20.831467,20.5555706Q20.776749,20.6374626,20.707106,20.7071066Q20.637461,20.7767506,20.555569,20.8314686Q20.473675,20.8861876,20.382683,20.9238787Q20.291687,20.9615698,20.195089,20.980785400000002Q20.098492,21,20,21L4,21Q3.9015086,21,3.80490969,20.980785400000002Q3.70831078,20.9615698,3.6173166,20.9238787Q3.52632242,20.8861876,3.44442987,20.8314686Q3.36253726,20.7767506,3.29289329,20.7071066Q3.22324938,20.6374626,3.16853052,20.5555696Q3.11381161,20.4736767,3.07612056,20.382682799999998Q3.0384295,20.2916889,3.0192148100000002,20.1950893Q3.00000006,20.0984917,3,20L3,12.0036892362Q3.00000006,11.905197836,3.0192148100000002,11.80859894Q3.03842956,11.71200001,3.07612062,11.62100583Q3.11381161,11.53001165,3.16853046,11.44811904Q3.22324938,11.36622643,3.29289329,11.29658246Q3.36253726,11.22693861,3.44442981,11.17221969Q3.52632242,11.11750084,3.6173166,11.07980978Q3.70831078,11.04211879,3.80490969,11.02290404Q3.9015086,11.00368929,4,11.003689229999999Q4.0984914,11.00368929,4.19509031,11.02290404Q4.29168922,11.04211879,4.3826834,11.07980978Q4.47367758,11.11750084,4.5555701299999996,11.17221969Q4.63746274,11.22693861,4.70710671,11.29658252Q4.77675062,11.36622643,4.83146948,11.44811904Q4.88618839,11.53001165,4.92387944,11.62100583Q4.9615705,11.71200001,4.98078519,11.80859894Q4.99999994,11.905197859,5,12.0036892593L5,19L19,19L19,12Z"
            fill-rule="evenodd" fill="#30B690" fill-opacity="1" style="mix-blend-mode:passthrough" />
        </g>
        <g>
          <path
            d="M11.2928932,3.29289323L7.29289323,7.2928932Q7.15224093,7.4335456,7.0761205,7.6173167Q7,7.8010876,7,8Q7.00000006,8.0984907,7.01921481,8.1950898Q7.03842956,8.2916884,7.07612062,8.382682800000001Q7.11381161,8.4736767,7.16853046,8.5555696Q7.22324938,8.6374626,7.29289329,8.7071066Q7.36253726,8.7767506,7.44442981,8.8314695Q7.52632242,8.8861885,7.6173166,8.9238791Q7.70831078,8.9615703,7.80490969,8.9807854Q7.9015086,9,8,9Q8.1989124,9,8.38268352,8.9238796Q8.56645459,8.847759199999999,8.70710689,8.7071066L12,5.4142133999999995L15.2923765,8.7065897L15.2928934,8.7071066Q15.4335456,8.847759199999999,15.617316200000001,8.9238796Q15.8010874,9,16,9Q16.0984917,9,16.1950903,8.9807854Q16.2916889,8.9615703,16.382682799999998,8.9238791Q16.4736767,8.8861885,16.5555706,8.8314695Q16.6374626,8.7767506,16.7071066,8.7071066Q16.7767506,8.6374626,16.8314686,8.5555696Q16.8861876,8.4736767,16.9238787,8.382682800000001Q16.9615698,8.2916884,16.980785400000002,8.1950893Q17,8.0984907,17,8Q17,7.8010876,16.9238796,7.617316499999999Q16.8477592,7.4335456,16.7071066,7.2928932L12.7071066,3.29289323Q12.5664544,3.15224099,12.3826833,3.0761205Q12.1989126,3.00000012,12,3.00000006Q11.801087599999999,3.00000012,11.6173165,3.07612056Q11.4335456,3.15224099,11.2928932,3.29289323Z"
            fill-rule="evenodd" fill="#30B690" fill-opacity="1" style="mix-blend-mode:passthrough" />
        </g>
        <g>
          <path
            d="M10.996310710906982,4Q10.996310770906982,3.9015086,11.015525520906982,3.80490969Q11.034740270906983,3.70831078,11.072431330906982,3.6173166Q11.110122320906981,3.52632242,11.164841170906982,3.44442987Q11.219560090906983,3.36253726,11.289204000906983,3.29289329Q11.358847970906982,3.22324938,11.440740520906983,3.16853052Q11.522633130906982,3.11381161,11.613627310906983,3.07612056Q11.704621490906982,3.0384295,11.801220400906983,3.0192148100000002Q11.897819310906982,3.00000006,11.996310710906982,3Q12.094802110906983,3.00000006,12.191401020906982,3.0192148100000002Q12.287999930906983,3.03842956,12.378994110906982,3.07612062Q12.469988290906983,3.11381161,12.551880840906982,3.16853046Q12.633773450906983,3.22324938,12.703417420906982,3.29289329Q12.773061330906982,3.36253726,12.827780190906982,3.44442981Q12.882499100906983,3.52632242,12.920190150906983,3.6173166Q12.957881210906983,3.70831078,12.977095900906983,3.80490969Q12.996310650906983,3.9015086,12.996310710906982,4L12.996310710906982,15.555555Q12.996310650906983,15.654047,12.977095900906983,15.750646Q12.957881150906982,15.847244,12.920190090906983,15.938238Q12.882499100906983,16.029232,12.827780250906983,16.111126Q12.773061330906982,16.193018000000002,12.703417420906982,16.262662Q12.633773450906983,16.332306000000003,12.551880900906982,16.387026Q12.469988290906983,16.441744,12.378994110906982,16.479435000000002Q12.287999930906983,16.517125999999998,12.191401020906982,16.536341Q12.094802110906983,16.555555,11.996310710906982,16.555555Q11.897819310906982,16.555555,11.801220400906983,16.536341Q11.704621490906982,16.517125999999998,11.613627310906983,16.479435000000002Q11.522633130906982,16.441744,11.440740580906983,16.387024Q11.358847970906982,16.332306000000003,11.289204000906983,16.262662Q11.219560090906983,16.193018000000002,11.164841230906983,16.111126Q11.110122320906981,16.029232,11.072431270906982,15.938238Q11.034740210906982,15.847244,11.015525520906982,15.750645Q10.996310770906982,15.654047,10.996310710906982,15.555555L10.996310710906982,4Z"
            fill-rule="evenodd" fill="#30B690" fill-opacity="1" style="mix-blend-mode:passthrough" />
        </g>
      </g>
    </g>
  </g>
</svg>