<svg xmlns="http://www.w3.org/2000/svg" xmlns:xlink="http://www.w3.org/1999/xlink" fill="none" version="1.1" width="74" height="20" viewBox="0 0 74 20"><g><path d="M16.139999,17.16L11.84,17.16L9.2399998,14.2L5.0599999,17.16L0.31999999,17.16L5.9200001,13.18L0.85999995,13.18L1.12,11.32L8.7200003,11.32L9.3800001,6.5600004L13.12,6.5600004L12.46,11.32L17.059999,11.32L16.799999,13.18L10.66,13.18L9.96,13.68L13.099999,13.68L16.139999,17.16ZM12.32,3.9200001L18.08,3.9200001L17.639999,6.96L14.259999,6.96L14.44,5.7600002L5.3199997,5.7600002L5.1999998,6.5600004L8.3999996,6.5600004L9.0599995,8.54L5.5599999,8.54L5.02,6.96L1.74,6.96L2.1800001,3.9200001L8.0599995,3.9200001L8.1199999,3.5L7.48,2.7800007L12.48,2.7800007L12.32,3.9200001ZM7.5599999,10.88L4.0799999,10.88L3.3399999,8.9000006L6.8199997,8.9000006L7.5599999,10.88ZM20.42,4.1199999L19.92,3.54L27.52,3.54L25.719999,16.459999L18.699999,16.459999L20.42,4.1199999ZM28.439999,17.18L30.219999,15.34L31.459999,6.5799999L27.48,6.5799999L27.74,4.6800003L31.719999,4.6800003L31.919998,3.3400002L31.439999,2.7800007L35.419998,2.7800007L35.139999,4.6800003L36.48,4.6800003L36.220001,6.5799999L34.879997,6.5799999L33.579998,15.86Q33.48,16.440001,33.040001,16.809999Q32.599998,17.18,32.02,17.18L28.439999,17.18ZM29.939999,13.42L27.279999,13.42L27.259998,8.1000004L29.919998,8.1000004L29.939999,13.42ZM22.939999,14.559999L23.459999,10.76L22.52,10.76L22,14.559999L22.939999,14.559999ZM22.799999,8.8600006L23.74,8.8600006L24.219999,5.4400005L23.279999,5.4400005L22.799999,8.8600006ZM43.68,17.18L45.66,3.1599998L55.159996,3.1599998L54.759998,5.9800005Q54.68,6.5600004,54.239998,6.9499998Q53.799999,7.3400002,53.220001,7.3400002L50.779999,7.3400002L51.639999,6.6000004L51.860001,5.0600004L48.439999,5.0600004L48,8.1000004L54.459999,8.1000004L54.040001,11.14L51.779999,13.84L53.559998,17.18L50.519997,17.18L49.919998,16.059999L49,17.18L43.68,17.18ZM39.32,10.360001L39.799999,6.96L38.279999,6.96L38.559998,5.0600004L40.079998,5.0600004L40.32,3.3600006L39.82,2.7800007L43.82,2.7800007L43.5,5.0600004L45.02,5.0600004L44.739998,6.96L43.239998,6.96L42.860001,9.5799999L44.419998,9.2399998L44.139999,11.34L42.559998,11.68L41.98,15.86Q41.879997,16.440001,41.439999,16.809999Q41,17.18,40.419998,17.18L36.84,17.18L38.639999,15.32L39.040001,12.440001L37.459999,12.780001L37.759998,10.700001L39.32,10.360001ZM46.860001,16.1L48.759998,13.860001L47.519997,11.52L46.860001,16.1ZM47.720001,10L47.68,10.38L49.959999,10.38L50.619999,11.64L51.68,10.38L51.739998,10L47.720001,10ZM58.219997,3.9000006L57.579998,3.1599998L72.759995,3.1599998L72.179993,7.3200006L61.539997,7.3200006L61.439995,8.1000004L72.079994,8.1000004L72.939995,7.3400002L72.559998,10L69.519997,10L69.419998,10.76L72.839996,10.76L72.579994,12.66L69.139999,12.66L68.699997,15.86Q68.619995,16.440001,68.179993,16.809999Q67.739998,17.18,67.159996,17.18L63.199997,17.18L64.979996,15.32L65.339996,12.66L55.859997,12.66L56.119995,10.76L65.619995,10.76L65.719994,10L57.359997,10L58.219997,3.9000006ZM62.639996,15.7L58.839996,15.7L58.419998,13.24L62.219997,13.24L62.639996,15.7ZM61.859997,5.0600004L61.779999,5.6199999L68.619995,5.6199999L68.699997,5.0600004L61.859997,5.0600004Z" fill="#12B385" fill-opacity="1"/></g></svg>