<?xml version="1.0" standalone="no"?><!DOCTYPE svg PUBLIC "-//W3C//DTD SVG 1.1//EN" "http://www.w3.org/Graphics/SVG/1.1/DTD/svg11.dtd"><svg class="icon" width="200px" height="200.00px" viewBox="0 0 1024 1024" version="1.1" xmlns="http://www.w3.org/2000/svg"><path fill="#ffffff" d="M682.666667 42.666667a42.666667 42.666667 0 0 1 42.666666 42.666666v42.666667h213.333334v256h-86.144l117.162666 321.877333a170.666667 170.666667 0 0 1-324.266666 104.789334h-181.461334a170.752 170.752 0 0 1-332.8-9.642667A85.333333 85.333333 0 0 1 85.333333 725.333333V298.666667a42.666667 42.666667 0 0 1 42.666667-42.666667h298.666667a42.666667 42.666667 0 0 1 42.666666 42.666667v213.333333a42.666667 42.666667 0 0 0 42.666667 42.666667h85.333333a42.666667 42.666667 0 0 0 42.666667-42.666667V128h-128V42.666667h170.666667zM298.666667 682.666667a85.333333 85.333333 0 1 0 0 170.666666 85.333333 85.333333 0 0 0 0-170.666666z m512-0.042667a85.333333 85.333333 0 1 0 80.213333 56.149333l-0.682667-1.877333A85.333333 85.333333 0 0 0 810.666667 682.666667zM761.728 384H725.333333v128a128 128 0 0 1-128 128h-85.333333a128 128 0 0 1-128-128H170.666667v143.104A170.752 170.752 0 0 1 463.957333 725.333333h181.418667a170.752 170.752 0 0 1 194.901333-125.44L761.728 384zM384 341.333333H170.666667v85.333334h213.333333V341.333333z m469.333333-128h-128v85.333334h128V213.333333z" /></svg>