<?xml version="1.0" standalone="no"?><!DOCTYPE svg PUBLIC "-//W3C//DTD SVG 1.1//EN" "http://www.w3.org/Graphics/SVG/1.1/DTD/svg11.dtd"><svg class="icon" width="200px" height="200.00px" viewBox="0 0 1024 1024" version="1.1" xmlns="http://www.w3.org/2000/svg"><path fill="#ffffff" d="M512 85.333333c235.648 0 426.666667 191.018667 426.666667 426.666667s-191.018667 426.666667-426.666667 426.666667S85.333333 747.648 85.333333 512 276.352 85.333333 512 85.333333z m0 640a212.778667 212.778667 0 0 1-77.994667-14.72l-95.402666 95.445334A339.754667 339.754667 0 0 0 512 853.333333a339.754667 339.754667 0 0 0 173.397333-47.274666l-95.402666-95.445334A212.778667 212.778667 0 0 1 512 725.333333z m-341.333333-213.333333a339.626667 339.626667 0 0 0 47.274666 173.397333l95.445334-95.402666A212.778667 212.778667 0 0 1 298.666667 512c0-27.52 5.205333-53.802667 14.72-77.994667L217.941333 338.602667A339.754667 339.754667 0 0 0 170.666667 512z m635.392-173.397333l-95.445334 95.402666c9.514667 24.192 14.72 50.474667 14.72 77.994667s-5.205333 53.802667-14.72 77.994667l95.445334 95.402666A339.754667 339.754667 0 0 0 853.333333 512a339.754667 339.754667 0 0 0-47.274666-173.397333zM512 384a128 128 0 1 0 0 256 128 128 0 0 0 0-256z m0-213.333333a339.754667 339.754667 0 0 0-173.397333 47.274666l95.402666 95.445334A212.778667 212.778667 0 0 1 512 298.666667c27.52 0 53.802667 5.205333 77.994667 14.72l95.402666-95.445334A339.754667 339.754667 0 0 0 512 170.666667z" /></svg>