<?xml version="1.0" standalone="no"?><!DOCTYPE svg PUBLIC "-//W3C//DTD SVG 1.1//EN" "http://www.w3.org/Graphics/SVG/1.1/DTD/svg11.dtd"><svg class="icon" width="200px" height="200.00px" viewBox="0 0 1024 1024" version="1.1" xmlns="http://www.w3.org/2000/svg"><path fill="#ffffff" d="M386.986667 298.666667L256 495.189333V853.333333h512V298.666667H386.986667zM341.333333 213.333333h469.333334a42.666667 42.666667 0 0 1 42.666666 42.666667v640a42.666667 42.666667 0 0 1-42.666666 42.666667H213.333333a42.666667 42.666667 0 0 1-42.666666-42.666667V469.333333l170.666666-256z m213.333334-170.666666h213.333333a42.666667 42.666667 0 0 1 42.666667 42.666666v85.333334h-298.666667V85.333333a42.666667 42.666667 0 0 1 42.666667-42.666666zM341.333333 512h85.333334v256H341.333333v-256z" /></svg>