<?xml version="1.0" standalone="no"?><!DOCTYPE svg PUBLIC "-//W3C//DTD SVG 1.1//EN" "http://www.w3.org/Graphics/SVG/1.1/DTD/svg11.dtd"><svg class="icon" width="200px" height="200.00px" viewBox="0 0 1024 1024" version="1.1" xmlns="http://www.w3.org/2000/svg"><path fill="#ffffff" d="M661.418667 853.333333A278.314667 278.314667 0 0 1 512 1002.752 278.314667 278.314667 0 0 1 362.581333 853.333333h96.426667c13.909333 20.864 31.872 38.912 52.992 53.034667 21.12-14.08 39.082667-32.170667 53.034667-53.034667h96.384zM768 631.68l85.333333 96.768V810.666667H170.666667v-82.218667l85.333333-96.768V384c0-148.608 106.837333-275.072 256-321.92C661.162667 108.928 768 235.392 768 384v247.68zM736.853333 725.333333L682.666667 663.893333V384c0-98.901333-66.986667-189.013333-170.666667-231.253333C408.32 194.986667 341.333333 285.056 341.333333 384v279.893333L287.146667 725.333333h449.706666zM512 469.333333a85.333333 85.333333 0 1 1 0-170.666666 85.333333 85.333333 0 0 1 0 170.666666z" /></svg>