<?xml version="1.0" standalone="no"?><!DOCTYPE svg PUBLIC "-//W3C//DTD SVG 1.1//EN" "http://www.w3.org/Graphics/SVG/1.1/DTD/svg11.dtd"><svg class="icon" width="200px" height="200.00px" viewBox="0 0 1024 1024" version="1.1" xmlns="http://www.w3.org/2000/svg"><path fill="#ffffff" d="M768 981.333333h-85.333333v-42.666666H341.333333v42.666666H256v-42.666666H213.333333a85.333333 85.333333 0 0 1-85.333333-85.333334V298.666667a85.333333 85.333333 0 0 1 85.333333-85.333334h128V128a42.666667 42.666667 0 0 1 42.666667-42.666667h256a42.666667 42.666667 0 0 1 42.666667 42.666667v85.333333h128a85.333333 85.333333 0 0 1 85.333333 85.333334v554.666666a85.333333 85.333333 0 0 1-85.333333 85.333334h-42.666667v42.666666z m42.666667-682.666666H213.333333v554.666666h597.333334V298.666667z m-384 85.333333v384H341.333333V384h85.333334z m256 0v384h-85.333334V384h85.333334z m-85.333334-213.333333h-170.666666v42.666666h170.666666V170.666667z" /></svg>