<svg xmlns="http://www.w3.org/2000/svg" xmlns:xlink="http://www.w3.org/1999/xlink" fill="none" version="1.1" width="180" height="180" viewBox="0 0 180 180"><defs><clipPath id="master_svg0_363_60678"><rect x="0" y="0" width="180" height="180" rx="0"/></clipPath></defs><g clip-path="url(#master_svg0_363_60678)"><g><path d="M142.098778,86.920173859375Q142.501442,86.707320859375,142.85902,86.425223859375Q143.216599,86.143119859375,143.517319,85.801055859375Q143.818039,85.458984859375,144.05200200000002,85.068206859375Q144.285965,84.677444859375,144.44547699999998,84.250831859375L169.68335000000002,16.750832759375Q169.726334,16.635863059375,169.763626,16.518922659375Q169.800919,16.401982259375,169.832428,16.283352759375Q169.86393700000002,16.164723159375,169.889587,16.044690459375Q169.915237,15.924657699375,169.934967,15.803510899375Q169.954697,15.682364109375,169.96846,15.560394999375Q169.982224,15.438425959375,169.98999,15.315928519375Q169.997749,15.193431049375,169.999496,15.070700302375Q170.001236,14.947969559375,169.996948,14.825301199375Q169.99266799999998,14.702632849375,169.982376,14.580322329375Q169.97207600000002,14.458011869375,169.955795,14.336353899375Q169.939507,14.214695989375,169.91727400000002,14.093983709375Q169.895035,13.973271459375,169.866905,13.853795659375Q169.838776,13.734319759375,169.80481,13.616368259375Q169.770851,13.498416659375,169.73114800000002,13.382273459375Q169.691437,13.266130359375,169.64607999999998,13.152075559375Q169.60072300000002,13.038020459375,169.54982,12.926328659375Q169.498917,12.814636659375001,169.44259599999998,12.705576859375Q169.386284,12.596517059375,169.324684,12.490351959375Q169.263077,12.384186959375,169.196335,12.281172759375Q169.12960099999998,12.178158259375,169.05789199999998,12.078542659375Q168.986176,11.978927159375,168.909668,11.882949859375Q168.83315299999998,11.786972959375,168.752022,11.694865659375Q168.67089099999998,11.602758859375001,168.585342,11.514743559374999Q168.499786,11.426728459375,168.410019,11.343017059375Q168.32025099999998,11.259305959375,168.226486,11.180099759375Q168.132721,11.100893959375,168.035179,11.026384359375001Q167.937637,10.951874759375,167.836555,10.882241259375Q167.735474,10.812607759375,167.631104,10.748017759375Q167.52673299999998,10.683427859375,167.419312,10.624036759374999Q167.311897,10.564645759375,167.201698,10.510597259375Q167.09149200000002,10.456548659374999,166.97877499999998,10.407972359375Q166.866058,10.359396459374999,166.751083,10.316410059375Q165.904175,9.999755859375,165.000004,9.999756359374999L116.25,9.999755859375Q116.062353,9.999755859375,115.875234,10.013820659375Q115.688114,10.027885459375,115.50257500000001,10.055935859375001Q115.317036,10.083986259375,115.134122,10.125864459375Q114.951208,10.167742759374999,114.771948,10.223213159375Q114.592688,10.278683659375,114.418089,10.347434059375Q114.24349,10.416184459375,114.074535,10.497827959375Q113.905581,10.579471559375001,113.743221,10.673549159375Q113.580862,10.767627259375,113.42601,10.873610059375Q113.271158,10.979592359375001,113.124685,11.096883559375Q112.978212,11.214174759375,112.840943,11.342114659375Q112.703674,11.470054359375,112.576381,11.607923059375Q112.449087,11.745791959375,112.332486,11.892813659375Q112.215884,12.039835459375,112.11063,12.195183559375Q112.005377,12.350531359375001,111.912063,12.513331659375Q111.818749,12.676131459375,111.737901,12.845467759375Q111.657051,13.014803859375,111.589122,13.189723859375L96.5891218,51.815101859375Q96.5002003,52.044074859375,96.4341512,52.280662859375Q96.3681011,52.517249859375,96.3255596,52.759170859375Q96.2830172,53.001094859375,96.2643929,53.246020859375Q96.2457685,53.490947859375,96.2512407,53.736518859375Q96.2567129,53.982093859375,96.2862287,54.225944859375Q96.3157454,54.469802859375,96.3690214,54.709586859375Q96.422297,54.949378859375,96.4988198,55.182784859375Q96.5753422,55.416198859375,96.6743751,55.640979859375Q96.773407,55.865768859375,96.8939962,56.079764859375Q97.0145845,56.293761859375,97.1555681,56.494907859375Q97.2965508,56.696056859375,97.4565711,56.882415859375Q97.616591,57.068774859375,97.7941072,57.238547859375Q97.9716229,57.408328859375,98.1649256,57.559890859375Q98.3582277,57.711448859375,98.565455,57.843330859375Q98.7726817,57.975215859375,98.9918377,58.086154859375Q99.2109935,58.197089859375,99.439968,58.286010859375Q99.8374631,58.440375859375,100.25535733,58.525203859375Q111.590726,60.826118859375,120.860556,67.82901385937501Q130.002056,74.734962859375,135.34171700000002,84.836402859375Q135.45650899999998,85.053557859375,135.59203300000001,85.258422859375Q135.727558,85.463286859375,135.882507,85.653876859375Q136.03746,85.844466859375,136.21035,86.018958859375Q136.38324,86.193450859375,136.572395,86.350150859375Q136.761555,86.506850859375,136.96516,86.644256859375Q137.16877,86.781661859375,137.384861,86.898452859375Q137.60096,87.015243859375,137.827461,87.110290859375Q138.053963,87.205337859375,138.288689,87.277717859375Q138.523418,87.350112859375,138.764107,87.399139859375Q139.004799,87.448165859375,139.24913,87.473365859375Q139.493473,87.498580859375,139.739105,87.499709859375Q139.984737,87.500838859375,140.229294,87.477882859375Q140.47385400000002,87.454940859375,140.714989,87.408126859375Q140.956116,87.361312859375,141.191498,87.291091859375Q141.426884,87.220878859375,141.654251,87.127921859375Q141.881622,87.034972859375,142.098778,86.920173859375ZM138.57264700000002,71.40416685937501L157.79246899999998,19.999755859375L119.672068,19.999755859375L107.9567213,50.167068859375Q118.186769,53.276317859375,126.888353,59.849933859375Q133.584038,64.908191859375,138.57264700000002,71.40416685937501Z" fill-rule="evenodd" fill="#FFFFFF" fill-opacity="1" style="mix-blend-mode:passthrough"/></g><g><path d="M83.649825859375,52.630488859375Q83.565002859375,52.212596859375,83.410636859375,51.815101859375L68.410632859375,13.189723459375Q68.342704859375,13.014803659375,68.261855859375,12.845467359375Q68.181003859375,12.676131059374999,68.087684859375,12.513330959375Q67.994372859375,12.350530659375,67.889121859375,12.195182759375001Q67.783866859375,12.039834959375,67.66726685937499,11.892813159375Q67.550666859375,11.745791459374999,67.423370859375,11.607922759375Q67.296077859375,11.470054159375,67.158809859375,11.342114459375Q67.02154185937499,11.214174459375,66.875068859375,11.096883259375Q66.72859985937501,10.979592359375001,66.57374585937501,10.873610059375Q66.41889185937501,10.767627259375,66.256534859375,10.673549659375Q66.09417385937499,10.579471559375001,65.925216859375,10.497828459375Q65.756263859375,10.416184459375,65.581664859375,10.347434059375Q65.407062859375,10.278683659375,65.227801859375,10.223213159375Q65.048541859375,10.167742759374999,64.865630859375,10.125864459375Q64.682712859375,10.083986759375,64.497172859375,10.055936859374999Q64.311637859375,10.027886359375,64.124518859375,10.013821159375Q63.937400859375,9.999756359374999,63.749755859375,9.999756359374999L14.999755859375,9.999755859375Q14.877012749375,9.999755859375,14.754417479375,10.005778759375Q14.631822229375,10.011801259375,14.509670139375,10.023831859375Q14.387518049375,10.035862959374999,14.266103509375,10.053873559374999Q14.144688899375,10.071883659375,14.024304269375,10.095829459375Q13.903919659375,10.119775759374999,13.784854959375,10.149599559375Q13.665790359375,10.179423359375,13.548332459375,10.215054059375Q13.430874559375,10.250684759375,13.315306659375,10.292035559375Q13.199738659375,10.333386459375,13.086338759375,10.380358259375Q12.972939059375,10.427330059374999,12.861980459375,10.479809259375Q12.751021859375001,10.532288559375,12.642772159375,10.590149359375001Q12.534522559375,10.648010259374999,12.429242359375,10.711112459375Q12.323961959375,10.774215259375,12.221904759375,10.842407659374999Q12.119847759375,10.910600159375,12.021259559375,10.983717959375Q11.922671359375,11.056836159374999,11.827789259374999,11.134703159375Q11.732907759375,11.212570659375,11.641961059375,11.295000059374999Q11.551014459375,11.377429459375,11.464221959375,11.464221959375Q11.377429459375,11.551014459375,11.295000359374999,11.641961059375Q11.212571159374999,11.732907759375,11.134703659374999,11.827789259374999Q11.056836559375,11.922671359375,10.983718859375,12.021259559375Q10.910600659375,12.119847759375,10.842408159375001,12.221904759375Q10.774215659374999,12.323961959375,10.711112959375,12.429242159375Q10.648010259374999,12.534522559375,10.590149359375001,12.642772159375Q10.532289059375,12.751021859375001,10.479809759375,12.861980459375Q10.427330459375,12.972939059375,10.380358659375,13.086338759375Q10.333386459375,13.199738659375,10.292035559375,13.315306659375Q10.250684759375,13.430874559375,10.215054059375,13.548332459375Q10.179423359375,13.665790359375,10.149599559375,13.784854959375Q10.119775759374999,13.903919659375,10.095829959375,14.024304269375Q10.071884159375,14.144688899375,10.053874059375,14.266103509375Q10.035863359375,14.387518049375,10.023831859375,14.509670139375Q10.011800759375,14.631822229375,10.005778359375,14.754417479375Q9.999755859375,14.877012749375,9.999755859375,14.999755859375Q9.999755859375,15.903925299375,10.316410059375,16.750832959375L35.554284859375,84.250831859375Q35.597270859375,84.365798859375,35.645848859375,84.478522859375Q35.694423859375,84.591247859375,35.748473859375,84.701446859375Q35.802520859375,84.811645859375,35.861911859375,84.919067859375Q35.921302859375004,85.026488859375,35.985890859375004,85.130859859375Q36.050479859375,85.235229859375,36.120113859374996,85.336318859375Q36.189748859375,85.437392859375,36.264258859375005,85.534934859375Q36.338767859375,85.632476859375,36.417974859375,85.726241859375Q36.497178859375,85.820006859375,36.580890859375,85.909766859375Q36.664600859375,85.999534859375,36.752616859374996,86.085090859375Q36.840633859375004,86.170638859375,36.932740859375,86.251777859375Q37.024846859375,86.332908859375,37.120822859375,86.409423859375Q37.216800859375,86.485931859375,37.316415859375,86.557639859375Q37.416032859375,86.629348859375,37.519046859374996,86.696090859375Q37.622062859375,86.762832859375,37.728225859375,86.824432859375Q37.834390859375,86.886031859375,37.943450859375005,86.942351859375Q38.052510859375005,86.998672859375,38.164203859375,87.049575859375Q38.275893859375,87.100478859375,38.389949859375,87.145843859375Q38.504005859375,87.191192859375,38.620147859374995,87.230903859375Q38.736289859375,87.270606859375,38.854240859375,87.304565859375Q38.972192859375,87.338523859375,39.091668859375005,87.366653859375Q39.211145859375,87.394790859375,39.331857859375,87.417022859375Q39.452569859375004,87.439262859375,39.574227859375,87.455550859375Q39.695884859375,87.471831859375,39.818194859375,87.482131859375Q39.940505859375,87.492423859375,40.063174859374996,87.496703859375Q40.185844859374996,87.500991859375,40.308574859375,87.499251859375Q40.431304859375004,87.497512859375,40.553802859375,87.489745859375Q40.676299859375,87.481979859375,40.798267859375,87.468215859375Q40.920238859375004,87.454452859375,41.041385859375,87.434730859375Q41.162532859375,87.414992859375,41.282563859375,87.389342859375Q41.402597859375,87.363692859375,41.521228859375,87.332191859375Q41.639857859375,87.300674859375,41.756797859375,87.263381859375Q41.873736859375,87.226089859375,41.988708859374995,87.183105859375Q42.415320859375,87.023597859375,42.806090859375004,86.789634859375Q43.196862859375,86.555663859375,43.538928859375005,86.254943859375Q43.880996859375,85.954223859375,44.163097859375,85.596648859375Q44.445197859375,85.239066859375,44.658046859375,84.836402859375Q49.997703859375,74.734962859375,59.139201859375,67.82901385937501Q68.40902685937499,60.826118859375,79.744407859375,58.525203859375Q79.864699859375,58.500785859375,79.983649859375,58.470496859375Q80.102592859375,58.440208859375,80.219909859375,58.404117859375Q80.337218859375,58.368026859375,80.452628859375,58.326224859375Q80.568030859375,58.284415859375,80.681243859375,58.237002859375Q80.794463859375,58.189590859375,80.905212859375,58.136676859375Q81.015967859375,58.083762859375,81.123992859375,58.025478859375Q81.232009859375,57.967193859375,81.337043859375,57.903674859375Q81.442077859375,57.840160859375,81.543861859375,57.771567859375Q81.645652859375,57.702975859375,81.743957859375,57.629470859375Q81.842254859375,57.555968859375,81.936835859375,57.477733859375Q82.031409859375,57.399493859375,82.122031859375,57.316711859375Q82.212653859375,57.233924859375,82.299102859375,57.146793859375Q82.385558859375,57.059661859375,82.467635859375,56.968391859375Q82.549705859375,56.877124859375,82.627196859375,56.781940859375Q82.704696859375,56.686751859375,82.777427859375,56.587878859375Q82.850158859375,56.489005859375,82.917945859375,56.386684859375Q82.985732859375,56.284362859375,83.048431859375,56.178832859375Q83.111121859375,56.073306859375,83.168563859375,55.964831859375Q83.225997859375,55.856353859375,83.278037859375,55.745189859375Q83.330077859375,55.634025859375,83.376601859375,55.520446859375Q83.423125859375,55.406863859375,83.464034859375,55.291137859375Q83.504928859375,55.175407859375,83.540099859375,55.057815859375Q83.575271859375,54.940215859375,83.604621859375,54.821036859375Q83.633979859375,54.701854859375,83.657455859375,54.581374859375Q83.680930859375,54.460898859375,83.698470859375,54.339416859375Q83.716003859375,54.217933859375,83.727561859375,54.095733859375Q83.739104859375,53.973533859375,83.744651859375,53.850913859375Q83.750190859375,53.728297859375,83.749709859375,53.605556859375Q83.749229859375,53.482814859375,83.742728859375,53.360244859375Q83.736228859375,53.237670859375,83.723724859375,53.115569859375Q83.711211859375,52.993465859375,83.692725859375,52.872123859375Q83.674239859375,52.750777859375,83.649825859375,52.630488859375ZM72.043037859375,50.167068859375Q61.812995859375,53.276317859375,53.111407859375,59.849933859375Q46.415719859375,64.908195859375,41.427114859374996,71.40416385937499L22.207291559375,19.999755859375L60.327689859375,19.999755859375L72.043037859375,50.167068859375Z" fill-rule="evenodd" fill="#FFFFFF" fill-opacity="1" style="mix-blend-mode:passthrough"/></g><g><path d="M151.25,108.750244140625Q151.25,93.533939140625,144.18257,80.163637140625Q137.80386,68.096551140625,126.888351,59.850425740625Q115.806091,51.478328740625,102.244865,48.725596440625Q96.209644,47.500244140625,90,47.500244140625Q83.790356,47.500244140625,77.755356,48.725548240625Q64.193905,51.478327740625,53.111649,59.850423840625Q42.196146999999996,68.096543140625,35.8174729,80.163568140625Q28.75,93.533443140625,28.7500038,108.750244140625Q28.7500038,134.120911140625,46.689671000000004,152.060577140625Q64.629341,170.000244140625,90,170.000244140625Q115.370667,170.000244140625,133.310333,152.060577140625Q151.25,134.120911140625,151.25,108.750244140625ZM120.86055,67.829502140625Q130.002052,74.735453140625,135.34171,84.836895140625Q141.25,96.014305140625,141.25,108.750244140625Q141.25,129.978760140625,126.239258,144.989502140625Q111.228516,160.000244140625,90,160.000244140625Q68.771484,160.000244140625,53.760738,144.989502140625Q38.7500038,129.978767140625,38.7500038,108.750244140625Q38.75,96.013885140625,44.658276,84.836922140625Q49.99795,74.735447140625,59.139446,67.829500140625Q68.40927099999999,60.826605840625,79.744644,58.525687740625Q84.795277,57.500244140625,90,57.500244140625Q95.204735,57.500244140625,100.255135,58.525644340625Q111.590721,60.826604840625,120.86055,67.829502140625Z" fill-rule="evenodd" fill="#FFFFFF" fill-opacity="1" style="mix-blend-mode:passthrough"/></g><g><path d="M88.41910514062499,77.756339059375L77.169105340625,81.506339069375L77.169421640625,81.507288039375Q76.984216240625,81.569023249375,76.804389440625,81.645013809375Q76.624562740625,81.721004249375,76.451209940625,81.810787319375Q76.277856840625,81.900570449375,76.112033740625,82.003599199375Q75.946210680625,82.106627939375,75.788927490625,82.222274719375Q75.631644190625,82.337921619375,75.483858760625,82.465482179375Q75.336073370625,82.593042746375,75.198686000625,82.731740039375Q75.061298634625,82.870437289375,74.935146145625,83.019426469375Q74.808993650625,83.168415669375,74.694844420625,83.326789319375Q74.580695210625,83.485162849375,74.479244590625,83.651956059375Q74.377793970625,83.818749459375,74.289659860625,83.992946659375Q74.201525810625,84.167143559375,74.127245070625,84.347683159375Q74.052964330625,84.528223059375,73.992989340625,84.714005959375Q73.933014540625,84.899788359375,73.887710840625,85.089682559375Q73.842406940625,85.279576759375,73.812050240625,85.472425659375Q73.781693540625,85.665274659375,73.766468840625,85.859903559375Q73.751244140625,86.054532559375,73.751244040625,86.249756059375Q73.751244040625,86.372474659375,73.757265540625,86.495045459375Q73.763287040625,86.617616159375,73.775315540625,86.739744159375Q73.787344140625,86.861871259375,73.805350640625,86.983261559375Q73.823357340625,87.104651459375,73.847298540625,87.225012259375Q73.871239640625,87.345373159375,73.901057940625,87.464413659375Q73.930876040625,87.583454559375,73.966499340625,87.700889159375Q74.002122640625,87.818323159375,74.043465260625,87.933868359375Q74.084807930625,88.049413159375,74.131770310625,88.162790259375Q74.178732690625,88.276167859375,74.231201650625,88.387104059375Q74.283670540625,88.498040159375,74.341519710625,88.606268359375Q74.399368820625,88.714496159375,74.46245879062499,88.819755059375Q74.525548700625,88.925014459375,74.593727500625,89.027051459375Q74.661906270625,89.129088359375,74.735009640625,89.227656859375Q74.808112990625,89.326225259375,74.885964840625,89.421088259375Q74.963816679625,89.51595115937499,75.046229436625,89.606879259375Q75.128642190625,89.697807759375,75.215417320625,89.784583059375Q75.302192450625,89.871357959375,75.393120910625,89.953771559375Q75.484049380625,90.036184359375,75.578912140625,90.114036059375Q75.673774840625,90.191887859375,75.772343280625,90.264990759375Q75.870911720625,90.338094259375,75.972948490625,90.406272859375Q76.074985240625,90.474451559375,76.180244440625,90.537541359375Q76.285503640625,90.600631759375,76.393731840625,90.658481559375Q76.501959940625,90.716329559375,76.612896040625,90.768798859375Q76.723832340625,90.821268059375,76.837209540625,90.868229859375Q76.950586840625,90.915191659375,77.066131640625,90.956534359375Q77.181676340625,90.997877159375,77.299110840625,91.033501659375Q77.416545440625,91.069124259375,77.535586140625,91.098942759375Q77.654626840625,91.12876035937501,77.774987440625,91.152701359375Q77.895348040625,91.17664335937499,78.016738440625,91.194649659375Q78.138128740625,91.212656059375,78.260256740625,91.224685659375Q78.382384340625,91.236713459375,78.504955040625,91.242734859375Q78.627525840625,91.248756359375,78.750244340625,91.248756359375Q79.561470040625,91.248756359375,80.331066640625,90.992224659375L80.331382740625,90.993172659375L85.000244140625,89.436885359375L85.000244140625,126.249755859375L75.000244140625,126.249755859375L75.000244140625,126.25075485937501Q74.877525580625,126.25075485937501,74.754954840625,126.256778859375Q74.632384120625,126.262801859375,74.510256470625,126.27482985937499Q74.388128880625,126.286857859375,74.266738530625,126.30486285937499Q74.145348310625,126.32286785937501,74.024987760625,126.346809859375Q73.904627240625,126.370750859375,73.785586340625,126.400569859375Q73.666545540625,126.43038585937501,73.549111140625,126.46601085937499Q73.431676840625,126.50163285937501,73.316131940625,126.542972859375Q73.200587040625,126.58431585937501,73.087209940625,126.631278859375Q72.973832840625,126.678237859375,72.862896440625,126.730708859375Q72.751960240625,126.783179859375,72.643732040625,126.841029859375Q72.535504140625,126.898879859375,72.430244940625,126.961963859375Q72.324985740625,127.02505485937499,72.222949040625,127.093234859375Q72.120912040625,127.161414859375,72.022343640625,127.234515859375Q71.923774940625,127.307624859375,71.828912240625,127.385474859375Q71.734049540625,127.463325859375,71.643121240625,127.54573785937501Q71.552192640625,127.628150859375,71.465417640625,127.714927859375Q71.378642540625,127.80170485937501,71.296229840625,127.892631859375Q71.213817140625,127.983558859375,71.135965140625,128.078422859375Q71.058113340625,128.173286859375,70.985010140625,128.271850859375Q70.911906740625,128.370422859375,70.843728040625,128.472457859375Q70.775549440625,128.574493859375,70.712459540625,128.679755859375Q70.649369240625,128.785010859375,70.591520340625,128.893241859375Q70.533671340625,129.001468859375,70.481202140625,129.112403859375Q70.428733340625,129.223342859375,70.381771040625,129.336719859375Q70.334808340625,129.45009585937498,70.293466140625,129.565642859375Q70.252123340625,129.681190859375,70.216499840625,129.798621859375Q70.180876740625,129.91605385937498,70.151058240625,130.035094859375Q70.121240140625,130.154132859375,70.097298640625,130.274493859375Q70.073357540625,130.394855859375,70.055350740625,130.516246859375Q70.037343940625,130.637641859375,70.025315740625,130.759769859375Q70.013287540625,130.881896859375,70.007266040625,131.004466859375Q70.001244540625,131.127036859375,70.001244040625,131.249755859375Q70.001244540625,131.372474859375,70.007265540625,131.495044859375Q70.013287040625,131.617614859375,70.025315240625,131.739741859375Q70.037343940625,131.861869859375,70.055350340625,131.983256859375Q70.073357540625,132.10464485937501,70.097298640625,132.22500585937502Q70.121239640625,132.34536785937502,70.151058240625,132.464408859375Q70.180876240625,132.583449859375,70.216499340625,132.700889859375Q70.252122840625,132.818320859375,70.293465640625,132.933864859375Q70.334808340625,133.049407859375,70.381770640625,133.162784859375Q70.428732840625,133.276160859375,70.481202140625,133.38709985937498Q70.533670940625,133.498035859375,70.591520340625,133.60626585937501Q70.649369240625,133.714492859375,70.712459540625,133.819755859375Q70.775549440625,133.925010859375,70.843728040625,134.027045859375Q70.911906740625,134.129081859375,70.985010140625,134.227653859375Q71.058113340625,134.326221859375,71.135965140625,134.42108485937501Q71.213817140625,134.515945859375,71.296229840625,134.606876859375Q71.378642540625,134.697803859375,71.465417640625,134.78457985937501Q71.552192640625,134.871352859375,71.643121240625,134.95376585937498Q71.734049540625,135.036178859375,71.828912240625,135.11403285937502Q71.923774940625,135.191878859375,72.022343640625,135.264983859375Q72.120912040625,135.338088859375,72.222948740625,135.406264859375Q72.324985540625,135.474444859375,72.430244640625,135.537532859375Q72.535503840625,135.600623859375,72.643732040625,135.658477859375Q72.751960240625,135.716323859375,72.862896440625,135.768794859375Q72.973832840625,135.821262859375,73.087209940625,135.868224859375Q73.200587040625,135.915191859375,73.316132040625,135.95653485937498Q73.431676840625,135.997878859375,73.549111140625,136.033500859375Q73.666545540625,136.069121859375,73.785586340625,136.098941859375Q73.904627240625,136.128760859375,74.024987760625,136.152701859375Q74.145348310625,136.176643859375,74.266738530625,136.194648859375Q74.388128880625,136.212653859375,74.510256470625,136.224685859375Q74.632384120625,136.236709859375,74.754954840625,136.242732859375Q74.877525580625,136.248756859375,75.000244140625,136.248756859375L75.000244140625,136.249755859375L105.000244140625,136.249755859375L105.000244140625,136.248756859375Q105.122963140625,136.248756859375,105.245533140625,136.242732859375Q105.368103140625,136.236709859375,105.490232140625,136.224685859375Q105.61235814062499,136.212653859375,105.733747140625,136.194648859375Q105.855137140625,136.176639859375,105.975498140625,136.152698859375Q106.095859140625,136.128753859375,106.214899140625,136.09893785937498Q106.333942140625,136.069121859375,106.451376140625,136.033500859375Q106.568809140625,135.997878859375,106.684353140625,135.95653485937498Q106.799898140625,135.915191859375,106.913275140625,135.868224859375Q107.026649140625,135.821262859375,107.137588140625,135.768790859375Q107.248524140625,135.716323859375,107.356754140625,135.658473859375Q107.464981140625,135.600623859375,107.570240140625,135.537536859375Q107.67549914062499,135.474444859375,107.777534140625,135.406264859375Q107.87957014062499,135.338088859375,107.97814214062501,135.264983859375Q108.076713140625,135.191878859375,108.171577140625,135.114028859375Q108.266437140625,135.036174859375,108.357365140625,134.953761859375Q108.448292140625,134.871348859375,108.535068140625,134.784576859375Q108.62184114062501,134.697799859375,108.704254140625,134.60687285937502Q108.786667140625,134.515945859375,108.864521140625,134.42108485937501Q108.94236714062501,134.326221859375,109.01547214062501,134.227653859375Q109.088577140625,134.129081859375,109.15675714062499,134.027045859375Q109.224937140625,133.925010859375,109.288025140625,133.819747859375Q109.351120140625,133.714492859375,109.408970140625,133.60626585937501Q109.466820140625,133.498035859375,109.51928314062499,133.387096859375Q109.571754140625,133.276160859375,109.618713140625,133.162784859375Q109.665680140625,133.049407859375,109.70702014062499,132.933864859375Q109.74836714062499,132.818320859375,109.78398914062501,132.700885859375Q109.819610140625,132.583449859375,109.849430140625,132.464408859375Q109.879249140625,132.34536785937502,109.903190140625,132.22500585937502Q109.92713214062499,132.10464485937501,109.94513714062501,131.983260859375Q109.963142140625,131.861869859375,109.975174140625,131.739745859375Q109.987202140625,131.617614859375,109.993225140625,131.495044859375Q109.99924514062499,131.372474859375,109.99924514062499,131.249755859375Q109.99924514062499,131.127036859375,109.993221140625,131.004466859375Q109.987202140625,130.881896859375,109.975174140625,130.759769859375Q109.963142140625,130.637641859375,109.94513714062501,130.516246859375Q109.92713214062499,130.394855859375,109.903187140625,130.274493859375Q109.879246140625,130.154132859375,109.849426140625,130.035091859375Q109.819610140625,129.91605385937498,109.78398914062501,129.79861785937499Q109.74836714062499,129.68118285937499,109.70702014062499,129.56563985937498Q109.665680140625,129.45009585937498,109.618713140625,129.336715859375Q109.571754140625,129.223334859375,109.51928314062499,129.112403859375Q109.466816140625,129.001464859375,109.408966140625,128.893237859375Q109.35111614062501,128.785010859375,109.288025140625,128.679748859375Q109.224933140625,128.574489859375,109.156753140625,128.472453859375Q109.088577140625,128.370414859375,109.01547214062501,128.271850859375Q108.94236714062501,128.173282859375,108.864521140625,128.078422859375Q108.786667140625,127.983558859375,108.704254140625,127.892627859375Q108.62184114062501,127.80170485937501,108.535068140625,127.714927859375Q108.448292140625,127.628150859375,108.357365140625,127.54573785937501Q108.266437140625,127.463328859375,108.171577140625,127.385478859375Q108.076713140625,127.307624859375,107.97814214062501,127.234519859375Q107.87957014062499,127.161414859375,107.777534140625,127.09323885937499Q107.67549914062499,127.02505885937501,107.570240140625,126.961970859375Q107.464981140625,126.898879859375,107.356754140625,126.841033859375Q107.248524140625,126.783179859375,107.137588140625,126.730708859375Q107.026649140625,126.678237859375,106.913275140625,126.631278859375Q106.799898140625,126.58431585937501,106.684355140625,126.542976859375Q106.568809140625,126.50163285937501,106.451376140625,126.46601085937499Q106.333942140625,126.43038585937501,106.214899140625,126.400565859375Q106.095859140625,126.370750859375,105.975498140625,126.346809859375Q105.855137140625,126.32286785937501,105.73374914062501,126.30486285937499Q105.61235814062499,126.286857859375,105.490232140625,126.27482985937499Q105.368103140625,126.262801859375,105.245533140625,126.256778859375Q105.122963140625,126.25075485937501,105.000244140625,126.25075485937501L105.000244140625,126.249755859375L95.000244140625,126.249755859375L95.000244140625,82.499755859375Q95.000244140625,81.688367549375,94.743660140625,80.918617059375Q94.665985140625,80.685587759375,94.565842140625,80.461294459375Q94.465698140625,80.237000959375,94.344051140625,80.023603659375Q94.22240814062499,79.810205959375,94.080433140625,79.609759059375Q93.938457140625,79.409312259375,93.777515140625,79.223747059375Q93.616577140625,79.038181559375,93.438223140625,78.869284659375Q93.259868140625,78.700387759375,93.065817140625,78.549786059375Q92.87176914062499,78.399183759375,92.663891140625,78.268327259375Q92.456016140625,78.137470259375,92.236313140625,78.027619859375Q92.016611140625,77.917768459375,91.787199140625,77.829980859375Q91.557789140625,77.742193659375,91.32087514062499,77.677315759375Q91.083965140625,77.612436759375,90.841836140625,77.571092159375Q90.599707140625,77.529746959375,90.354689140625,77.512334859375Q90.109674140625,77.494921659375,89.86413014062501,77.501608359375Q89.618587140625,77.508295059375,89.374881140625,77.539017659375Q89.131176140625,77.569739359375,88.891656140625,77.624200859375Q88.652136140625,77.678662259375,88.41910514062499,77.756339059375Z" fill-rule="evenodd" fill="#FFFFFF" fill-opacity="1" style="mix-blend-mode:passthrough"/></g></g></svg>