<svg xmlns="http://www.w3.org/2000/svg" xmlns:xlink="http://www.w3.org/1999/xlink" fill="none" version="1.1" width="180" height="180" viewBox="0 0 180 180"><defs><clipPath id="master_svg0_363_62105"><rect x="0" y="0" width="180" height="180" rx="0"/></clipPath></defs><g clip-path="url(#master_svg0_363_62105)"><g><path d="M45,19.999755859375L135,19.999755859375L135,19.998755959375Q135.12271900000002,19.998755459375,135.245293,19.992734459375Q135.367859,19.986712959374998,135.48999,19.974684759375002Q135.61211400000002,19.962656059375,135.73350499999998,19.944649659375Q135.85488900000001,19.926642459375,135.97525000000002,19.902701359375Q136.09561200000002,19.878760359375,136.21464500000002,19.848941759375002Q136.33369399999998,19.819123759375,136.451126,19.783500659375Q136.568558,19.747877159375,136.684105,19.706534359375Q136.79965199999998,19.665191659375,136.913025,19.618229359375Q137.026405,19.571267159375,137.13734399999998,19.518797859375Q137.248276,19.466329059375,137.356506,19.408479659375Q137.464737,19.350630759375,137.569992,19.287540459375002Q137.675247,19.224450559375,137.77729,19.156271959375Q137.879326,19.088093259375,137.97789799999998,19.014989859375Q138.076462,18.941886659375,138.171326,18.864034859375Q138.26619,18.786182859375,138.35711700000002,18.703770159375Q138.44804399999998,18.621357459374998,138.534821,18.534582359375Q138.621597,18.447807359375,138.70400999999998,18.356878759375Q138.786423,18.265950459375,138.864273,18.171087759375Q138.94212299999998,18.076225059375,139.01522799999998,17.977656359375Q139.088333,17.879087959375,139.156509,17.777051259375Q139.22468600000002,17.675014459375,139.287781,17.569755359375Q139.350876,17.464496159375,139.408722,17.356267959375Q139.466568,17.248039759375,139.519035,17.137103559375Q139.571503,17.026167159375,139.618469,16.912790059375Q139.66542800000002,16.799412959375,139.706772,16.683867959375Q139.74811599999998,16.568323159375,139.783745,16.450888859375Q139.819366,16.333454459374998,139.84918199999998,16.214413659375Q139.878998,16.095372759375,139.902939,15.975012239375Q139.92687999999998,15.854651689375,139.944885,15.733261469375Q139.962898,15.611871119375,139.97493,15.489743529375Q139.986954,15.367615879375,139.992973,15.245045159375Q139.99899299999998,15.122474419375,139.99900100000002,14.999755859375Q139.99899299999998,14.877037299375,139.992981,14.754466559375Q139.986954,14.631895839375,139.97493,14.509768189375Q139.962898,14.387640599375,139.944885,14.266250249375Q139.92687999999998,14.144860029375,139.902939,14.024499479375Q139.878998,13.904138959375,139.849174,13.785098059375Q139.819366,13.666057259375,139.783745,13.548622859375Q139.748108,13.431188559375,139.70676400000002,13.315643659375Q139.66542099999998,13.200098759375,139.618462,13.086721659375Q139.571503,12.973344559375,139.519035,12.862408159375Q139.466568,12.751471959375,139.408722,12.643243759375Q139.350876,12.535015859375001,139.287781,12.429756659375Q139.22468600000002,12.324497459375,139.156509,12.222460759375Q139.088333,12.120423759375,139.01522799999998,12.021855359375Q138.942139,11.923286659375,138.864288,11.828423959375Q138.786438,11.733561259375,138.70401800000002,11.642632959375Q138.621605,11.551704359375,138.534828,11.464929359375Q138.44805100000002,11.378154259375,138.357124,11.295741559375Q138.266197,11.213328859375,138.17134099999998,11.135476859375Q138.076469,11.057625059374999,137.97789799999998,10.984521859375Q137.879318,10.911418459375,137.777283,10.843239759374999Q137.675247,10.775061159375,137.569992,10.711971259375Q137.464729,10.648880959375,137.356506,10.591032059375Q137.248276,10.533183059375,137.13734399999998,10.480713859375001Q137.026405,10.428245059375,136.913025,10.381282759375Q136.79965199999998,10.334320059374999,136.684105,10.292977859375Q136.568558,10.251635059375001,136.451126,10.216011559375Q136.33369399999998,10.180388459375,136.21464500000002,10.150569959375Q136.09561200000002,10.120751859375,135.97525000000002,10.096810359374999Q135.85488900000001,10.072869259375,135.73350499999998,10.054862459375Q135.61211400000002,10.036855659375,135.48999,10.024827459375Q135.367859,10.012799259375,135.245285,10.006777759375Q135.12271900000002,10.000756259374999,135,10.000755759375L135,9.999755859375L45,9.999755859375L45,10.000755759375Q44.87728144,10.000756259374999,44.7547107,10.006777259375Q44.63213998,10.012798759375,44.51001233,10.024826959375Q44.38788474,10.036855659375,44.26649439,10.054862059375Q44.14510417,10.072869259375,44.02474362,10.096810359374999Q43.9043831,10.120751359375,43.7853422,10.150569959375Q43.6663014,10.180387959375,43.548867,10.216011059374999Q43.4314327,10.251634559374999,43.3158878,10.292977359375Q43.2003429,10.334320059374999,43.0869658,10.381282359375Q42.9735887,10.428244559374999,42.8626523,10.480713859375001Q42.7517161,10.533182659375,42.6434879,10.591032059375Q42.53526,10.648880959375,42.4300008,10.711971259375Q42.3247416,10.775061159375,42.2227049,10.843239759374999Q42.1206679,10.911418459375,42.0220995,10.984521859375Q41.9235308,11.057625059374999,41.8286681,11.135476859375Q41.7338054,11.213328859375,41.6428771,11.295741559375Q41.5519485,11.378154259375,41.4651735,11.464929359375Q41.3783984,11.551704359375,41.2959857,11.642632959375Q41.213573,11.733561259375,41.135721000000004,11.828423959375Q41.0578692,11.923286659375,40.984766,12.021855359375Q40.9116626,12.120423759375,40.8434839,12.222460459375Q40.7753053,12.324497259375,40.7122154,12.429756359375Q40.6491251,12.535015559375001,40.5912762,12.643243759375Q40.5334272,12.751471959375,40.480958,12.862408159375Q40.4284892,12.973344559375,40.3815269,13.086721659375Q40.3345642,13.200098759375,40.293222,13.315643759375Q40.2518792,13.431188559375,40.2162557,13.548622859375Q40.1806326,13.666057259375,40.1508141,13.785098059375Q40.120996,13.904138959375,40.0970545,14.024499479375Q40.0731134,14.144860029375,40.0551066,14.266250249375Q40.0370998,14.387640599375,40.025071600000004,14.509768189375Q40.0130434,14.631895839375,40.0070219,14.754466559375Q40.0010004,14.877037299375,40.0009999,14.999755859375Q40.0010004,15.122474419375,40.0070214,15.245045159375Q40.0130429,15.367615879375,40.0250711,15.489743529375Q40.0370998,15.611871119375,40.0551062,15.733261469375Q40.0731134,15.854651689375,40.0970545,15.975012239375Q40.1209955,16.095372759375,40.1508141,16.214413659375Q40.1806321,16.333454459374998,40.2162552,16.450888859375Q40.2518787,16.568323159375,40.2932215,16.683868059375Q40.3345642,16.799412959375,40.3815265,16.912790059375Q40.4284887,17.026167159375,40.480958,17.137103559375Q40.5334268,17.248039759375,40.5912762,17.356267959375Q40.6491251,17.464495859375,40.7122154,17.569755059374998Q40.7753053,17.675014259375,40.8434839,17.777050959375Q40.9116626,17.879087959375,40.984766,17.977656359375Q41.0578692,18.076225059375,41.135721000000004,18.171087759375Q41.213573,18.265950459375,41.2959857,18.356878759375Q41.3783984,18.447807359375,41.4651735,18.534582359375Q41.5519485,18.621357459374998,41.6428771,18.703770159375Q41.7338054,18.786182859375,41.8286681,18.864034859375Q41.9235308,18.941886659375,42.0220995,19.014989859375Q42.1206679,19.088093259375,42.2227046,19.156271959375Q42.3247414,19.224450559375,42.4300005,19.287540459375002Q42.5352597,19.350630759375,42.6434879,19.408479659375Q42.7517161,19.466328659375,42.8626523,19.518797859375Q42.9735887,19.571266659375,43.0869658,19.618228959375Q43.2003429,19.665191659375,43.3158879,19.706533859375Q43.4314327,19.747876659375,43.548867,19.783500159375002Q43.6663014,19.819123259375,43.7853422,19.848941759375002Q43.9043831,19.878759859375002,44.02474362,19.902701359375Q44.14510417,19.926642459375,44.26649439,19.944649259374998Q44.38788474,19.962656059375,44.51001233,19.974684259375Q44.63213998,19.986712459375,44.7547107,19.992733959375002Q44.87728144,19.998755459375,45,19.998755959375L45,19.999755859375Z" fill-rule="evenodd" fill="#FFFFFF" fill-opacity="1" style="mix-blend-mode:passthrough"/></g><g><path d="M108.1024859375,58.567020859375L135.1688539375,114.672271859375L135.1697539375,114.671836859375Q135.2459029375,114.829681859375,135.3329159375,114.981795859375Q135.41992193750002,115.133915859375,135.51736493750002,115.279555859375Q135.6148149375,115.425205859375,135.7222209375,115.563675859375Q135.8296279375,115.702145859375,135.9464649375,115.832745859375Q136.06330893749998,115.963365859375,136.1890029375,116.085475859375Q136.3146969375,116.207575859375,136.4486389375,116.320575859375Q136.58258093749998,116.433575859375,136.7240979375,116.536915859375Q136.8656159375,116.640265859375,137.0140309375,116.733445859375Q137.1624449375,116.826625859375,137.31702393749998,116.909195859375Q137.4716029375,116.991755859375,137.6315689375,117.063285859375Q137.7915499375,117.134825859375,137.9561459375,117.194985859375Q138.12072793750002,117.255145859375,138.2891239375,117.303615859375Q138.4575349375,117.352115859375,138.6289139375,117.388685859375Q138.8002929375,117.425255859375,138.9738159375,117.449735859375Q139.1473389375,117.474215859375,139.3221589375,117.486485859375Q139.4969639375,117.498755859375,139.6722029375,117.498755859375Q139.79492193750002,117.498745859375,139.9174959375,117.492725859375Q140.0400699375,117.486705859375,140.16219293749998,117.474685859375Q140.2843169375,117.462655859375,140.40570793749998,117.444645859375Q140.5270959375,117.426635859375,140.6474559375,117.402695859375Q140.7678059375,117.378755859375,140.8868559375,117.348935859375Q141.0058959375,117.319125859375,141.1233359375,117.283495859375Q141.2407659375,117.247875859375,141.3563059375,117.206525859375Q141.4718459375,117.165195859375,141.5852259375,117.118225859375Q141.6985959375,117.071255859375,141.80953593750002,117.018795859375Q141.9204759375,116.966325859375,142.0287059375,116.908475859375Q142.1369359375,116.850625859375,142.2421759375,116.787535859375Q142.3474459375,116.724445859375,142.44947593749998,116.656265859375Q142.5515159375,116.588085859375,142.6500859375,116.514985859375Q142.74865593750002,116.441875859375,142.8435259375,116.364025859375Q142.93838593750002,116.286175859375,143.0293159375,116.203765859375Q143.1202459375,116.121355859375,143.20702593750002,116.034575859375Q143.2937959375,115.947795859375,143.3762159375,115.856875859375Q143.45862593750002,115.765945859375,143.5364859375,115.671085859375Q143.61433593750002,115.576215859375,143.6874359375,115.477645859375Q143.7605259375,115.379075859375,143.8287159375,115.277035859375Q143.8968859375,115.175005859375,143.9599859375,115.069745859375Q144.02307593749998,114.964484859375,144.0809259375,114.856261859375Q144.1387759375,114.748031859375,144.19123593749998,114.637092859375Q144.24371593749999,114.526153859375,144.2906759375,114.412780859375Q144.3376359375,114.299407859375,144.3789759375,114.183860859375Q144.4203159375,114.068320859375,144.45594593750002,113.950889859375Q144.4915659375,113.833449859375,144.52138593749999,113.714416859375Q144.55119593749998,113.595367859375,144.5751459375,113.475005859375Q144.5990859375,113.354644859375,144.61709593749998,113.233253859375Q144.6351059375,113.111869859375,144.6471359375,112.989745859375Q144.6591559375,112.867614859375,144.66518593749998,112.745048859375Q144.67120593750002,112.622474859375,144.67120593750002,112.499755859375Q144.67120593750002,111.935622859375,144.5454759375,111.385696859375Q144.41976593750002,110.835754859375,144.1746559375,110.327674859375L144.1755559375,110.327239859375L117.6058349375,55.251491859375L117.6058349375,14.999755859375Q117.6058349375,14.877012749375,117.5998079375,14.754417479375Q117.5937879375,14.631822229375,117.5817639375,14.509670139375Q117.5697329375,14.387518049375,117.5517119375,14.266103509375Q117.5337069375,14.144688899375,117.5097579375,14.024304269375Q117.4858089375,13.903919659375,117.4559859375,13.784854959375Q117.4261629375,13.665790359375,117.3905339375,13.548332459375Q117.3549039375,13.430874559375,117.3135529375,13.315306659375Q117.2722019375,13.199738659375,117.2252269375,13.086338759375Q117.1782529375,12.972939059375,117.1257779375,12.861980459375Q117.0733029375,12.751021859375001,117.0154419375,12.642772159375Q116.9575809375,12.534522559375,116.8944699375,12.429242359375Q116.8313679375,12.323961959375,116.7631759375,12.221904759375Q116.6949769375,12.119847759375,116.6218639375,12.021259559375Q116.5487519375,11.922671359375,116.4708859375,11.827789259374999Q116.3930129375,11.732907759375,116.3105769375,11.641961059375Q116.2281489375,11.551014459375,116.1413649375,11.464221959375Q116.0545649375,11.377429459375,115.9636229375,11.295000359374999Q115.8726809375,11.212571159374999,115.7778019375,11.134703659374999Q115.6829219375,11.056836559375,115.5843279375,10.983718859375Q115.4857409375,10.910600659375,115.3836819375,10.842408159375001Q115.2816239375,10.774215659374999,115.1763459375,10.711112959375Q115.0710599375,10.648010259374999,114.9628139375,10.590149359375001Q114.8545609375,10.532289059375,114.7435989375,10.479809759375Q114.6326449375,10.427330459375,114.5192409375,10.380358659375Q114.4058379375,10.333386459375,114.2902759375,10.292035559375Q114.1747129375,10.250684759375,114.0572509375,10.215054059375Q113.9397889375,10.179423359375,113.8207249375,10.149599559375Q113.7016599375,10.119775759374999,113.5812839375,10.095829959375Q113.4608989375,10.071884159375,113.3394929375,10.053874059375Q113.2180789375,10.035863359375,113.0959239375,10.023831859375Q112.9737699375,10.011801259375,112.8511729375,10.005778359375Q112.7285769375,9.999755859375,112.6058349375,9.999755859375L67.5709569375,9.999755859375Q67.4482159375,9.999755859375,67.3256189375,10.005778759375Q67.2030259375,10.011801259375,67.0808739375,10.023831859375Q66.9587209375,10.035862959374999,66.8373049375,10.053873559374999Q66.7158889375,10.071883659375,66.5955049375,10.095829459375Q66.47512093750001,10.119775759374999,66.3560559375,10.149599559375Q66.2369919375,10.179423359375,66.1195339375,10.215054059375Q66.0020749375,10.250684759375,65.8865069375,10.292035559375Q65.7709389375,10.333386459375,65.6575379375,10.380358259375Q65.5441379375,10.427330059374999,65.4331799375,10.479809259375Q65.3222219375,10.532288559375,65.21397193749999,10.590149359375001Q65.1057219375,10.648010259374999,65.0004429375,10.711112459375Q64.8951609375,10.774215259375,64.7931039375,10.842407659374999Q64.6910479375,10.910600159375,64.5924589375,10.983717959375Q64.4938699375,11.056836159374999,64.3989909375,11.134703159375Q64.30410793749999,11.212570659375,64.2131619375,11.295000059374999Q64.1222129375,11.377429459375,64.03542093749999,11.464221959375Q63.9486279375,11.551014459375,63.8661999375,11.641961059375Q63.7837699375,11.732907759375,63.7059019375,11.827789259374999Q63.628032937499995,11.922671359375,63.5549159375,12.021259559375Q63.481795937499996,12.119847759375,63.4136049375,12.221904759375Q63.3454129375,12.323961959375,63.2823109375,12.429242159375Q63.2192079375,12.534522559375,63.1613459375,12.642772159375Q63.1034869375,12.751021859375001,63.0510079375,12.861980459375Q62.9985289375,12.972939059375,62.9515569375,13.086338759375Q62.9045869375,13.199738659375,62.8632359375,13.315306659375Q62.8218859375,13.430874559375,62.7862569375,13.548332459375Q62.750625937500004,13.665790359375,62.720799937500004,13.784854959375Q62.6909749375,13.903919659375,62.667029937500004,14.024304269375Q62.643085937500004,14.144688899375,62.6250759375,14.266103509375Q62.6070649375,14.387518049375,62.5950359375,14.509670139375Q62.583003937499996,14.631822229375,62.5769809375,14.754417479375Q62.5709569375,14.877012749375,62.5709569375,14.999755859375L62.5709569375,55.248000859375L35.9126095375,110.321288859375L35.9135098375,110.321723859375Q35.6669969375,110.830993859375,35.5405411375,111.382476859375Q35.4140858375,111.933959859375,35.4140858375,112.499755859375Q35.4140863375,112.622474859375,35.4201073375,112.745048859375Q35.4261288375,112.867614859375,35.4381570375,112.989745859375Q35.4501857375,113.111869859375,35.4681921375,113.233260859375Q35.4861993375,113.354644859375,35.5101404375,113.475005859375Q35.5340814375,113.595367859375,35.5639000375,113.714400859375Q35.5937180375,113.833449859375,35.6293411375,113.950881859375Q35.6649646375,114.068313859375,35.7063074375,114.183860859375Q35.7476501375,114.299407859375,35.7946124375,114.412780859375Q35.8415746375,114.526153859375,35.8940439375,114.637099859375Q35.9465127375,114.748031859375,36.0043621375,114.856269859375Q36.0622110375,114.964492859375,36.1253013375,115.069745859375Q36.1883912375,115.175005859375,36.2565698375,115.277045859375Q36.3247485375,115.379085859375,36.3978519375,115.477655859375Q36.4709551375,115.576225859375,36.548806937500004,115.671095859375Q36.6266589375,115.765955859375,36.7090716375,115.856875859375Q36.7914843375,115.947805859375,36.8782594375,116.034585859375Q36.9650344375,116.121355859375,37.0559630375,116.203785859375Q37.1468913375,116.286195859375,37.2417540375,116.364045859375Q37.3366167375,116.441895859375,37.4351854375,116.514995859375Q37.5337538375,116.588085859375,37.6357905375,116.656265859375Q37.7378273375,116.724445859375,37.8430864375,116.787525859375Q37.9483456375,116.850625859375,38.0565738375,116.908475859375Q38.1648020375,116.966325859375,38.2757382375,117.018795859375Q38.3866746375,117.071255859375,38.5000517375,117.118215859375Q38.6134288375,117.165175859375,38.7289738375,117.206515859375Q38.8445186375,117.247865859375,38.9619529375,117.283495859375Q39.0793873375,117.319125859375,39.1984281375,117.348935859375Q39.3174690375,117.378755859375,39.4378295575,117.402695859375Q39.5581901075,117.426635859375,39.6795803275,117.444645859375Q39.8009706775,117.462655859375,39.9230982675,117.474685859375Q40.0452259175,117.486705859375,40.1677966375,117.492725859375Q40.2903673775,117.498745859375,40.4130859375,117.498755859375Q40.5881205475,117.498755859375,40.7627265175,117.486515859375Q40.9373325075,117.474275859375,41.1106545975,117.449845859375Q41.2839767375,117.425415859375,41.4551661375,117.388935859375Q41.6263554375,117.352445859375,41.7945735375,117.304085859375Q41.9627916375,117.255715859375,42.1272144375,117.195695859375Q42.2916374375,117.135675859375,42.451459837499996,117.064295859375Q42.6112823375,116.992925859375,42.7657218375,116.910555859375Q42.9201607375,116.828175859375,43.0684604375,116.735195859375Q43.2167601375,116.642225859375,43.3581934375,116.539105859375Q43.4996271375,116.435985859375,43.6335017375,116.323235859375Q43.7673764375,116.210475859375,43.8930368375,116.088635859375Q44.0186967375,115.966785859375,44.1355271375,115.836445859375Q44.2523574375,115.706115859375,44.3597855375,115.567915859375Q44.4672136375,115.429735859375,44.564713437500004,115.284365859375Q44.6622133375,115.138995859375,44.7493066375,114.987166859375Q44.8364005375,114.835334859375,44.9126620375,114.677787859375L44.9135623375,114.678222859375L72.0714339375,58.572974859375Q72.3179969375,58.063602859375,72.4444769375,57.512008859375Q72.5709569375,56.960414859375,72.5709569375,56.394508859375L72.5709569375,19.999755859375L107.6058349375,19.999755859375L107.6058349375,56.394508859375Q107.6058349375,56.958739859375,107.7315829375,57.508784859375Q107.8573229375,58.058829859375,108.1024859375,58.567020859375Z" fill-rule="evenodd" fill="#FFFFFF" fill-opacity="1" style="mix-blend-mode:passthrough"/></g><g><path d="M27.05005316875,168.27450518749998Q30.615196268749997,170.0003201875,34.57581896875,170.0003201875L145.45338296875002,170.0003201875Q152.60777296875,170.0003201875,157.66688296875,164.9411961875Q162.72599296875,159.8820721875,162.72599296875,152.7276951875Q162.72599296875,148.7788351875,161.01021296875,145.2222781875L144.17610296875,110.32778168749999Q143.89357296875,109.7421226875,143.47062296875,109.2482099875Q143.04769296875,108.7542972875,142.51249296875,108.3849906875L142.51223296875,108.3848099875Q134.95517296875,103.1708676775,124.45111296875,100.6095971875Q102.79540996875,95.3291568875,86.79933196875,108.6592168875Q74.67489596875001,118.7629201875,57.95696996875,114.6746871875Q49.27069896875,112.5505313875,43.25904696875,108.3891815875Q42.94048696875,108.1686696875,42.591760968749995,107.9998640875Q42.37066696875,107.8928413875,42.14014796875,107.8080045875Q41.90962996875,107.7231678875,41.67190396875,107.6613344875Q41.43418096875,107.5995010875,41.19154196875,107.5612663875Q40.94890196875,107.5230316875,40.703681968750004,107.5087639875Q40.45846196875,107.4944965875,40.21302596875,107.5043332875Q39.967587968749996,107.5141701875,39.72429696875,107.5480162875Q39.481006968749995,107.5818631875,39.24220296875,107.6393935875Q39.00340096875,107.6969236875,38.77138696875,107.7775833875Q38.539374968749996,107.8582434875,38.31638496875,107.9612562875Q38.09339496875,108.0642690875,37.88157496875,108.1886424875Q37.669755968749996,108.3130163875,37.47114696875,108.4575528875Q37.27253896875,108.6020898875,37.08905196875,108.7653970875Q36.90556796875,108.9287051875,36.73897396875,109.1092109875Q36.57237896875,109.2897166875,36.42427896875,109.4856824875Q36.27617996875,109.6816491875,36.14800296875,109.89118768750001Q36.01982296875,110.1007260875,35.91279996875,110.3218192875L19.02874566875,145.2017171875Q15.91152336875,151.6415211875,18.26093146875,158.3994221875Q20.61034916875,165.1573481875,27.05005316875,168.27450518749998ZM145.45338296875002,160.00032418749998L34.57581896875,160.00032418749998Q32.90833096875,160.00032418749998,31.40718836875,159.2736511875Q28.69563576875,157.9611171875,27.70640516875,155.1156691875Q26.71716356875,152.2701871875,28.02968696875,149.5586741875L42.533549968749995,119.5958881875Q48.356751968750004,122.6216941875,55.58154296875,124.38845818749999Q77.20062296875,129.6752281875,93.20117196875,116.3414281875Q105.32434096875,106.2387895875,122.08215296875,110.3249492875Q130.03857296875,112.2650127875,135.76543296875002,115.9083151875L152.00352296875,149.5673561875Q152.72599296875,151.0649341875,152.72599296875,152.7276951875Q152.72599296875,155.7399441875,150.59581296875,157.8701361875Q148.46563296875001,160.00032418749998,145.45338296875002,160.00032418749998Z" fill-rule="evenodd" fill="#FFFFFF" fill-opacity="1" style="mix-blend-mode:passthrough"/></g></g></svg>