<svg xmlns="http://www.w3.org/2000/svg" xmlns:xlink="http://www.w3.org/1999/xlink" fill="none" version="1.1" width="180" height="180" viewBox="0 0 180 180"><defs><clipPath id="master_svg0_363_59283"><rect x="0" y="0" width="180" height="180" rx="0"/></clipPath></defs><g clip-path="url(#master_svg0_363_59283)"><g><path d="M40,14.999771118164062L40,66.17639911816406Q40,87.39286811816406,54.593828200000004,102.41587811816406Q69.246803,117.49977111816406,90,117.49977111816406Q110.753189,117.49977111816406,125.406166,102.41587811816406Q140,87.39286811816406,140,66.17639911816406L140,14.999771118164062Q140,14.877028008164062,139.99398,14.754432738164063Q139.98796099999998,14.631837488164063,139.975929,14.509685398164063Q139.963898,14.387533308164063,139.945885,14.266118768164063Q139.92787199999998,14.144704158164062,139.90392300000002,14.024319528164062Q139.879974,13.903934918164062,139.85015099999998,13.784870218164063Q139.82032800000002,13.665805618164063,139.784698,13.548347718164063Q139.74906900000002,13.430889818164063,139.707718,13.315321918164063Q139.666359,13.199753918164063,139.619392,13.086354018164062Q139.572418,12.972954318164062,139.519943,12.861995718164062Q139.467468,12.751037118164064,139.409607,12.642787418164062Q139.351746,12.534537818164063,139.28864299999998,12.429257618164062Q139.22554,12.323977218164062,139.157341,12.221920018164063Q139.08914199999998,12.119863018164063,139.01603699999998,12.021274818164063Q138.942917,11.922686618164063,138.865051,11.827804518164061Q138.78718600000002,11.732923018164062,138.70475,11.641976318164062Q138.622322,11.551029718164063,138.53553,11.464237218164062Q138.448738,11.377444718164062,138.357796,11.295015618164062Q138.266846,11.212586418164062,138.171967,11.134718918164062Q138.07708,11.056851818164063,137.978485,10.983734118164062Q137.879898,10.910615918164062,137.777847,10.842423418164064Q137.675781,10.774230918164061,137.570503,10.711128218164063Q137.465225,10.648025518164062,137.356979,10.590164618164064Q137.248734,10.532304318164062,137.13777199999998,10.479825018164062Q137.02681,10.427345718164062,136.913406,10.380373918164063Q136.800003,10.333401718164062,136.684441,10.292050818164062Q136.568871,10.250700018164062,136.451416,10.215069318164062Q136.333954,10.179438618164063,136.214897,10.149614818164062Q136.095825,10.119791018164062,135.975441,10.095845218164062Q135.855057,10.071899418164062,135.73365,10.053889318164062Q135.612236,10.035878618164062,135.490089,10.023847118164063Q135.367935,10.011816518164062,135.245338,10.005793618164063Q135.12274200000002,9.999771118164062,135,9.999771118164062L45,9.999771118164062Q44.87725689,9.999771118164062,44.75466162,10.005794018164062Q44.63206637,10.011816518164062,44.50991428,10.023847118164063Q44.38776219,10.035878218164061,44.26634765,10.053888818164062Q44.14493304,10.071898918164063,44.02454841,10.095844718164063Q43.9041638,10.119791018164062,43.7850991,10.149614818164062Q43.6660345,10.179438618164063,43.5485766,10.215069318164062Q43.4311187,10.250700018164062,43.3155508,10.292050818164062Q43.1999828,10.333401718164062,43.0865829,10.380373518164063Q42.9731832,10.427345318164061,42.8622246,10.479824518164062Q42.751266,10.532303818164063,42.6430163,10.590164618164064Q42.5347667,10.648025518164062,42.4294865,10.711127718164063Q42.3242061,10.774230518164062,42.2221489,10.842422918164061Q42.1200919,10.910615418164063,42.0215037,10.983733218164062Q41.9229155,11.056851418164062,41.8280334,11.134718418164063Q41.7331519,11.212585918164063,41.6422052,11.295015318164062Q41.5512586,11.377444718164062,41.4644661,11.464237218164062Q41.3776736,11.551029718164063,41.2952445,11.641976318164062Q41.2128153,11.732923018164062,41.1349478,11.827804518164061Q41.0570807,11.922686618164063,40.983963,12.021274818164063Q40.9108448,12.119863018164063,40.8426523,12.221920018164063Q40.7744598,12.323977218164062,40.7113571,12.429257418164063Q40.6482544,12.534537818164063,40.5903935,12.642787418164062Q40.5325332,12.751037118164064,40.4800539,12.861995718164062Q40.4275746,12.972954318164062,40.3806028,13.086354018164062Q40.3336306,13.199753918164063,40.2922797,13.315321918164063Q40.2509289,13.430889818164063,40.2152982,13.548347718164063Q40.1796675,13.665805618164063,40.1498437,13.784870218164063Q40.1200199,13.903934918164062,40.0960741,14.024319528164062Q40.0721283,14.144704158164062,40.0541182,14.266118768164063Q40.0361075,14.387533308164063,40.024076,14.509685398164063Q40.0120449,14.631837488164063,40.0060225,14.754432738164063Q40,14.877028008164062,40,14.999771118164062ZM61.766611,95.44801311816406Q50,83.33536511816406,50,66.17639911816406L50,19.999771118164062L130,19.999771118164062L130,66.17639911816406Q130,83.33537311816406,118.233391,95.44801311816406Q106.525928,107.49977111816406,90,107.49977111816406Q73.474072,107.49977111816406,61.766611,95.44801311816406Z" fill-rule="evenodd" fill="#FFFFFF" fill-opacity="1" style="mix-blend-mode:passthrough"/></g><g><path d="M14.999755859375,36.25022888183594Q14.877012749375,36.25022888183594,14.754417479375,36.256251781835935Q14.631822229375,36.262274281835936,14.509670139375,36.27430488183594Q14.387518049375,36.28633598183594,14.266103509375,36.30434658183594Q14.144688899375,36.322356681835934,14.024304269375,36.346302481835934Q13.903919659375,36.37024878183594,13.784854959375,36.400072581835936Q13.665790359375,36.42989638183594,13.548332459375,36.46552708183594Q13.430874559375,36.501157781835936,13.315306659375,36.54250858183594Q13.199738659375,36.58385948183594,13.086338759375,36.63083128183594Q12.972939059375,36.67780308183594,12.861980459375,36.73028228183594Q12.751021859375001,36.782761581835935,12.642772159375,36.840622381835935Q12.534522559375,36.89848328183594,12.429242359375,36.96158548183594Q12.323961959375,37.024688281835935,12.221904759375,37.092880681835936Q12.119847759375,37.16107318183594,12.021259559375,37.23419098183594Q11.922671359375,37.30730918183594,11.827789259374999,37.38517618183594Q11.732907759375,37.463043681835934,11.641961059375,37.54547308183594Q11.551014459375,37.62790248183594,11.464221959375,37.71469498183594Q11.377429459375,37.801487481835935,11.295000359374999,37.89243408183594Q11.212571159374999,37.98338078183594,11.134703659374999,38.07826228183594Q11.056836559375,38.17314438183594,10.983718859375,38.271732581835934Q10.910600659375,38.370320781835936,10.842408159375001,38.47237778183594Q10.774215659374999,38.574434981835935,10.711112959375,38.67971518183594Q10.648010259374999,38.784995581835936,10.590149359375001,38.89324518183594Q10.532289059375,39.00149488183594,10.479809759375,39.112453481835935Q10.427330459375,39.22341208183594,10.380358659375,39.33681178183594Q10.333386459375,39.45021168183594,10.292035559375,39.565779681835934Q10.250684759375,39.68134758183594,10.215054059375,39.798805481835934Q10.179423359375,39.91626338183594,10.149599559375,40.035327981835934Q10.119775759374999,40.15439268183594,10.095829959375,40.27477729183594Q10.071884159375,40.395161921835935,10.053874059375,40.51657653183594Q10.035863359375,40.637991071835934,10.023831859375,40.760143161835934Q10.011800759375,40.882295251835934,10.005778359375,41.00489050183594Q9.999755859375,41.127485771835936,9.999755859375,41.25022888183594Q9.999755859375,60.87732288183594,20.658289459375,72.72010588183593Q30.585427859375002,83.75023288183593,44.999755859375,83.75023288183593Q45.122497859375,83.75023288183593,45.245093859375004,83.74420888183593Q45.367688859375,83.73818588183593,45.489841859375005,83.72615388183593Q45.611991859374996,83.71412288183595,45.733405859375,83.69610988183594Q45.854819859375,83.67810088183595,45.975204859375,83.65415588183595Q46.095588859375,83.63021088183594,46.214654859375,83.60038788183593Q46.333718859375,83.57056388183594,46.451175859375,83.53493488183594Q46.568633859375,83.49930588183594,46.684201859375,83.45795088183593Q46.799769859375004,83.41659888183594,46.913169859375,83.36962488183593Q47.026569859375,83.32265488183594,47.137527859375,83.27017588183594Q47.248481859375,83.21769688183593,47.356734859375,83.15983588183593Q47.464984859375,83.10197488183593,47.570266859375,83.03887188183595Q47.675544859375,82.97576888183593,47.777602859375,82.90757388183593Q47.879661859375,82.83938188183595,47.978248859375,82.76626588183593Q48.076835859375,82.69314588183593,48.171722859375,82.61527988183593Q48.266601859375,82.53741088183594,48.357547859375,82.45497888183593Q48.448493859375,82.37255088183593,48.535285859375,82.28575888183593Q48.622077859375,82.19896688183593,48.704505859375,82.10802088183594Q48.786937859375,82.01707488183594,48.864806859375,81.92219588183593Q48.942672859375,81.82730888183593,49.015792859375,81.72872188183594Q49.088908859375,81.63013488183594,49.157100859375,81.52807588183595Q49.225295859375,81.42601788183595,49.288398859375,81.32073988183595Q49.351501859375,81.21545788183593,49.409358859375,81.10720788183593Q49.467219859375,80.99895488183594,49.519698859375,80.88800088183594Q49.572177859375,80.77703888183594,49.619147859375,80.66364288183594Q49.666122859375,80.55023988183594,49.707473859375,80.43467288183594Q49.748824859375,80.31910688183594,49.784453859375,80.20165288183594Q49.820083859375,80.08418988183594,49.849906859375,79.96512588183595Q49.879729859375,79.84606188183594,49.903678859375,79.72567788183594Q49.927627859375,79.60529288183594,49.945636859375,79.48387888183593Q49.963645859375,79.36246488183593,49.975680859375,79.24031788183594Q49.987708859375,79.11816388183594,49.993732859375,78.99556688183594Q49.999755859375,78.87297088183594,49.999755859375,78.75022888183594L49.999755859375,41.25022888183594Q49.999755859375,41.127485771835936,49.993735859375,41.00489050183594Q49.987708859375,40.882295251835934,49.975680859375,40.760143161835934Q49.963645859375,40.637991071835934,49.945636859375,40.51657653183594Q49.927627859375,40.395161921835935,49.903678859375,40.27477729183594Q49.879729859375,40.15439268183594,49.849906859375,40.035327981835934Q49.820083859375,39.91626338183594,49.784453859375,39.798805481835934Q49.748824859375,39.68134758183594,49.707473859375,39.565779681835934Q49.666122859375,39.45021168183594,49.619147859375,39.33681178183594Q49.572177859375,39.22341208183594,49.519698859375,39.112453481835935Q49.467223859375,39.00149488183594,49.409362859375,38.89324518183594Q49.351501859375,38.784995581835936,49.288398859375,38.67971538183594Q49.225295859375,38.574434981835935,49.157100859375,38.47237778183594Q49.088908859375,38.370320781835936,49.015792859375,38.271732581835934Q48.942672859375,38.17314438183594,48.864806859375,38.07826228183594Q48.786937859375,37.98338078183594,48.704505859375,37.89243408183594Q48.622077859375,37.801487481835935,48.535285859375,37.71469498183594Q48.448493859375,37.62790248183594,48.357547859375,37.54547338183594Q48.266601859375,37.46304418183594,48.171722859375,37.38517668183594Q48.076835859375,37.30730958183594,47.978248859375,37.23419188183594Q47.879661859375,37.16107368183594,47.777602859375,37.092881181835935Q47.675544859375,37.02468868183594,47.570266859375,36.96158598183594Q47.464988859375,36.89848328183594,47.356738859375,36.840622381835935Q47.248485859375,36.78276208183594,47.137527859375,36.73028278183594Q47.026569859375,36.67780348183594,46.913169859375,36.630831681835936Q46.799769859375004,36.58385948183594,46.684201859375,36.54250858183594Q46.568633859375,36.501157781835936,46.451177859375,36.46552708183594Q46.333720859375,36.42989638183594,46.214652859375,36.400072581835936Q46.095588859375,36.37024878183594,45.975204859375,36.34630298183594Q45.854819859375,36.32235718183594,45.733407859375,36.304347081835935Q45.611991859374996,36.28633638183594,45.489841859375005,36.27430488183594Q45.367688859375,36.262274281835936,45.245093859375004,36.25625138183594Q45.122497859375,36.25022888183594,44.999755859375,36.25022888183594L14.999755859375,36.25022888183594ZM20.217731459375,46.25022888183594Q21.327815559375,58.515573881835934,28.091222859375,66.03045088183593Q33.223483859375,71.73294988183594,39.999755859375,73.22308888183593L39.999755859375,46.25022888183594L20.217731459375,46.25022888183594Z" fill-rule="evenodd" fill="#FFFFFF" fill-opacity="1" style="mix-blend-mode:passthrough"/></g><g><path d="M159.341467,72.72010588183593Q170,60.87732288183594,170,41.25022888183594Q170,41.127485771835936,169.99398,41.00489050183594Q169.987953,40.882295251835934,169.975925,40.760143161835934Q169.96389,40.637991071835934,169.94588099999999,40.51657653183594Q169.927872,40.395161921835935,169.903923,40.27477729183594Q169.879974,40.15439268183594,169.85015099999998,40.035327981835934Q169.82032800000002,39.91626338183594,169.784698,39.798805481835934Q169.749069,39.68134758183594,169.707718,39.565779681835934Q169.666367,39.45021168183594,169.619392,39.33681178183594Q169.57242200000002,39.22341208183594,169.519943,39.112453481835935Q169.467468,39.00149488183594,169.409607,38.89324518183594Q169.351746,38.784995581835936,169.288643,38.67971538183594Q169.22554,38.574434981835935,169.157345,38.47237778183594Q169.089153,38.370320781835936,169.01603699999998,38.271732581835934Q168.942917,38.17314438183594,168.865051,38.07826228183594Q168.787182,37.98338078183594,168.70475,37.89243408183594Q168.622322,37.801487481835935,168.53553,37.71469498183594Q168.448738,37.62790248183594,168.35779200000002,37.54547338183594Q168.266846,37.46304418183594,168.171967,37.38517668183594Q168.07708,37.30730958183594,167.97849300000001,37.23419188183594Q167.879906,37.16107368183594,167.777847,37.092881181835935Q167.675789,37.02468868183594,167.570511,36.96158598183594Q167.465233,36.89848328183594,167.356983,36.840622381835935Q167.24873,36.78276208183594,167.13777199999998,36.73028278183594Q167.026814,36.67780348183594,166.913414,36.630831681835936Q166.800014,36.58385948183594,166.684446,36.54250858183594Q166.568878,36.501157781835936,166.451422,36.46552708183594Q166.333965,36.42989638183594,166.214897,36.400072581835936Q166.095833,36.37024878183594,165.975449,36.34630298183594Q165.855064,36.32235718183594,165.733652,36.304347081835935Q165.612236,36.28633638183594,165.490086,36.27430488183594Q165.367933,36.262274281835936,165.245338,36.25625138183594Q165.122742,36.25022888183594,165,36.25022888183594L135,36.25022888183594Q134.87725689,36.25022888183594,134.75466162,36.256251781835935Q134.63206637,36.262274281835936,134.50991428,36.27430488183594Q134.38776219,36.28633598183594,134.26634765,36.30434658183594Q134.14493304,36.322356681835934,134.02454841,36.346302481835934Q133.9041638,36.37024878183594,133.7850991,36.400072581835936Q133.6660345,36.42989638183594,133.5485766,36.46552708183594Q133.4311187,36.501157781835936,133.3155508,36.54250858183594Q133.1999828,36.58385948183594,133.0865829,36.63083128183594Q132.9731832,36.67780308183594,132.8622246,36.73028228183594Q132.751266,36.782761581835935,132.6430163,36.840622381835935Q132.5347667,36.89848328183594,132.4294865,36.96158548183594Q132.3242061,37.024688281835935,132.2221489,37.092880681835936Q132.1200919,37.16107318183594,132.0215037,37.23419098183594Q131.9229155,37.30730918183594,131.8280334,37.38517618183594Q131.7331519,37.463043681835934,131.6422052,37.54547308183594Q131.5512586,37.62790248183594,131.4644661,37.71469498183594Q131.3776736,37.801487481835935,131.2952445,37.89243408183594Q131.2128153,37.98338078183594,131.1349478,38.07826228183594Q131.0570807,38.17314438183594,130.983963,38.271732581835934Q130.9108448,38.370320781835936,130.8426523,38.47237778183594Q130.7744598,38.574434981835935,130.7113571,38.67971518183594Q130.6482544,38.784995581835936,130.5903935,38.89324518183594Q130.5325332,39.00149488183594,130.4800539,39.112453481835935Q130.4275746,39.22341208183594,130.3806028,39.33681178183594Q130.3336306,39.45021168183594,130.2922797,39.565779681835934Q130.2509289,39.68134758183594,130.2152982,39.798805481835934Q130.1796675,39.91626338183594,130.1498437,40.035327981835934Q130.1200199,40.15439268183594,130.0960741,40.27477729183594Q130.0721283,40.395161921835935,130.0541182,40.51657653183594Q130.0361075,40.637991071835934,130.024076,40.760143161835934Q130.0120449,40.882295251835934,130.0060225,41.00489050183594Q130,41.127485771835936,130,41.25022888183594L130,78.75022888183594Q130,78.87297088183594,130.0060225,78.99556688183594Q130.0120449,79.11816388183594,130.024076,79.24031488183593Q130.0361071,79.36246488183593,130.0541177,79.48387888183593Q130.0721278,79.60529288183594,130.0960736,79.72567788183594Q130.1200199,79.84606188183594,130.1498437,79.96512588183595Q130.1796675,80.08418988183594,130.2152982,80.20165288183594Q130.2509289,80.31910688183594,130.2922797,80.43467288183594Q130.3336306,80.55023988183594,130.3806024,80.66364288183594Q130.4275742,80.77703888183594,130.4800534,80.88800088183594Q130.5325327,80.99895888183593,130.5903935,81.10721188183594Q130.6482544,81.21546188183594,130.7113566,81.32073988183595Q130.7744594,81.42601788183595,130.8426518,81.52807588183595Q130.9108443,81.63013488183594,130.9839621,81.72872188183594Q131.0570803,81.82730888183593,131.1349473,81.92219188183594Q131.2128148,82.01707488183594,131.2952442,82.10801688183594Q131.3776736,82.19896688183593,131.4644661,82.28575888183593Q131.5512586,82.37255088183593,131.6422052,82.45497888183593Q131.7331519,82.53741088183594,131.8280334,82.61527988183593Q131.9229155,82.69314588183593,132.0215037,82.76626588183593Q132.1200919,82.83938588183594,132.2221489,82.90757788183595Q132.3242061,82.97576888183593,132.4294863,83.03887188183595Q132.5347667,83.10197488183593,132.6430163,83.15983588183593Q132.751266,83.21769688183593,132.8622246,83.27017588183594Q132.9731832,83.32265488183594,133.0865829,83.36962488183593Q133.1999828,83.41659888183594,133.3155508,83.45795488183595Q133.4311187,83.49930588183594,133.5485766,83.53493488183594Q133.6660345,83.57056388183594,133.7850991,83.60038788183593Q133.9041638,83.63021088183594,134.02454841,83.65415588183595Q134.14493304,83.67810088183595,134.26634765,83.69611388183594Q134.38776219,83.71412688183594,134.50991428,83.72615788183595Q134.63206637,83.73818988183594,134.75466162,83.74420888183593Q134.87725689,83.75023288183593,135,83.75023288183593Q149.414328,83.75023288183593,159.341467,72.72010588183593ZM159.782024,46.25022888183594Q158.67194,58.515573881835934,151.908533,66.03045088183593Q146.776272,71.73294988183594,140,73.22308888183593L140,46.25022888183594L159.782024,46.25022888183594Z" fill-rule="evenodd" fill="#FFFFFF" fill-opacity="1" style="mix-blend-mode:passthrough"/></g><g><path d="M85.0009999,120.00022888183594Q85.0010004,119.87751032183594,85.0070214,119.75493958183594Q85.0130429,119.63236886183594,85.0250711,119.51024121183593Q85.0370998,119.38811362183594,85.0551062,119.26672327183594Q85.0731134,119.14533305183593,85.0970545,119.02497250183593Q85.1209955,118.90461198183594,85.1508141,118.78557108183594Q85.1806321,118.66653028183593,85.2162552,118.54909588183594Q85.2518787,118.43166158183594,85.2932215,118.31611668183594Q85.3345642,118.20057178183593,85.3815265,118.08719468183594Q85.4284887,117.97381758183593,85.480958,117.86288118183593Q85.5334268,117.75194498183593,85.5912762,117.64371678183593Q85.6491251,117.53548888183593,85.7122154,117.43022968183594Q85.7753053,117.32497048183593,85.8434839,117.22293378183593Q85.9116626,117.12089678183594,85.984766,117.02232838183593Q86.0578692,116.92375968183593,86.135721,116.82889698183594Q86.213573,116.73403428183593,86.2959857,116.64310598183594Q86.3783984,116.55217738183593,86.4651735,116.46540238183594Q86.5519485,116.37862728183593,86.6428771,116.29621458183594Q86.7338054,116.21380188183593,86.8286681,116.13594988183594Q86.9235308,116.05809808183594,87.0220995,115.98499488183593Q87.1206679,115.91189148183594,87.2227046,115.84371278183593Q87.3247414,115.77553418183594,87.4300005,115.71244428183594Q87.5352597,115.64935398183594,87.6434879,115.59150508183593Q87.7517161,115.53365608183594,87.8626523,115.48118688183594Q87.9735887,115.42871808183594,88.0869658,115.38175578183593Q88.2003429,115.33479308183594,88.3158879,115.29345088183594Q88.4314327,115.25210808183594,88.548867,115.21648458183594Q88.6663014,115.18086148183593,88.7853422,115.15104298183594Q88.9043831,115.12122488183594,89.02474362,115.09728338183594Q89.14510417,115.07334228183593,89.26649439,115.05533548183594Q89.38788474,115.03732868183593,89.51001233,115.02530048183594Q89.63213998,115.01327228183594,89.7547107,115.00725078183594Q89.87728144,115.00122928183593,90,115.00122878183593Q90.12271856,115.00122928183593,90.2452893,115.00725028183594Q90.36786002,115.01327178183594,90.48998767,115.02529998183594Q90.61211526,115.03732868183593,90.73350561,115.05533508183593Q90.85489583,115.07334228183593,90.97525638,115.09728338183594Q91.0956169,115.12122438183594,91.2146578,115.15104298183594Q91.3336986,115.18086098183593,91.451133,115.21648408183594Q91.5685673,115.25210758183594,91.6841122,115.29345038183594Q91.7996571,115.33479308183594,91.9130342,115.38175538183594Q92.0264113,115.42871758183594,92.1373477,115.48118688183594Q92.2482839,115.53365568183594,92.3565121,115.59150508183593Q92.46474,115.64935398183594,92.5699992,115.71244428183594Q92.6752584,115.77553418183594,92.7772951,115.84371278183593Q92.8793321,115.91189148183594,92.9779005,115.98499488183593Q93.0764692,116.05809808183594,93.1713319,116.13594988183594Q93.2661946,116.21380188183593,93.3571229,116.29621458183594Q93.4480515,116.37862728183593,93.5348265,116.46540238183594Q93.6216016,116.55217738183593,93.7040143,116.64310598183594Q93.786427,116.73403428183593,93.864279,116.82889698183594Q93.9421308,116.92375968183593,94.015234,117.02232838183593Q94.0883374,117.12089678183594,94.1565161,117.22293348183594Q94.2246947,117.32497028183593,94.2877846,117.43022938183594Q94.3508749,117.53548858183593,94.4087238,117.64371678183593Q94.4665728,117.75194498183593,94.519042,117.86288118183593Q94.5715108,117.97381758183593,94.6184731,118.08719468183594Q94.6654358,118.20057178183593,94.706778,118.31611678183594Q94.7481208,118.43166158183594,94.7837443,118.54909588183594Q94.8193674,118.66653028183593,94.8491859,118.78557108183594Q94.879004,118.90461198183594,94.9029455,119.02497250183593Q94.9268866,119.14533305183593,94.9448934,119.26672327183594Q94.9629002,119.38811362183594,94.9749284,119.51024121183593Q94.9869566,119.63236886183594,94.9929781,119.75493958183594Q94.9989996,119.87751032183594,94.9990001,120.00022888183594L95,120.00022888183594L95,135.00022888183594L94.9990001,135.00022888183594Q94.9989996,135.12294788183593,94.9929786,135.24551788183595Q94.9869571,135.36808988183594,94.9749289,135.49021688183595Q94.9629002,135.61234488183595,94.9448938,135.73373388183595Q94.9268866,135.85512388183594,94.9029455,135.97548388183594Q94.8790045,136.09584388183595,94.8491859,136.21488588183593Q94.8193679,136.33392688183594,94.7837448,136.45136088183594Q94.7481213,136.56879388183594,94.7067785,136.68433988183594Q94.6654358,136.79988488183594,94.6184735,136.91326188183592Q94.5715113,137.02663788183594,94.519042,137.13757288183592Q94.4665732,137.24850988183593,94.4087238,137.35673888183595Q94.3508749,137.46496588183595,94.2877846,137.57022688183594Q94.2246947,137.67548588183593,94.1565161,137.77752288183595Q94.0883374,137.87955888183595,94.015234,137.97812888183594Q93.9421308,138.07669688183594,93.864279,138.17155988183595Q93.786427,138.26642188183592,93.7040143,138.35734988183594Q93.6216016,138.44827888183593,93.5348265,138.53505288183595Q93.4480515,138.62182988183594,93.3571229,138.70424288183594Q93.2661946,138.78665588183594,93.1713319,138.86450588183595Q93.0764692,138.94235588183594,92.9779005,139.01546088183593Q92.8793321,139.08856188183594,92.7772954,139.15674188183593Q92.6752586,139.22491988183594,92.5699995,139.28800988183593Q92.4647403,139.35110088183595,92.3565121,139.40895088183595Q92.2482839,139.46680088183592,92.1373477,139.51926788183593Q92.0264113,139.57173688183593,91.9130342,139.61869988183594Q91.7996571,139.66566088183595,91.6841121,139.70700488183593Q91.5685673,139.74834788183594,91.451133,139.78397388183595Q91.3336986,139.81959488183594,91.2146578,139.84941288183595Q91.0956169,139.87923088183595,90.97525638,139.90317388183593Q90.85489583,139.92711688183593,90.73350561,139.94512388183594Q90.61211526,139.96313088183592,90.48998767,139.97515888183594Q90.36786002,139.98718688183595,90.2452893,139.99320588183593Q90.12271856,139.99922988183593,90,139.99922988183593Q89.87728144,139.99922988183593,89.7547107,139.99320788183593Q89.63213998,139.98718688183595,89.51001233,139.97515888183594Q89.38788474,139.96313088183592,89.26649439,139.94512388183594Q89.14510417,139.92711688183593,89.02474362,139.90317388183593Q88.9043831,139.87923088183595,88.7853422,139.84941488183594Q88.6663014,139.81959488183594,88.548867,139.78397388183595Q88.4314327,139.74834788183594,88.3158878,139.70700488183593Q88.2003429,139.66566088183595,88.0869658,139.61869988183594Q87.9735887,139.57173688183593,87.8626523,139.51926788183593Q87.7517161,139.46680088183592,87.6434879,139.40895288183594Q87.53526,139.35110288183594,87.4300008,139.28801388183592Q87.3247416,139.22492188183594,87.2227049,139.15674388183595Q87.1206679,139.08856588183593,87.0220995,139.01546288183593Q86.9235308,138.94235988183593,86.8286681,138.86450788183595Q86.7338054,138.78665588183594,86.6428771,138.70424488183593Q86.5519485,138.62182988183594,86.4651735,138.53505488183595Q86.3783984,138.44827988183593,86.2959857,138.35735088183594Q86.213573,138.26642188183592,86.135721,138.17155988183595Q86.0578692,138.07669688183594,85.984766,137.97812888183594Q85.9116626,137.87955888183595,85.8434839,137.77752288183595Q85.7753053,137.67548588183593,85.7122154,137.57022488183594Q85.6491251,137.46496588183595,85.5912762,137.35673888183595Q85.5334272,137.24850988183593,85.480958,137.13757288183592Q85.4284892,137.02663788183594,85.3815269,136.91326188183592Q85.3345642,136.79988488183594,85.293222,136.68433988183594Q85.2518792,136.56879388183594,85.2162557,136.45136088183594Q85.1806326,136.33392688183594,85.1508141,136.21488388183593Q85.120996,136.09584388183595,85.0970545,135.97548388183594Q85.0731134,135.85512388183594,85.0551066,135.73373288183595Q85.0370998,135.61234388183593,85.0250716,135.49021588183592Q85.0130434,135.36808888183594,85.0070219,135.24551788183595Q85.0010004,135.12294788183593,85.0009999,135.00022888183594L85,135.00022888183594L85,120.00022888183594L85.0009999,120.00022888183594Z" fill-rule="evenodd" fill="#FFFFFF" fill-opacity="1" style="mix-blend-mode:passthrough"/></g><g><path d="M56.25,162.5L123.75,162.5Q124.115067,162.5,124.476273,162.446972Q124.837471,162.393942,125.187141,162.289009Q125.536812,162.184076,125.867531,162.029467Q126.198242,161.874855,126.502998,161.673847Q126.708046,161.538601,126.898849,161.383907Q127.089653,161.229214,127.264374,161.056561Q127.439102,160.883911,127.596054,160.694967Q127.753021,160.506023,127.890701,160.302603Q128.028389,160.099184,128.14547,159.883247Q128.26255,159.667313,128.35789499999998,159.44093900000001Q128.453247,159.214569,128.525955,158.979942Q128.598663,158.745314,128.64801799999998,158.504688Q128.69738,158.264065,128.722916,158.01976Q128.748444,157.775457,128.749908,157.529825Q128.751373,157.284197,128.72876,157.039606Q128.706139,156.795017,128.659653,156.55382Q128.61317400000001,156.312626,128.543274,156.077147Q128.47337299999998,155.841667,128.380722,155.614174Q128.28808600000002,155.386683,128.17359199999999,155.169365Q128.059097,154.952049,127.923843,154.747L113.08322100000001,132.2470002Q112.913055,131.9890122,112.712418,131.7539437Q112.511776,131.5188751,112.283714,131.3103054Q112.055653,131.1017351,111.803642,130.9228392Q111.551628,130.7439432,111.279503,130.5974441Q111.007378,130.4509449,110.719284,130.3390732Q110.43119,130.2272019,110.131508,130.1516609Q109.831829,130.0761204,109.525131,130.0380602Q109.21843,130,108.909374,130L70.087502,129.9999995Q69.768501,130,69.452087,130.0405397Q69.135674,130.081079,68.826978,130.1615005Q68.51828,130.2419224,68.222307,130.3609219Q67.926332,130.4799213,67.647882,130.6355696Q67.369431,130.7912178,67.113018,130.9809904Q66.856604,131.170763,66.626387,131.3915825Q66.396169,131.6124024,66.1958799,131.8606884Q65.9955912,132.1089745,65.8284798,132.3807006L51.9909773,154.880701Q51.6276183,155.471531,51.4388089,156.138956Q51.25,156.806381,51.25,157.5Q51.25,157.622744,51.2560225,157.745338Q51.2620449,157.867933,51.274076,157.990086Q51.2861071,158.112236,51.3041177,158.23365Q51.3221278,158.355066,51.3460736,158.475451Q51.3700199,158.595835,51.3998437,158.714897Q51.4296675,158.833963,51.4652982,158.951422Q51.5009289,159.068878,51.5422797,159.184446Q51.5836306,159.300013,51.6306024,159.413412Q51.6775742,159.526812,51.7300534,159.63777Q51.7825327,159.74873,51.8403935,159.856979Q51.8982544,159.965229,51.9613566,160.07050900000002Q52.0244594,160.175789,52.0926518,160.277845Q52.1608443,160.37990200000002,52.2339621,160.478491Q52.3070803,160.57708,52.3849473,160.671963Q52.4628148,160.766846,52.5452442,160.857792Q52.6276736,160.948738,52.7144661,161.03553Q52.8012586,161.122322,52.8922052,161.20475199999998Q52.9831519,161.287182,53.0780334,161.365047Q53.1729155,161.442913,53.2715037,161.516029Q53.3700919,161.589149,53.4721489,161.657341Q53.5742061,161.725534,53.6794863,161.788637Q53.7847667,161.851742,53.8930163,161.909603Q54.001266,161.967464,54.1122246,162.019941Q54.2231832,162.072422,54.3365829,162.119392Q54.4499828,162.166363,54.5655508,162.207716Q54.6811187,162.249065,54.7985766,162.284698Q54.9160345,162.320328,55.0350991,162.350151Q55.1541638,162.379976,55.27454841,162.403923Q55.39493304,162.42786999999998,55.51634765,162.445883Q55.63776219,162.463894,55.75991428,162.475925Q55.88206637,162.487955,56.00466162,162.493977Q56.12725689,162.5,56.25,162.5ZM114.462402,152.5L65.1948929,152.5L72.882395,140L106.21760900000001,140L114.462402,152.5Z" fill-rule="evenodd" fill="#FFFFFF" fill-opacity="1" style="mix-blend-mode:passthrough"/></g></g></svg>