<svg xmlns="http://www.w3.org/2000/svg" xmlns:xlink="http://www.w3.org/1999/xlink" fill="none" version="1.1" width="48" height="48" viewBox="0 0 48 48"><g><g><ellipse cx="24" cy="24" rx="24" ry="24" fill="#FFFFFF" fill-opacity="1"/><path d="M48,24Q48,24.589167,47.971088,25.177626Q47.942181,25.766083,47.884434,26.352413Q47.826683,26.938744,47.740234,27.52153Q47.653786,28.104321,47.538841,28.682167Q47.423901,29.260014,47.280746,29.831526Q47.137589,30.403034,46.966568,30.966833Q46.79554,31.530628,46.597054,32.085354Q46.398567,32.640079,46.173103,33.184399Q45.947639,33.728718,45.69574,34.261322Q45.44384,34.793922,45.166107,35.313522Q44.888374,35.833122,44.58548,36.338467Q44.282589,36.843811,43.955265,37.333683Q43.627941,37.823559,43.276978,38.29678Q42.92601,38.770004,42.55225,39.225437Q42.17849,39.680866,41.782829,40.117409Q41.387169,40.553955,40.970562,40.970558Q40.553959,41.387161,40.117416,41.782825Q39.680874,42.178486,39.225445,42.55225Q38.770012,42.92601,38.296787,43.276974Q37.823563,43.627941,37.333687,43.955265Q36.843811,44.282589,36.338467,44.585484Q35.833122,44.888374,35.313526,45.166107Q34.793922,45.44384,34.261322,45.69574Q33.728722,45.947639,33.184402,46.173103Q32.640083,46.398567,32.085358,46.597054Q31.53063,46.79554,30.966835,46.966568Q30.403036,47.137589,29.831524,47.280746Q29.260014,47.423901,28.682167,47.538841Q28.104321,47.653786,27.521532,47.740231Q26.938744,47.826683,26.352413,47.884434Q25.766083,47.942181,25.177624,47.971092Q24.589167,48,24,48Q23.410831,48,22.822372,47.971088Q22.233917,47.942181,21.647587,47.884434Q21.061256,47.826683,20.478466,47.740234Q19.895676,47.653786,19.317829,47.538841Q18.739983,47.423901,18.168472,47.280746Q17.596964,47.137589,17.033167,46.966568Q16.469368,46.79554,15.914642,46.597054Q15.359916,46.398567,14.815597,46.173103Q14.271278,45.947639,13.738677,45.69574Q13.206077,45.44384,12.686478,45.166107Q12.166879,44.888374,11.661533,44.58548Q11.156188,44.282589,10.666313,43.955265Q10.176439,43.627941,9.7032156,43.276978Q9.2299919,42.92601,8.7745609,42.55225Q8.319128,42.17849,7.8825846,41.782829Q7.4460411,41.387169,7.0294371,40.970562Q6.612833,40.553959,6.2171731,40.117416Q5.8215127,39.680874,5.4477491,39.225445Q5.0739851,38.770012,4.7230191,38.296787Q4.3720522,37.823563,4.0447288,37.333687Q3.7174053,36.843811,3.4145129,36.338467Q3.1116209,35.833122,2.8338895,35.313526Q2.5561581,34.793922,2.3042569,34.261322Q2.0523555,33.728722,1.8268911,33.184402Q1.6014266,32.640083,1.4029424,32.085358Q1.204458,31.53063,1.0334319,30.966835Q0.86240578,30.403036,0.71924984,29.831524Q0.57609397,29.260014,0.46115321,28.682167Q0.34621245,28.104321,0.25976375,27.521532Q0.173315,26.938744,0.11556655,26.352413Q0.057818096,25.766083,0.028909048,25.177624Q0,24.589167,0,24Q0,23.410831,0.028909048,22.822372Q0.057818096,22.233917,0.11556655,21.647587Q0.173315,21.061256,0.25976372,20.478466Q0.34621245,19.895676,0.46115321,19.317829Q0.57609397,18.739983,0.71924984,18.168472Q0.86240578,17.596964,1.0334319,17.033167Q1.204458,16.469368,1.4029423,15.914642Q1.6014266,15.359916,1.8268911,14.815597Q2.0523555,14.271278,2.3042569,13.738677Q2.5561583,13.206077,2.8338897,12.686478Q3.1116211,12.166879,3.4145136,11.661533Q3.7174058,11.156188,4.0447292,10.666313Q4.3720531,10.176439,4.7230191,9.7032156Q5.0739856,9.2299919,5.4477491,8.7745609Q5.8215127,8.319128,6.2171726,7.8825846Q6.612833,7.4460411,7.0294371,7.0294371Q7.4460411,6.612833,7.8825846,6.2171731Q8.319128,5.8215127,8.7745609,5.4477491Q9.2299919,5.0739851,9.7032156,4.7230191Q10.176439,4.3720522,10.666313,4.0447288Q11.156188,3.7174053,11.661533,3.4145129Q12.16688,3.1116209,12.68648,2.8338895Q13.206078,2.5561581,13.738678,2.3042569Q14.271278,2.0523555,14.815597,1.8268911Q15.359916,1.6014266,15.914642,1.4029424Q16.469368,1.204458,17.033167,1.0334319Q17.596964,0.86240578,18.168474,0.71924984Q18.739985,0.57609397,19.317831,0.46115321Q19.895676,0.34621245,20.478466,0.25976375Q21.061256,0.173315,21.647587,0.11556655Q22.233917,0.057818096,22.822372,0.028909048Q23.410831,0,24,0Q24.589167,0,25.177626,0.028909048Q25.766083,0.057818096,26.352413,0.11556655Q26.938744,0.173315,27.52153,0.25976372Q28.104321,0.34621245,28.682167,0.46115321Q29.260014,0.57609397,29.831526,0.71924984Q30.403034,0.86240578,30.966833,1.0334319Q31.530628,1.204458,32.085354,1.4029423Q32.640079,1.6014266,33.184399,1.8268911Q33.728718,2.0523555,34.261322,2.3042569Q34.793922,2.5561583,35.313522,2.8338897Q35.833122,3.1116211,36.338467,3.4145136Q36.843811,3.7174058,37.333683,4.0447292Q37.823559,4.3720531,38.29678,4.7230191Q38.770004,5.0739856,39.225437,5.4477491Q39.680866,5.8215127,40.117409,6.2171726Q40.553955,6.612833,40.970558,7.0294371Q41.387161,7.4460411,41.782825,7.8825846Q42.178486,8.319128,42.55225,8.7745609Q42.92601,9.2299919,43.276974,9.7032156Q43.627941,10.176439,43.955265,10.666313Q44.282589,11.156188,44.585484,11.661533Q44.888374,12.16688,45.166107,12.68648Q45.44384,13.206078,45.69574,13.738678Q45.947639,14.271278,46.173103,14.815597Q46.398567,15.359916,46.597054,15.914642Q46.79554,16.469368,46.966568,17.033167Q47.137589,17.596964,47.280746,18.168474Q47.423901,18.739985,47.538841,19.317831Q47.653786,19.895676,47.740231,20.478466Q47.826683,21.061256,47.884434,21.647587Q47.942181,22.233917,47.971092,22.822372Q48,23.410831,48,24ZM47,24Q47,23.435381,46.972298,22.871445Q46.944588,22.307505,46.889248,21.745605Q46.833908,21.183704,46.75106,20.625198Q46.668213,20.066692,46.55806,19.512922Q46.447906,18.959152,46.310715,18.411455Q46.173523,17.863758,46.009628,17.323452Q45.845726,16.783146,45.65551,16.251532Q45.465294,15.719919,45.249226,15.19828Q45.033157,14.676641,44.791748,14.166231Q44.550346,13.655823,44.284187,13.157875Q44.018028,12.659925,43.727753,12.175636Q43.437485,11.691347,43.123802,11.221884Q42.810116,10.75242,42.47377,10.298915Q42.137432,9.8454094,41.779243,9.4089546Q41.421051,8.9724979,41.041878,8.5541439Q40.662701,8.1357899,40.263454,7.7365441Q39.864208,7.3372989,39.445854,6.9581246Q39.0275,6.5789499,38.591045,6.2207599Q38.154587,5.8625698,37.70108,5.5262265Q37.247574,5.1898842,36.778114,4.8761988Q36.308651,4.5625134,35.824364,4.2722416Q35.340073,3.9819701,34.842125,3.7158113Q34.344177,3.4496517,33.833767,3.2082462Q33.323357,2.9668407,32.801716,2.7507706Q32.280079,2.5347006,31.748466,2.3444865Q31.216854,2.1542723,30.676548,1.9903723Q30.136242,1.8264723,29.588543,1.6892812Q29.040844,1.5520902,28.487074,1.4419386Q27.933304,1.3317871,27.3748,1.2489403Q26.816292,1.1660936,26.254395,1.1107514Q25.692493,1.0554091,25.128555,1.0277045Q24.564617,1,24,1Q23.435381,1,22.871445,1.0277045Q22.307505,1.0554091,21.745605,1.1107514Q21.183704,1.1660936,20.625198,1.2489402Q20.066692,1.3317869,19.512922,1.4419385Q18.959152,1.55209,18.411455,1.689281Q17.863758,1.8264722,17.323452,1.9903723Q16.783146,2.1542723,16.251532,2.3444865Q15.719919,2.5347006,15.19828,2.7507706Q14.676641,2.9668407,14.166231,3.2082462Q13.655823,3.4496517,13.157875,3.7158113Q12.659925,3.9819701,12.175636,4.2722416Q11.691347,4.5625134,11.221884,4.8761988Q10.75242,5.1898842,10.298915,5.526227Q9.8454094,5.8625698,9.4089546,6.2207599Q8.9724979,6.5789499,8.5541439,6.9581237Q8.1357899,7.3372984,7.7365441,7.7365437Q7.3372989,8.1357889,6.9581246,8.5541439Q6.5789499,8.9724979,6.2207599,9.4089546Q5.8625698,9.8454094,5.5262265,10.298915Q5.1898842,10.75242,4.8761988,11.221884Q4.5625134,11.691347,4.2722416,12.175636Q3.9819701,12.659925,3.7158113,13.157875Q3.4496517,13.655823,3.2082462,14.166232Q2.9668407,14.676641,2.7507706,15.19828Q2.5347006,15.719919,2.3444865,16.251534Q2.1542723,16.783146,1.9903722,17.323452Q1.826472,17.863758,1.689281,18.411455Q1.5520899,18.959152,1.4419384,19.512922Q1.3317869,20.066692,1.2489402,20.625198Q1.1660936,21.183706,1.1107513,21.745607Q1.055409,22.307507,1.0277045,22.871445Q1,23.435381,1,24Q1,24.564617,1.0277045,25.128555Q1.055409,25.692493,1.1107513,26.254395Q1.1660936,26.816294,1.2489402,27.3748Q1.3317869,27.933308,1.4419384,28.487076Q1.5520899,29.040844,1.689281,29.588543Q1.8264722,30.136242,1.9903723,30.676548Q2.1542723,31.216854,2.3444865,31.748466Q2.5347006,32.280079,2.7507706,32.801716Q2.9668407,33.323357,3.2082462,33.833763Q3.4496517,34.344177,3.7158113,34.842125Q3.9819701,35.340073,4.2722416,35.824364Q4.5625134,36.308651,4.8761988,36.778114Q5.1898842,37.247574,5.526227,37.70108Q5.8625698,38.154587,6.2207599,38.591045Q6.5789499,39.0275,6.9581237,39.445854Q7.3372984,39.864208,7.7365437,40.263454Q8.1357889,40.662701,8.5541439,41.041874Q8.9724979,41.421051,9.4089546,41.77924Q9.8454094,42.137428,10.298915,42.47377Q10.75242,42.810112,11.221884,43.123798Q11.691347,43.437485,12.175636,43.727753Q12.659925,44.018028,13.157875,44.284187Q13.655823,44.550346,14.166232,44.791748Q14.676641,45.033157,15.19828,45.249226Q15.719919,45.465294,16.251534,45.65551Q16.783146,45.845726,17.323452,46.009624Q17.863758,46.173523,18.411455,46.310715Q18.959152,46.447906,19.512922,46.55806Q20.066692,46.668213,20.625198,46.75106Q21.183706,46.833908,21.745607,46.889252Q22.307507,46.944592,22.871445,46.972294Q23.435381,47,24,47Q24.564617,47,25.128555,46.972298Q25.692493,46.944588,26.254395,46.889248Q26.816294,46.833908,27.3748,46.75106Q27.933308,46.668213,28.487076,46.55806Q29.040844,46.447906,29.588543,46.310715Q30.136242,46.173523,30.676548,46.009628Q31.216854,45.845726,31.748466,45.65551Q32.280079,45.465294,32.801716,45.249226Q33.323357,45.033157,33.833763,44.791748Q34.344177,44.550346,34.842125,44.284187Q35.340073,44.018028,35.824364,43.727753Q36.308651,43.437485,36.778114,43.123802Q37.247574,42.810116,37.70108,42.47377Q38.154587,42.137432,38.591045,41.779243Q39.0275,41.421051,39.445854,41.041878Q39.864208,40.662701,40.263454,40.263454Q40.662701,39.864208,41.041874,39.445854Q41.421051,39.0275,41.77924,38.591045Q42.137428,38.154587,42.47377,37.70108Q42.810112,37.247574,43.123798,36.778114Q43.437485,36.308651,43.727753,35.824364Q44.018028,35.340073,44.284187,34.842125Q44.550346,34.344177,44.791748,33.833767Q45.033157,33.323357,45.249226,32.801716Q45.465294,32.280079,45.65551,31.748466Q45.845726,31.216854,46.009624,30.676548Q46.173523,30.136242,46.310715,29.588543Q46.447906,29.040844,46.55806,28.487074Q46.668213,27.933304,46.75106,27.3748Q46.833908,26.816292,46.889252,26.254395Q46.944592,25.692493,46.972294,25.128555Q47,24.564617,47,24Z" fill="#009491" fill-opacity="1"/></g><g><ellipse cx="24" cy="24" rx="11" ry="11" fill="#009491" fill-opacity="1"/><path d="M35,24Q35,24.270035,34.98675,24.539743Q34.973499000000004,24.809454000000002,34.947033000000005,25.078188Q34.920563,25.346922,34.880941,25.614035Q34.841316,25.881145,34.788635,26.145992Q34.735954,26.410839,34.670343,26.672781Q34.604731,26.934722999999998,34.526344,27.19313Q34.447956000000005,27.451536,34.356983,27.705786Q34.26601,27.960034999999998,34.162672,28.209515Q34.059334,28.458994,33.94388,28.703102Q33.828426,28.947212,33.701133999999996,29.185362Q33.573839,29.423512,33.435013,29.655127Q33.296188,29.886742,33.146164,30.111269Q32.99614,30.335794,32.835280999999995,30.552689Q32.674419,30.769583,32.503113,30.978323Q32.331804000000005,31.187061,32.150459,31.387144Q31.969116,31.587227,31.778173,31.778172Q31.587231,31.969116,31.387146,32.150459Q31.187065,32.331804000000005,30.978325,32.503113Q30.769585,32.674419,30.552689,32.835279Q30.335796,32.99614,30.111271,33.146164Q29.886745,33.296188,29.655128,33.435013Q29.423512,33.573837,29.185364,33.701132Q28.947214000000002,33.828424,28.703104,33.943878Q28.458996,34.059334,28.209516,34.162672Q27.960036000000002,34.26601,27.705787,34.356983Q27.451537000000002,34.447956000000005,27.19313,34.526342Q26.934722999999998,34.604729,26.672781,34.670343Q26.410839,34.735954,26.145992,34.788635Q25.881145,34.841316,25.614035,34.880941Q25.346922,34.920563,25.078188,34.947033000000005Q24.809454000000002,34.973499000000004,24.539744,34.986751999999996Q24.270035,35,24,35Q23.729965,35,23.460255,34.98675Q23.190545,34.973499000000004,22.9218111,34.947033000000005Q22.6530762,34.920563,22.3859644,34.880941Q22.1188526,34.841316,21.8540058,34.788635Q21.58916,34.735954,21.3272181,34.670343Q21.065275200000002,34.604731,20.8068686,34.526344Q20.548461,34.447956000000005,20.2942109,34.356983Q20.0399613,34.26601,19.7904816,34.162672Q19.5410018,34.059334,19.2968936,33.94388Q19.0527849,33.828426,18.814635799999998,33.701133999999996Q18.5764861,33.573839,18.3448696,33.435013Q18.1132526,33.296188,17.888727199999998,33.146164Q17.664201300000002,32.99614,17.4473071,32.835280999999995Q17.2304134,32.674419,17.0216737,32.503113Q16.8129337,32.331804000000005,16.6128511,32.150459Q16.4127684,31.969116,16.2218251,31.778173Q16.0308816,31.587231,15.849537399999999,31.387146Q15.6681931,31.187065,15.4968848,30.978325Q15.3255763,30.769585,15.1647167,30.552689Q15.0038571,30.335796,14.8538339,30.111271Q14.7038107,29.886745,14.564985,29.655128Q14.4261594,29.423512,14.2988659,29.185364Q14.1715723,28.947214000000002,14.0561175,28.703104Q13.94066274,28.458996,13.83732498,28.209516Q13.73398709,27.960036000000002,13.64301515,27.705787Q13.5520432,27.451537000000002,13.47365624,27.19313Q13.39526927,26.934722999999998,13.32965615,26.672781Q13.26404303,26.410839,13.21136187,26.145992Q13.15868069,25.881145,13.11905836,25.614035Q13.079436034,25.346922,13.052967999,25.078188Q13.026499959,24.809454000000002,13.013249979,24.539744Q13,24.270035,13,24Q13,23.729965,13.013249979,23.460255Q13.026499959,23.190545,13.052967999,22.9218111Q13.079436034,22.6530762,13.11905836,22.3859644Q13.15868069,22.1188526,13.21136187,21.8540058Q13.26404303,21.58916,13.32965615,21.3272181Q13.39526927,21.065275200000002,13.47365624,20.8068686Q13.5520432,20.548461,13.64301515,20.2942109Q13.73398709,20.0399613,13.83732498,19.7904816Q13.94066274,19.5410018,14.0561175,19.2968936Q14.1715723,19.0527849,14.2988659,18.814635799999998Q14.4261594,18.5764861,14.564985,18.3448696Q14.7038107,18.1132526,14.8538339,17.888727199999998Q15.0038571,17.664201300000002,15.1647167,17.4473071Q15.3255763,17.2304134,15.4968848,17.0216737Q15.6681931,16.8129337,15.849537399999999,16.6128511Q16.0308816,16.4127684,16.2218251,16.2218251Q16.4127684,16.0308816,16.6128511,15.849537399999999Q16.8129337,15.6681931,17.0216737,15.4968848Q17.2304134,15.3255763,17.447307600000002,15.1647167Q17.664201300000002,15.0038571,17.888727199999998,14.8538339Q18.1132526,14.7038107,18.3448696,14.564985Q18.576485599999998,14.4261594,18.8146353,14.2988659Q19.0527849,14.1715723,19.2968931,14.0561175Q19.5410018,13.94066274,19.7904816,13.83732498Q20.0399613,13.73398709,20.294211400000002,13.64301515Q20.548461,13.5520432,20.8068686,13.47365624Q21.065275200000002,13.39526927,21.3272181,13.32965615Q21.58916,13.26404303,21.8540058,13.21136187Q22.1188526,13.15868069,22.3859644,13.11905836Q22.6530762,13.079436034,22.9218121,13.052967999Q23.190545999999998,13.026499959,23.460256,13.013249979Q23.729965,13,24,13Q24.270035,13,24.539743,13.013249979Q24.809454000000002,13.026499959,25.078188,13.052967999Q25.346922,13.079436034,25.614035,13.11905836Q25.881145,13.15868069,26.145992,13.21136187Q26.410839,13.26404303,26.672781,13.32965615Q26.934722999999998,13.39526927,27.19313,13.47365624Q27.451536,13.5520432,27.705786,13.64301515Q27.960034999999998,13.73398709,28.209515,13.83732498Q28.458994,13.94066274,28.703102,14.0561175Q28.947212,14.1715723,29.185362,14.2988659Q29.423512,14.4261594,29.655127,14.564985Q29.886742,14.7038107,30.111269,14.8538339Q30.335794,15.0038571,30.552689,15.1647167Q30.769583,15.3255763,30.978323,15.4968848Q31.187061,15.6681931,31.387144,15.849537399999999Q31.587227,16.0308816,31.778172,16.2218251Q31.969116,16.4127684,32.150459,16.6128511Q32.331804000000005,16.8129337,32.503113,17.0216737Q32.674419,17.2304134,32.835279,17.447307600000002Q32.99614,17.664201300000002,33.146164,17.888727199999998Q33.296188,18.1132526,33.435013,18.3448696Q33.573837,18.576485599999998,33.701132,18.8146353Q33.828424,19.0527849,33.943878,19.2968931Q34.059334,19.5410018,34.162672,19.7904816Q34.26601,20.0399613,34.356983,20.294211400000002Q34.447956000000005,20.548461,34.526342,20.8068686Q34.604729,21.065275200000002,34.670343,21.3272181Q34.735954,21.58916,34.788635,21.8540058Q34.841316,22.1188526,34.880941,22.3859644Q34.920563,22.6530762,34.947033000000005,22.9218121Q34.973499000000004,23.190545999999998,34.986751999999996,23.460256Q35,23.729965,35,24ZM34,24Q34,23.754514,33.987953000000005,23.509323000000002Q33.975908000000004,23.264132,33.951847,23.019829Q33.927784,22.7755241,33.891763999999995,22.5326948Q33.855743000000004,22.289865499999998,33.807852,22.0490961Q33.75996,21.808326700000002,33.700314,21.5701981Q33.640667,21.3320694,33.569405,21.0971537Q33.498142,20.8622375,33.415442,20.631101100000002Q33.332737,20.399965299999998,33.238794,20.1731653Q33.144852,19.9463654,33.039894000000004,19.7244492Q32.934937000000005,19.502532000000002,32.819214,19.2860327Q32.703491,19.0695329,32.577286,18.8589725Q32.451077999999995,18.648411799999998,32.314693,18.4442973Q32.178307000000004,18.2401829,32.032072,18.0430064Q31.885838,17.84583,31.730103,17.6560669Q31.574368,17.4663033,31.409508,17.28441Q31.24465,17.1025167,31.071066,16.928932Q30.89748,16.755347,30.715588,16.5904887Q30.533695,16.4256301,30.343933,16.2698953Q30.154169,16.1141605,29.956993,15.9679246Q29.759815,15.8216884,29.5557,15.6853037Q29.351585,15.5489187,29.141026,15.4227138Q28.930466,15.2965088,28.713966,15.1807873Q28.497467,15.0650659,28.275548999999998,14.960107Q28.053632999999998,14.855148100000001,27.826832,14.7612045Q27.600033,14.667261,27.368897,14.5845592Q27.137762000000002,14.5018575,26.902846,14.4305966Q26.667931,14.359335699999999,26.429800999999998,14.2996874Q26.191671,14.2400391,25.950902,14.1921471Q25.710133,14.1442552,25.467304,14.1082349Q25.224474999999998,14.0722146,24.980171,14.0481527Q24.735867,14.0240908,24.490676999999998,14.0120454Q24.245485000000002,14,24,14Q23.754514,14,23.509323000000002,14.0120454Q23.264132,14.024090900000001,23.019829,14.0481528Q22.7755241,14.0722146,22.5326948,14.1082349Q22.289865499999998,14.1442552,22.0490961,14.1921471Q21.808326700000002,14.2400391,21.5701981,14.2996874Q21.3320694,14.359335699999999,21.0971537,14.4305966Q20.8622375,14.5018575,20.631101100000002,14.5845592Q20.399965299999998,14.667261,20.1731653,14.7612045Q19.9463654,14.855148100000001,19.7244492,14.9601068Q19.502532000000002,15.0650659,19.2860327,15.1807873Q19.0695329,15.2965088,18.8589725,15.4227138Q18.648411799999998,15.5489187,18.4442973,15.6853037Q18.2401829,15.8216884,18.0430064,15.9679244Q17.84583,16.1141605,17.6560669,16.2698953Q17.4663033,16.4256301,17.28441,16.590488399999998Q17.1025167,16.755346799999998,16.928932,16.9289317Q16.755347,17.1025167,16.5904887,17.28441Q16.4256301,17.4663033,16.2698953,17.6560669Q16.1141605,17.84583,15.9679246,18.0430059Q15.8216884,18.240182400000002,15.6853037,18.4442968Q15.5489187,18.6484108,15.4227138,18.8589716Q15.2965088,19.0695324,15.1807873,19.2860322Q15.0650659,19.5025315,14.960107,19.7244482Q14.855148100000001,19.9463654,14.7612045,20.173164800000002Q14.667261,20.3999643,14.5845592,20.6311007Q14.5018575,20.862237,14.4305966,21.097152700000002Q14.359335699999999,21.3320684,14.2996874,21.5701981Q14.2400391,21.808326700000002,14.192147,22.0490961Q14.144255,22.289865499999998,14.1082348,22.5326948Q14.0722145,22.7755241,14.0481527,23.019829Q14.0240908,23.264132,14.0120454,23.509323000000002Q14,23.754514,14,24Q14,24.245485000000002,14.0120454,24.490676999999998Q14.0240908,24.735867,14.0481527,24.980171Q14.0722145,25.224474999999998,14.1082348,25.467303Q14.144255,25.710133,14.192147,25.950902Q14.240039,26.191671,14.2996873,26.4298Q14.359335699999999,26.667931,14.4305965,26.902846Q14.5018573,27.137762000000002,14.5845591,27.368897Q14.6672609,27.600033,14.7612044,27.826832Q14.8551478,28.053632999999998,14.9601068,28.275548999999998Q15.0650656,28.497467,15.1807871,28.713966Q15.2965083,28.930466,15.4227135,29.141026Q15.5489187,29.351585,15.6853034,29.5557Q15.8216882,29.759815,15.9679241,29.956993Q16.1141603,30.154169,16.2698953,30.343933Q16.4256301,30.533695,16.590488399999998,30.715588Q16.755346799999998,30.89748,16.9289317,31.071066Q17.1025167,31.24465,17.28441,31.409508Q17.4663033,31.574368,17.6560669,31.730103Q17.84583,31.885838,18.0430059,32.032072Q18.240182400000002,32.178307000000004,18.4442968,32.314693Q18.6484108,32.451077999999995,18.8589716,32.577284Q19.0695324,32.703491,19.2860322,32.819212Q19.5025315,32.934934999999996,19.7244482,33.039894000000004Q19.9463654,33.144852,20.173164800000002,33.238794Q20.3999643,33.332737,20.6311007,33.415442Q20.862237,33.498142,21.097152700000002,33.569405Q21.3320684,33.640667,21.5701981,33.700314Q21.808326700000002,33.759962,22.0490961,33.807854Q22.289865499999998,33.855745,22.5326948,33.891766000000004Q22.7755241,33.927786,23.019829,33.951848999999996Q23.264132,33.97591,23.509323000000002,33.987955Q23.754514,34,24,34Q24.245485000000002,34,24.490676999999998,33.987953000000005Q24.735867,33.975908000000004,24.980171,33.951847Q25.224474999999998,33.927784,25.467303,33.891763999999995Q25.710133,33.855743000000004,25.950902,33.807852Q26.191671,33.75996,26.4298,33.700314Q26.667931,33.640667,26.902846,33.569405Q27.137762000000002,33.498142,27.368897,33.415442Q27.600033,33.332737,27.826832,33.238794Q28.053632999999998,33.144852,28.275548999999998,33.039894000000004Q28.497467,32.934937000000005,28.713966,32.819214Q28.930466,32.703491,29.141026,32.577286Q29.351585,32.451077999999995,29.5557,32.314693Q29.759815,32.178307000000004,29.956993,32.032072Q30.154169,31.885838,30.343933,31.730103Q30.533695,31.574368,30.715588,31.409508Q30.89748,31.24465,31.071066,31.071066Q31.24465,30.89748,31.409508,30.715588Q31.574368,30.533695,31.730103,30.343933Q31.885838,30.154169,32.032072,29.956993Q32.178307000000004,29.759815,32.314693,29.5557Q32.451077999999995,29.351585,32.577284,29.141026Q32.703491,28.930466,32.819212,28.713966Q32.934934999999996,28.497467,33.039894000000004,28.275548999999998Q33.144852,28.053632999999998,33.238794,27.826832Q33.332737,27.600033,33.415442,27.368897Q33.498142,27.137762000000002,33.569405,26.902846Q33.640667,26.667931,33.700314,26.429800999999998Q33.759962,26.191671,33.807854,25.950902Q33.855745,25.710133,33.891766000000004,25.467304Q33.927786,25.224474999999998,33.951848999999996,24.980171Q33.97591,24.735867,33.987955,24.490676999999998Q34,24.245485000000002,34,24Z" fill="#009491" fill-opacity="1"/></g></g></svg>